<svg xmlns="http://www.w3.org/2000/svg" viewBox="0 0 3347.62 400.32"><defs><style>.g{fill:#f66271;stroke:#1b1950;stroke-width:1.6px}</style><filter id="d" filterUnits="userSpaceOnUse"><feOffset dx="-7" dy="8"/><feGaussianBlur result="e"/><feFlood flood-color="#081742" flood-opacity="1"/><feComposite in2="e" operator="in"/><feComposite in="SourceGraphic"/></filter></defs><g id="b"><g filter="url(#d)" id="c"><path class="g" d="M203.1 237.28l-20.8-90.88-20.8 90.88c-4.16 18.88-21.12 33.28-41.6 33.28s-35.84-13.12-40.96-30.72L37.34 93.91c-.96-3.2-1.28-6.08-1.28-9.28 0-18.88 15.04-33.92 33.92-33.92 16.32 0 30.08 11.52 33.28 26.88l22.4 106.88 27.52-111.04c3.2-13.12 15.04-22.72 29.12-22.72s25.92 9.6 29.12 22.72l27.52 111.04 22.08-106.56c3.2-15.68 16.96-27.2 33.6-27.2 18.88 0 33.92 15.36 33.92 33.92 0 3.2-.32 6.4-1.28 9.6l-41.6 145.6c-5.12 17.6-21.44 30.72-40.96 30.72-20.48 0-37.44-14.4-41.6-33.28zM455.9 241.76v-60.48c0-16-8.64-21.44-22.4-21.44s-19.84 6.72-24.64 12.16v69.76c0 15.68-12.8 28.8-28.8 28.8s-28.8-13.12-28.8-28.8V79.51c0-15.68 12.8-28.8 28.8-28.8s28.8 13.12 28.8 28.8v50.88c8.96-10.24 25.92-21.44 53.12-21.44 35.84 0 51.52 21.12 51.52 48v84.8c0 15.68-12.8 28.8-28.8 28.8s-28.8-13.12-28.8-28.8zM692.37 173.92v65.92c0 16.96-11.84 30.72-28.8 30.72-12.48 0-23.68-7.36-28.48-18.56-8.32 11.2-27.52 19.2-47.04 19.2-23.04 0-53.12-15.68-53.12-50.88 0-38.4 30.08-47.68 53.12-47.68 20.16 0 38.4 6.4 46.72 16.96V172c0-10.88-9.92-19.2-28.8-19.2-9.28 0-19.2 2.24-29.44 7.04-2.56 1.28-5.44 1.92-8.32 1.92-11.52 0-20.8-9.28-20.8-20.8 0-8 4.8-15.36 11.52-18.56 19.2-9.6 40-13.44 57.6-13.44 38.4 0 75.84 13.44 75.84 64.96zm-57.6 51.52v-8.64c-3.84-5.44-13.76-8.32-22.72-8.32-9.6 0-20.16 3.2-20.16 12.8s10.56 12.48 20.16 12.48c8.96 0 18.88-2.88 22.72-8.32zM827.73 245.6c0 11.84-8.64 21.12-19.52 23.68-5.44 1.28-11.84 1.92-18.88 1.92-34.24 0-53.12-16.32-53.12-48.64v-59.84h-3.84c-13.76 0-24.96-11.2-24.96-24.96s11.2-24.96 24.96-24.96h3.84V96.16c0-15.68 12.8-28.8 28.8-28.8s28.8 13.12 28.8 28.8v16.64h9.6c13.76 0 24.96 11.2 24.96 24.96s-11.2 24.96-24.96 24.96h-9.6v43.2c0 7.68 4.48 13.76 11.52 14.4l2.88.32c11.84 1.28 19.52 12.48 19.52 24.96zM1001.8 108.95c45.44 0 80.32 32.64 80.32 70.72 0 21.76-12.16 28.16-34.24 28.16h-70.72c3.2 9.92 14.4 19.52 33.92 19.52 7.68 0 15.36-1.6 22.72-4.48 2.24-.96 5.12-1.6 8-1.6 11.84 0 21.76 9.6 21.76 21.76 0 8.96-6.08 16.96-14.08 20.16-14.72 5.44-31.04 8-45.76 8-48.32 0-86.08-30.4-86.08-81.28 0-44.8 34.24-80.96 84.16-80.96zm-25.28 62.4h50.88c-1.6-6.72-7.04-18.56-25.6-18.56-17.6 0-23.36 11.52-25.28 18.56zM1101.96 241.76V79.51c0-15.68 12.8-28.8 28.8-28.8s28.8 13.12 28.8 28.8v162.25c0 15.68-12.8 28.8-28.8 28.8s-28.8-13.12-28.8-28.8zM1183.88 237.92c0-12.48 10.24-22.72 22.72-22.72 3.52 0 6.72.96 9.6 2.24 13.76 6.4 29.44 10.88 40.96 10.88s15.36-3.2 15.36-7.36c0-5.12-7.04-7.04-21.76-8.96-25.92-3.52-65.92-8.32-65.92-50.24 0-27.84 24.32-52.8 69.12-52.8 17.6 0 34.24 3.84 49.28 10.56 7.36 3.2 12.8 10.56 12.8 19.2 0 11.52-9.6 21.12-21.12 21.12-3.2 0-6.4-.64-8.96-1.92-9.6-4.8-20.8-7.68-31.68-7.68-8.32 0-14.4 2.24-14.4 6.72s4.48 6.4 19.84 8.64c25.92 3.84 67.84 9.28 67.84 52.48 0 30.72-27.52 53.12-73.28 53.12-19.52 0-40-4.48-56.96-12.48-7.68-3.52-13.44-11.52-13.44-20.8zM1421.96 108.95c45.44 0 80.32 32.64 80.32 70.72 0 21.76-12.16 28.16-34.24 28.16h-70.72c3.2 9.92 14.4 19.52 33.92 19.52 7.68 0 15.36-1.6 22.72-4.48 2.24-.96 5.12-1.6 8-1.6 11.84 0 21.76 9.6 21.76 21.76 0 8.96-6.08 16.96-14.08 20.16-14.72 5.44-31.04 8-45.76 8-48.32 0-86.08-30.4-86.08-81.28 0-44.8 34.24-80.96 84.16-80.96zm-25.28 62.4h50.88c-1.6-6.72-7.04-18.56-25.6-18.56-17.6 0-23.36 11.52-25.28 18.56zM1679.87 108.95c17.28 0 31.36 3.84 42.24 9.6 8.32 4.48 14.08 12.8 14.08 22.72 0 14.08-11.52 25.6-25.6 25.6-4.8 0-8.64-.96-12.48-3.2-4.48-2.56-9.92-3.84-15.68-3.84-16.32 0-30.4 10.24-30.4 30.08s14.08 30.4 30.4 30.4c5.76 0 10.88-1.28 15.36-3.84 3.52-1.92 8-3.52 12.48-3.52 14.08 0 25.6 11.52 25.6 25.92 0 9.92-5.44 18.24-13.76 22.72-10.88 5.76-24.96 9.6-42.24 9.6-48.96 0-86.72-32-86.72-81.28s37.76-80.96 86.72-80.96zM1904.83 173.92v65.92c0 16.96-11.84 30.72-28.8 30.72-12.48 0-23.68-7.36-28.48-18.56-8.32 11.2-27.52 19.2-47.04 19.2-23.04 0-53.12-15.68-53.12-50.88 0-38.4 30.08-47.68 53.12-47.68 20.16 0 38.4 6.4 46.72 16.96V172c0-10.88-9.92-19.2-28.8-19.2-9.28 0-19.2 2.24-29.44 7.04-2.56 1.28-5.44 1.92-8.32 1.92-11.52 0-20.8-9.28-20.8-20.8 0-8 4.8-15.36 11.52-18.56 19.2-9.6 40-13.44 57.6-13.44 38.4 0 75.84 13.44 75.84 64.96zm-57.6 51.52v-8.64c-3.84-5.44-13.76-8.32-22.72-8.32-9.6 0-20.16 3.2-20.16 12.8s10.56 12.48 20.16 12.48c8.96 0 18.88-2.88 22.72-8.32zM2099.07 157.6v84.16c0 15.68-12.8 28.8-28.8 28.8s-28.8-13.12-28.8-28.8v-59.84c0-16-8.64-22.08-22.4-22.08s-19.84 6.72-24.64 12.16v69.76c0 15.68-12.8 28.8-28.8 28.8s-28.8-13.12-28.8-28.8V138.4c0-16.64 12.16-30.08 28.8-30.08 14.08 0 25.6 9.28 28.8 22.08 8.96-10.24 25.92-21.44 53.12-21.44 35.84 0 51.52 21.76 51.52 48.64zM2226.74 279.52l2.56-.32c10.56-.96 16.96-2.24 18.88-6.08l1.28-3.2-48.32-121.28c-1.28-3.2-2.56-7.36-2.56-10.88 0-15.36 12.16-28.16 28.16-28.16 11.2 0 22.08 5.76 25.92 17.6l26.56 78.4 25.92-78.4c3.84-11.52 14.72-17.6 25.92-17.6 16.64 0 28.48 12.8 28.48 28.16 0 3.52-1.28 7.68-2.56 10.88l-54.72 137.92c-13.76 34.56-42.24 43.52-63.36 43.52h-3.52c-18.56 0-29.12-12.8-29.12-26.88 0-13.12 9.6-22.4 20.48-23.68zM2370.1 189.92c0-43.2 32-80.96 86.72-80.96s87.04 37.76 87.04 80.96-32 81.28-87.04 81.28-86.72-38.08-86.72-81.28zm114.56 0c0-16.96-9.92-30.08-27.84-30.08s-27.52 13.12-27.52 30.08 9.92 30.4 27.52 30.4 27.84-13.12 27.84-30.4zM2727.22 138.4v103.36c0 16.64-12.16 30.08-28.8 30.08-13.76 0-25.28-8.96-28.8-21.76-8.96 9.92-25.92 21.12-53.12 21.12-35.84 0-51.2-21.44-51.2-48v-84.8c0-15.68 12.8-28.8 28.8-28.8s28.8 13.12 28.8 28.8v60.16c0 15.68 8.32 21.76 22.4 21.76 12.8 0 19.52-6.72 24.32-12.16V138.4c0-15.68 12.8-28.8 28.8-28.8s28.8 13.12 28.8 28.8zM2999.54 79.51v162.25c0 16.64-12.16 30.4-28.8 30.4-13.12 0-24.64-8.96-28.8-21.12-13.12 14.72-27.84 20.16-43.52 20.16-37.44 0-68.16-28.16-68.16-81.28s30.08-80.96 68.16-80.96c15.68 0 31.36 5.44 43.52 20.16v-49.6c0-15.68 12.8-28.8 28.8-28.8s28.8 13.12 28.8 28.8zm-57.6 130.24v-39.68c-5.44-6.72-16.32-10.24-24-10.24-15.68 0-28.8 10.88-28.8 30.08s13.12 30.4 28.8 30.4c7.68 0 18.56-3.84 24-10.56zM3020.97 189.92c0-43.2 32-80.96 86.72-80.96s87.04 37.76 87.04 80.96-32 81.28-87.04 81.28-86.72-38.08-86.72-81.28zm114.56 0c0-16.96-9.92-30.08-27.84-30.08s-27.52 13.12-27.52 30.08 9.92 30.4 27.52 30.4 27.84-13.12 27.84-30.4zM3247.21 124.64c5.76-3.84 9.92-6.72 9.92-10.24 0-3.84-2.56-6.72-12.48-6.72-4.16 0-8.96 1.28-14.08 3.84-3.52 1.92-7.68 2.56-12.16 2.56-15.04 0-27.52-12.48-27.52-27.84 0-10.88 6.4-20.16 15.36-24.64 14.72-7.36 30.72-10.88 45.76-10.88 43.2 0 70.4 19.84 70.4 51.52 0 26.56-15.68 38.72-28.8 48.64-8.32 6.4-15.68 11.84-16.64 20.16v1.28c0 .64-.32 1.6-.32 2.24-3.2 11.52-15.36 20.48-28.16 20.48-14.4 0-26.24-10.88-27.2-25.28v-4.48c0-22.72 15.36-33.28 25.92-40.64zm6.72 78.08c18.56 0 34.24 15.68 34.24 34.24s-15.68 34.24-34.24 34.24-34.24-15.68-34.24-34.24 15.68-34.24 34.24-34.24z"/></g></g></svg>