<svg xmlns="http://www.w3.org/2000/svg" viewBox="0 0 3317.21 784.32"><defs><style>.cls-2{fill:#529ab9;stroke:#1b1950;stroke-width:1.6px}</style><filter id="filter"><feOffset dx="-7" dy="8"/><feGaussianBlur result="blur"/><feFlood flood-color="#852798"/><feComposite operator="in" in2="blur"/><feComposite in="SourceGraphic"/></filter></defs><g id="Layer_2" data-name="Layer 2"><g filter="url(#filter)" id="Layer_1-2" data-name="Layer 1"><path class="cls-2" d="M204.79 237.28L184 146.4l-20.8 90.88a42.65 42.65 0 0 1-82.56 2.56L39 93.92a31 31 0 0 1-1.28-9.29 34 34 0 0 1 67.2-7l22.4 106.89 27.52-111a30 30 0 0 1 58.24 0l27.52 111 22.11-106.61a34.11 34.11 0 0 1 67.52 6.72 33 33 0 0 1-1.28 9.6l-41.6 145.61a42.65 42.65 0 0 1-82.56-2.56zM457.59 241.76v-60.48c0-16-8.64-21.44-22.4-21.44-13.12 0-19.84 6.72-24.64 12.16v69.76a28.8 28.8 0 0 1-57.6 0V79.51a28.8 28.8 0 0 1 57.6 0v50.89c9-10.24 25.92-21.44 53.12-21.44 35.84 0 51.52 21.12 51.52 48v84.8a28.8 28.8 0 0 1-57.6 0zM694.06 173.92v65.92c0 17-11.84 30.72-28.8 30.72A30.92 30.92 0 0 1 636.78 252c-8.32 11.2-27.52 19.2-47 19.2-23 0-53.12-15.68-53.12-50.88 0-38.4 30.08-47.68 53.12-47.68 20.16 0 38.4 6.4 46.72 17V172c0-10.88-9.92-19.2-28.8-19.2-9.28 0-19.2 2.24-29.44 7a18.67 18.67 0 0 1-8.32 1.92 20.77 20.77 0 0 1-9.28-39.36A131 131 0 0 1 618.22 109c38.4 0 75.84 13.4 75.84 64.92zm-57.6 51.52v-8.64c-3.84-5.44-13.76-8.32-22.72-8.32-9.6 0-20.16 3.2-20.16 12.8s10.56 12.48 20.16 12.48c8.96 0 18.88-2.88 22.72-8.32zM829.42 245.6c0 11.84-8.64 21.12-19.52 23.68a83.63 83.63 0 0 1-18.9 1.92c-34.24 0-53.12-16.32-53.12-48.64v-59.84h-3.84a25 25 0 0 1 0-49.93h3.84V96.15a28.8 28.8 0 1 1 57.6 0v16.64h9.6a25 25 0 0 1 0 49.93h-9.6v43.2c0 7.68 4.48 13.76 11.52 14.4l2.88.32c11.86 1.28 19.54 12.48 19.54 24.96zM1088.61 79.51v162.25c0 16.64-12.16 30.4-28.8 30.4-13.12 0-24.64-9-28.8-21.12-13.12 14.72-27.84 20.16-43.52 20.16-37.44 0-68.16-28.16-68.16-81.28 0-51.2 30.08-81 68.16-81 15.68 0 31.36 5.44 43.52 20.16V79.51a28.8 28.8 0 0 1 57.6 0zM1031 209.76v-39.68c-5.44-6.72-16.32-10.24-24-10.24-15.68 0-28.8 10.88-28.8 30.08s13.12 30.4 28.8 30.4c7.69 0 18.57-3.84 24-10.56zM1110.05 189.92c0-43.2 32-81 86.72-81 55 0 87 37.76 87 81s-32 81.28-87 81.28c-54.72 0-86.72-38.08-86.72-81.28zm114.56 0c0-17-9.92-30.08-27.84-30.08-17.6 0-27.52 13.12-27.52 30.08 0 17.28 9.92 30.4 27.52 30.4 17.92 0 27.84-13.12 27.84-30.4zM1378.85 109c45.44 0 80.32 32.64 80.32 70.72 0 21.76-12.16 28.16-34.24 28.16h-70.72c3.2 9.92 14.4 19.52 33.92 19.52a62.44 62.44 0 0 0 22.72-4.48 21 21 0 0 1 8-1.6 21.78 21.78 0 0 1 21.76 21.68c0 9-6.08 17-14.08 20.16a135.21 135.21 0 0 1-45.76 8c-48.32 0-86.08-30.4-86.08-81.28 0-44.76 34.24-80.88 84.16-80.88zm-25.28 62.4h50.88c-1.6-6.72-7-18.56-25.6-18.56-17.6-.04-23.36 11.48-25.28 18.52zM1471.33 237.92a22.81 22.81 0 0 1 22.72-22.72 23.52 23.52 0 0 1 9.6 2.24c13.76 6.4 29.44 10.88 41 10.88 11.84 0 15.36-3.2 15.36-7.36 0-5.12-7-7-21.76-9-25.92-3.52-65.92-8.32-65.92-50.24 0-27.84 24.32-52.8 69.12-52.8a120.27 120.27 0 0 1 49.28 10.56 21 21 0 0 1-8.32 40.32 20.44 20.44 0 0 1-9-1.92 72.25 72.25 0 0 0-31.68-7.68c-8.32 0-14.4 2.24-14.4 6.72s4.48 6.4 19.84 8.64c25.92 3.84 67.84 9.28 67.84 52.48 0 30.72-27.52 53.12-73.28 53.12a137.09 137.09 0 0 1-57-12.48 23.13 23.13 0 0 1-13.4-20.76zM1820.76 245.6c0 11.84-8.64 21.12-19.52 23.68a83.63 83.63 0 0 1-18.88 1.92c-34.24 0-53.12-16.32-53.12-48.64v-59.84h-3.84a25 25 0 0 1 0-49.93h3.84V96.15a28.8 28.8 0 1 1 57.6 0v16.64h9.6a25 25 0 0 1 0 49.93h-9.6v43.2c0 7.68 4.48 13.76 11.52 14.4l2.88.32c11.84 1.28 19.52 12.48 19.52 24.96zM1944.6 241.76v-60.48c0-16-8.64-21.44-22.4-21.44-13.12 0-19.84 6.72-24.64 12.16v69.76a28.8 28.8 0 1 1-57.6 0V79.51a28.8 28.8 0 1 1 57.6 0v50.89c9-10.24 25.92-21.44 53.12-21.44 35.84 0 51.52 21.12 51.52 48v84.8a28.8 28.8 0 1 1-57.6 0zM2181.08 173.92v65.92c0 17-11.84 30.72-28.8 30.72A30.92 30.92 0 0 1 2123.8 252c-8.33 11.2-27.53 19.2-47.05 19.2-23 0-53.12-15.68-53.12-50.88 0-38.4 30.08-47.68 53.12-47.68 20.16 0 38.4 6.4 46.72 17V172c0-10.88-9.91-19.2-28.8-19.2-9.28 0-19.2 2.24-29.44 7a18.67 18.67 0 0 1-8.32 1.92 20.77 20.77 0 0 1-9.28-39.36 131 131 0 0 1 57.6-13.44c38.41.08 75.85 13.48 75.85 65zm-57.61 51.52v-8.64c-3.83-5.44-13.75-8.32-22.72-8.32-9.6 0-20.16 3.2-20.16 12.8s10.56 12.48 20.16 12.48c8.97 0 18.89-2.88 22.72-8.32zM2316.43 245.6c0 11.84-8.64 21.12-19.52 23.68a83.63 83.63 0 0 1-18.91 1.92c-34.24 0-53.12-16.32-53.12-48.64v-59.84h-3.84a25 25 0 0 1 0-49.93h3.84V96.15a28.8 28.8 0 0 1 57.6 0v16.64h9.6a25 25 0 0 1 0 49.93h-9.6v43.2c0 7.68 4.48 13.76 11.52 14.4l2.88.32c11.87 1.28 19.55 12.48 19.55 24.96zM2672 155.36v86.4a28.8 28.8 0 1 1-57.6 0v-64.64c0-9.28-4.8-17.28-17.6-17.28s-19.84 7.68-23.68 12.16v69.76a28.8 28.8 0 0 1-57.6 0v-64.64c0-9.28-4.49-17.28-17.61-17.28-12.47 0-19.52 7.68-23.36 12.16v69.76a28.8 28.8 0 0 1-57.6 0V138.4c0-16.65 12.16-30.08 28.8-30.08a29.85 29.85 0 0 1 28.8 22.08c6.72-8.65 26.24-21.44 51.21-21.44 21.76 0 37.44 8 44.48 27.2 9-13.45 29.12-27.2 54.08-27.2 28.43.04 47.68 14.4 47.68 46.4zM2777.54 109c45.44 0 80.32 32.64 80.32 70.72 0 21.76-12.16 28.16-34.24 28.16h-70.72c3.2 9.92 14.4 19.52 33.92 19.52a62.44 62.44 0 0 0 22.72-4.48 21 21 0 0 1 8-1.6A21.78 21.78 0 0 1 2839.3 243c0 9-6.08 17-14.08 20.16a135.21 135.21 0 0 1-45.76 8c-48.32 0-86.08-30.4-86.08-81.28 0-44.76 34.24-80.88 84.16-80.88zm-25.28 62.4h50.88c-1.6-6.72-7-18.56-25.6-18.56-17.6-.04-23.36 11.48-25.28 18.52zM3024.58 173.92v65.92c0 17-11.84 30.72-28.8 30.72A30.92 30.92 0 0 1 2967.3 252c-8.32 11.2-27.52 19.2-47 19.2-23 0-53.12-15.68-53.12-50.88 0-38.4 30.08-47.68 53.12-47.68 20.16 0 38.4 6.4 46.72 17V172c0-10.88-9.92-19.2-28.8-19.2-9.28 0-19.2 2.24-29.44 7a18.67 18.67 0 0 1-8.32 1.92 20.77 20.77 0 0 1-9.28-39.36 131 131 0 0 1 57.6-13.44c38.36.08 75.8 13.48 75.8 65zM2967 225.44v-8.64c-3.84-5.44-13.76-8.32-22.72-8.32-9.6 0-20.16 3.2-20.16 12.8s10.56 12.48 20.16 12.48c8.94 0 18.86-2.88 22.72-8.32zM3218.82 157.6v84.16a28.8 28.8 0 0 1-57.6 0v-59.84c0-16-8.64-22.08-22.4-22.08-13.12 0-19.84 6.72-24.64 12.16v69.76a28.8 28.8 0 1 1-57.6 0V138.4c0-16.65 12.16-30.08 28.8-30.08a29.29 29.29 0 0 1 28.8 22.08c9-10.24 25.92-21.44 53.12-21.44 35.84.04 51.52 21.76 51.52 48.64zM343.34 521.76a25 25 0 0 1-25 25h-9.6v79a28.8 28.8 0 1 1-57.6 0v-79h-3.84a25 25 0 0 1 0-49.93h3.84v-7c0-32 24.64-55 58.88-55a84.75 84.75 0 0 1 18.56 1.92c9.28 1.92 17 9.6 17 19.84a21.1 21.1 0 0 1-21.44 20.8h-.64c-8.64 0-14.72 5.44-14.72 14.4v5.12h9.6a25 25 0 0 1 24.96 24.85zM347.5 573.92c0-43.2 32-81 86.72-81 55 0 87 37.76 87 81s-32 81.28-87 81.28c-54.72 0-86.72-38.08-86.72-81.28zm114.56 0c0-17-9.92-30.08-27.84-30.08-17.6 0-27.52 13.12-27.52 30.08 0 17.28 9.92 30.4 27.52 30.4 17.92 0 27.84-13.12 27.84-30.4zM652.46 517.92c0 14.72-7.36 27.2-24 29.12-8 1-21.76 2.56-28.16 10.24v68.48a28.81 28.81 0 0 1-57.61 0V523.68c0-16.64 12.16-30.09 28.81-30.09 13.76 0 25.28 8.33 28.8 20.81 2.88-6.4 7.68-13.44 15-17.61a27.08 27.08 0 0 1 12.48-3.52 24.46 24.46 0 0 1 24.68 24.65zM763.17 663.52l2.56-.32c10.56-1 17-2.24 18.88-6.08l1.28-3.2-48.32-121.28c-1.28-3.2-2.56-7.36-2.56-10.88a28 28 0 0 1 28.16-28.17c11.2 0 22.08 5.76 25.92 17.61l26.56 78.4 25.92-78.4c3.84-11.53 14.72-17.61 25.92-17.61 16.64 0 28.48 12.81 28.48 28.17 0 3.52-1.28 7.68-2.56 10.88l-54.72 137.92c-13.76 34.56-42.24 43.52-63.36 43.52h-3.52c-18.56 0-29.12-12.8-29.12-26.88a23.42 23.42 0 0 1 20.48-23.68zM906.53 573.92c0-43.2 32-81 86.72-81 55 0 87 37.76 87 81s-32 81.28-87 81.28c-54.72 0-86.72-38.08-86.72-81.28zm114.56 0c0-17-9.92-30.08-27.84-30.08-17.6 0-27.52 13.12-27.52 30.08 0 17.28 9.92 30.4 27.52 30.4 17.92 0 27.84-13.12 27.84-30.4zM1263.65 522.4v103.36c0 16.64-12.16 30.08-28.8 30.08a29.58 29.58 0 0 1-28.8-21.76c-9 9.92-25.92 21.12-53.12 21.12-35.84 0-51.2-21.44-51.2-48v-84.8a28.8 28.8 0 1 1 57.6 0v60.16c0 15.68 8.32 21.76 22.4 21.76 12.8 0 19.52-6.72 24.32-12.16V522.4a28.8 28.8 0 1 1 57.6 0zM1373.72 450.07a32.32 32.32 0 1 1 32.28 32.32 32.23 32.23 0 0 1-32.28-32.32zm3.52 175.69V522.4a28.8 28.8 0 1 1 57.6 0v103.36a28.8 28.8 0 0 1-57.6 0zM1629.08 541.6v84.16a28.8 28.8 0 0 1-57.6 0v-59.84c0-16-8.64-22.08-22.4-22.08-13.12 0-19.84 6.72-24.64 12.16v69.76a28.8 28.8 0 1 1-57.6 0V522.4c0-16.65 12.16-30.09 28.8-30.09a29.3 29.3 0 0 1 28.8 22.09c9-10.24 25.92-21.44 53.12-21.44 35.84.04 51.52 21.75 51.52 48.64zM1911.64 573.92c0 53.12-29.44 81.28-67.84 81.28-16 0-30.72-5.44-43.52-20.16v49.6a28.81 28.81 0 0 1-57.61 0V522.4c0-16.65 12.16-30.4 28.8-30.4a30.36 30.36 0 0 1 28.81 21.12c12.48-14.73 27.52-20.16 43.52-20.16 38.4.04 67.84 28.16 67.84 80.96zm-58.88 0c0-19.2-13.44-30.08-28.8-30.08-7.36 0-18.24 3.84-23.68 10.56v39.36c5.12 6.4 16.32 10.56 23.68 10.56 15.36 0 28.8-10.88 28.8-30.4zM2042.83 517.92c0 14.72-7.36 27.2-24 29.12-8 1-21.76 2.56-28.16 10.24v68.48a28.8 28.8 0 0 1-57.6 0V523.68c0-16.64 12.16-30.09 28.8-30.09 13.76 0 25.28 8.33 28.8 20.81 2.88-6.4 7.68-13.44 15-17.61a27.08 27.08 0 0 1 12.48-3.52 24.46 24.46 0 0 1 24.68 24.65zM2204.75 557.92v65.92c0 17-11.84 30.72-28.8 30.72a30.92 30.92 0 0 1-28.48-18.56c-8.32 11.2-27.52 19.2-47 19.2-23 0-53.12-15.68-53.12-50.88 0-38.4 30.08-47.68 53.12-47.68 20.16 0 38.4 6.4 46.72 17V556c0-10.88-9.92-19.2-28.8-19.2-9.28 0-19.2 2.24-29.44 7a18.67 18.67 0 0 1-8.32 1.92 20.77 20.77 0 0 1-9.28-39.36 131 131 0 0 1 57.6-13.44c38.36.08 75.8 13.48 75.8 65zm-57.6 51.52v-8.64c-3.84-5.44-13.76-8.32-22.72-8.32-9.6 0-20.16 3.2-20.16 12.8s10.56 12.48 20.16 12.48c8.96 0 18.88-2.88 22.72-8.32zM2312.91 493c17.28 0 31.36 3.83 42.24 9.59 8.32 4.49 14.08 12.81 14.08 22.73a25.68 25.68 0 0 1-25.6 25.6 23.42 23.42 0 0 1-12.48-3.2 31.62 31.62 0 0 0-15.68-3.84c-16.32 0-30.4 10.24-30.4 30.08s14.08 30.4 30.4 30.4a30.41 30.41 0 0 0 15.36-3.84 27 27 0 0 1 12.48-3.52 25.81 25.81 0 0 1 11.84 48.64c-10.88 5.76-25 9.6-42.24 9.6-49 0-86.72-32-86.72-81.28 0-48.96 37.81-80.96 86.72-80.96zM2494.35 629.6c0 11.84-8.64 21.12-19.52 23.68a83.63 83.63 0 0 1-18.83 1.92c-34.24 0-53.12-16.32-53.12-48.64v-59.84H2399a25 25 0 1 1 0-49.93h3.84v-16.64a28.8 28.8 0 1 1 57.6 0v16.64h9.6a25 25 0 0 1 0 49.93h-9.6v43.2c0 7.68 4.48 13.76 11.52 14.4l2.88.32c11.83 1.28 19.51 12.48 19.51 24.96zM2509.7 450.07a32.32 32.32 0 1 1 32.3 32.32 32.23 32.23 0 0 1-32.3-32.32zm3.52 175.69V522.4a28.8 28.8 0 1 1 57.6 0v103.36a28.8 28.8 0 0 1-57.6 0zM2679 493c17.28 0 31.36 3.83 42.24 9.59 8.32 4.49 14.08 12.81 14.08 22.73a25.68 25.68 0 0 1-25.6 25.6 23.42 23.42 0 0 1-12.48-3.2 31.62 31.62 0 0 0-15.68-3.84c-16.32 0-30.4 10.24-30.4 30.08s14.08 30.4 30.4 30.4a30.41 30.41 0 0 0 15.36-3.84 27 27 0 0 1 12.48-3.52 25.81 25.81 0 0 1 11.84 48.64c-10.88 5.76-25 9.6-42.24 9.6-49 0-86.72-32-86.72-81.28C2592.26 525 2630 493 2679 493zM2830.66 493c45.44 0 80.32 32.64 80.32 70.72 0 21.76-12.16 28.16-34.24 28.16H2806c3.2 9.92 14.4 19.52 33.92 19.52a62.44 62.44 0 0 0 22.72-4.48 21 21 0 0 1 8-1.6 21.78 21.78 0 0 1 21.78 21.68c0 9-6.08 17-14.08 20.16a135.21 135.21 0 0 1-45.76 8c-48.32 0-86.08-30.4-86.08-81.28 0-44.76 34.24-80.88 84.16-80.88zm-25.28 62.4h50.88c-1.6-6.72-7-18.56-25.6-18.56-17.6-.04-23.36 11.48-25.28 18.52zM2965.06 508.63c5.76-3.84 9.92-6.71 9.92-10.24 0-3.84-2.56-6.72-12.48-6.72-4.16 0-9 1.29-14.08 3.84-3.52 1.92-7.68 2.57-12.16 2.57a27.69 27.69 0 0 1-12.16-52.49 103.24 103.24 0 0 1 45.76-10.88c43.2 0 70.41 19.84 70.41 51.52 0 26.56-15.68 38.73-28.8 48.65-8.33 6.4-15.69 11.84-16.65 20.16v1.28c0 .64-.31 1.6-.31 2.24-3.2 11.52-15.37 20.48-28.17 20.48a27 27 0 0 1-27.2-25.28v-4.48c0-22.72 15.36-33.28 25.92-40.65zm6.72 78.09c18.57 0 34.24 15.68 34.24 34.24s-15.67 34.24-34.24 34.24-34.24-15.68-34.24-34.24 15.68-34.24 34.24-34.24z"/></g></g></svg>