<svg xmlns="http://www.w3.org/2000/svg" viewBox="0 0 3664.55 400.32"><defs><style>.cls-2{fill:#fde23e;stroke:#1b1950;stroke-width:1.6px}</style><filter id="filter"><feOffset dx="-7" dy="8"/><feGaussianBlur result="blur"/><feFlood flood-color="#081742"/><feComposite operator="in" in2="blur"/><feComposite in="SourceGraphic"/></filter></defs><g id="Layer_2" data-name="Layer 2"><g filter="url(#filter)" id="Layer_1-2" data-name="Layer 1"><path class="cls-2" d="M191.48 237.28l-20.8-90.88-20.8 90.88a42.65 42.65 0 0 1-82.56 2.56L25.72 93.91a30.93 30.93 0 0 1-1.28-9.28 34 34 0 0 1 67.2-7L114 184.48l27.52-111a30 30 0 0 1 58.24 0l27.52 111 22.13-106.57a34.11 34.11 0 0 1 67.52 6.72 33 33 0 0 1-1.28 9.6l-41.6 145.61a42.66 42.66 0 0 1-82.57-2.56zM444.28 241.76v-60.48c0-16-8.64-21.44-22.4-21.44-13.12 0-19.84 6.72-24.64 12.16v69.76a28.8 28.8 0 0 1-57.6 0V79.51a28.8 28.8 0 0 1 57.6 0v50.89c9-10.24 25.92-21.45 53.12-21.45 35.84 0 51.52 21.13 51.52 48v84.8a28.8 28.8 0 0 1-57.6 0zM680.76 173.92v65.92c0 17-11.84 30.72-28.8 30.72A30.92 30.92 0 0 1 623.48 252c-8.32 11.2-27.52 19.2-47 19.2-23.05 0-53.13-15.68-53.13-50.88 0-38.4 30.08-47.68 53.13-47.68 20.16 0 38.4 6.4 46.72 17V172c0-10.88-9.92-19.2-28.8-19.2-9.28 0-19.2 2.24-29.45 7a18.67 18.67 0 0 1-8.32 1.92 20.77 20.77 0 0 1-9.28-39.36A131.13 131.13 0 0 1 604.92 109c38.4 0 75.84 13.4 75.84 64.92zm-57.6 51.52v-8.64c-3.84-5.44-13.76-8.32-22.72-8.32-9.6 0-20.16 3.2-20.16 12.8s10.56 12.48 20.16 12.48c8.96 0 18.88-2.88 22.72-8.32zM816.11 245.6c0 11.84-8.64 21.12-19.52 23.68a83.63 83.63 0 0 1-18.88 1.92c-34.24 0-53.12-16.32-53.12-48.64v-59.84h-3.84a25 25 0 0 1 0-49.93h3.84V96.15a28.8 28.8 0 0 1 57.6 0v16.64h9.6a25 25 0 0 1 0 49.93h-9.6v43.2c0 7.68 4.48 13.76 11.52 14.4l2.88.32c11.84 1.28 19.52 12.48 19.52 24.96zM990.19 109c45.44 0 80.32 32.65 80.32 70.73 0 21.76-12.16 28.16-34.24 28.16h-70.72c3.19 9.92 14.4 19.52 33.92 19.52a62.44 62.44 0 0 0 22.72-4.48 21 21 0 0 1 8-1.6A21.78 21.78 0 0 1 1052 243c0 9-6.08 17-14.08 20.16a135.21 135.21 0 0 1-45.76 8c-48.33 0-86.09-30.4-86.09-81.28C906 145.12 940.26 109 990.19 109zm-25.29 62.36h50.89c-1.6-6.72-7-18.56-25.6-18.56-17.6 0-23.37 11.52-25.29 18.56zM1221.55 244c0 14.4-11.84 26.56-26.24 26.56-8 0-14.72-1.6-19.2-7.68l-27.84-36.16-28.16 36.16c-4.48 6.08-11.2 7.68-19.2 7.68-14.4 0-26.24-12.16-26.24-26.56 0-7 4.16-13.76 8-17.92l32-37.44-30.08-34.88a30 30 0 0 1-6.72-18.24 26.37 26.37 0 0 1 26.56-25.93c6.08 0 13.44 1 19.52 8.64l24.32 31.37 24-31.37c6.08-7.68 13.44-8.64 19.52-8.64a26.37 26.37 0 0 1 26.56 25.93 30 30 0 0 1-6.72 18.24l-30.08 34.88 32 37.44c3.84 4.16 8 10.92 8 17.92zM1391.15 173.92v65.92c0 17-11.84 30.72-28.8 30.72a30.92 30.92 0 0 1-28.48-18.56c-8.32 11.2-27.52 19.2-47 19.2-23 0-53.13-15.68-53.13-50.88 0-38.4 30.08-47.68 53.13-47.68 20.16 0 38.4 6.4 46.72 17V172c0-10.88-9.92-19.2-28.8-19.2-9.28 0-19.2 2.24-29.44 7a18.71 18.71 0 0 1-8.33 1.92 20.77 20.77 0 0 1-9.28-39.36 131.1 131.1 0 0 1 57.57-13.36c38.4 0 75.84 13.4 75.84 64.92zm-57.6 51.52v-8.64c-3.84-5.44-13.76-8.32-22.72-8.32-9.6 0-20.16 3.2-20.16 12.8s10.56 12.48 20.16 12.48c8.96 0 18.88-2.88 22.72-8.32zM1499.3 109c17.28 0 31.36 3.84 42.24 9.61 8.32 4.48 14.08 12.8 14.08 22.72a25.68 25.68 0 0 1-25.6 25.6 23.42 23.42 0 0 1-12.48-3.2 31.62 31.62 0 0 0-15.68-3.84c-16.32 0-30.4 10.24-30.4 30.08s14.08 30.4 30.4 30.4a30.41 30.41 0 0 0 15.36-3.84 27 27 0 0 1 12.48-3.53 25.81 25.81 0 0 1 11.84 48.64c-10.88 5.76-25 9.6-42.24 9.6-49 0-86.72-32-86.72-81.28 0-48.96 37.76-80.96 86.72-80.96zM1680.74 245.6c0 11.84-8.64 21.12-19.52 23.68a83.63 83.63 0 0 1-18.88 1.92c-34.24 0-53.12-16.32-53.12-48.64v-59.84h-3.84a25 25 0 0 1 0-49.93h3.84V96.15a28.8 28.8 0 0 1 57.6 0v16.64h9.6a25 25 0 0 1 0 49.93h-9.6v43.2c0 7.68 4.48 13.76 11.52 14.4l2.88.32c11.84 1.28 19.52 12.48 19.52 24.96zM1699.62 241.76V79.51a28.8 28.8 0 1 1 57.6 0v162.25a28.8 28.8 0 1 1-57.6 0zM1803.3 279.52l2.56-.32c10.56-1 17-2.24 18.88-6.08l1.28-3.2-48.32-121.28c-1.28-3.2-2.56-7.36-2.56-10.88a28 28 0 0 1 28.16-28.17c11.2 0 22.08 5.76 25.92 17.61l26.56 78.4 25.92-78.4c3.84-11.53 14.72-17.61 25.92-17.61 16.64 0 28.48 12.81 28.48 28.17 0 3.52-1.28 7.68-2.56 10.88l-54.72 137.92c-13.76 34.56-42.24 43.52-63.36 43.52h-3.52c-18.56 0-29.12-12.8-29.12-26.88a23.42 23.42 0 0 1 20.48-23.68zM2143.77 241.76v-60.48c0-16-8.64-21.44-22.4-21.44-13.12 0-19.84 6.72-24.64 12.16v69.76a28.8 28.8 0 0 1-57.6 0V79.51a28.8 28.8 0 0 1 57.6 0v50.89c9-10.24 25.92-21.45 53.12-21.45 35.84 0 51.52 21.13 51.52 48v84.8a28.8 28.8 0 1 1-57.6 0zM2380.25 173.92v65.92c0 17-11.84 30.72-28.8 30.72A30.92 30.92 0 0 1 2323 252c-8.32 11.2-27.52 19.2-47 19.2-23 0-53.12-15.68-53.12-50.88 0-38.4 30.08-47.68 53.12-47.68 20.16 0 38.4 6.4 46.72 17V172c0-10.88-9.92-19.2-28.8-19.2-9.28 0-19.2 2.24-29.44 7a18.67 18.67 0 0 1-8.32 1.92 20.77 20.77 0 0 1-9.28-39.36 131.06 131.06 0 0 1 57.6-13.45c38.33.09 75.77 13.49 75.77 65.01zm-57.6 51.52v-8.64c-3.84-5.44-13.76-8.32-22.72-8.32-9.6 0-20.16 3.2-20.16 12.8s10.56 12.48 20.16 12.48c8.96 0 18.88-2.88 22.72-8.32zM2581.21 189.92c0 53.12-29.44 81.28-67.84 81.28-16 0-30.73-5.44-43.53-20.16v49.6a28.8 28.8 0 0 1-57.6 0V138.4c0-16.65 12.16-30.41 28.8-30.41a30.37 30.37 0 0 1 28.8 21.13c12.48-14.72 27.52-20.17 43.53-20.17 38.4.05 67.84 28.17 67.84 80.97zm-58.88 0c0-19.2-13.44-30.08-28.81-30.08-7.36 0-18.24 3.84-23.68 10.56v39.36c5.12 6.4 16.32 10.56 23.68 10.56 15.37 0 28.81-10.88 28.81-30.4zM2771.6 189.92c0 53.12-29.44 81.28-67.84 81.28-16 0-30.72-5.44-43.52-20.16v49.6a28.8 28.8 0 1 1-57.6 0V138.4c0-16.65 12.16-30.41 28.8-30.41a30.37 30.37 0 0 1 28.8 21.13c12.48-14.72 27.52-20.17 43.52-20.17 38.4.05 67.84 28.17 67.84 80.97zm-58.88 0c0-19.2-13.44-30.08-28.8-30.08-7.36 0-18.24 3.84-23.68 10.56v39.36c5.12 6.4 16.32 10.56 23.68 10.56 15.36 0 28.8-10.88 28.8-30.4zM2866.64 109c45.44 0 80.32 32.65 80.32 70.73 0 21.76-12.16 28.16-34.24 28.16H2842c3.19 9.92 14.39 19.52 33.92 19.52a62.44 62.44 0 0 0 22.72-4.48 21 21 0 0 1 8-1.6A21.78 21.78 0 0 1 2928.4 243c0 9-6.08 17-14.08 20.16a135.21 135.21 0 0 1-45.76 8c-48.33 0-86.09-30.4-86.09-81.28 0-44.76 34.24-80.88 84.17-80.88zm-25.29 62.41h50.89c-1.6-6.72-7-18.56-25.6-18.56-17.64-.05-23.37 11.47-25.29 18.51zM3129 157.6v84.16a28.8 28.8 0 0 1-57.6 0v-59.84c0-16-8.64-22.08-22.4-22.08-13.12 0-19.85 6.72-24.65 12.16v69.76a28.8 28.8 0 1 1-57.6 0V138.4c0-16.65 12.16-30.09 28.8-30.09a29.3 29.3 0 0 1 28.8 22.09c9-10.24 25.93-21.45 53.13-21.45 35.88.05 51.52 21.77 51.52 48.65zM3234.63 109c45.44 0 80.33 32.65 80.33 70.73 0 21.76-12.16 28.16-34.24 28.16H3210c3.2 9.92 14.4 19.52 33.92 19.52a62.44 62.44 0 0 0 22.72-4.48 21 21 0 0 1 8-1.6 21.78 21.78 0 0 1 21.75 21.67c0 9-6.08 17-14.08 20.16a135.21 135.21 0 0 1-45.76 8c-48.32 0-86.08-30.4-86.08-81.28 0-44.76 34.24-80.88 84.16-80.88zm-25.28 62.41h50.88c-1.6-6.72-7-18.56-25.6-18.56-17.63-.05-23.36 11.47-25.28 18.51zM3493.52 79.51v162.25c0 16.64-12.17 30.4-28.8 30.4-13.13 0-24.65-9-28.81-21.12-13.12 14.72-27.84 20.16-43.52 20.16-37.44 0-68.16-28.16-68.16-81.28 0-51.2 30.08-81 68.16-81 15.68 0 31.36 5.45 43.52 20.17V79.51a28.81 28.81 0 0 1 57.61 0zm-57.61 130.25v-39.68c-5.44-6.72-16.32-10.24-24-10.24-15.68 0-28.8 10.88-28.8 30.08s13.12 30.4 28.8 30.4c7.68 0 18.56-3.84 24-10.56zM3575.75 124.64c5.76-3.85 9.92-6.72 9.92-10.24 0-3.85-2.56-6.73-12.48-6.73-4.16 0-9 1.28-14.08 3.84-3.52 1.93-7.68 2.56-12.16 2.56a27.69 27.69 0 0 1-12.16-52.48 103.24 103.24 0 0 1 45.76-10.88c43.2 0 70.4 19.84 70.4 51.52 0 26.57-15.68 38.73-28.8 48.65-8.32 6.4-15.68 11.84-16.64 20.16v1.28c0 .64-.32 1.6-.32 2.24C3602 186.08 3589.83 195 3577 195a27 27 0 0 1-27.2-25.28v-4.48c.03-22.68 15.39-33.24 25.95-40.6zm6.72 78.08c18.56 0 34.24 15.68 34.24 34.24s-15.71 34.24-34.24 34.24-34.24-15.68-34.24-34.24 15.68-34.24 34.24-34.24z"/></g></g></svg>