<svg xmlns="http://www.w3.org/2000/svg" viewBox="0 0 4956.03 784.32"><defs><style>.cls-2{fill:#f66271;stroke:#1b1950;stroke-width:1.6px}</style><filter id="filter"><feOffset dx="-7" dy="8"/><feGaussianBlur result="blur"/><feFlood flood-color="#081742"/><feComposite operator="in" in2="blur"/><feComposite in="SourceGraphic"/></filter></defs><g id="Layer_2" data-name="Layer 2"><g filter="url(#filter)" id="Layer_1-2" data-name="Layer 1"><path class="cls-2" d="M131.32 50.39c65.92 0 116.8 44.8 116.8 110.41s-50.88 110.4-116.8 110.4-116.8-44.8-116.8-110.4S65.4 50.39 131.32 50.39zm0 57c-31 0-51.2 23.69-51.2 53.45s20.16 53.44 51.2 53.44 51.2-23.68 51.2-53.44-20.16-53.49-51.2-53.49zM432.12 157.6v84.16a28.8 28.8 0 0 1-57.6 0v-59.84c0-16-8.64-22.08-22.4-22.08-13.12 0-19.84 6.72-24.64 12.16v69.76a28.8 28.8 0 0 1-57.6 0V138.4c0-16.65 12.16-30.09 28.8-30.09a29.3 29.3 0 0 1 28.8 22.09c9-10.24 25.92-21.45 53.12-21.45 35.84.05 51.52 21.77 51.52 48.65zM692.59 173.92v65.92c0 17-11.84 30.72-28.8 30.72A30.92 30.92 0 0 1 635.31 252c-8.32 11.2-27.52 19.2-47 19.2-23 0-53.12-15.68-53.12-50.88 0-38.4 30.08-47.68 53.12-47.68 20.16 0 38.4 6.4 46.72 17V172c0-10.88-9.92-19.2-28.8-19.2-9.28 0-19.2 2.24-29.44 7a18.67 18.67 0 0 1-8.32 1.92 20.77 20.77 0 0 1-9.28-39.36A131.06 131.06 0 0 1 616.75 109c38.4 0 75.84 13.4 75.84 64.92zM635 225.44v-8.64c-3.84-5.44-13.76-8.32-22.72-8.32-9.6 0-20.16 3.2-20.16 12.8s10.56 12.48 20.16 12.48c8.95 0 18.87-2.88 22.72-8.32zM909.55 245.6c0 11.84-8.64 21.12-19.52 23.68a83.63 83.63 0 0 1-18.88 1.92c-34.25 0-53.13-16.32-53.13-48.64v-59.84h-3.84a25 25 0 0 1 0-49.93H818V96.15a28.81 28.81 0 0 1 57.61 0v16.64h9.6a25 25 0 0 1 0 49.93h-9.6v43.2c0 7.68 4.47 13.76 11.52 14.4l2.88.32c11.86 1.28 19.54 12.48 19.54 24.96zM1002 109c45.44 0 80.32 32.65 80.32 70.73 0 21.76-12.16 28.16-34.24 28.16h-70.7c3.2 9.92 14.4 19.52 33.92 19.52a62.44 62.44 0 0 0 22.72-4.48 21 21 0 0 1 8-1.6 21.78 21.78 0 0 1 21.76 21.67c0 9-6.08 17-14.08 20.16a135.21 135.21 0 0 1-45.76 8c-48.32 0-86.08-30.4-86.08-81.28 0-44.76 34.24-80.88 84.14-80.88zm-25.28 62.41h50.88c-1.6-6.72-7-18.56-25.6-18.56-17.58-.05-23.34 11.47-25.26 18.51zM1178.34 109c17.28 0 31.36 3.84 42.24 9.61 8.32 4.48 14.08 12.8 14.08 22.72a25.68 25.68 0 0 1-25.6 25.6 23.42 23.42 0 0 1-12.48-3.2 31.62 31.62 0 0 0-15.68-3.84c-16.32 0-30.4 10.24-30.4 30.08s14.08 30.4 30.4 30.4a30.41 30.41 0 0 0 15.36-3.84 27 27 0 0 1 12.48-3.52 25.81 25.81 0 0 1 11.84 48.64c-10.88 5.76-25 9.6-42.24 9.6-49 0-86.72-32-86.72-81.28 0-48.97 37.76-80.97 86.72-80.97zM1361.38 241.76v-60.48c0-16-8.64-21.44-22.4-21.44-13.12 0-19.84 6.72-24.64 12.16v69.76a28.8 28.8 0 0 1-57.6 0V79.51a28.8 28.8 0 1 1 57.6 0v50.89c9-10.24 25.92-21.45 53.12-21.45 35.84 0 51.52 21.13 51.52 48v84.8a28.8 28.8 0 0 1-57.6 0zM1613.22 157.6v84.16a28.8 28.8 0 1 1-57.6 0v-59.84c0-16-8.64-22.08-22.4-22.08-13.12 0-19.85 6.72-24.65 12.16v69.76a28.8 28.8 0 0 1-57.6 0V138.4c0-16.65 12.16-30.09 28.8-30.09a29.3 29.3 0 0 1 28.8 22.09c9-10.24 25.93-21.45 53.13-21.45 35.84.05 51.52 21.77 51.52 48.65zM1641.69 66.07A32.32 32.32 0 1 1 1674 98.39a32.23 32.23 0 0 1-32.31-32.32zm3.52 175.69V138.4a28.8 28.8 0 1 1 57.6 0v103.36a28.8 28.8 0 1 1-57.6 0zM1811 109c17.28 0 31.36 3.84 42.24 9.61 8.32 4.48 14.08 12.8 14.08 22.72a25.68 25.68 0 0 1-25.6 25.6 23.42 23.42 0 0 1-12.48-3.2 31.62 31.62 0 0 0-15.68-3.84c-16.32 0-30.4 10.24-30.4 30.08s14.08 30.4 30.4 30.4a30.41 30.41 0 0 0 15.36-3.84 27 27 0 0 1 12.48-3.52 25.81 25.81 0 0 1 11.84 48.64c-10.88 5.76-25 9.6-42.24 9.6-49 0-86.72-32-86.72-81.28C1724.25 141 1762 109 1811 109zM2035.93 173.92v65.92c0 17-11.84 30.72-28.8 30.72a30.92 30.92 0 0 1-28.48-18.56c-8.32 11.2-27.52 19.2-47 19.2-23 0-53.12-15.68-53.12-50.88 0-38.4 30.08-47.68 53.12-47.68 20.16 0 38.4 6.4 46.72 17V172c0-10.88-9.92-19.2-28.8-19.2-9.28 0-19.2 2.24-29.44 7a18.67 18.67 0 0 1-8.32 1.92 20.77 20.77 0 0 1-9.28-39.36 131.06 131.06 0 0 1 57.6-13.45c38.36.09 75.8 13.49 75.8 65.01zm-57.6 51.52v-8.64c-3.84-5.44-13.76-8.32-22.72-8.32-9.6 0-20.16 3.2-20.16 12.8s10.56 12.48 20.16 12.48c8.96 0 18.88-2.88 22.72-8.32zM2067.93 241.76V79.51a28.8 28.8 0 0 1 57.6 0v162.25a28.8 28.8 0 0 1-57.6 0zM2239.12 241.76V79.51a28.8 28.8 0 1 1 57.6 0v162.25a28.8 28.8 0 1 1-57.6 0zM2402.32 109c45.45 0 80.33 32.65 80.33 70.73 0 21.76-12.16 28.16-34.25 28.16h-70.72c3.2 9.92 14.4 19.52 33.92 19.52a62.44 62.44 0 0 0 22.72-4.48 21 21 0 0 1 8-1.6 21.78 21.78 0 0 1 21.77 21.67c0 9-6.08 17-14.08 20.16a135.31 135.31 0 0 1-45.77 8c-48.32 0-86.08-30.4-86.08-81.28 0-44.76 34.24-80.88 84.16-80.88zM2377 171.36h50.88c-1.6-6.72-7-18.56-25.6-18.56-17.56 0-23.28 11.52-25.28 18.56zM2652.57 137.76c0 3.52-1.28 7.68-2.56 10.88l-38.09 94.72a43.42 43.42 0 0 1-40 27.2c-17.92 0-33.28-11.52-39.68-27.2l-38.08-94.72c-1.28-3.2-2.56-7.36-2.56-10.88a28 28 0 0 1 28.16-28.17c11.2 0 21.76 6.08 25.92 17.61l26.24 74.24 26.24-74.24c4.16-11.53 14.73-17.61 25.93-17.61 16.64 0 28.48 12.81 28.48 28.17zM2747.28 109c45.44 0 80.32 32.65 80.32 70.73 0 21.76-12.16 28.16-34.24 28.16h-70.72c3.2 9.92 14.4 19.52 33.92 19.52a62.44 62.44 0 0 0 22.72-4.48 21 21 0 0 1 8-1.6A21.78 21.78 0 0 1 2809 243c0 9-6.08 17-14.08 20.16a135.21 135.21 0 0 1-45.76 8c-48.32 0-86.08-30.4-86.08-81.28.04-44.76 34.28-80.88 84.2-80.88zM2722 171.36h50.88c-1.6-6.72-7-18.56-25.6-18.56-17.6 0-23.36 11.52-25.28 18.56zM2847.44 241.76V79.51a28.8 28.8 0 0 1 57.6 0v162.25a28.8 28.8 0 0 1-57.6 0zM2960.4 312.8a14.07 14.07 0 0 1-14.4-14.08 14.57 14.57 0 0 1 5.12-10.56c7.68-6.72 14.4-14.4 17-22.08a25.07 25.07 0 0 1-8.32 1.28c-15.36 0-27.84-13.12-27.84-31 0-18.56 15.36-33.6 33.28-33.6 19.52 0 37.12 15 37.12 41.28 0 24.64-11.52 46.72-32.64 65.28a13.35 13.35 0 0 1-9.32 3.48zM3211.91 245.6c0 11.84-8.64 21.12-19.52 23.68a83.63 83.63 0 0 1-18.88 1.92c-34.24 0-53.12-16.32-53.12-48.64v-59.84h-3.84a25 25 0 0 1 0-49.93h3.84V96.15a28.8 28.8 0 1 1 57.6 0v16.64h9.6a25 25 0 0 1 0 49.93H3178v43.2c0 7.68 4.48 13.76 11.52 14.4l2.88.32c11.83 1.28 19.51 12.48 19.51 24.96zM3335.75 241.76v-60.48c0-16-8.64-21.44-22.4-21.44-13.12 0-19.84 6.72-24.64 12.16v69.76a28.8 28.8 0 0 1-57.6 0V79.51a28.8 28.8 0 0 1 57.6 0v50.89c9-10.24 25.92-21.45 53.12-21.45 35.84 0 51.52 21.13 51.52 48v84.8a28.8 28.8 0 1 1-57.6 0zM3421.82 66.07a32.33 32.33 0 1 1 32.32 32.32 32.23 32.23 0 0 1-32.32-32.32zm3.52 175.69V138.4a28.8 28.8 0 1 1 57.6 0v103.36a28.8 28.8 0 0 1-57.6 0zM3507.26 237.92A22.81 22.81 0 0 1 3530 215.2a23.52 23.52 0 0 1 9.6 2.24c13.76 6.4 29.44 10.88 41 10.88 11.85 0 15.36-3.2 15.36-7.36 0-5.12-7-7-21.75-9-25.93-3.52-65.93-8.32-65.93-50.24 0-27.84 24.32-52.81 69.12-52.81a120.32 120.32 0 0 1 49.29 10.57 21 21 0 0 1-8.32 40.32 20.44 20.44 0 0 1-9-1.92 72.26 72.26 0 0 0-31.69-7.68c-8.32 0-14.4 2.24-14.4 6.72s4.48 6.4 19.84 8.64c25.93 3.84 67.85 9.28 67.85 52.48 0 30.72-27.52 53.12-73.29 53.12a137.09 137.09 0 0 1-57-12.48 23.13 23.13 0 0 1-13.42-20.76zM3858.3 241.76v-60.48c0-16-8.64-21.44-22.4-21.44-13.12 0-19.84 6.72-24.64 12.16v69.76a28.8 28.8 0 0 1-57.6 0V79.51a28.8 28.8 0 0 1 57.6 0v50.89c9-10.24 25.92-21.45 53.12-21.45 35.84 0 51.52 21.13 51.52 48v84.8a28.8 28.8 0 0 1-57.6 0zM4094.78 173.92v65.92c0 17-11.84 30.72-28.8 30.72a30.92 30.92 0 0 1-28.49-18.56c-8.32 11.2-27.52 19.2-47 19.2-23 0-53.12-15.68-53.12-50.88 0-38.4 30.08-47.68 53.12-47.68 20.16 0 38.4 6.4 46.72 17V172c0-10.88-9.92-19.2-28.8-19.2-9.28 0-19.2 2.24-29.44 7a18.67 18.67 0 0 1-8.32 1.92 20.77 20.77 0 0 1-9.28-39.36 131.06 131.06 0 0 1 57.6-13.45c38.36.09 75.81 13.49 75.81 65.01zm-57.61 51.52v-8.64c-3.84-5.44-13.76-8.32-22.72-8.32-9.6 0-20.16 3.2-20.16 12.8s10.56 12.48 20.16 12.48c8.96 0 18.88-2.88 22.72-8.32zM4285.49 79.51v162.25c0 16.64-12.16 30.4-28.8 30.4-13.12 0-24.64-9-28.8-21.12-13.12 14.72-27.84 20.16-43.52 20.16-37.44 0-68.16-28.16-68.16-81.28 0-51.2 30.08-81 68.16-81 15.68 0 31.36 5.45 43.52 20.17V79.51a28.8 28.8 0 0 1 57.6 0zm-57.6 130.25v-39.68c-5.44-6.72-16.32-10.24-24-10.24-15.68 0-28.8 10.88-28.8 30.08s13.12 30.4 28.8 30.4c7.68 0 18.56-3.84 24-10.56zM4502.45 245.6c0 11.84-8.64 21.12-19.52 23.68a83.63 83.63 0 0 1-18.88 1.92c-34.25 0-53.13-16.32-53.13-48.64v-59.84h-3.84a25 25 0 0 1 0-49.93h3.84V96.15a28.81 28.81 0 0 1 57.61 0v16.64h9.6a25 25 0 0 1 0 49.93h-9.6v43.2c0 7.68 4.48 13.76 11.52 14.4l2.88.32c11.84 1.28 19.52 12.48 19.52 24.96zM4626.28 241.76v-60.48c0-16-8.64-21.44-22.4-21.44-13.12 0-19.84 6.72-24.64 12.16v69.76a28.8 28.8 0 0 1-57.6 0V79.51a28.8 28.8 0 0 1 57.6 0v50.89c9-10.24 25.92-21.45 53.12-21.45 35.84 0 51.52 21.13 51.52 48v84.8a28.8 28.8 0 1 1-57.6 0zM4789.48 109c45.44 0 80.32 32.65 80.32 70.73 0 21.76-12.16 28.16-34.24 28.16h-70.72c3.2 9.92 14.4 19.52 33.92 19.52a62.44 62.44 0 0 0 22.72-4.48 21 21 0 0 1 8-1.6 21.78 21.78 0 0 1 21.76 21.67c0 9-6.08 17-14.08 20.16a135.21 135.21 0 0 1-45.76 8c-48.32 0-86.08-30.4-86.08-81.28 0-44.76 34.24-80.88 84.16-80.88zm-25.28 62.41h50.88c-1.6-6.72-7-18.56-25.6-18.56-17.6-.05-23.36 11.47-25.28 18.51zM128.76 521.76a25 25 0 0 1-25 25H94.2v79a28.8 28.8 0 0 1-57.6 0v-79h-3.84a25 25 0 0 1 0-49.93h3.84v-7c0-32 24.64-55 58.88-55a84.75 84.75 0 0 1 18.52 1.8c9.28 1.92 17 9.6 17 19.84a21.1 21.1 0 0 1-21.44 20.8h-.64c-8.64 0-14.72 5.44-14.72 14.4v5.12h9.6a25 25 0 0 1 24.96 24.97zM132.91 573.92c0-43.2 32-81 86.73-81 55 0 87 37.76 87 81s-32 81.28-87 81.28c-54.73 0-86.73-38.08-86.73-81.28zm114.57 0c0-17-9.92-30.08-27.84-30.08-17.6 0-27.52 13.12-27.52 30.08 0 17.28 9.92 30.4 27.52 30.4 17.92 0 27.84-13.12 27.84-30.4zM328.11 625.76V463.51a28.8 28.8 0 1 1 57.6 0v162.25a28.8 28.8 0 1 1-57.6 0zM417.71 625.76V463.51a28.8 28.8 0 0 1 57.6 0v162.25a28.8 28.8 0 0 1-57.6 0zM496.75 573.92c0-43.2 32-81 86.72-81 55 0 87 37.76 87 81s-32 81.28-87 81.28c-54.72 0-86.72-38.08-86.72-81.28zm114.56 0c0-17-9.92-30.08-27.84-30.08-17.6 0-27.52 13.12-27.52 30.08 0 17.28 9.92 30.4 27.52 30.4 17.92 0 27.84-13.12 27.84-30.4zM822.19 625.44L804.59 565 787 625.44a40.52 40.52 0 0 1-77.76 0l-27.84-96a30.46 30.46 0 0 1-1-8 28.08 28.08 0 0 1 55.36-6.4l16 66.88 20.8-65a33.74 33.74 0 0 1 64.32.32l20.48 64.64 16-66.88a28.26 28.26 0 0 1 55.69 6.72 29.66 29.66 0 0 1-1.28 7.68l-27.53 96a40.73 40.73 0 0 1-78.08 0zM946 450.07a32.32 32.32 0 1 1 32.32 32.32A32.23 32.23 0 0 1 946 450.07zm3.52 175.69V522.4a28.8 28.8 0 1 1 57.6 0v103.36a28.8 28.8 0 1 1-57.6 0zM1201.39 541.6v84.16a28.8 28.8 0 0 1-57.6 0v-59.84c0-16-8.64-22.08-22.4-22.08-13.12 0-19.84 6.72-24.64 12.16v69.76a28.8 28.8 0 0 1-57.6 0V522.4c0-16.65 12.16-30.09 28.8-30.09a29.3 29.3 0 0 1 28.8 22.09c9-10.24 25.92-21.44 53.12-21.44 35.84.04 51.52 21.75 51.52 48.64zM1391.79 522.4v112.32c0 66.88-55 79.36-93.44 79.36a118.58 118.58 0 0 1-51.52-11.2 24 24 0 0 1-13.44-21.12 23.63 23.63 0 0 1 23.68-23.68 21.44 21.44 0 0 1 9.92 2.24 73.89 73.89 0 0 0 31.36 6.72c13.44 0 35.84-5.12 35.84-32.32v-8.32c-13.12 15-27.52 20.8-43.52 20.8-37.12 0-67.84-24.32-67.84-77.12 0-51.52 29.76-77.12 67.84-77.12 16 0 31 5.43 43.52 20.16 3.2-11.53 16-19.53 28.8-19.53a28.89 28.89 0 0 1 28.8 28.81zm-57.6 64v-32.64c-5.44-6.4-16.32-9.92-23.68-9.92-15.68 0-28.8 7.36-28.8 26.24s13.12 26.24 28.8 26.24c7.36 0 18.24-3.52 23.68-9.92zM1579 493c45.44 0 80.32 32.64 80.32 70.72 0 21.76-12.16 28.16-34.24 28.16h-70.72c3.2 9.92 14.4 19.52 33.92 19.52a62.44 62.44 0 0 0 22.72-4.48 21 21 0 0 1 8-1.6 21.78 21.78 0 0 1 21.74 21.68c0 9-6.08 17-14.08 20.16a135.21 135.21 0 0 1-45.76 8c-48.32 0-86.08-30.4-86.08-81.28 0-44.76 34.24-80.88 84.18-80.88zm-25.28 62.4h50.88c-1.6-6.72-7-18.56-25.6-18.56-17.62-.04-23.38 11.48-25.3 18.52zM1901.86 521.76a25 25 0 0 1-25 25h-9.6v79a28.8 28.8 0 0 1-57.6 0v-79h-3.84a24.48 24.48 0 0 1-23.68-17.6 25.17 25.17 0 0 1-24 17.6h-9.6v79a28.8 28.8 0 0 1-57.6 0v-79h-3.84a25 25 0 0 1 0-49.93h3.9v-7c0-32 24.64-55 58.88-55a84.75 84.75 0 0 1 18.56 1.92c9.28 1.92 17 9.6 17 19.84a21.1 21.1 0 0 1-21.44 20.8h-.64c-8.64 0-14.72 5.44-14.72 14.4v5.12h9.6a25.17 25.17 0 0 1 24 17.61 24.49 24.49 0 0 1 23.68-17.61h3.84v-7c0-32 24.64-55 58.88-55a84.75 84.75 0 0 1 18.56 1.92c9.28 1.92 17 9.6 17 19.84a21.1 21.1 0 0 1-21.44 20.8h-.76c-8.64 0-14.72 5.44-14.72 14.4v5.12h9.6a25 25 0 0 1 24.98 24.77zM1990.18 493c45.44 0 80.32 32.64 80.32 70.72 0 21.76-12.16 28.16-34.24 28.16h-70.72c3.19 9.92 14.4 19.52 33.92 19.52a62.44 62.44 0 0 0 22.72-4.48 21 21 0 0 1 8-1.6 21.78 21.78 0 0 1 21.76 21.68c0 9-6.08 17-14.08 20.16a135.21 135.21 0 0 1-45.76 8c-48.33 0-86.09-30.4-86.09-81.28-.01-44.76 34.24-80.88 84.17-80.88zm-25.28 62.4h50.88c-1.6-6.72-7-18.56-25.6-18.56-17.6-.04-23.37 11.48-25.28 18.52zM2166.5 493c17.28 0 31.36 3.83 42.24 9.59 8.32 4.49 14.08 12.81 14.08 22.73a25.68 25.68 0 0 1-25.6 25.6 23.42 23.42 0 0 1-12.48-3.2 31.62 31.62 0 0 0-15.68-3.84c-16.33 0-30.41 10.24-30.41 30.08s14.08 30.4 30.41 30.4a30.41 30.41 0 0 0 15.36-3.84 27 27 0 0 1 12.48-3.52 25.81 25.81 0 0 1 11.84 48.64c-10.88 5.76-25 9.6-42.24 9.6-49 0-86.73-32-86.73-81.28 0-48.96 37.76-80.96 86.73-80.96zM2347.93 629.6c0 11.84-8.64 21.12-19.52 23.68a83.63 83.63 0 0 1-18.88 1.92c-34.24 0-53.12-16.32-53.12-48.64v-59.84h-3.84a25 25 0 0 1 0-49.93h3.84v-16.64a28.8 28.8 0 0 1 57.6 0v16.64h9.6a25 25 0 0 1 0 49.93H2314v43.2c0 7.68 4.48 13.76 11.52 14.4l2.88.32c11.85 1.28 19.53 12.48 19.53 24.96zM2437.85 573.92c0-43.2 32-81 86.72-81 55 0 87 37.76 87 81s-32 81.28-87 81.28c-54.72 0-86.72-38.08-86.72-81.28zm114.56 0c0-17-9.92-30.08-27.84-30.08-17.6 0-27.52 13.12-27.52 30.08 0 17.28 9.92 30.4 27.52 30.4 17.92 0 27.84-13.12 27.84-30.4zM2795.29 541.6v84.16a28.8 28.8 0 0 1-57.6 0v-59.84c0-16-8.64-22.08-22.4-22.08-13.12 0-19.85 6.72-24.64 12.16v69.76a28.81 28.81 0 0 1-57.61 0V522.4c0-16.65 12.16-30.09 28.8-30.09a29.32 29.32 0 0 1 28.81 22.09c8.95-10.24 25.92-21.44 53.12-21.44 35.84.04 51.52 21.75 51.52 48.64zM3055.76 557.92v65.92c0 17-11.84 30.72-28.8 30.72a30.92 30.92 0 0 1-28.48-18.56c-8.32 11.2-27.52 19.2-47 19.2-23 0-53.12-15.68-53.12-50.88 0-38.4 30.08-47.68 53.12-47.68 20.16 0 38.4 6.4 46.72 17V556c0-10.88-9.92-19.2-28.8-19.2-9.28 0-19.2 2.24-29.44 7a18.67 18.67 0 0 1-8.32 1.92 20.77 20.77 0 0 1-9.28-39.36 131 131 0 0 1 57.6-13.44c38.36.08 75.8 13.48 75.8 65zm-57.6 51.52v-8.64c-3.84-5.44-13.76-8.32-22.72-8.32-9.6 0-20.16 3.2-20.16 12.8s10.56 12.48 20.16 12.48c8.96 0 18.88-2.88 22.72-8.32zM3246.48 463.51v162.25c0 16.64-12.16 30.4-28.8 30.4-13.12 0-24.64-9-28.8-21.12-13.12 14.72-27.84 20.16-43.52 20.16-37.44 0-68.16-28.16-68.16-81.28 0-51.2 30.08-81 68.16-81 15.68 0 31.36 5.43 43.52 20.16v-49.57a28.8 28.8 0 0 1 57.6 0zm-57.6 130.25v-39.68c-5.44-6.72-16.32-10.24-24-10.24-15.68 0-28.8 10.88-28.8 30.08s13.12 30.4 28.8 30.4c7.68 0 18.56-3.84 24-10.56zM3428.56 521.76c0 3.52-1.28 7.68-2.56 10.88l-38.08 94.72a43.42 43.42 0 0 1-40 27.2c-17.93 0-33.29-11.52-39.69-27.2l-38.08-94.72c-1.28-3.2-2.56-7.36-2.56-10.88a28 28 0 0 1 28.16-28.17c11.2 0 21.76 6.08 25.92 17.61l26.25 74.24 26.24-74.24c4.16-11.53 14.72-17.61 25.92-17.61 16.64 0 28.48 12.81 28.48 28.17zM3523.27 493c45.44 0 80.32 32.64 80.32 70.72 0 21.76-12.16 28.16-34.24 28.16h-70.72c3.2 9.92 14.4 19.52 33.92 19.52a62.44 62.44 0 0 0 22.72-4.48 21 21 0 0 1 8-1.6A21.78 21.78 0 0 1 3585 627c0 9-6.08 17-14.08 20.16a135.21 135.21 0 0 1-45.76 8c-48.32 0-86.08-30.4-86.08-81.28.03-44.76 34.27-80.88 84.19-80.88zM3498 555.36h50.88c-1.6-6.72-7-18.56-25.6-18.56-17.61 0-23.37 11.52-25.28 18.56zM3733.19 517.92c0 14.72-7.36 27.2-24 29.12-8 1-21.76 2.56-28.16 10.24v68.48a28.8 28.8 0 0 1-57.6 0V523.68c0-16.64 12.16-30.09 28.8-30.09 13.76 0 25.28 8.33 28.8 20.81 2.88-6.4 7.68-13.44 15-17.61a27.08 27.08 0 0 1 12.48-3.52 24.46 24.46 0 0 1 24.68 24.65z"/><path class="cls-2" d="M3851.59 629.6c0 11.84-8.64 21.12-19.52 23.68a83.63 83.63 0 0 1-18.88 1.92c-34.24 0-53.12-16.32-53.12-48.64v-59.84h-3.84a25 25 0 0 1 0-49.93h3.84v-16.64a28.8 28.8 0 0 1 57.6 0v16.64h9.6a25 25 0 0 1 0 49.93h-9.6v43.2c0 7.68 4.48 13.76 11.52 14.4l2.88.32c11.84 1.28 19.52 12.48 19.52 24.96zM3867 450.07a32.32 32.32 0 1 1 32.32 32.32 32.23 32.23 0 0 1-32.32-32.32zm3.52 175.69V522.4a28.8 28.8 0 1 1 57.6 0v103.36a28.8 28.8 0 0 1-57.6 0zM3952.39 621.92a22.81 22.81 0 0 1 22.72-22.72 23.52 23.52 0 0 1 9.6 2.24c13.76 6.4 29.44 10.88 41 10.88 11.84 0 15.36-3.2 15.36-7.36 0-5.12-7-7-21.76-9-25.92-3.52-65.92-8.32-65.92-50.24 0-27.84 24.32-52.8 69.12-52.8a120.42 120.42 0 0 1 49.28 10.55 21 21 0 0 1-8.32 40.33 20.44 20.44 0 0 1-9-1.92 72.25 72.25 0 0 0-31.68-7.68c-8.32 0-14.4 2.24-14.4 6.72s4.48 6.4 19.84 8.64c25.92 3.84 67.84 9.28 67.84 52.48 0 30.72-27.52 53.12-73.28 53.12a137.09 137.09 0 0 1-57-12.48 23.13 23.13 0 0 1-13.4-20.76zM4190.46 493c45.44 0 80.33 32.64 80.33 70.72 0 21.76-12.16 28.16-34.24 28.16h-70.73c3.2 9.92 14.4 19.52 33.92 19.52a62.44 62.44 0 0 0 22.72-4.48 21 21 0 0 1 8-1.6 21.78 21.78 0 0 1 21.77 21.68c0 9-6.08 17-14.08 20.16a135.31 135.31 0 0 1-45.77 8c-48.32 0-86.08-30.4-86.08-81.28 0-44.76 34.24-80.88 84.16-80.88zm-25.28 62.4h50.88c-1.6-6.72-7-18.56-25.6-18.56-17.6-.04-23.36 11.48-25.28 18.52zM4400.38 517.92c0 14.72-7.36 27.2-24 29.12-8 1-21.76 2.56-28.16 10.24v68.48a28.8 28.8 0 1 1-57.6 0V523.68c0-16.64 12.16-30.09 28.8-30.09 13.76 0 25.28 8.33 28.8 20.81 2.88-6.4 7.68-13.44 15-17.61a27.08 27.08 0 0 1 12.48-3.52 24.46 24.46 0 0 1 24.68 24.65zM4407.74 621.92a22.81 22.81 0 0 1 22.72-22.72 23.52 23.52 0 0 1 9.6 2.24c13.76 6.4 29.44 10.88 41 10.88 11.84 0 15.36-3.2 15.36-7.36 0-5.12-7-7-21.76-9-25.92-3.52-65.92-8.32-65.92-50.24 0-27.84 24.32-52.8 69.12-52.8a120.42 120.42 0 0 1 49.28 10.55 21 21 0 0 1-8.32 40.33 20.44 20.44 0 0 1-9-1.92 72.25 72.25 0 0 0-31.68-7.68c-8.32 0-14.4 2.24-14.4 6.72s4.48 6.4 19.84 8.64c25.92 3.84 67.85 9.28 67.85 52.48 0 30.72-27.53 53.12-73.29 53.12a137.09 137.09 0 0 1-57-12.48 23.13 23.13 0 0 1-13.4-20.76zM4601.34 494.55c18.56 0 34.24 15.69 34.24 34.25s-15.68 34.2-34.24 34.2-34.24-15.68-34.24-34.24 15.68-34.21 34.24-34.21zm0 92.17c18.56 0 34.24 15.68 34.24 34.24s-15.68 34.24-34.24 34.24-34.24-15.68-34.24-34.2 15.68-34.28 34.24-34.28z"/></g></g></svg>