<svg xmlns="http://www.w3.org/2000/svg" viewBox="0 0 1050.25 15.45"><g data-name="Layer 2"><path d="M525.65 0H0v12.51c6 0 6 2.94 12 2.94s6-2.94 12-2.94 6 2.94 12 2.94 6-2.94 11.95-2.94 6 2.94 12 2.94 6-2.94 12-2.94 6 2.94 12 2.94 6-2.94 11.95-2.94 6 2.94 12 2.94 6-2.94 12-2.94 6 2.94 11.95 2.94 6-2.94 12-2.94 6 2.94 11.95 2.94 6-2.94 12-2.94 6 2.94 11.95 2.94 6-2.94 11.94-2.94 6 2.94 11.95 2.94 6-2.94 12-2.94 6 2.94 11.95 2.94 6-2.94 12-2.94 6 2.94 11.95 2.94 6-2.94 11.95-2.94 6 2.94 11.95 2.94 6-2.94 12-2.94 6 2.94 11.95 2.94 6-2.94 11.95-2.94 6 2.94 11.95 2.94 6-2.94 11.94-2.94 6 2.94 11.95 2.94 6-2.94 12-2.94 6 2.94 11.95 2.94 6-2.94 11.95-2.94 6 2.94 11.95 2.94 6-2.94 11.95-2.94 6 2.94 12 2.94 6-2.94 11.95-2.94 6 2.94 11.94 2.94 6-2.94 11.95-2.94 6 2.94 11.95 2.94 6-2.94 12-2.94 6 2.94 11.95 2.94 6-2.94 11.95-2.94 6 2.94 12 2.94 5.86-2.87 11.69-2.91c5.08.28 5.39 2.91 11 2.91 6 0 6-2.94 12-2.94s6 2.94 12 2.94 6-2.94 11.95-2.94 6 2.94 12 2.94 6-2.94 11.95-2.94 6 2.94 12 2.94 6-2.94 12-2.94 6 2.94 11.95 2.94 6-2.94 12-2.94 6 2.94 11.95 2.94 6-2.94 11.94-2.94 6 2.94 12 2.94 6-2.94 11.95-2.94 6 2.94 12 2.94 6-2.94 11.95-2.94 6 2.94 12 2.94 6-2.94 12-2.94 6 2.94 11.95 2.94 6-2.94 12-2.94 6 2.94 11.95 2.94 6-2.94 12-2.94 6 2.94 12 2.94 6-2.94 11.95-2.94 6 2.94 12 2.94 6-2.94 11.94-2.94 6 2.94 12 2.94 6-2.94 11.95-2.94 6 2.94 12 2.94 6-2.94 12-2.94 6 2.94 11.95 2.94 6-2.94 12-2.94 6 2.94 11.95 2.94 6-2.94 12-2.94 6 2.94 11.94 2.94 6-2.94 11.95-2.94 6 2.94 12 2.94 6-2.94 11.95-2.94 6 2.94 12 2.94 6-2.94 12-2.94 6 2.94 11.95 2.94 6-2.94 12-2.94 6 2.94 12 2.94 5.86-2.87 11.71-2.91h.12V0z" fill="#f2f2f2" data-name="Layer 1"/></g></svg>