<svg viewBox="0 0 1918 195" xmlns="http://www.w3.org/2000/svg" xmlns:serif="http://www.serif.com/" fill-rule="evenodd" clip-rule="evenodd" stroke-linecap="round"><g transform="translate(-2.048 -2.18)"><path fill="none" d="M2.048 2.181h1917.96v194.134H2.048z"/><clipPath id="a"><path d="M2.048 2.181h1917.96v194.134H2.048z"/></clipPath><g serif:id="Layer 1" clip-path="url(#a)"><path d="M2.096 2.362v187.914c24.313.249 24.843 6.22 50.191 6.22 25.888 0 25.888-6.23 51.776-6.23 25.887 0 25.887 6.23 51.774 6.23s25.887-6.23 51.774-6.23 25.887 6.23 51.774 6.23c25.886 0 25.886-6.23 51.773-6.23 25.887 0 25.887 6.23 51.774 6.23 25.886 0 25.886-6.23 51.773-6.23 25.887 0 25.887 6.23 51.774 6.23s25.887-6.23 51.773-6.23c25.887 0 25.887 6.23 51.774 6.23s25.887-6.23 51.774-6.23 25.887 6.23 51.773 6.23c25.887 0 25.887-6.23 51.773-6.23 25.886 0 25.886 6.23 51.773 6.23 25.886 0 25.886-6.23 51.773-6.23 25.886 0 25.886 6.23 51.772 6.23s25.886-6.23 51.773-6.23c25.886 0 25.886 6.23 51.772 6.23l-.002-.09c1.593.058 3.294.09 5.129.09 25.89 0 25.89-6.23 51.78-6.23 25.88 0 25.88 6.23 51.77 6.23 25.89 0 25.89-6.23 51.77-6.23 25.89 0 25.89 6.23 51.78 6.23 25.88 0 25.88-6.23 51.77-6.23 25.89 0 25.89 6.23 51.77 6.23 25.89 0 25.89-6.23 51.78-6.23s25.89 6.23 51.77 6.23c25.89 0 25.89-6.23 51.77-6.23 25.89 0 25.89 6.23 51.78 6.23s25.89-6.23 51.77-6.23c25.89 0 25.89 6.23 51.78 6.23 25.88 0 25.88-6.23 51.77-6.23 25.88 0 25.88 6.23 51.77 6.23 25.89 0 25.89-6.23 51.78-6.23 25.88 0 25.88 6.23 51.77 6.23 25.88 0 25.88-6.23 51.77-6.23 25.47 0 25.9 6.029 50.57 6.22V2.379L2.096 2.362z" fill="#852798" fill-rule="nonzero"/><path d="M1333.718 2.984c0 53.737 43.563 97.3 97.3 97.3 53.737 0 97.3-43.563 97.3-97.3" fill="#f66271" fill-rule="nonzero"/><path d="M1486.626 162.139c0-7.523 6.099-13.622 13.622-13.622s13.622 6.099 13.622 13.622-6.099 13.622-13.622 13.622-13.622-6.1-13.622-13.622" fill="#529ab9" fill-rule="nonzero"/><path d="M1744.086 84.204c0-6.667 5.405-12.073 12.073-12.073 6.667 0 12.071 5.406 12.071 12.073 0 6.666-5.404 12.072-12.071 12.072-6.668 0-12.073-5.406-12.073-12.072" fill="#f66271" fill-rule="nonzero"/><path d="M1865.368 1.356c0 33.836-27.43 61.266-61.266 61.266-33.837 0-61.266-27.43-61.266-61.266" fill="none" fill-rule="nonzero" stroke="#fff"/><path d="M1857.921 151.67a5.246 5.246 0 1 1 10.493 0 5.246 5.246 0 0 1-10.493 0" fill="#529ab9" fill-rule="nonzero"/><path d="M853.052 122.129c0-8.598 6.97-15.568 15.568-15.568 8.598 0 15.568 6.97 15.568 15.568 0 8.598-6.97 15.568-15.568 15.568-8.598 0-15.568-6.97-15.568-15.568" fill="#f66271" fill-rule="nonzero"/><path d="M137.677 160.976c0-8.598 6.97-15.568 15.568-15.568 8.598 0 15.568 6.97 15.568 15.568 0 8.598-6.97 15.568-15.568 15.568-8.598 0-15.568-6.97-15.568-15.568" fill="#fde23e" fill-rule="nonzero"/><path d="M290.859 28.5a4.959 4.959 0 1 1 9.917-.001 4.959 4.959 0 0 1-9.917 0M680.839 163.303a3.138 3.138 0 1 1 6.276 0 3.138 3.138 0 0 1-6.276 0M482.474 155.16c0-5.96 4.831-10.79 10.79-10.79 5.959 0 10.79 4.83 10.79 10.79 0 5.959-4.831 10.79-10.79 10.79-5.959 0-10.79-4.831-10.79-10.79" fill="#fff" fill-rule="nonzero"/><path d="M668.547 87.1c0 13.77 11.163 24.934 24.933 24.934s24.933-11.163 24.933-24.934c0-13.77-11.163-24.932-24.933-24.932S668.547 73.33 668.547 87.1" fill="#529ab9" fill-rule="nonzero"/><path d="M352.737 195.846c-5.81-8.525-9.206-18.826-9.206-29.92 0-29.38 23.816-53.195 53.195-53.195 29.38 0 53.195 23.816 53.195 53.195 0 10.125-2.83 19.59-7.74 27.646" fill="none" fill-rule="nonzero" stroke="#529ab9"/><path d="M312.064 77.37a9.73 9.73 0 0 0 9.73 9.73 9.73 9.73 0 0 0 9.73-9.73 9.73 9.73 0 0 0-9.73-9.73 9.73 9.73 0 0 0-9.73 9.73M91.721 42.201a5.689 5.689 0 1 0 11.378 0 5.689 5.689 0 0 0-11.378 0" fill="#f66271" fill-rule="nonzero"/><path d="M958.438 74.094a8.7 8.7 0 0 1-8.701 8.7 8.7 8.7 0 1 1 0-17.401 8.7 8.7 0 0 1 8.701 8.701" fill="#fff" fill-rule="nonzero"/><path d="M138.125 2.502c-4.5 8.856-7.039 18.877-7.039 29.491 0 36.004 29.187 65.191 65.191 65.191 36.004 0 65.191-29.187 65.191-65.19 0-10.615-2.539-20.636-7.039-29.492H138.125z" fill="#529ab9" fill-rule="nonzero"/><path d="M1605.968 196.61c1.454.048 2.998.074 4.65.074 25.886 0 25.886-6.23 51.773-6.23 22.471 0 25.445 4.693 42.77 5.93-2.428-25.251-23.699-44.998-49.588-44.998-25.966 0-47.282 19.865-49.605 45.225" fill="#fde23e" fill-rule="nonzero"/><path d="M1084.558 78.388a9.73 9.73 0 0 0 9.73 9.73 9.73 9.73 0 0 0 9.73-9.73 9.73 9.73 0 0 0-9.73-9.73 9.73 9.73 0 0 0-9.73 9.73M29.323 144.302c0 7.494 6.075 13.569 13.569 13.569 7.494 0 13.569-6.075 13.569-13.57 0-7.493-6.075-13.568-13.57-13.568-7.493 0-13.568 6.075-13.568 13.569" fill="#529ab9" fill-rule="nonzero"/><path d="M254.999 149.69a5.422 5.422 0 0 1 0-7.668l22.576-22.576a5.422 5.422 0 1 1 7.669 7.669l-22.576 22.576a5.422 5.422 0 0 1-7.669 0" fill="#fff" fill-rule="nonzero"/><path d="M452.19 80.715a5.422 5.422 0 0 1 0-7.67l22.576-22.575a5.422 5.422 0 1 1 7.669 7.669l-22.576 22.576a5.422 5.422 0 0 1-7.669 0" fill="#f66271" fill-rule="nonzero"/><path d="M28.766 70.539a4.217 4.217 0 0 1 0-5.964l17.56-17.56a4.218 4.218 0 0 1 5.964 5.965L34.73 70.539a4.217 4.217 0 0 1-5.964 0" fill="#fff" fill-rule="nonzero"/><path d="M1257.138 49.308a5.422 5.422 0 0 1 0-7.669l22.576-22.576a5.422 5.422 0 1 1 7.669 7.67l-22.576 22.575a5.422 5.422 0 0 1-7.669 0" fill="#529ab9" fill-rule="nonzero"/><path d="M1593.308 115.611a5.422 5.422 0 0 1 0-7.669l61.255-61.255a5.422 5.422 0 1 1 7.669 7.668l-61.255 61.256a5.422 5.422 0 0 1-7.669 0M791.849 80.715a5.422 5.422 0 0 1 0-7.67l22.576-22.575a5.422 5.422 0 1 1 7.669 7.669l-22.576 22.576a5.422 5.422 0 0 1-7.669 0" fill="#fff" fill-rule="nonzero"/><path d="M1116.298 156.027c-5.617-5.617-5.617-14.723 0-20.34l59.881-59.881c5.617-5.617 14.723-5.617 20.34 0 5.617 5.617 5.617 14.723 0 20.34l-59.881 59.88c-5.617 5.618-14.723 5.618-20.34 0" fill="#f66271" fill-rule="nonzero"/><path d="M432.416 29.533l-74.446 74.445M1322.27 94.673l-74.445 74.445M805.808 117.936l-27.917 27.918M1051.244 11.616L995.991 66.87M110.205 87.694l-36.06 36.06M1577.018 28.37l-36.06 36.06M1881.204 56.869l-91.312 91.311" fill="none" fill-rule="nonzero" stroke="#fde23e" stroke-miterlimit="10"/><path d="M597.805 2.082l-88.452 88.452c-11.539 11.539-11.539 30.246 0 41.785 11.538 11.539 30.246 11.539 41.784 0L674.151 9.306a29.589 29.589 0 0 0 5.309-7.224h-81.655zM1013.558 193.967c-3.058-30.024-28.417-53.451-59.248-53.451-31.474 0-57.229 24.42-59.393 55.345 12.964-1.692 17.524-5.406 37.518-5.406 25.886 0 25.886 6.229 51.772 6.229l-.001-.091c1.593.059 3.293.09 5.128.09 11.839 0 18.262-1.302 24.224-2.716" fill="#fde23e" fill-rule="nonzero"/><circle cx="-15.122" r="15.122" fill="none" stroke="#fde23e" stroke-miterlimit="10" transform="matrix(0 -1 -1 0 1357.168 113.284)"/><circle cx="-24.815" r="24.815" fill="none" stroke="#529ab9" transform="matrix(0 -1 -1 0 1694.118 79.939)"/><path d="M876.764 45.818c0-6.424 5.208-11.632 11.632-11.632 6.424 0 11.632 5.208 11.632 11.632 0 6.424-5.208 11.632-11.632 11.632-6.424 0-11.632-5.208-11.632-11.632" fill="#529ab9" fill-rule="nonzero"/></g></g></svg>