<svg id="Layer_1" data-name="Layer 1" xmlns="http://www.w3.org/2000/svg" viewBox="0 0 1488.64 1080"><defs><style>.cls-1{fill:#081742}.cls-2,.cls-4,.cls-8{fill:none;stroke-miterlimit:10}.cls-2{stroke:#081742}.cls-2,.cls-4,.cls-8{stroke-width:2px}.cls-3{fill:#852798}.cls-4{stroke:#1d1853}.cls-5{fill:#fff}.cls-16,.cls-7{fill:#c8c8cc}.cls-8{stroke:#c8c8cc}.cls-9{fill:#eee}.cls-11,.cls-14,.cls-16{font-size:24.61px}.cls-11,.cls-14{fill:#1d1853}.cls-11{font-family:ProximaSoft-Bold,Proxima Soft;font-weight:700}.cls-14,.cls-16{font-family:ProximaSoft-Regular,Proxima Soft}</style></defs><rect class="cls-1" x="223.43" y="67.29" width="1025.78" height="991.87" rx="29.56"/><rect class="cls-2" x="223.43" y="67.29" width="1025.78" height="991.87" rx="29.56"/><rect class="cls-3" x="231.43" y="60.29" width="1025.78" height="991.87" rx="29.56"/><rect class="cls-4" x="231.43" y="60.29" width="1025.78" height="991.87" rx="29.56"/><rect class="cls-1" x="276.36" y="394.7" width="369.62" height="609.92" rx="20.95"/><rect class="cls-2" x="276.36" y="394.7" width="369.62" height="609.92" rx="20.95"/><rect class="cls-5" x="284.36" y="387.7" width="369.62" height="609.92" rx="20.95"/><rect class="cls-4" x="284.36" y="387.7" width="369.62" height="609.92" rx="20.95"/><rect class="cls-1" x="304.9" y="449.31" width="312.74" height="118.1" rx="14.96"/><rect class="cls-2" x="304.9" y="449.31" width="312.74" height="118.1" rx="14.96"/><rect x="312.9" y="442.31" width="312.74" height="118.1" rx="14.96" fill="#29b1d8"/><rect class="cls-4" x="312.9" y="442.31" width="312.74" height="118.1" rx="14.96"/><rect class="cls-1" x="597.87" y="145.58" width="268.81" height="70.45" rx="9.41"/><rect class="cls-2" x="597.87" y="145.58" width="268.81" height="70.45" rx="9.41"/><rect class="cls-3" x="605.87" y="138.58" width="268.81" height="70.45" rx="9.41"/><rect class="cls-4" x="605.87" y="138.58" width="268.81" height="70.45" rx="9.41"/><rect class="cls-7" x="306.72" y="584.9" width="312.74" height="118.1" rx="14.96"/><rect class="cls-8" x="306.72" y="584.9" width="312.74" height="118.1" rx="14.96"/><rect class="cls-9" x="314.72" y="577.9" width="312.74" height="118.1" rx="14.96"/><rect class="cls-8" x="314.72" y="577.9" width="312.74" height="118.1" rx="14.96"/><rect class="cls-1" x="306.72" y="720.5" width="312.74" height="118.1" rx="14.96"/><rect class="cls-2" x="306.72" y="720.5" width="312.74" height="118.1" rx="14.96"/><rect x="314.72" y="713.5" width="312.74" height="118.1" rx="14.96" fill="#fde23e"/><rect class="cls-4" x="314.72" y="713.5" width="312.74" height="118.1" rx="14.96"/><rect class="cls-7" x="306.72" y="856.09" width="312.74" height="118.1" rx="14.96"/><rect class="cls-8" x="306.72" y="856.09" width="312.74" height="118.1" rx="14.96"/><rect class="cls-9" x="314.72" y="849.09" width="312.74" height="118.1" rx="14.96"/><rect class="cls-8" x="314.72" y="849.09" width="312.74" height="118.1" rx="14.96"/><rect class="cls-1" x="344.94" y="365.02" width="237.32" height="60.33" rx="30.17"/><rect class="cls-2" x="344.94" y="365.02" width="237.32" height="60.33" rx="30.17"/><rect class="cls-5" x="352.94" y="358.02" width="237.32" height="60.33" rx="30.17"/><rect class="cls-4" x="352.94" y="358.02" width="237.32" height="60.33" rx="30.17"/><rect class="cls-1" x="590.85" y="34.83" width="282.84" height="60.33" rx="30.17"/><rect class="cls-2" x="590.85" y="34.83" width="282.84" height="60.33" rx="30.17"/><rect class="cls-5" x="598.85" y="27.83" width="282.84" height="60.33" rx="30.17"/><rect class="cls-4" x="598.85" y="27.83" width="282.84" height="60.33" rx="30.17"/><text class="cls-11" transform="translate(401.09 396.15)">Ad Accounts</text><text class="cls-11" transform="translate(629.08 65)">Smartl<tspan x="72.49" y="0" letter-spacing="-.05em">y</tspan><tspan x="83.71" y="0">.io </tspan><tspan x="116.66" y="0" letter-spacing="-.02em">C</tspan><tspan x="132.75" y="0">ompany</tspan></text><text class="cls-14" transform="translate(361.68 509.97)">Meta Ad Account #1</text><text transform="translate(672.3 180.4)" font-family="ProximaSoft-Regular,Proxima Soft" font-size="24.61" fill="#fff">Example Inc.</text><text class="cls-16" transform="translate(361.68 644.72)">Meta Ad Account #2</text><text class="cls-14" transform="translate(342 779.46)">Snapchat Ad Account #1</text><text class="cls-16" transform="translate(342 914.21)">Pinterest Ad Account #1</text><rect class="cls-1" x="832.95" y="406.71" width="369.69" height="469.14" rx="19"/><rect class="cls-2" x="832.95" y="406.71" width="369.69" height="469.14" rx="19"/><rect class="cls-5" x="840.95" y="399.71" width="369.69" height="469.14" rx="19"/><rect class="cls-4" x="840.95" y="399.71" width="369.69" height="469.14" rx="19"/><rect class="cls-1" x="863.81" y="591.44" width="312.74" height="118.1" rx="17.88"/><rect class="cls-2" x="863.81" y="591.44" width="312.74" height="118.1" rx="17.88"/><rect class="cls-3" x="871.81" y="584.44" width="312.74" height="118.1" rx="17.88"/><rect class="cls-4" x="871.81" y="584.44" width="312.74" height="118.1" rx="17.88"/><rect class="cls-1" x="863.81" y="450.9" width="312.74" height="118.1" rx="17.88"/><rect class="cls-2" x="863.81" y="450.9" width="312.74" height="118.1" rx="17.88"/><rect class="cls-3" x="871.81" y="443.9" width="312.74" height="118.1" rx="17.88"/><rect class="cls-4" x="871.81" y="443.9" width="312.74" height="118.1" rx="17.88"/><rect class="cls-7" x="863.81" y="726.57" width="312.74" height="118.1" rx="17.88"/><rect class="cls-8" x="863.81" y="726.57" width="312.74" height="118.1" rx="17.88"/><rect class="cls-9" x="871.81" y="719.57" width="312.74" height="118.1" rx="17.88"/><rect class="cls-8" x="871.81" y="719.57" width="312.74" height="118.1" rx="17.88"/><path d="M627.47 634.1h41.88a38.84 38.84 0 0 1 38.85 38.84v64.12a44.23 44.23 0 0 0 44.23 44.23h118.4" stroke-width="3" stroke="#c8c8cc" fill="none" stroke-miterlimit="10"/><path d="M626.05 501.21h42.26a39 39 0 0 1 39.2 38.84v64.12a44.43 44.43 0 0 0 44.63 44.23H871.6" stroke-width="3" stroke="#1d1853" fill="none" stroke-miterlimit="10"/><rect class="cls-1" x="902.03" y="371.85" width="237.32" height="60.33" rx="30.17"/><rect class="cls-2" x="902.03" y="371.85" width="237.32" height="60.33" rx="30.17"/><rect class="cls-5" x="910.03" y="364.85" width="237.32" height="60.33" rx="30.17"/><rect class="cls-4" x="910.03" y="364.85" width="237.32" height="60.33" rx="30.17"/><text class="cls-11" transform="translate(946.19 402.98)">Asset Libraries</text><path class="cls-5" d="M937.74 639.12v-12.75l-5.44 13.34a.57.57 0 0 1-.56.42.6.6 0 0 1-.57-.42l-5.41-13.34v12.75a1 1 0 0 1-1 1 1 1 0 0 1-1-1v-13.88a1.73 1.73 0 0 1 1.72-1.72 1.68 1.68 0 0 1 1.6 1.08l4.71 11.59 4.72-11.59a1.69 1.69 0 0 1 1.6-1.08 1.73 1.73 0 0 1 1.72 1.72v13.88a1 1 0 0 1-1 1 1 1 0 0 1-1.09-1zM948.71 627.85a5.63 5.63 0 0 1 5.71 5.91c0 .59-.39.93-1.08.93h-8.54a4.19 4.19 0 0 0 4.28 4.11 5.1 5.1 0 0 0 3.2-1.13.84.84 0 0 1 .42-.1.74.74 0 0 1 .76.74.77.77 0 0 1-.32.62 6.73 6.73 0 0 1-4.23 1.4 6.25 6.25 0 0 1-.2-12.48zm-3.91 5.49h7.8a3.84 3.84 0 0 0-3.91-4 4 4 0 0 0-3.89 4zM962.54 639.25a.68.68 0 0 1-.47.68 3.09 3.09 0 0 1-1.67.4c-1.75 0-2.63-1-2.63-2.78v-7.78h-1.26a.81.81 0 1 1 0-1.62h1.26v-2.44a.92.92 0 0 1 1.84 0v2.44h1.7a.81.81 0 1 1 0 1.62h-1.7v7.38c0 .89.4 1.53 1.21 1.53.52 0 .69-.22.93-.22a.75.75 0 0 1 .79.79zM973.91 631.86v7.36a.93.93 0 0 1-.93.91.92.92 0 0 1-.91-.91v-.54a5.06 5.06 0 0 1-3.94 1.65 4 4 0 0 1-4.16-3.94 3.89 3.89 0 0 1 4.16-3.91 5 5 0 0 1 3.94 1.62V632c0-1.6-1.28-2.51-3-2.51a4.38 4.38 0 0 0-3.1 1.18.89.89 0 0 1-.49.15.77.77 0 0 1-.76-.76.78.78 0 0 1 .32-.62 6.14 6.14 0 0 1 4.28-1.55c2.5-.04 4.59 1.11 4.59 3.97zm-1.84 5.66v-2.24a4 4 0 0 0-3.28-1.47 2.61 2.61 0 1 0 0 5.19 4 4 0 0 0 3.28-1.48zM997.61 639.07a1 1 0 0 1-2 .4l-1.18-3.08H986l-1.18 3.08a1 1 0 0 1-1 .66 1 1 0 0 1-1.06-1 1.42 1.42 0 0 1 .1-.42l5.66-14a1.8 1.8 0 0 1 1.67-1.13 1.76 1.76 0 0 1 1.65 1.13l5.68 14a1.8 1.8 0 0 1 .09.36zm-3.89-4.5l-3.52-9.13-3.52 9.13zM1010.6 624.43v14.79a.93.93 0 0 1-1.85 0v-1a5 5 0 0 1-4 2.07c-3.1 0-5.29-2.36-5.29-6.23s2.17-6.25 5.29-6.25a5 5 0 0 1 4 2.12v-5.54a.93.93 0 0 1 1.85 0zm-1.85 12.38v-5.39a4.44 4.44 0 0 0-3.57-1.92c-2.38 0-3.81 2-3.81 4.6s1.43 4.58 3.81 4.58a4.42 4.42 0 0 0 3.57-1.87zM1034.3 639.07a1 1 0 0 1-2 .4l-1.18-3.08h-8.45l-1.18 3.08a1 1 0 0 1-1 .66 1 1 0 0 1-1.06-1 1.42 1.42 0 0 1 .1-.42l5.66-14a1.82 1.82 0 0 1 1.68-1.13 1.76 1.76 0 0 1 1.65 1.13l5.68 14a1.8 1.8 0 0 1 .1.36zm-3.89-4.5l-3.52-9.13-3.52 9.13zM1042.07 627.85a5.14 5.14 0 0 1 3.82 1.48.91.91 0 0 1 .27.61.83.83 0 0 1-.84.84.79.79 0 0 1-.54-.22 3.43 3.43 0 0 0-2.61-1.06c-2.54 0-4.11 1.94-4.11 4.58s1.57 4.6 4.11 4.6a3.36 3.36 0 0 0 2.58-1.06.78.78 0 0 1 .57-.22.83.83 0 0 1 .84.84.87.87 0 0 1-.27.61 5.14 5.14 0 0 1-3.82 1.48c-3.54 0-5.93-2.71-5.93-6.25s2.39-6.23 5.93-6.23zM1054.25 627.85a5.14 5.14 0 0 1 3.82 1.48.91.91 0 0 1 .27.61.83.83 0 0 1-.84.84.79.79 0 0 1-.54-.22 3.43 3.43 0 0 0-2.61-1.06c-2.54 0-4.11 1.94-4.11 4.58s1.57 4.6 4.11 4.6a3.36 3.36 0 0 0 2.58-1.06.78.78 0 0 1 .57-.22.83.83 0 0 1 .84.84.87.87 0 0 1-.27.61 5.14 5.14 0 0 1-3.82 1.48c-3.54 0-5.93-2.71-5.93-6.25s2.39-6.23 5.93-6.23zM1060.5 634.08c0-3.45 2.26-6.23 5.88-6.23s5.88 2.78 5.88 6.23-2.26 6.25-5.88 6.25-5.88-2.81-5.88-6.25zm9.82 0c0-2.41-1.4-4.58-3.94-4.58s-4 2.17-4 4.58 1.43 4.6 4 4.6 3.94-2.17 3.94-4.6zM1085.13 629v10.26a.92.92 0 0 1-1.84 0v-.84a5.85 5.85 0 0 1-4.24 2c-2.48 0-3.79-1.21-3.79-3.79V629a.93.93 0 0 1 1.85 0v7c0 2.09 1.06 2.71 2.66 2.71a4.56 4.56 0 0 0 3.52-1.8V629a.92.92 0 0 1 1.84 0zM1098.69 631.69v7.53a.93.93 0 0 1-1.85 0v-7c0-2.1-1-2.76-2.65-2.76a4.57 4.57 0 0 0-3.52 1.84v7.88a.93.93 0 0 1-1.85 0V629a.93.93 0 0 1 1.85 0v.93a5.78 5.78 0 0 1 4.23-2c2.49-.08 3.79 1.18 3.79 3.76zM1107.52 639.25a.69.69 0 0 1-.46.68 3.16 3.16 0 0 1-1.68.4c-1.74 0-2.63-1-2.63-2.78v-7.78h-1.26a.81.81 0 1 1 0-1.62h1.26v-2.44a.93.93 0 0 1 1.85 0v2.44h1.69a.81.81 0 1 1 0 1.62h-1.69v7.38c0 .89.39 1.53 1.2 1.53.52 0 .69-.22.94-.22a.75.75 0 0 1 .78.79zM1128 628.74a.66.66 0 0 1-.66.64h-2.29l-1.65 4.89h2a.66.66 0 0 1 .64.67.64.64 0 0 1-.64.64h-2.4l-1.38 4.06a.69.69 0 0 1-.66.49.7.7 0 0 1-.71-.69 1.45 1.45 0 0 1 0-.29l1.21-3.57h-2.73l-1.36 4.06a.7.7 0 0 1-.68.49.71.71 0 0 1-.72-.69 1.08 1.08 0 0 1 0-.27l1.21-3.59h-1.82a.65.65 0 0 1-.67-.64.67.67 0 0 1 .67-.67h2.26l1.62-4.89h-1.89a.64.64 0 1 1 0-1.28h2.34l1.35-4.09a.69.69 0 0 1 .69-.49.71.71 0 0 1 .71.69.76.76 0 0 1 0 .27l-1.2 3.62h2.76l1.33-4.09a.73.73 0 0 1 .69-.49.71.71 0 0 1 .71.69.76.76 0 0 1 0 .27l-1.2 3.62h1.87a.66.66 0 0 1 .6.64zm-4.45.64h-2.73l-1.63 4.89h2.68zM1133 639.12v-12.8l-2.1 2.22a.87.87 0 0 1-.61.27.89.89 0 0 1-.89-.89.87.87 0 0 1 .25-.61l3.35-3.45a1.2 1.2 0 0 1 2 .84v14.42a1 1 0 0 1-2 0zM974.89 668.6a1 1 0 0 1-2 .4l-1.18-3.08h-8.45l-1.2 3.08a1 1 0 0 1-1 .66 1 1 0 0 1-1.06-1 1.42 1.42 0 0 1 .1-.42l5.66-14a1.79 1.79 0 0 1 1.68-1.13 1.74 1.74 0 0 1 1.65 1.13l5.68 14a1.8 1.8 0 0 1 .12.36zm-3.89-4.5l-3.52-9.1-3.48 9.1zM976.58 667.79a.82.82 0 0 1 .81-.81.86.86 0 0 1 .49.15 5.38 5.38 0 0 0 3.38 1.23c1.82 0 2.8-.82 2.8-2 0-1.31-1.45-1.73-3-2.12-2-.47-4.31-1-4.31-3.47 0-1.85 1.6-3.42 4.43-3.42a6.16 6.16 0 0 1 3.94 1.3.86.86 0 0 1 .32.62.81.81 0 0 1-.79.79.77.77 0 0 1-.44-.18 4.6 4.6 0 0 0-3-1c-1.62 0-2.63.74-2.63 1.8s1.35 1.52 2.9 1.89c2.07.47 4.46 1.06 4.46 3.69 0 2-1.6 3.6-4.68 3.6a6.55 6.55 0 0 1-4.26-1.41.77.77 0 0 1-.42-.66zM988 667.79a.82.82 0 0 1 .81-.81.89.89 0 0 1 .5.15 5.33 5.33 0 0 0 3.37 1.23c1.82 0 2.8-.82 2.8-2 0-1.31-1.45-1.73-3-2.12-2-.47-4.31-1-4.31-3.47 0-1.85 1.6-3.42 4.43-3.42a6.16 6.16 0 0 1 3.94 1.3.86.86 0 0 1 .32.62.81.81 0 0 1-.78.79.77.77 0 0 1-.45-.18 4.58 4.58 0 0 0-3-1c-1.62 0-2.63.74-2.63 1.8s1.35 1.52 2.91 1.89c2.06.47 4.45 1.06 4.45 3.69 0 2-1.6 3.6-4.68 3.6a6.51 6.51 0 0 1-4.25-1.41.75.75 0 0 1-.43-.66zM1005.47 657.38a5.63 5.63 0 0 1 5.71 5.91c0 .59-.39.93-1.08.93h-8.54a4.18 4.18 0 0 0 4.28 4.11 5.14 5.14 0 0 0 3.2-1.13.84.84 0 0 1 .42-.1.75.75 0 0 1 .76.74.74.74 0 0 1-.32.61 6.75 6.75 0 0 1-4.23 1.41 6.25 6.25 0 0 1-.2-12.48zm-3.91 5.49h7.8a3.86 3.86 0 0 0-3.92-4 4 4 0 0 0-3.88 4zM1019.3 668.77a.69.69 0 0 1-.47.69 3.14 3.14 0 0 1-1.67.4c-1.75 0-2.64-1-2.64-2.78v-7.78h-1.25a.82.82 0 0 1 0-1.63h1.25v-2.43a.93.93 0 0 1 1.85 0v2.43h1.7a.82.82 0 1 1 0 1.63h-1.7v7.38c0 .89.39 1.53 1.2 1.53.52 0 .69-.22.94-.22a.75.75 0 0 1 .79.78zM1027.81 668.48v-14.42a1 1 0 0 1 2 0v13.68h6.82a.91.91 0 1 1 0 1.82h-7.78a1 1 0 0 1-1.04-1.08zM1040 654a1.24 1.24 0 1 1 2.48 0 1.24 1.24 0 0 1-2.48 0zm.32 14.72v-10.23a.92.92 0 0 1 1.84 0v10.26a.93.93 0 0 1-.93.91.92.92 0 0 1-.94-.91zM1057 663.63c0 3.86-2.19 6.23-5.29 6.23a5 5 0 0 1-4-2.07v1a.93.93 0 0 1-1.85 0V654a.93.93 0 0 1 1.85 0v5.54a4.89 4.89 0 0 1 4-2.12c3.07-.04 5.29 2.42 5.29 6.21zm-1.92 0c0-2.63-1.43-4.6-3.84-4.6a4.4 4.4 0 0 0-3.54 1.92v5.39a4.38 4.38 0 0 0 3.54 1.87c2.38 0 3.81-1.95 3.81-4.58zM1065.9 658.36c0 .45-.37.84-1 .91a4.37 4.37 0 0 0-3.07 1.87v7.61a.93.93 0 0 1-1.85 0v-10.26a.93.93 0 0 1 1.85 0v1.1a5.22 5.22 0 0 1 2.65-2 2.13 2.13 0 0 1 .59-.12.82.82 0 0 1 .83.89zM1077.37 661.39v7.36a.93.93 0 0 1-1.85 0v-.54a5 5 0 0 1-3.93 1.65 4 4 0 0 1-4.16-3.94 3.89 3.89 0 0 1 4.16-3.91 5 5 0 0 1 3.93 1.62v-2.14c0-1.6-1.28-2.51-3-2.51a4.36 4.36 0 0 0-3.1 1.18 1 1 0 0 1-.49.15.78.78 0 0 1-.77-.77.8.8 0 0 1 .32-.61 6.18 6.18 0 0 1 4.29-1.55c2.51 0 4.6 1.13 4.6 4.01zm-1.85 5.66v-2.24a4 4 0 0 0-3.27-1.47 2.61 2.61 0 1 0 0 5.19 4 4 0 0 0 3.27-1.48zM1087 658.36c0 .45-.37.84-1 .91a4.41 4.41 0 0 0-3.08 1.87v7.61a.92.92 0 0 1-.91.91.93.93 0 0 1-.93-.91v-10.26a.92.92 0 0 1 1.84 0v1.1a5.28 5.28 0 0 1 2.66-2 2.13 2.13 0 0 1 .59-.12.83.83 0 0 1 .83.89zM1089.42 672.71h.4a1.71 1.71 0 0 0 1.77-1.26l.79-1.8-4.48-10.82a.93.93 0 0 1-.08-.35.91.91 0 0 1 .92-.93.93.93 0 0 1 .86.56l3.76 9.28 3.74-9.28a1 1 0 0 1 .87-.56.91.91 0 0 1 .93.93 1 1 0 0 1-.07.37l-5.47 13.15a3.53 3.53 0 0 1-3.49 2.42 2.05 2.05 0 0 1-.54 0 .84.84 0 0 1-.79-.82.86.86 0 0 1 .88-.89z"/><path class="cls-7" d="M934.75 771.86v-12.75l-5.44 13.34a.57.57 0 0 1-.56.42.6.6 0 0 1-.57-.42l-5.41-13.34v12.75a1 1 0 0 1-2 0V758a1.74 1.74 0 0 1 1.73-1.73 1.71 1.71 0 0 1 1.6 1.09l4.7 11.59 4.72-11.59a1.7 1.7 0 0 1 1.6-1.09 1.73 1.73 0 0 1 1.72 1.73v13.88a1 1 0 0 1-1 1 1 1 0 0 1-1.09-1.02zM945.72 760.59a5.63 5.63 0 0 1 5.71 5.9c0 .59-.39.94-1.08.94h-8.54a4.19 4.19 0 0 0 4.28 4.11 5.1 5.1 0 0 0 3.2-1.13.77.77 0 0 1 .42-.1.74.74 0 0 1 .76.74.76.76 0 0 1-.32.61 6.73 6.73 0 0 1-4.23 1.4 6.24 6.24 0 0 1-.2-12.47zm-3.91 5.49h7.8a3.85 3.85 0 0 0-3.91-4 4 4 0 0 0-3.89 4zM959.55 772a.69.69 0 0 1-.46.69 3.16 3.16 0 0 1-1.68.39c-1.75 0-2.63-1-2.63-2.78v-7.77h-1.26a.82.82 0 0 1 0-1.63h1.26v-2.43a.93.93 0 0 1 .93-.92.92.92 0 0 1 .91.92v2.43h1.7a.82.82 0 1 1 0 1.63h-1.7v7.38c0 .89.4 1.53 1.21 1.53.52 0 .69-.23.94-.23a.75.75 0 0 1 .78.79zM970.92 764.6v7.4a.93.93 0 0 1-.93.91.92.92 0 0 1-.91-.91v-.54a5.05 5.05 0 0 1-3.94 1.64 4 4 0 0 1-4.16-3.93 3.9 3.9 0 0 1 4.16-3.92 5 5 0 0 1 3.94 1.63v-2.18c0-1.6-1.28-2.51-3-2.51a4.38 4.38 0 0 0-3.1 1.18 1 1 0 0 1-.49.15.76.76 0 0 1-.44-1.38 6.14 6.14 0 0 1 4.28-1.55c2.5 0 4.59 1.13 4.59 4.01zm-1.84 5.66V768a4 4 0 0 0-3.28-1.48 2.62 2.62 0 1 0 0 5.2 4 4 0 0 0 3.28-1.46zM994.62 771.81a1 1 0 0 1-2 .39l-1.18-3.07H983l-1.18 3.07a1 1 0 0 1-1 .67 1.05 1.05 0 0 1-1.06-1 1.36 1.36 0 0 1 .1-.41l5.66-14a1.8 1.8 0 0 1 1.67-1.14 1.75 1.75 0 0 1 1.65 1.14l5.69 14a2.66 2.66 0 0 1 .09.35zm-3.89-4.5l-3.52-9.14-3.52 9.14zM1007.61 757.17V772a.93.93 0 0 1-1.85 0v-1a5 5 0 0 1-4 2.06c-3.1 0-5.29-2.36-5.29-6.22s2.17-6.25 5.29-6.25a4.94 4.94 0 0 1 4 2.11v-5.53a.93.93 0 0 1 1.85 0zm-1.85 12.37v-5.38a4.43 4.43 0 0 0-3.56-1.92c-2.39 0-3.82 2-3.82 4.6s1.43 4.58 3.82 4.58a4.4 4.4 0 0 0 3.56-1.88zM1031.31 771.81a1 1 0 0 1-2 .39l-1.18-3.07h-8.44l-1.19 3.07a1 1 0 0 1-1 .67 1 1 0 0 1-1-1 1.69 1.69 0 0 1 .09-.41l5.66-14a1.82 1.82 0 0 1 1.68-1.14 1.75 1.75 0 0 1 1.65 1.14l5.68 14a1.8 1.8 0 0 1 .05.35zm-3.89-4.5l-3.52-9.14-3.52 9.14zM1039.08 760.59a5.13 5.13 0 0 1 3.82 1.47.94.94 0 0 1 .27.62.83.83 0 0 1-.84.84.75.75 0 0 1-.54-.23 3.45 3.45 0 0 0-2.61-1c-2.54 0-4.11 1.94-4.11 4.57s1.57 4.61 4.11 4.61a3.36 3.36 0 0 0 2.58-1.06.78.78 0 0 1 .57-.22.82.82 0 0 1 .84.83.89.89 0 0 1-.27.62 5.13 5.13 0 0 1-3.82 1.47c-3.54 0-5.93-2.7-5.93-6.25a5.87 5.87 0 0 1 5.93-6.27zM1051.26 760.59a5.13 5.13 0 0 1 3.82 1.47.94.94 0 0 1 .27.62.83.83 0 0 1-.84.84.75.75 0 0 1-.54-.23 3.45 3.45 0 0 0-2.61-1c-2.54 0-4.11 1.94-4.11 4.57s1.57 4.61 4.11 4.61a3.36 3.36 0 0 0 2.58-1.06.78.78 0 0 1 .57-.22.82.82 0 0 1 .84.83.89.89 0 0 1-.27.62 5.13 5.13 0 0 1-3.82 1.47c-3.54 0-5.93-2.7-5.93-6.25a5.87 5.87 0 0 1 5.93-6.27zM1057.51 766.81c0-3.44 2.26-6.22 5.88-6.22s5.88 2.78 5.88 6.22-2.26 6.25-5.88 6.25-5.88-2.8-5.88-6.25zm9.82 0c0-2.41-1.4-4.57-3.94-4.57s-4 2.16-4 4.57 1.43 4.61 4 4.61 3.94-2.17 3.94-4.61zM1082.14 761.69V772a.92.92 0 0 1-1.84 0v-.84a5.84 5.84 0 0 1-4.24 1.94c-2.48 0-3.79-1.2-3.79-3.79v-7.58a.93.93 0 0 1 1.85 0v7c0 2.09 1.06 2.71 2.66 2.71a4.56 4.56 0 0 0 3.52-1.8v-7.93a.92.92 0 0 1 1.84 0zM1095.7 764.43V772a.93.93 0 0 1-1.85 0v-7c0-2.09-1-2.75-2.65-2.75a4.59 4.59 0 0 0-3.52 1.84V772a.93.93 0 0 1-1.85 0v-10.31a.93.93 0 0 1 1.85 0v.94a5.75 5.75 0 0 1 4.23-2c2.49-.04 3.79 1.21 3.79 3.8zM1104.53 772a.69.69 0 0 1-.46.69 3.16 3.16 0 0 1-1.68.39c-1.74 0-2.63-1-2.63-2.78v-7.77h-1.26a.82.82 0 0 1 0-1.63h1.26v-2.43a.93.93 0 0 1 1.85 0v2.43h1.69a.82.82 0 1 1 0 1.63h-1.69v7.38c0 .89.39 1.53 1.2 1.53.52 0 .69-.23.94-.23a.75.75 0 0 1 .78.79zM1125 761.47a.66.66 0 0 1-.66.64h-2.29l-1.65 4.9h2a.66.66 0 0 1 .64.66.64.64 0 0 1-.64.64h-2.4l-1.38 4.07a.68.68 0 0 1-.66.49.71.71 0 0 1-.71-.69 1 1 0 0 1 0-.3l1.2-3.57h-2.73l-1.35 4.07a.72.72 0 0 1-.69.49.71.71 0 0 1-.72-.69 1 1 0 0 1 0-.27l1.21-3.6h-1.82a.65.65 0 0 1-.67-.64.67.67 0 0 1 .67-.66h2.26l1.63-4.9h-1.9a.64.64 0 1 1 0-1.28h2.34l1.35-4.08a.7.7 0 0 1 .69-.5.71.71 0 0 1 .71.69 1 1 0 0 1 0 .27l-1.21 3.62h2.78l1.33-4.08a.74.74 0 0 1 .69-.5.71.71 0 0 1 .71.69.72.72 0 0 1 0 .27l-1.2 3.62h1.87a.66.66 0 0 1 .6.64zm-4.45.64h-2.73l-1.63 4.9h2.68zM1126.7 771.69a1.13 1.13 0 0 1 .45-.89c5.71-4.43 8.78-7.11 8.78-9.87 0-2.09-1.72-3-3.42-3a5.5 5.5 0 0 0-3.91 1.52 1.07 1.07 0 0 1-.62.23.92.92 0 0 1-.91-.94.94.94 0 0 1 .32-.69 7.35 7.35 0 0 1 5.12-1.94c2.73 0 5.51 1.55 5.51 4.82s-3.39 6.4-8 10h7.24a.91.91 0 0 1 0 1.82h-9.5a1.11 1.11 0 0 1-1.06-1.06zM974.89 801.34a1 1 0 0 1-2 .39l-1.18-3.07h-8.45l-1.18 3.07a1 1 0 0 1-1 .67 1.05 1.05 0 0 1-1.06-1 1.49 1.49 0 0 1 .1-.42l5.66-14a1.8 1.8 0 0 1 1.68-1.14 1.75 1.75 0 0 1 1.65 1.14l5.68 14a1.89 1.89 0 0 1 .1.36zm-3.89-4.51l-3.52-9.13-3.48 9.13zM976.58 800.53a.82.82 0 0 1 .81-.82.86.86 0 0 1 .49.15 5.32 5.32 0 0 0 3.38 1.23c1.82 0 2.8-.81 2.8-2s-1.45-1.72-3-2.11c-2-.47-4.31-1-4.31-3.47 0-1.85 1.6-3.43 4.43-3.43a6.16 6.16 0 0 1 3.94 1.31.86.86 0 0 1 .32.61.81.81 0 0 1-.79.79.76.76 0 0 1-.44-.17 4.6 4.6 0 0 0-3-1c-1.62 0-2.63.73-2.63 1.79s1.35 1.53 2.9 1.9c2.07.47 4.46 1.06 4.46 3.69 0 2-1.6 3.59-4.68 3.59a6.54 6.54 0 0 1-4.26-1.4.78.78 0 0 1-.42-.66zM988 800.53a.82.82 0 0 1 .81-.82.89.89 0 0 1 .5.15 5.27 5.27 0 0 0 3.37 1.23c1.82 0 2.8-.81 2.8-2s-1.45-1.72-3-2.11c-2-.47-4.31-1-4.31-3.47 0-1.85 1.6-3.43 4.43-3.43a6.16 6.16 0 0 1 3.94 1.31.86.86 0 0 1 .32.61.81.81 0 0 1-.78.79.76.76 0 0 1-.45-.17 4.58 4.58 0 0 0-3-1c-1.62 0-2.63.73-2.63 1.79s1.35 1.53 2.91 1.9c2.06.47 4.45 1.06 4.45 3.69 0 2-1.6 3.59-4.68 3.59a6.5 6.5 0 0 1-4.25-1.4.77.77 0 0 1-.43-.66zM1005.47 790.11a5.64 5.64 0 0 1 5.71 5.91c0 .59-.39.94-1.08.94h-8.54a4.18 4.18 0 0 0 4.28 4.11 5.2 5.2 0 0 0 3.2-1.13.79.79 0 0 1 1.18.64.76.76 0 0 1-.32.61 6.75 6.75 0 0 1-4.23 1.4 6.25 6.25 0 0 1-.2-12.48zm-3.91 5.49h7.8a3.86 3.86 0 0 0-3.92-4 4 4 0 0 0-3.88 4zM1019.3 801.51a.69.69 0 0 1-.47.69 3.15 3.15 0 0 1-1.67.39c-1.75 0-2.64-1-2.64-2.78V792h-1.25a.81.81 0 0 1 0-1.62h1.25V788a.93.93 0 0 1 1.85 0v2.44h1.7a.81.81 0 1 1 0 1.62h-1.7v7.39c0 .88.39 1.52 1.2 1.52.52 0 .69-.22.94-.22a.75.75 0 0 1 .79.76zM1027.81 801.21v-14.42a1 1 0 0 1 2 0v13.69h6.82a.91.91 0 1 1 0 1.82h-7.78a1 1 0 0 1-1.04-1.09zM1040 786.77a1.24 1.24 0 1 1 2.48 0 1.24 1.24 0 0 1-2.48 0zm.32 14.72v-10.27a.92.92 0 0 1 1.84 0v10.27a.93.93 0 0 1-.93.91.92.92 0 0 1-.94-.91zM1057 796.37c0 3.86-2.19 6.22-5.29 6.22a5.05 5.05 0 0 1-4-2.06v1a.93.93 0 0 1-1.85 0v-14.8a.93.93 0 0 1 1.85 0v5.54a4.89 4.89 0 0 1 4-2.12c3.07-.04 5.29 2.43 5.29 6.22zm-1.92 0c0-2.64-1.43-4.61-3.84-4.61a4.42 4.42 0 0 0-3.54 1.92v5.39a4.35 4.35 0 0 0 3.54 1.87c2.38 0 3.81-1.94 3.81-4.57zM1065.9 791.1c0 .44-.37.84-1 .91a4.33 4.33 0 0 0-3.07 1.87v7.61a.93.93 0 0 1-1.85 0v-10.27a.93.93 0 0 1 1.85 0v1.11a5.17 5.17 0 0 1 2.65-2 1.86 1.86 0 0 1 .59-.13.83.83 0 0 1 .83.9zM1077.37 794.13v7.36a.93.93 0 0 1-1.85 0v-.55a5 5 0 0 1-3.93 1.65 4 4 0 0 1-4.16-3.93 3.9 3.9 0 0 1 4.16-3.92 5 5 0 0 1 3.93 1.63v-2.15c0-1.59-1.28-2.51-3-2.51a4.37 4.37 0 0 0-3.1 1.19 1 1 0 0 1-.49.14.77.77 0 0 1-.77-.76.79.79 0 0 1 .32-.61 6.19 6.19 0 0 1 4.29-1.56c2.51 0 4.6 1.14 4.6 4.02zm-1.85 5.66v-2.24a4 4 0 0 0-3.27-1.48 2.61 2.61 0 1 0 0 5.19 4 4 0 0 0 3.27-1.47zM1087 791.1c0 .44-.37.84-1 .91a4.37 4.37 0 0 0-3.08 1.87v7.61a.92.92 0 0 1-.91.91.93.93 0 0 1-.93-.91v-10.27a.92.92 0 0 1 1.84 0v1.11a5.23 5.23 0 0 1 2.66-2 1.86 1.86 0 0 1 .59-.13.83.83 0 0 1 .83.9zM1089.42 805.45h.4a1.71 1.71 0 0 0 1.77-1.25l.79-1.8-4.48-10.83a.84.84 0 0 1-.08-.34.92.92 0 0 1 .92-.94.94.94 0 0 1 .86.57l3.76 9.28 3.74-9.28a1 1 0 0 1 .87-.57.92.92 0 0 1 .93.94 1 1 0 0 1-.07.37l-5.47 13.09a3.53 3.53 0 0 1-3.49 2.41 2.05 2.05 0 0 1-.54 0 .83.83 0 0 1-.79-.81.85.85 0 0 1 .88-.84z"/><path class="cls-5" d="M946 489.05a8.19 8.19 0 0 1 8.36-8.5 7.42 7.42 0 0 1 5.64 2.39 1 1 0 0 1 .25.67 1 1 0 0 1-1 1 1 1 0 0 1-.74-.32 5.63 5.63 0 0 0-4.19-1.87c-3.52 0-6.25 2.75-6.25 6.67s2.73 6.67 6.25 6.67a5.55 5.55 0 0 0 4.19-1.87.93.93 0 0 1 .74-.32 1 1 0 0 1 1 1 .94.94 0 0 1-.25.66 7.34 7.34 0 0 1-5.64 2.39 8.19 8.19 0 0 1-8.36-8.57zM962.05 491.29c0-3.45 2.26-6.23 5.88-6.23s5.88 2.78 5.88 6.23-2.26 6.25-5.88 6.25-5.88-2.81-5.88-6.25zm9.82 0c0-2.42-1.4-4.58-3.94-4.58s-4 2.16-4 4.58 1.43 4.6 4 4.6 3.94-2.17 3.94-4.6zM993 488.65v7.78a1 1 0 0 1-.94.91.93.93 0 0 1-.91-.91v-7.26c0-1.5-.66-2.46-2.19-2.46a4.15 4.15 0 0 0-3.15 1.82v7.9a.93.93 0 0 1-.91.91 1 1 0 0 1-.94-.91v-7.26c0-1.5-.63-2.46-2.19-2.46a4.14 4.14 0 0 0-3.12 1.84v7.88a.93.93 0 0 1-1.85 0v-10.26a.93.93 0 0 1 1.85 0v.91a5.13 5.13 0 0 1 3.84-2 3.05 3.05 0 0 1 3.2 2.21 5 5 0 0 1 4-2.21c2.16-.02 3.31 1.18 3.31 3.57zM1007.84 491.29c0 3.84-2.16 6.25-5.29 6.25a4.91 4.91 0 0 1-4-2.12V501a.93.93 0 0 1-1.85 0v-14.83a.93.93 0 0 1 1.85 0v1a5 5 0 0 1 4-2.07c3.13-.04 5.29 2.32 5.29 6.19zm-1.94 0c0-2.64-1.43-4.58-3.81-4.58a4.4 4.4 0 0 0-3.55 1.89v5.4a4.43 4.43 0 0 0 3.55 1.92c2.38-.03 3.81-2 3.81-4.63zM1020.1 489.07v7.36a.93.93 0 0 1-1.85 0v-.54a5 5 0 0 1-3.94 1.65 4 4 0 0 1-4.16-3.94 3.89 3.89 0 0 1 4.16-3.91 5 5 0 0 1 3.94 1.62v-2.14c0-1.6-1.28-2.51-3-2.51a4.36 4.36 0 0 0-3.1 1.18 1 1 0 0 1-.49.15.78.78 0 0 1-.77-.77.8.8 0 0 1 .32-.61 6.18 6.18 0 0 1 4.29-1.55c2.5 0 4.6 1.13 4.6 4.01zm-1.85 5.66v-2.24A4 4 0 0 0 1015 491a2.61 2.61 0 1 0 0 5.19 4 4 0 0 0 3.25-1.46zM1033.66 488.9v7.53a.93.93 0 0 1-1.85 0v-7c0-2.09-1.06-2.75-2.66-2.75a4.59 4.59 0 0 0-3.52 1.84v7.88a.92.92 0 0 1-1.84 0v-10.23a.92.92 0 0 1 1.84 0v.93a5.79 5.79 0 0 1 4.24-2c2.48-.04 3.79 1.21 3.79 3.8zM1037.59 500.39h.39a1.71 1.71 0 0 0 1.78-1.26l.78-1.79-4.48-10.83a1.15 1.15 0 0 1-.07-.35.92.92 0 0 1 1.77-.37l3.77 9.28 3.74-9.28a.94.94 0 0 1 .86-.56.92.92 0 0 1 .94.93 1 1 0 0 1-.08.37l-5.46 13.09a3.55 3.55 0 0 1-3.5 2.42 2.09 2.09 0 0 1-.54-.05.84.84 0 0 1-.79-.81.86.86 0 0 1 .89-.79zM1069.41 496.28a1 1 0 0 1-2 .4l-1.18-3.08h-8.44l-1.18 3.08a1 1 0 0 1-1 .66 1 1 0 0 1-1.06-1 1.42 1.42 0 0 1 .1-.42l5.66-14a1.8 1.8 0 0 1 1.67-1.13 1.75 1.75 0 0 1 1.65 1.13l5.69 14a2.66 2.66 0 0 1 .09.36zm-3.89-4.5l-3.52-9.13-3.52 9.13zM1071.1 495.47a.82.82 0 0 1 .82-.81.88.88 0 0 1 .49.15 5.33 5.33 0 0 0 3.37 1.23c1.82 0 2.81-.82 2.81-2 0-1.31-1.46-1.73-3.06-2.12-2-.47-4.3-1-4.3-3.47 0-1.85 1.6-3.42 4.43-3.42a6.16 6.16 0 0 1 3.94 1.3.86.86 0 0 1 .32.62.81.81 0 0 1-.79.79.8.8 0 0 1-.45-.18 4.55 4.55 0 0 0-3-1c-1.63 0-2.64.74-2.64 1.8s1.36 1.52 2.91 1.89c2.07.47 4.45 1.06 4.45 3.69 0 2-1.6 3.6-4.67 3.6a6.53 6.53 0 0 1-4.26-1.41.78.78 0 0 1-.37-.66zM1082.55 495.47a.82.82 0 0 1 .81-.81.88.88 0 0 1 .49.15 5.33 5.33 0 0 0 3.37 1.23c1.82 0 2.81-.82 2.81-2 0-1.31-1.45-1.73-3-2.12-2-.47-4.31-1-4.31-3.47 0-1.85 1.6-3.42 4.43-3.42a6.16 6.16 0 0 1 3.94 1.3.86.86 0 0 1 .32.62.81.81 0 0 1-.79.79.74.74 0 0 1-.44-.18 4.6 4.6 0 0 0-3-1c-1.63 0-2.63.74-2.63 1.8s1.35 1.52 2.9 1.89c2.07.47 4.46 1.06 4.46 3.69 0 2-1.6 3.6-4.68 3.6a6.53 6.53 0 0 1-4.26-1.41.77.77 0 0 1-.42-.66zM1100 485.06a5.63 5.63 0 0 1 5.71 5.91c0 .59-.39.93-1.08.93h-8.54a4.19 4.19 0 0 0 4.28 4.11 5.1 5.1 0 0 0 3.2-1.13.87.87 0 0 1 .42-.1.74.74 0 0 1 .44 1.35 6.73 6.73 0 0 1-4.23 1.41 6.25 6.25 0 0 1-.2-12.48zm-3.91 5.49h7.8a3.84 3.84 0 0 0-3.91-4 4 4 0 0 0-3.9 4zM1113.82 496.46a.68.68 0 0 1-.47.68 3.09 3.09 0 0 1-1.67.4c-1.75 0-2.63-1-2.63-2.78V487h-1.26a.82.82 0 0 1 0-1.63h1.26v-2.43a.92.92 0 0 1 1.84 0v2.43h1.7a.82.82 0 1 1 0 1.63h-1.7v7.38c0 .89.4 1.53 1.21 1.53.52 0 .69-.22.93-.22a.75.75 0 0 1 .79.77zM994.56 525.69v-14.43a1 1 0 0 1 1-1 1 1 0 0 1 1 1V525h6.82a.91.91 0 1 1 0 1.82h-7.78a1 1 0 0 1-1.04-1.13zM1006.71 511.24a1.25 1.25 0 1 1 2.49 0 1.25 1.25 0 0 1-2.49 0zM1007 526v-10.3a.93.93 0 0 1 1.85 0V526a.93.93 0 0 1-1.85 0zM1023.72 520.84c0 3.86-2.19 6.23-5.29 6.23a5.07 5.07 0 0 1-4-2.07v1a.92.92 0 0 1-1.84 0v-14.83a.92.92 0 0 1 1.84 0v5.53a4.92 4.92 0 0 1 4-2.11c3.1 0 5.29 2.46 5.29 6.25zm-1.92 0c0-2.63-1.43-4.6-3.84-4.6a4.41 4.41 0 0 0-3.55 1.92v5.39a4.4 4.4 0 0 0 3.55 1.87c2.41 0 3.84-1.95 3.84-4.58zM1032.65 515.57c0 .44-.37.84-1 .91a4.39 4.39 0 0 0-3.08 1.87V526a.92.92 0 0 1-1.84 0v-10.3a.92.92 0 0 1 .91-.92.93.93 0 0 1 .93.92v1.1a5.19 5.19 0 0 1 2.66-2 2.06 2.06 0 0 1 .59-.12.82.82 0 0 1 .83.89zM1044.11 518.6v7.4a.92.92 0 0 1-1.84 0v-.54a5.06 5.06 0 0 1-3.94 1.65 4 4 0 0 1-4.16-3.94 3.9 3.9 0 0 1 4.16-3.92 5 5 0 0 1 3.94 1.63v-2.18c0-1.6-1.28-2.51-3-2.51a4.38 4.38 0 0 0-3.11 1.18 1 1 0 0 1-.49.15.77.77 0 0 1-.76-.77.8.8 0 0 1 .32-.61 6.14 6.14 0 0 1 4.28-1.55c2.49 0 4.6 1.13 4.6 4.01zm-1.84 5.66V522a4 4 0 0 0-3.27-1.48 2.62 2.62 0 1 0 0 5.2 4 4 0 0 0 3.27-1.46zM1053.73 515.57a1 1 0 0 1-1 .91 4.37 4.37 0 0 0-3.08 1.87V526a.93.93 0 0 1-1.85 0v-10.3a.93.93 0 0 1 1.85 0v1.1a5.19 5.19 0 0 1 2.66-2 2 2 0 0 1 .59-.12.82.82 0 0 1 .83.89zM1056.17 529.92h.39a1.71 1.71 0 0 0 1.77-1.26l.79-1.8-4.48-10.83a.83.83 0 0 1-.07-.34.91.91 0 0 1 .91-.94.93.93 0 0 1 .86.57l3.77 9.28 3.74-9.28a1 1 0 0 1 .86-.57.92.92 0 0 1 .93.94 1 1 0 0 1-.07.37l-5.46 13.09a3.52 3.52 0 0 1-3.5 2.41 2.09 2.09 0 0 1-.54-.05.82.82 0 0 1-.79-.81.86.86 0 0 1 .89-.78z"/><rect class="cls-1" x="664.39" y="250.22" width="135.76" height="60.33" rx="30.17"/><rect class="cls-2" x="664.39" y="250.22" width="135.76" height="60.33" rx="30.17"/><rect class="cls-3" x="672.39" y="243.22" width="135.76" height="60.33" rx="30.17"/><rect class="cls-4" x="672.39" y="243.22" width="135.76" height="60.33" rx="30.17"/><text transform="translate(696.2 280.39)" font-family="ProximaSoft-Bold,Proxima Soft" font-weight="700" font-size="24.61" fill="#fff">User #2</text></svg>