<svg xmlns="http://www.w3.org/2000/svg" viewBox="0 0 2967.43 400.32"><defs><style>.cls-2{fill:#f66271;stroke:#1b1950;stroke-width:1.6px}</style><filter id="filter"><feOffset dx="-7" dy="8"/><feGaussianBlur result="blur"/><feFlood flood-color="#081742"/><feComposite operator="in" in2="blur"/><feComposite in="SourceGraphic"/></filter></defs><g id="Layer_2" data-name="Layer 2"><g filter="url(#filter)" id="Layer_1-2" data-name="Layer 1"><path class="cls-2" d="M26.11 233.12v-145c0-22.08 12.16-34.24 34.24-34.24h104a26.88 26.88 0 0 1 0 53.76h-73.6v25h71.37a26.88 26.88 0 0 1 0 53.76H90.75v27.2h73.61a26.88 26.88 0 0 1 0 53.76h-104c-22.09 0-34.25-12.16-34.25-34.24zM353.15 244c0 14.4-11.84 26.56-26.24 26.56-8 0-14.72-1.6-19.2-7.68l-27.84-36.16-28.16 36.16c-4.48 6.08-11.2 7.68-19.2 7.68-14.4 0-26.24-12.16-26.24-26.56 0-7 4.16-13.76 8-17.92l32-37.44-30.08-34.88a30 30 0 0 1-6.72-18.24A26.37 26.37 0 0 1 236 109.59c6.08 0 13.44 1 19.52 8.64l24.32 31.37 24-31.37c6.08-7.68 13.44-8.64 19.52-8.64A26.37 26.37 0 0 1 350 135.52a30 30 0 0 1-6.72 18.24l-30.08 34.88 32 37.44c3.8 4.16 7.95 10.92 7.95 17.92zM544.83 189.92c0 53.12-29.44 81.28-67.84 81.28-16 0-30.72-5.44-43.52-20.16v49.6a28.8 28.8 0 0 1-57.6 0V138.4c0-16.65 12.16-30.41 28.8-30.41a30.37 30.37 0 0 1 28.8 21.13C446 114.4 461 109 477 109c38.39 0 67.83 28.12 67.83 80.92zm-58.88 0c0-19.2-13.44-30.08-28.8-30.08-7.36 0-18.24 3.84-23.68 10.56v39.36c5.12 6.4 16.32 10.56 23.68 10.56 15.36 0 28.85-10.88 28.85-30.4zM566.26 241.76V79.51a28.8 28.8 0 0 1 57.6 0v162.25a28.8 28.8 0 0 1-57.6 0zM645.3 189.92c0-43.2 32-81 86.72-81 55.05 0 87.05 37.77 87.05 81s-32 81.28-87.05 81.28c-54.72 0-86.72-38.08-86.72-81.28zm114.57 0c0-17-9.92-30.08-27.85-30.08-17.6 0-27.52 13.12-27.52 30.08 0 17.28 9.92 30.4 27.52 30.4 17.98 0 27.85-13.12 27.85-30.4zM950.26 133.92c0 14.72-7.36 27.2-24 29.12-8 1-21.76 2.56-28.16 10.24v68.48a28.8 28.8 0 0 1-57.6 0V139.68c0-16.64 12.16-30.09 28.8-30.09 13.76 0 25.28 8.33 28.8 20.81 2.88-6.4 7.68-13.44 15-17.61a27.08 27.08 0 0 1 12.48-3.52 24.46 24.46 0 0 1 24.68 24.65zM961.78 66.07a32.32 32.32 0 1 1 32.32 32.32 32.23 32.23 0 0 1-32.32-32.32zm3.52 175.69V138.4a28.8 28.8 0 1 1 57.6 0v103.36a28.8 28.8 0 1 1-57.6 0zM1217.15 157.6v84.16a28.81 28.81 0 0 1-57.61 0v-59.84c0-16-8.64-22.08-22.4-22.08-13.12 0-19.84 6.72-24.64 12.16v69.76a28.8 28.8 0 1 1-57.6 0V138.4c0-16.65 12.16-30.09 28.8-30.09a29.3 29.3 0 0 1 28.8 22.09c9-10.24 25.92-21.45 53.12-21.45 35.84.05 51.53 21.77 51.53 48.65zM1407.54 138.4v112.32c0 66.88-55 79.36-93.44 79.36a118.58 118.58 0 0 1-51.52-11.2 24 24 0 0 1-13.44-21.12 23.63 23.63 0 0 1 23.68-23.68 21.44 21.44 0 0 1 9.92 2.24 73.89 73.89 0 0 0 31.36 6.68c13.44 0 35.84-5.12 35.84-32.32v-8.28c-13.12 15-27.52 20.8-43.52 20.8-37.12 0-67.84-24.32-67.84-77.12 0-51.52 29.76-77.13 67.84-77.13 16 0 31 5.45 43.52 20.17 3.2-11.53 16-19.53 28.8-19.53a28.89 28.89 0 0 1 28.8 28.81zm-57.6 64v-32.64c-5.44-6.4-16.32-9.92-23.68-9.92-15.68 0-28.8 7.36-28.8 26.24s13.12 26.24 28.8 26.24c7.36 0 18.24-3.52 23.68-9.92zM1683.06 138.4v103.36c0 16.64-12.16 30.08-28.81 30.08a29.58 29.58 0 0 1-28.8-21.76c-9 9.92-25.92 21.12-53.12 21.12-35.84 0-51.2-21.44-51.2-48v-84.8a28.8 28.8 0 1 1 57.6 0v60.16c0 15.68 8.32 21.76 22.4 21.76 12.8 0 19.52-6.72 24.32-12.16V138.4a28.81 28.81 0 1 1 57.61 0zM1707.37 237.92a22.81 22.81 0 0 1 22.72-22.72 23.52 23.52 0 0 1 9.6 2.24c13.76 6.4 29.44 10.88 41 10.88 11.84 0 15.36-3.2 15.36-7.36 0-5.12-7-7-21.76-9-25.92-3.52-65.92-8.32-65.92-50.24 0-27.84 24.32-52.81 69.12-52.81a120.28 120.28 0 0 1 49.28 10.57 21 21 0 0 1-8.32 40.32 20.44 20.44 0 0 1-9-1.92 72.25 72.25 0 0 0-31.68-7.68c-8.32 0-14.4 2.24-14.4 6.72s4.48 6.4 19.84 8.64c25.92 3.84 67.84 9.28 67.84 52.48 0 30.72-27.52 53.12-73.28 53.12a137.09 137.09 0 0 1-57-12.48 23.13 23.13 0 0 1-13.4-20.76zM1945.45 109c45.44 0 80.32 32.65 80.32 70.73 0 21.76-12.16 28.16-34.24 28.16h-70.72c3.2 9.92 14.4 19.52 33.92 19.52a62.44 62.44 0 0 0 22.72-4.48 21 21 0 0 1 8-1.6 21.78 21.78 0 0 1 21.76 21.67c0 9-6.08 17-14.08 20.16a135.21 135.21 0 0 1-45.76 8c-48.32 0-86.08-30.4-86.08-81.28 0-44.76 34.24-80.88 84.16-80.88zm-25.28 62.41h50.88c-1.6-6.72-7-18.56-25.6-18.56-17.6-.05-23.36 11.47-25.28 18.51zM2155.37 133.92c0 14.72-7.36 27.2-24 29.12-8 1-21.76 2.56-28.16 10.24v68.48a28.81 28.81 0 0 1-57.61 0V139.68c0-16.64 12.16-30.09 28.81-30.09 13.76 0 25.28 8.33 28.8 20.81 2.88-6.4 7.68-13.44 15-17.61a27.08 27.08 0 0 1 12.48-3.52 24.46 24.46 0 0 1 24.68 24.65zM2361.76 133.92c0 14.72-7.36 27.2-24 29.12-8 1-21.76 2.56-28.16 10.24v68.48a28.8 28.8 0 1 1-57.6 0V139.68c0-16.64 12.16-30.09 28.8-30.09 13.76 0 25.28 8.33 28.8 20.81 2.88-6.4 7.68-13.44 15-17.61a27.08 27.08 0 0 1 12.48-3.52 24.46 24.46 0 0 1 24.68 24.65zM2366.24 189.92c0-43.2 32-81 86.72-81 55 0 87 37.77 87 81s-32 81.28-87 81.28c-54.72 0-86.72-38.08-86.72-81.28zm114.56 0c0-17-9.92-30.08-27.84-30.08-17.6 0-27.52 13.12-27.52 30.08 0 17.28 9.92 30.4 27.52 30.4 17.92 0 27.84-13.12 27.84-30.4zM2561.44 241.76V79.51a28.8 28.8 0 0 1 57.6 0v162.25a28.8 28.8 0 0 1-57.6 0zM2724.64 109c45.44 0 80.32 32.65 80.32 70.73 0 21.76-12.16 28.16-34.24 28.16H2700c3.2 9.92 14.4 19.52 33.92 19.52a62.44 62.44 0 0 0 22.72-4.48 21 21 0 0 1 8-1.6A21.78 21.78 0 0 1 2786.4 243c0 9-6.08 17-14.08 20.16a135.21 135.21 0 0 1-45.76 8c-48.32 0-86.08-30.4-86.08-81.28 0-44.76 34.24-80.88 84.16-80.88zm-25.28 62.41h50.88c-1.6-6.72-7-18.56-25.6-18.56-17.64-.05-23.36 11.47-25.28 18.51zM2817.12 237.92a22.81 22.81 0 0 1 22.72-22.72 23.52 23.52 0 0 1 9.6 2.24c13.76 6.4 29.44 10.88 41 10.88 11.84 0 15.36-3.2 15.36-7.36 0-5.12-7-7-21.76-9-25.92-3.52-65.92-8.32-65.92-50.24 0-27.84 24.32-52.81 69.12-52.81a120.28 120.28 0 0 1 49.28 10.57 21 21 0 0 1-8.32 40.32 20.44 20.44 0 0 1-9-1.92 72.25 72.25 0 0 0-31.68-7.68c-8.32 0-14.4 2.24-14.4 6.72s4.48 6.4 19.84 8.64c25.92 3.84 67.84 9.28 67.84 52.48 0 30.72-27.52 53.12-73.28 53.12a137.09 137.09 0 0 1-57-12.48 23.13 23.13 0 0 1-13.4-20.76z"/></g></g></svg>