<svg xmlns="http://www.w3.org/2000/svg" viewBox="0 0 3341.1 400.32"><defs><style>.cls-2{fill:#fde23e;stroke:#1b1950;stroke-width:1.6px}</style><filter id="filter"><feOffset dx="-7" dy="8"/><feGaussianBlur result="blur"/><feFlood flood-color="#852798"/><feComposite operator="in" in2="blur"/><feComposite in="SourceGraphic"/></filter></defs><g id="Layer_2" data-name="Layer 2"><g filter="url(#filter)" id="Layer_1-2" data-name="Layer 1"><path class="cls-2" d="M17.08 228.32A29.23 29.23 0 0 1 46.2 199.2a28.05 28.05 0 0 1 14.72 3.8 97.6 97.6 0 0 0 50.24 13.76c12.16 0 23.68-4.16 23.68-12.48s-9-12.48-30.08-16.32c-35.2-6.4-89-14.72-89-68.17 0-36.16 30.08-69.12 91.84-69.12 22.72 0 47.36 4.48 66.56 13.12a28.8 28.8 0 0 1-11.84 55.05 33.83 33.83 0 0 1-12.8-2.56c-18.88-7.36-33.6-11.2-45.44-11.2-19.2 0-22.72 5.76-22.72 11.2 0 8.32 8.64 11.2 31.36 15 35.2 6.08 87.36 16.32 87.36 65.6 0 47-34.88 74.24-92.16 74.24-31 0-55-6.08-75.52-17.28a28.88 28.88 0 0 1-15.32-25.52zM209.4 189.92c0-43.2 32-81 86.72-81 55 0 87 37.76 87 81s-32 81.28-87 81.28c-54.72 0-86.72-38.08-86.72-81.28zm114.56 0c0-17-9.92-30.08-27.84-30.08-17.6 0-27.52 13.12-27.52 30.08 0 17.28 9.92 30.4 27.52 30.4 17.88 0 27.88-13.12 27.88-30.4zM404.6 241.76V79.51a28.8 28.8 0 0 1 57.6 0v162.25a28.8 28.8 0 0 1-57.6 0zM656.12 138.4v103.36c0 16.64-12.16 30.08-28.8 30.08a29.58 29.58 0 0 1-28.8-21.76c-9 9.92-25.92 21.12-53.12 21.12-35.84 0-51.2-21.44-51.2-48v-84.8a28.8 28.8 0 1 1 57.6 0v60.16c0 15.68 8.32 21.76 22.4 21.76 12.8 0 19.52-6.72 24.32-12.16V138.4a28.8 28.8 0 1 1 57.6 0zM791.48 245.6c0 11.84-8.65 21.12-19.53 23.68a83.63 83.63 0 0 1-18.88 1.92c-34.24 0-53.12-16.32-53.12-48.64v-59.84h-3.84a25 25 0 0 1 0-49.93H700V96.15a28.8 28.8 0 1 1 57.6 0v16.64h9.6a25 25 0 1 1 0 49.93h-9.6v43.2c0 7.68 4.48 13.76 11.52 14.4l2.88.32c11.79 1.28 19.48 12.48 19.48 24.96zM806.83 66.07a32.32 32.32 0 1 1 32.32 32.32 32.23 32.23 0 0 1-32.32-32.32zm3.52 175.69V138.4a28.8 28.8 0 1 1 57.6 0v103.36a28.8 28.8 0 0 1-57.6 0zM889.39 189.92c0-43.2 32-81 86.72-81 55 0 87 37.76 87 81s-32 81.28-87 81.28c-54.72 0-86.72-38.08-86.72-81.28zm114.56 0c0-17-9.92-30.08-27.84-30.08-17.6 0-27.52 13.12-27.52 30.08 0 17.28 9.92 30.4 27.52 30.4 17.89 0 27.89-13.12 27.89-30.4zM1246.83 157.6v84.16a28.8 28.8 0 1 1-57.6 0v-59.84c0-16-8.64-22.08-22.4-22.08-13.12 0-19.84 6.72-24.64 12.16v69.76a28.8 28.8 0 1 1-57.6 0V138.4c0-16.65 12.16-30.08 28.8-30.08a29.29 29.29 0 0 1 28.8 22.08c9-10.24 25.92-21.44 53.12-21.44 35.84.04 51.52 21.76 51.52 48.64zM1271.15 237.92a22.81 22.81 0 0 1 22.72-22.72 23.52 23.52 0 0 1 9.6 2.24c13.76 6.4 29.44 10.88 41 10.88 11.84 0 15.36-3.2 15.36-7.36 0-5.12-7-7-21.76-9-25.92-3.52-65.92-8.32-65.92-50.24 0-27.84 24.32-52.8 69.12-52.8a120.27 120.27 0 0 1 49.28 10.56 21 21 0 0 1-8.32 40.32 20.44 20.44 0 0 1-9-1.92 72.25 72.25 0 0 0-31.68-7.68c-8.32 0-14.4 2.24-14.4 6.72s4.48 6.4 19.84 8.64c25.92 3.84 67.84 9.28 67.84 52.48 0 30.72-27.52 53.12-73.28 53.12a137.09 137.09 0 0 1-57-12.48 23.13 23.13 0 0 1-13.4-20.76zM1686.5 189.92c0 53.12-30.72 81.28-68.16 81.28-15.68 0-30.4-5.44-43.52-20.16-3.52 11.52-16 19.52-28.8 19.52a28.88 28.88 0 0 1-28.8-28.8V79.51a28.8 28.8 0 1 1 57.6 0v49.61C1587 114.4 1602.66 109 1618.34 109c38.08 0 68.16 29.72 68.16 80.92zm-58.88 0c0-19.2-13.12-30.08-28.8-30.08-7.68 0-18.56 3.84-24 10.56v39.68c5.44 6.72 16.32 10.24 24 10.24 15.68 0 28.8-10.88 28.8-30.4zM1869.86 138.4v103.36c0 16.64-12.16 30.08-28.8 30.08a29.58 29.58 0 0 1-28.8-21.76c-9 9.92-25.92 21.12-53.12 21.12-35.84 0-51.2-21.44-51.2-48v-84.8a28.8 28.8 0 1 1 57.6 0v60.16c0 15.68 8.32 21.76 22.4 21.76 12.8 0 19.52-6.72 24.32-12.16V138.4a28.8 28.8 0 1 1 57.6 0zM1898.33 66.07a32.33 32.33 0 1 1 32.32 32.32 32.23 32.23 0 0 1-32.32-32.32zm3.52 175.69V138.4a28.8 28.8 0 1 1 57.6 0v103.36a28.8 28.8 0 1 1-57.6 0zM1991.45 241.76V79.51a28.8 28.8 0 0 1 57.6 0v162.25a28.8 28.8 0 0 1-57.6 0zM2184.41 245.6c0 11.84-8.64 21.12-19.52 23.68a83.63 83.63 0 0 1-18.89 1.92c-34.24 0-53.12-16.32-53.12-48.64v-59.84h-3.84a25 25 0 0 1 0-49.93h3.84V96.15a28.8 28.8 0 1 1 57.6 0v16.64h9.6a25 25 0 1 1 0 49.93h-9.6v43.2c0 7.68 4.48 13.76 11.52 14.4l2.88.32c11.85 1.28 19.53 12.48 19.53 24.96zM2388.89 137.76a25 25 0 0 1-25 25h-9.6v79a28.8 28.8 0 1 1-57.6 0v-79h-3.84a25 25 0 0 1 0-49.93h3.84v-7c0-32 24.64-55 58.88-55a84.75 84.75 0 0 1 18.56 1.92c9.28 1.92 17 9.6 17 19.84a21.1 21.1 0 0 1-21.44 20.8h-.64c-8.64 0-14.72 5.44-14.72 14.4v5.12h9.6a25 25 0 0 1 24.96 24.85zM2393 189.92c0-43.2 32-81 86.72-81 55 0 87 37.76 87 81s-32 81.28-87 81.28c-54.72 0-86.72-38.08-86.72-81.28zm114.56 0c0-17-9.92-30.08-27.84-30.08-17.6 0-27.52 13.12-27.52 30.08 0 17.28 9.92 30.4 27.52 30.4 17.96 0 27.88-13.12 27.88-30.4zM2698 133.92c0 14.72-7.36 27.2-24 29.12-8 1-21.76 2.56-28.16 10.24v68.48a28.8 28.8 0 0 1-57.6 0V139.68c0-16.64 12.16-30.09 28.8-30.09 13.76 0 25.28 8.33 28.8 20.81 2.88-6.4 7.68-13.44 15-17.61a27.08 27.08 0 0 1 12.48-3.51 24.45 24.45 0 0 1 24.68 24.64zM2808.72 279.52l2.56-.32c10.56-1 17-2.24 18.88-6.08l1.28-3.2-48.32-121.28c-1.28-3.2-2.56-7.36-2.56-10.88a28 28 0 0 1 28.16-28.17c11.2 0 22.08 5.77 25.92 17.61l26.56 78.4 25.92-78.4c3.84-11.53 14.72-17.61 25.92-17.61 16.64 0 28.48 12.81 28.48 28.17 0 3.52-1.28 7.68-2.56 10.88l-54.72 137.92c-13.76 34.56-42.24 43.52-63.36 43.52h-3.52c-18.56 0-29.12-12.8-29.12-26.88a23.42 23.42 0 0 1 20.48-23.68zM2952.07 189.92c0-43.2 32-81 86.73-81 55 0 87 37.76 87 81s-32 81.28-87 81.28c-54.73 0-86.73-38.08-86.73-81.28zm114.57 0c0-17-9.92-30.08-27.84-30.08-17.6 0-27.52 13.12-27.52 30.08 0 17.28 9.92 30.4 27.52 30.4 17.92 0 27.84-13.12 27.84-30.4zM3309.2 138.4v103.36c0 16.64-12.16 30.08-28.8 30.08a29.58 29.58 0 0 1-28.8-21.76c-9 9.92-25.92 21.12-53.13 21.12-35.84 0-51.2-21.44-51.2-48v-84.8a28.8 28.8 0 1 1 57.6 0v60.16c0 15.68 8.32 21.76 22.4 21.76 12.81 0 19.53-6.72 24.33-12.16V138.4a28.8 28.8 0 1 1 57.6 0z"/></g></g></svg>