<svg viewBox="0 0 1918 195" xmlns="http://www.w3.org/2000/svg" xmlns:serif="http://www.serif.com/" fill-rule="evenodd" clip-rule="evenodd" stroke-linecap="round"><g transform="translate(-2.048 -276.977)"><path fill="none" d="M2.048 276.977h1917.96v194.134H2.048z"/><clipPath id="a"><path d="M2.048 276.977h1917.96v194.134H2.048z"/></clipPath><g serif:id="Layer 1" clip-path="url(#a)"><path d="M1920.058 471.092V283.18c-24.313-.25-24.843-6.22-50.191-6.22-25.888 0-25.888 6.229-51.776 6.229-25.887 0-25.887-6.23-51.774-6.23s-25.887 6.23-51.774 6.23-25.887-6.23-51.774-6.23c-25.886 0-25.886 6.23-51.773 6.23-25.887 0-25.887-6.23-51.774-6.23-25.886 0-25.886 6.23-51.773 6.23-25.887 0-25.887-6.23-51.774-6.23s-25.887 6.23-51.773 6.23c-25.887 0-25.887-6.23-51.774-6.23s-25.887 6.23-51.774 6.23-25.887-6.23-51.773-6.23c-25.887 0-25.887 6.23-51.773 6.23-25.886 0-25.886-6.23-51.773-6.23-25.886 0-25.886 6.23-51.773 6.23-25.886 0-25.886-6.23-51.772-6.23s-25.886 6.23-51.773 6.23c-25.886 0-25.886-6.23-51.772-6.23l.002.09c-1.593-.058-3.294-.09-5.129-.09-25.89 0-25.89 6.23-51.78 6.23-25.88 0-25.88-6.23-51.77-6.23-25.89 0-25.89 6.23-51.77 6.23-25.89 0-25.89-6.23-51.78-6.23-25.88 0-25.88 6.23-51.77 6.23-25.89 0-25.89-6.23-51.77-6.23-25.89 0-25.89 6.23-51.78 6.23s-25.89-6.23-51.77-6.23c-25.89 0-25.89 6.23-51.77 6.23-25.89 0-25.89-6.23-51.78-6.23s-25.89 6.23-51.77 6.23c-25.89 0-25.89-6.23-51.78-6.23-25.88 0-25.88 6.23-51.77 6.23-25.88 0-25.88-6.23-51.77-6.23-25.89 0-25.89 6.23-51.78 6.23-25.88 0-25.88-6.23-51.77-6.23-25.88 0-25.88 6.23-51.77 6.23-25.47 0-25.9-6.028-50.57-6.22v194.108l1917.96.016z" fill="#fde23e" fill-rule="nonzero"/><path d="M588.442 470.56c0-53.737-43.563-97.3-97.3-97.3-53.737 0-97.3 43.563-97.3 97.3" fill="#f66271" fill-rule="nonzero"/><path d="M435.531 310.404c0 7.523-6.099 13.622-13.622 13.622s-13.622-6.099-13.622-13.622 6.099-13.622 13.622-13.622 13.622 6.1 13.622 13.622" fill="#529ab9" fill-rule="nonzero"/><path d="M178.074 388.34c0 6.667-5.405 12.073-12.073 12.073-6.667 0-12.071-5.406-12.071-12.073 0-6.666 5.404-12.072 12.071-12.072 6.668 0 12.073 5.406 12.073 12.072" fill="#f66271" fill-rule="nonzero"/><path d="M56.789 471.188c0-33.836 27.43-61.266 61.266-61.266 33.837 0 61.266 27.43 61.266 61.266" fill="none" fill-rule="nonzero" stroke="#fff"/><path d="M64.233 320.873a5.247 5.247 0 1 1-10.494 0 5.247 5.247 0 0 1 10.494 0" fill="#529ab9" fill-rule="nonzero"/><path d="M1069.106 350.415c0 8.598-6.97 15.568-15.568 15.568-8.598 0-15.568-6.97-15.568-15.568 0-8.598 6.97-15.568 15.568-15.568 8.598 0 15.568 6.97 15.568 15.568" fill="#f66271" fill-rule="nonzero"/><path d="M1784.476 311.568c0 8.598-6.97 15.568-15.568 15.568-8.598 0-15.568-6.97-15.568-15.568 0-8.598 6.97-15.568 15.568-15.568 8.598 0 15.568 6.97 15.568 15.568" fill="#852798" fill-rule="nonzero"/><circle cx="15.568" r="15.568" fill="none" stroke="#1b1950" transform="matrix(0 -1 -1 0 1768.908 327.136)"/><path d="M1631.297 444.045a4.959 4.959 0 1 1-9.917 0 4.959 4.959 0 0 1 9.917 0M1241.316 309.242a3.138 3.138 0 1 1-6.276 0 3.138 3.138 0 0 1 6.276 0M1439.678 317.384c0 5.959-4.831 10.79-10.79 10.79-5.959 0-10.79-4.831-10.79-10.79 0-5.96 4.831-10.79 10.79-10.79 5.959 0 10.79 4.83 10.79 10.79" fill="#fff" fill-rule="nonzero"/><path d="M1253.611 385.443c0-13.77-11.163-24.933-24.933-24.933s-24.933 11.163-24.933 24.933 11.163 24.933 24.933 24.933 24.933-11.163 24.933-24.933" fill="#529ab9" fill-rule="nonzero"/><path d="M1569.418 277.698c5.81 8.525 9.206 18.826 9.206 29.92 0 29.38-23.816 53.195-53.195 53.195-29.38 0-53.195-23.816-53.195-53.195 0-10.125 2.83-19.59 7.74-27.646" fill="none" fill-rule="nonzero" stroke="#529ab9"/><path d="M1610.088 395.173a9.73 9.73 0 0 0-9.73-9.73 9.73 9.73 0 0 0-9.73 9.73 9.73 9.73 0 0 0 9.73 9.73 9.73 9.73 0 0 0 9.73-9.73M1830.437 430.342a5.689 5.689 0 1 0-11.378 0 5.689 5.689 0 0 0 11.378 0" fill="#f66271" fill-rule="nonzero"/><path d="M963.717 398.45a8.7 8.7 0 0 1 8.701-8.7 8.7 8.7 0 1 1 0 17.4 8.7 8.7 0 0 1-8.701-8.7" fill="#fff" fill-rule="nonzero"/><path d="M1784.028 470.947c4.5-8.856 7.039-18.877 7.039-29.491 0-36.004-29.187-65.191-65.191-65.191-36.004 0-65.191 29.187-65.191 65.19 0 10.615 2.539 20.636 7.039 29.492h116.304z" fill="#529ab9" fill-rule="nonzero"/><path d="M316.184 276.933a143.755 143.755 0 0 0-4.65-.073c-25.886 0-25.886 6.229-51.773 6.229-22.471 0-25.445-4.692-42.77-5.93 2.428 25.252 23.699 44.999 49.588 44.999 25.966 0 47.282-19.865 49.605-45.225" fill="#852798" fill-rule="nonzero"/><path d="M837.601 394.156a9.73 9.73 0 0 0-9.73-9.73 9.73 9.73 0 0 0-9.73 9.73 9.73 9.73 0 0 0 9.73 9.73 9.73 9.73 0 0 0 9.73-9.73M1892.837 328.243c0-7.494-6.075-13.57-13.569-13.57-7.494 0-13.569 6.075-13.569 13.57 0 7.494 6.075 13.569 13.569 13.569 7.494 0 13.569-6.075 13.569-13.57" fill="#529ab9" fill-rule="nonzero"/><path d="M1667.158 322.853a5.422 5.422 0 0 1 0 7.669l-22.576 22.576a5.422 5.422 0 1 1-7.669-7.67l22.576-22.575a5.422 5.422 0 0 1 7.669 0" fill="#fff" fill-rule="nonzero"/><path d="M1469.968 391.829a5.422 5.422 0 0 1 0 7.669l-22.576 22.576a5.422 5.422 0 1 1-7.669-7.67l22.576-22.575a5.422 5.422 0 0 1 7.669 0" fill="#f66271" fill-rule="nonzero"/><path d="M1893.388 402.005a4.217 4.217 0 0 1 0 5.964l-17.559 17.56a4.218 4.218 0 0 1-5.965-5.965l17.56-17.56a4.217 4.217 0 0 1 5.964 0" fill="#fff" fill-rule="nonzero"/><path d="M665.021 423.236a5.422 5.422 0 0 1 0 7.669l-22.576 22.576a5.422 5.422 0 1 1-7.669-7.67l22.576-22.575a5.422 5.422 0 0 1 7.669 0" fill="#529ab9" fill-rule="nonzero"/><path d="M328.852 356.933a5.422 5.422 0 0 1 0 7.669l-61.255 61.255a5.422 5.422 0 1 1-7.669-7.669l61.255-61.256a5.422 5.422 0 0 1 7.669 0M1130.308 391.829a5.422 5.422 0 0 1 0 7.669l-22.576 22.576a5.422 5.422 0 1 1-7.669-7.67l22.576-22.575a5.422 5.422 0 0 1 7.669 0" fill="#fff" fill-rule="nonzero"/><path d="M805.858 316.517c5.617 5.617 5.617 14.723 0 20.34l-59.881 59.88c-5.617 5.617-14.723 5.617-20.34 0-5.617-5.617-5.617-14.723 0-20.34l59.881-59.88c5.617-5.617 14.723-5.617 20.34 0" fill="#f66271" fill-rule="nonzero"/><path d="M1489.735 443.01l74.446-74.445M599.881 377.87l74.446-74.445M1116.35 354.607l27.917-27.917M870.91 460.927l55.253-55.253M1811.948 384.85l36.06-36.06M345.137 444.174l36.06-36.06M40.956 415.675l91.312-91.312" fill="none" fill-rule="nonzero" stroke="#852798" stroke-miterlimit="10"/><path d="M1324.348 471.188l88.452-88.452c11.539-11.539 11.539-30.246 0-41.785-11.538-11.538-30.246-11.538-41.784 0l-123.014 123.014a29.565 29.565 0 0 0-5.309 7.224h81.655zM908.596 279.577c3.058 30.024 28.417 53.45 59.248 53.45 31.474 0 57.229-24.42 59.393-55.344-12.964 1.692-17.524 5.406-37.518 5.406-25.886 0-25.886-6.23-51.772-6.23l.001.09c-1.593-.057-3.293-.09-5.128-.09-11.839 0-18.262 1.304-24.224 2.718" fill="#852798" fill-rule="nonzero"/><circle cx="-15.122" r="15.122" fill="none" stroke="#852798" stroke-miterlimit="10" transform="matrix(0 1 1 0 564.984 359.26)"/><circle cx="-24.815" r="24.815" fill="none" stroke="#529ab9" transform="matrix(0 1 1 0 228.039 392.605)"/><path d="M1045.39 426.726c0 6.424-5.208 11.632-11.632 11.632-6.424 0-11.632-5.208-11.632-11.632 0-6.424 5.208-11.632 11.632-11.632 6.424 0 11.632 5.208 11.632 11.632" fill="#529ab9" fill-rule="nonzero"/></g></g></svg>