<svg id="Layer_1" data-name="Layer 1" xmlns="http://www.w3.org/2000/svg" viewBox="0 0 1939.02 972.03"><defs><style>.cls-1,.cls-3,.cls-5{fill:none}.cls-1,.cls-5{stroke:#1d1853}.cls-1{stroke-linecap:round;stroke-width:3px;stroke-linejoin:round}.cls-2{fill:#081742}.cls-3{stroke:#081742}.cls-3,.cls-5{stroke-miterlimit:10;stroke-width:2px}.cls-4{fill:#fff}.cls-15,.cls-9{fill:#1d1853}.cls-15{font-size:24.61px;font-family:ProximaSoft-Regular,Proxima Soft}</style></defs><path class="cls-1" d="M635.62 571.15C600.27 643.07 526.17 692.87 441 692.87c-119.18 0-216.68-97.5-216.68-216.68v-.94c0-119.17 97.5-216.68 216.68-216.68 87.32 0 163 52.36 197.23 127.22"/><rect class="cls-2" x="23.99" y="424.21" width="384.65" height="122.84" rx="61.42"/><rect class="cls-3" x="23.99" y="424.21" width="384.65" height="122.84" rx="61.42"/><rect class="cls-4" x="31.99" y="417.21" width="384.65" height="122.84" rx="61.42"/><rect class="cls-5" x="31.99" y="417.21" width="384.65" height="122.84" rx="61.42"/><rect class="cls-2" x="507.21" y="426.79" width="312.74" height="118.1" rx="17.88"/><rect class="cls-3" x="507.21" y="426.79" width="312.74" height="118.1" rx="17.88"/><rect x="515.21" y="419.79" width="312.74" height="118.1" rx="17.88" fill="#2e2d75"/><rect class="cls-5" x="515.21" y="419.79" width="312.74" height="118.1" rx="17.88"/><text transform="translate(640.68 488.34)" font-family="ProximaSoft-Bold,Proxima Soft" font-weight="700" font-size="27" fill="#fff">Meta</text><path class="cls-1" d="M1554.92 175.88v210.45M1565.79 375.55l-5.35 5.35-5.43 5.43-11.06-11.06M1555.13 780.84V572.33M1565.79 581.39l-5.35-5.35-5.43-5.43-11.06 11.06"/><rect class="cls-2" x="1390.5" y="816.18" width="312.74" height="118.1" rx="14.96"/><rect class="cls-3" x="1390.5" y="816.18" width="312.74" height="118.1" rx="14.96"/><rect x="1398.5" y="809.18" width="312.74" height="118.1" rx="14.96" fill="#29b1d8"/><rect class="cls-5" x="1398.5" y="809.18" width="312.74" height="118.1" rx="14.96"/><path class="cls-9" d="M1463.89 860.77l-2.48-9.64-2.46 9.64a2.36 2.36 0 0 1-4.56.1l-3.64-12.7a2.76 2.76 0 0 1 0-.51 1.83 1.83 0 0 1 1.85-1.85 1.85 1.85 0 0 1 1.79 1.43l2.59 10.6 2.83-10.78a1.7 1.7 0 0 1 1.67-1.25 1.67 1.67 0 0 1 1.63 1.25l2.83 10.78 2.56-10.6a1.85 1.85 0 0 1 3.66.42 3.39 3.39 0 0 1 0 .54l-3.61 12.67a2.39 2.39 0 0 1-2.29 1.7 2.33 2.33 0 0 1-2.37-1.8zM1478.66 850.21a5.75 5.75 0 0 1 5.95 5.76c0 1-.66 1.48-1.84 1.48h-7a3.2 3.2 0 0 0 3.42 2.76 5.1 5.1 0 0 0 2.41-.67 1.23 1.23 0 1 1 1.16 2.17 8 8 0 0 1-3.92 1 6.24 6.24 0 1 1-.19-12.48zm-2.93 5.12h5.85a2.75 2.75 0 0 0-2.92-2.63 2.85 2.85 0 0 0-2.93 2.63zM1498.93 856.47c0 4-2.26 6.22-5.26 6.22a4.65 4.65 0 0 1-3.65-1.77v.08a1.58 1.58 0 0 1-3.15 0v-13.62a1.57 1.57 0 1 1 3.13 0V852a4.51 4.51 0 0 1 3.67-1.83c3.02.04 5.26 2.41 5.26 6.3zm-3.22 0c0-2.07-1.21-3.47-3-3.47a3.46 3.46 0 0 0-2.68 1.37v4.21a3.46 3.46 0 0 0 2.68 1.33c1.79 0 3-1.38 3-3.44zM1521.94 860.82v-10.24l-4.45 11.35a1 1 0 0 1-1.88 0l-4.45-11.35v10.24a1.75 1.75 0 0 1-1.72 1.75 1.78 1.78 0 0 1-1.78-1.75v-12.16a2.86 2.86 0 0 1 5.54-1l3.35 8.56 3.37-8.56a2.83 2.83 0 0 1 2.66-1.85 2.86 2.86 0 0 1 2.88 2.85v12.16a1.76 1.76 0 0 1-3.52 0zM1534 850.21a5.76 5.76 0 0 1 6 5.76c0 1-.67 1.48-1.85 1.48h-7a3.21 3.21 0 0 0 3.42 2.76 5.07 5.07 0 0 0 2.41-.67 1.28 1.28 0 0 1 .59-.14 1.22 1.22 0 0 1 .57 2.31 7.94 7.94 0 0 1-3.91 1 6.24 6.24 0 1 1-.2-12.48zm-2.93 5.12h5.93a2.76 2.76 0 0 0-2.93-2.63 2.86 2.86 0 0 0-2.98 2.63zM1552.5 854.72V861a1.58 1.58 0 0 1-3.15.22 4.93 4.93 0 0 1-3.74 1.52 4 4 0 0 1-4.14-3.93c0-2.79 2.24-3.79 4.14-3.79a4.79 4.79 0 0 1 3.76 1.45v-1.65c0-1.21-1-2-2.6-2a4.77 4.77 0 0 0-2.64.78 1.25 1.25 0 0 1-.61.18 1.21 1.21 0 0 1-1.18-1.21 1.25 1.25 0 0 1 .56-1 8 8 0 0 1 4.41-1.28c2.69-.08 5.19 1.01 5.19 4.43zm-3.13 4.82v-1.47a3.12 3.12 0 0 0-2.51-1c-1.23 0-2.24.64-2.24 1.8s1 1.75 2.24 1.75a3.12 3.12 0 0 0 2.51-1.08zM1554.84 860.41a1.31 1.31 0 0 1 1.3-1.31 1.4 1.4 0 0 1 .66.17 6.49 6.49 0 0 0 3.23 1c1.35 0 2-.47 2-1.2s-1-1.14-2.39-1.41c-2-.39-4.67-.88-4.67-3.71 0-2 1.75-3.75 4.87-3.75a7.37 7.37 0 0 1 3.91 1.06 1.18 1.18 0 0 1 .62 1 1.21 1.21 0 0 1-1.21 1.2 1.18 1.18 0 0 1-.59-.15 5.23 5.23 0 0 0-2.7-.76c-1.14 0-1.87.42-1.87 1.11s.93 1 2.26 1.28c2 .39 4.77.94 4.77 3.89 0 2.16-1.84 3.81-5.14 3.81a8.47 8.47 0 0 1-4.38-1.15 1.33 1.33 0 0 1-.67-1.08zM1578.49 851.91V861a1.58 1.58 0 0 1-1.56 1.61 1.61 1.61 0 0 1-1.6-1.61v-.07a5.55 5.55 0 0 1-4.15 1.77c-2.61 0-3.84-1.42-3.84-3.74v-7a1.56 1.56 0 1 1 3.12 0v5.81a1.91 1.91 0 0 0 2.19 2.19 3.49 3.49 0 0 0 2.71-1.35v-6.65a1.56 1.56 0 0 1 1.55-1.57 1.59 1.59 0 0 1 1.58 1.52zM1588.74 851.69a1.55 1.55 0 0 1-1.47 1.55 3.92 3.92 0 0 0-2.56 1.31V861a1.57 1.57 0 1 1-3.13 0v-9a1.58 1.58 0 1 1 3.15 0v.22a4.77 4.77 0 0 1 1.94-1.64 1.88 1.88 0 0 1 .79-.2 1.29 1.29 0 0 1 1.28 1.31zM1595.83 850.21a5.75 5.75 0 0 1 6 5.76c0 1-.67 1.48-1.85 1.48h-7a3.21 3.21 0 0 0 3.42 2.76 5 5 0 0 0 2.41-.67 1.3 1.3 0 0 1 .6-.14 1.22 1.22 0 0 1 .56 2.31 7.94 7.94 0 0 1-3.91 1 6.24 6.24 0 1 1-.2-12.48zm-2.93 5.12h5.86a2.75 2.75 0 0 0-2.93-2.63 2.86 2.86 0 0 0-2.93 2.63zM1621.94 853.81V861a1.58 1.58 0 1 1-3.15 0v-6.1c0-1.11-.49-1.89-1.77-1.89a3.17 3.17 0 0 0-2.46 1.37V861a1.58 1.58 0 1 1-3.15 0v-6.1c0-1.11-.49-1.89-1.77-1.89a3.21 3.21 0 0 0-2.47 1.4V861a1.56 1.56 0 1 1-3.12 0v-9.08a1.58 1.58 0 0 1 1.55-1.6 1.6 1.6 0 0 1 1.6 1.6v.08a5.21 5.21 0 0 1 3.86-1.83 3.15 3.15 0 0 1 3.3 2.17 5.07 5.07 0 0 1 4.09-2.17c2.19.04 3.49 1.2 3.49 3.64zM1630.4 850.21a5.75 5.75 0 0 1 6 5.76c0 1-.67 1.48-1.85 1.48h-7a3.21 3.21 0 0 0 3.42 2.76 5.1 5.1 0 0 0 2.42-.67 1.23 1.23 0 1 1 1.15 2.17 7.91 7.91 0 0 1-3.91 1 6.24 6.24 0 1 1-.2-12.48zm-2.93 5.12h5.86a2.75 2.75 0 0 0-2.93-2.63 2.86 2.86 0 0 0-2.93 2.63zM1649.77 854v7a1.57 1.57 0 1 1-3.13 0v-5.78a1.92 1.92 0 0 0-2.19-2.21 3.37 3.37 0 0 0-2.7 1.4V861a1.57 1.57 0 1 1-3.13 0v-9.08a1.58 1.58 0 0 1 1.55-1.6 1.6 1.6 0 0 1 1.6 1.6v.1a5.54 5.54 0 0 1 4.14-1.8c2.6-.01 3.86 1.47 3.86 3.78zM1659.41 861.22a1.27 1.27 0 0 1-.93 1.23 4.88 4.88 0 0 1-1.63.24c-2.19 0-3.37-1.13-3.37-3.24v-6.21h-.76a1.37 1.37 0 1 1 0-2.73h.76v-1.85a1.59 1.59 0 0 1 1.6-1.57 1.58 1.58 0 0 1 1.55 1.57v1.85h1.23a1.37 1.37 0 0 1 0 2.73h-1.23v5.37c0 .74.37 1.3 1.06 1.3h.52a1.27 1.27 0 0 1 1.2 1.31zM1509.57 890.35v-13a1.68 1.68 0 0 1 1.85-1.85h5.83a5.12 5.12 0 0 1 5.51 5.29c0 2.86-2 5.24-5.51 5.24h-4.18v4.31a1.75 1.75 0 0 1-1.73 1.75 1.78 1.78 0 0 1-1.77-1.74zm7.21-11.84h-3.71V883h3.71a2.27 2.27 0 1 0 0-4.53zM1534.62 884.25v6.22a1.58 1.58 0 0 1-3.15.23 4.91 4.91 0 0 1-3.74 1.52 4 4 0 0 1-4.13-3.94c0-2.78 2.24-3.79 4.13-3.79a4.81 4.81 0 0 1 3.77 1.46v-1.65c0-1.21-1-2-2.61-2a4.75 4.75 0 0 0-2.63.79 1.31 1.31 0 0 1-.62.17 1.2 1.2 0 0 1-1.18-1.2 1.22 1.22 0 0 1 .57-1 8 8 0 0 1 4.4-1.28c2.71-.04 5.19 1.05 5.19 4.47zm-3.12 4.82v-1.48a3.16 3.16 0 0 0-2.51-1c-1.23 0-2.24.64-2.24 1.8s1 1.75 2.24 1.75a3.13 3.13 0 0 0 2.51-1.07zM1544.88 881.22a1.55 1.55 0 0 1-1.47 1.55 3.93 3.93 0 0 0-2.56 1.3v6.45a1.57 1.57 0 1 1-3.13 0v-9a1.58 1.58 0 1 1 3.15 0v.22a4.73 4.73 0 0 1 1.94-1.65 2 2 0 0 1 .79-.19 1.29 1.29 0 0 1 1.28 1.32z"/><path class="cls-9" d="M1553.13 890.74a1.29 1.29 0 0 1-.94 1.24 5.13 5.13 0 0 1-1.62.24c-2.19 0-3.37-1.13-3.37-3.25v-6.2h-.77a1.37 1.37 0 1 1 0-2.73h.77v-1.85a1.58 1.58 0 0 1 3.15 0V880h1.23a1.37 1.37 0 0 1 0 2.73h-1.23v5.37c0 .73.36 1.3 1.05 1.3.23 0 .37-.05.52-.05a1.28 1.28 0 0 1 1.21 1.39zM1566.05 883.53v7a1.57 1.57 0 1 1-3.13 0v-5.78a1.93 1.93 0 0 0-2.19-2.22 3.38 3.38 0 0 0-2.71 1.41v6.59a1.56 1.56 0 1 1-3.12 0v-9.08a1.58 1.58 0 0 1 1.55-1.6 1.6 1.6 0 0 1 1.6 1.6v.1a5.53 5.53 0 0 1 4.13-1.8c2.61-.01 3.87 1.47 3.87 3.78zM1574.53 879.74a5.75 5.75 0 0 1 6 5.76c0 1-.66 1.48-1.85 1.48h-7a3.22 3.22 0 0 0 3.43 2.76 5.1 5.1 0 0 0 2.41-.67 1.15 1.15 0 0 1 .59-.15 1.23 1.23 0 0 1 .56 2.32 7.91 7.91 0 0 1-3.91 1 6.24 6.24 0 1 1-.2-12.48zm-2.92 5.12h5.85a2.75 2.75 0 0 0-2.93-2.63 2.84 2.84 0 0 0-2.92 2.63zM1589.91 881.22a1.55 1.55 0 0 1-1.47 1.55 3.91 3.91 0 0 0-2.56 1.3v6.45a1.57 1.57 0 1 1-3.13 0v-9a1.58 1.58 0 1 1 3.15 0v.22a4.73 4.73 0 0 1 1.94-1.65 2 2 0 0 1 .79-.19 1.29 1.29 0 0 1 1.28 1.32zM1590.85 889.93a1.31 1.31 0 0 1 1.3-1.3 1.48 1.48 0 0 1 .67.17 6.45 6.45 0 0 0 3.22 1c1.35 0 2-.47 2-1.21s-1-1.13-2.38-1.4c-2.05-.39-4.68-.88-4.68-3.72 0-2 1.75-3.74 4.87-3.74a7.44 7.44 0 0 1 3.92 1.06 1.17 1.17 0 0 1 .61 1 1.2 1.2 0 0 1-1.2 1.2 1.13 1.13 0 0 1-.59-.15 5.29 5.29 0 0 0-2.71-.76c-1.13 0-1.87.42-1.87 1.11s.93 1 2.26 1.28c2 .39 4.78.93 4.78 3.89 0 2.16-1.85 3.81-5.15 3.81a8.47 8.47 0 0 1-4.38-1.15 1.35 1.35 0 0 1-.67-1.09z"/><rect class="cls-2" x="1390.5" y="423.67" width="312.74" height="118.1" rx="17.88"/><rect class="cls-3" x="1390.5" y="423.67" width="312.74" height="118.1" rx="17.88"/><rect x="1398.5" y="416.67" width="312.74" height="118.1" rx="17.88" fill="#852798"/><rect class="cls-5" x="1398.5" y="416.67" width="312.74" height="118.1" rx="17.88"/><text transform="translate(1499.69 481.65)" font-size="24.61" font-family="ProximaSoft-Bold,Proxima Soft" font-weight="700" fill="#fff">Smartl<tspan x="72.49" y="0" letter-spacing="-.05em">y</tspan><tspan x="83.71" y="0" letter-spacing="0">.io</tspan></text><rect class="cls-2" x="1390.5" y="31.16" width="312.74" height="118.1" rx="14.96"/><rect class="cls-3" x="1390.5" y="31.16" width="312.74" height="118.1" rx="14.96"/><rect x="1398.5" y="24.16" width="312.74" height="118.1" rx="14.96" fill="#fde23e"/><rect class="cls-5" x="1398.5" y="24.16" width="312.74" height="118.1" rx="14.96"/><path class="cls-9" d="M1453 74.8V64.56l-4.45 11.35a1 1 0 0 1-1.87 0l-4.46-11.35V74.8a1.75 1.75 0 0 1-1.72 1.75 1.78 1.78 0 0 1-1.77-1.75V62.64a2.86 2.86 0 0 1 5.54-1l3.34 8.57 3.38-8.57a2.82 2.82 0 0 1 2.65-1.84 2.86 2.86 0 0 1 2.88 2.85V74.8a1.76 1.76 0 0 1-3.52 0zM1458.93 70.42a6.29 6.29 0 1 1 6.28 6.25 6 6 0 0 1-6.28-6.25zm9.33 0c0-1.84-1.11-3.44-3-3.44s-3 1.6-3 3.44 1.08 3.47 3 3.47 3-1.6 3-3.47zM1485.88 70.45c0 4-2.27 6.22-5.27 6.22a4.65 4.65 0 0 1-3.61-1.77v.1a1.58 1.58 0 0 1-3.15 0V61.36a1.56 1.56 0 1 1 3.12 0V66a4.51 4.51 0 0 1 3.67-1.83c3 .02 5.24 2.39 5.24 6.28zm-3.23 0c0-2.07-1.2-3.47-3-3.47a3.48 3.48 0 0 0-2.69 1.37v4.21a3.48 3.48 0 0 0 2.69 1.33c1.8 0 3-1.38 3-3.44zM1487.92 60.67a1.87 1.87 0 1 1 1.87 1.88 1.89 1.89 0 0 1-1.87-1.88zm.32 14.3v-9.08a1.56 1.56 0 1 1 3.12 0V75a1.58 1.58 0 0 1-1.57 1.58 1.56 1.56 0 0 1-1.55-1.58zM1494.46 75V61.36a1.57 1.57 0 1 1 3.13 0V75a1.57 1.57 0 1 1-3.13 0zM1506.08 64.19a5.76 5.76 0 0 1 6 5.76c0 1-.67 1.48-1.85 1.48h-7a3.21 3.21 0 0 0 3.42 2.76 5.07 5.07 0 0 0 2.41-.67 1.15 1.15 0 0 1 .59-.15 1.23 1.23 0 0 1 .57 2.32 8 8 0 0 1-3.91 1 6.24 6.24 0 1 1-.2-12.48zm-2.93 5.12h5.85a2.76 2.76 0 0 0-2.93-2.63 2.85 2.85 0 0 0-2.92 2.63zM1534.94 74.8V64.56l-4.45 11.35a1 1 0 0 1-1.87 0l-4.46-11.35V74.8a1.75 1.75 0 0 1-1.72 1.75 1.78 1.78 0 0 1-1.77-1.75V62.64a2.86 2.86 0 0 1 5.54-1l3.34 8.57 3.38-8.57a2.82 2.82 0 0 1 2.65-1.84 2.86 2.86 0 0 1 2.88 2.85V74.8a1.76 1.76 0 0 1-3.52 0zM1547 64.19a5.75 5.75 0 0 1 6 5.76c0 1-.66 1.48-1.85 1.48h-7a3.22 3.22 0 0 0 3.43 2.76 5.1 5.1 0 0 0 2.41-.67 1.15 1.15 0 0 1 .59-.15 1.26 1.26 0 0 1 1.23 1.24 1.24 1.24 0 0 1-.67 1.08 7.91 7.91 0 0 1-3.91 1 6.24 6.24 0 1 1-.2-12.48zm-2.92 5.12h5.92a2.75 2.75 0 0 0-2.93-2.63 2.84 2.84 0 0 0-2.97 2.63zM1565.5 68.7v6.23a1.58 1.58 0 0 1-3.15.22 4.91 4.91 0 0 1-3.74 1.52 4 4 0 0 1-4.13-3.93c0-2.79 2.24-3.79 4.13-3.79a4.81 4.81 0 0 1 3.77 1.45v-1.65c0-1.21-1-2-2.61-2a4.75 4.75 0 0 0-2.63.79 1.31 1.31 0 0 1-.62.17 1.2 1.2 0 0 1-1.18-1.2 1.26 1.26 0 0 1 .57-1 8 8 0 0 1 4.4-1.28c2.69-.04 5.19 1.05 5.19 4.47zm-3.12 4.82v-1.47a3.13 3.13 0 0 0-2.51-1c-1.23 0-2.24.64-2.24 1.8s1 1.75 2.24 1.75a3.13 3.13 0 0 0 2.51-1.08zM1567.84 74.38a1.31 1.31 0 0 1 1.3-1.3 1.48 1.48 0 0 1 .67.17 6.45 6.45 0 0 0 3.22 1c1.36 0 2-.47 2-1.2s-1-1.14-2.39-1.41c-2-.39-4.68-.88-4.68-3.71 0-2 1.75-3.75 4.88-3.75a7.4 7.4 0 0 1 3.91 1.06 1.18 1.18 0 0 1 .62 1 1.21 1.21 0 0 1-1.21 1.2 1.15 1.15 0 0 1-.59-.15 5.26 5.26 0 0 0-2.71-.76c-1.13 0-1.87.42-1.87 1.11s.94 1 2.26 1.28c2 .39 4.78.94 4.78 3.89 0 2.16-1.85 3.81-5.14 3.81a8.51 8.51 0 0 1-4.39-1.15 1.35 1.35 0 0 1-.66-1.09zM1591.49 65.89V75a1.57 1.57 0 0 1-1.55 1.6 1.59 1.59 0 0 1-1.6-1.6v-.1a5.57 5.57 0 0 1-4.16 1.77c-2.61 0-3.84-1.42-3.84-3.74v-7a1.57 1.57 0 1 1 3.13 0v5.77a1.91 1.91 0 0 0 2.19 2.19 3.49 3.49 0 0 0 2.7-1.35v-6.65a1.56 1.56 0 0 1 1.55-1.57 1.58 1.58 0 0 1 1.58 1.57zM1601.75 65.67a1.55 1.55 0 0 1-1.48 1.55 3.92 3.92 0 0 0-2.56 1.31V75a1.56 1.56 0 1 1-3.12 0v-9a1.58 1.58 0 1 1 3.15 0v.22a4.73 4.73 0 0 1 2-1.64 1.81 1.81 0 0 1 .79-.2 1.29 1.29 0 0 1 1.22 1.29zM1608.84 64.19a5.75 5.75 0 0 1 6 5.76c0 1-.66 1.48-1.84 1.48h-7a3.2 3.2 0 0 0 3.42 2.76 5.1 5.1 0 0 0 2.41-.67 1.15 1.15 0 0 1 .59-.15 1.23 1.23 0 0 1 .57 2.32 8 8 0 0 1-3.92 1 6.24 6.24 0 1 1-.19-12.48zm-2.93 5.12h5.85a2.75 2.75 0 0 0-2.92-2.63 2.85 2.85 0 0 0-2.93 2.63zM1635 67.79V75a1.58 1.58 0 1 1-3.15 0v-6.1c0-1.11-.5-1.89-1.78-1.89a3.17 3.17 0 0 0-2.46 1.37V75a1.58 1.58 0 1 1-3.15 0v-6.1c0-1.11-.49-1.89-1.77-1.89a3.18 3.18 0 0 0-2.46 1.4V75a1.57 1.57 0 1 1-3.13 0v-9.11a1.58 1.58 0 0 1 1.55-1.6 1.6 1.6 0 0 1 1.6 1.6V66a5.22 5.22 0 0 1 3.87-1.83 3.17 3.17 0 0 1 3.3 2.17 5 5 0 0 1 4.08-2.17c2.14.02 3.5 1.18 3.5 3.62zM1643.41 64.19a5.75 5.75 0 0 1 5.95 5.76c0 1-.66 1.48-1.84 1.48h-7a3.2 3.2 0 0 0 3.42 2.76 5.07 5.07 0 0 0 2.41-.67 1.15 1.15 0 0 1 .59-.15 1.23 1.23 0 0 1 .57 2.32 8 8 0 0 1-3.92 1 6.24 6.24 0 1 1-.19-12.48zm-2.93 5.12h5.86a2.76 2.76 0 0 0-2.93-2.63 2.85 2.85 0 0 0-2.93 2.63zM1662.77 68v7a1.56 1.56 0 1 1-3.12 0v-5.81a1.92 1.92 0 0 0-2.19-2.21 3.38 3.38 0 0 0-2.71 1.4V75a1.56 1.56 0 1 1-3.12 0v-9.11a1.57 1.57 0 0 1 1.55-1.6 1.6 1.6 0 0 1 1.6 1.6V66a5.53 5.53 0 0 1 4.13-1.8c2.61-.01 3.86 1.47 3.86 3.8zM1672.42 75.2a1.28 1.28 0 0 1-.94 1.23 5.08 5.08 0 0 1-1.62.24c-2.19 0-3.37-1.13-3.37-3.25v-6.2h-.77a1.37 1.37 0 1 1 0-2.73h.77v-1.85a1.58 1.58 0 0 1 3.15 0v1.85h1.23a1.37 1.37 0 0 1 0 2.73h-1.23v5.37c0 .74.37 1.3 1.06 1.3h.51a1.28 1.28 0 0 1 1.21 1.31zM1509.57 104.33v-13a1.68 1.68 0 0 1 1.85-1.85h5.83a5.12 5.12 0 0 1 5.51 5.29c0 2.86-2 5.24-5.51 5.24h-4.18v4.31a1.75 1.75 0 0 1-1.73 1.75 1.78 1.78 0 0 1-1.77-1.74zm7.21-11.84h-3.71V97h3.71a2.27 2.27 0 1 0 0-4.53zM1534.62 98.23v6.22a1.58 1.58 0 0 1-3.15.23 4.91 4.91 0 0 1-3.74 1.52 4 4 0 0 1-4.13-3.94c0-2.78 2.24-3.79 4.13-3.79a4.81 4.81 0 0 1 3.77 1.46v-1.65c0-1.21-1-2-2.61-2a4.75 4.75 0 0 0-2.63.79 1.31 1.31 0 0 1-.62.17 1.2 1.2 0 0 1-1.18-1.2 1.24 1.24 0 0 1 .57-1 8 8 0 0 1 4.4-1.28c2.71-.04 5.19 1.05 5.19 4.47zm-3.12 4.82v-1.48a3.16 3.16 0 0 0-2.51-1c-1.23 0-2.24.64-2.24 1.8s1 1.74 2.24 1.74a3.12 3.12 0 0 0 2.51-1.06zM1544.88 95.2a1.55 1.55 0 0 1-1.47 1.55 4 4 0 0 0-2.56 1.3v6.45a1.57 1.57 0 1 1-3.13 0v-9a1.58 1.58 0 1 1 3.15 0v.22a4.8 4.8 0 0 1 1.94-1.65 2 2 0 0 1 .79-.19 1.29 1.29 0 0 1 1.28 1.32z"/><path class="cls-9" d="M1553.13 104.72a1.27 1.27 0 0 1-.94 1.23 4.83 4.83 0 0 1-1.62.25c-2.19 0-3.37-1.13-3.37-3.25v-6.2h-.77a1.37 1.37 0 1 1 0-2.73h.77v-1.85a1.58 1.58 0 0 1 3.15 0V94h1.23a1.37 1.37 0 0 1 0 2.73h-1.23v5.37c0 .73.37 1.3 1.05 1.3h.52a1.28 1.28 0 0 1 1.21 1.32zM1566.05 97.51v7a1.57 1.57 0 1 1-3.13 0v-5.79a1.93 1.93 0 0 0-2.19-2.22 3.38 3.38 0 0 0-2.71 1.41v6.59a1.56 1.56 0 1 1-3.12 0v-9.08a1.57 1.57 0 0 1 1.55-1.6 1.6 1.6 0 0 1 1.6 1.6v.1a5.53 5.53 0 0 1 4.13-1.8c2.61 0 3.87 1.48 3.87 3.79zM1574.54 93.72a5.75 5.75 0 0 1 6 5.76c0 1-.66 1.48-1.85 1.48h-7a3.2 3.2 0 0 0 3.42 2.76 5.1 5.1 0 0 0 2.41-.67 1.15 1.15 0 0 1 .59-.15 1.23 1.23 0 0 1 .56 2.32 7.91 7.91 0 0 1-3.91 1 6.24 6.24 0 1 1-.19-12.48zm-2.93 5.12h5.85a2.75 2.75 0 0 0-2.92-2.63 2.85 2.85 0 0 0-2.93 2.63zM1589.91 95.2a1.55 1.55 0 0 1-1.47 1.55 3.93 3.93 0 0 0-2.56 1.3v6.45a1.57 1.57 0 1 1-3.13 0v-9a1.58 1.58 0 1 1 3.15 0v.22a4.73 4.73 0 0 1 1.94-1.65 2 2 0 0 1 .79-.19 1.29 1.29 0 0 1 1.28 1.32zM1590.85 103.91a1.31 1.31 0 0 1 1.3-1.3 1.48 1.48 0 0 1 .67.17 6.45 6.45 0 0 0 3.22 1c1.35 0 2-.47 2-1.21s-1-1.13-2.38-1.4c-2.05-.39-4.68-.89-4.68-3.72 0-2 1.75-3.74 4.87-3.74a7.44 7.44 0 0 1 3.92 1.06 1.17 1.17 0 0 1 .61 1 1.2 1.2 0 0 1-1.2 1.2 1.13 1.13 0 0 1-.59-.15 5.29 5.29 0 0 0-2.71-.76c-1.13 0-1.87.42-1.87 1.11s.93 1 2.26 1.28c2 .39 4.78.93 4.78 3.89 0 2.16-1.85 3.81-5.15 3.81a8.38 8.38 0 0 1-4.38-1.16 1.32 1.32 0 0 1-.67-1.08zM83.37 455.56v-14.42a1 1 0 0 1 1.09-1.08H90a4.95 4.95 0 1 1 0 9.94h-4.58v5.61a1 1 0 0 1-2 0zm6.35-13.68h-4.3v6.25h4.3a3.13 3.13 0 1 0 0-6.25zM97.74 455.66v-14.79a.93.93 0 0 1 1.85 0v14.79a.93.93 0 0 1-1.85 0zM112.56 448.3v7.36a.93.93 0 0 1-1.85 0v-.54a5 5 0 0 1-3.94 1.65 4 4 0 0 1-4.16-3.94 3.89 3.89 0 0 1 4.16-3.91 5 5 0 0 1 3.94 1.62v-2.14c0-1.6-1.28-2.51-3-2.51a4.36 4.36 0 0 0-3.1 1.18 1 1 0 0 1-.49.15.78.78 0 0 1-.77-.77.8.8 0 0 1 .32-.61 6.18 6.18 0 0 1 4.29-1.55c2.51 0 4.6 1.13 4.6 4.01zm-1.85 5.7v-2.24a4 4 0 0 0-3.27-1.48 2.62 2.62 0 1 0 0 5.2 4 4 0 0 0 3.27-1.48zM121.39 455.68a.69.69 0 0 1-.47.69 3.12 3.12 0 0 1-1.67.4c-1.75 0-2.63-1-2.63-2.78v-7.78h-1.26a.82.82 0 0 1 0-1.63h1.26v-2.43a.92.92 0 0 1 1.84 0v2.43h1.7a.82.82 0 1 1 0 1.63h-1.7v7.38c0 .89.4 1.53 1.21 1.53.51 0 .69-.22.93-.22a.75.75 0 0 1 .79.78zM129.17 440.7a.68.68 0 0 1-.74.73c-.17 0-.42-.1-.72-.1-1.2 0-1.87.84-1.87 2.34v.91h1.7a.82.82 0 0 1 0 1.63h-1.7v9.45a.92.92 0 0 1-.91.91.93.93 0 0 1-.93-.91v-9.45h-1.26a.82.82 0 1 1 0-1.63H124v-.91c0-2.46 1.38-3.86 3.44-3.86a4.34 4.34 0 0 1 1.16.15.77.77 0 0 1 .57.74zM129.76 450.52c0-3.45 2.26-6.23 5.88-6.23s5.88 2.78 5.88 6.23-2.26 6.25-5.88 6.25-5.88-2.77-5.88-6.25zm9.82 0c0-2.42-1.41-4.58-3.94-4.58s-4 2.16-4 4.58 1.43 4.6 4 4.6 3.94-2.12 3.94-4.6zM150.45 445.27c0 .45-.37.84-1 .91a4.38 4.38 0 0 0-3.08 1.88v7.6a.92.92 0 0 1-.91.91.93.93 0 0 1-.93-.91V445.4a.92.92 0 0 1 1.84 0v1.1a5.28 5.28 0 0 1 2.66-2 2.13 2.13 0 0 1 .59-.12.83.83 0 0 1 .83.89zM168.83 447.88v7.78a.94.94 0 0 1-.93.91.93.93 0 0 1-.91-.91v-7.26c0-1.5-.67-2.46-2.19-2.46a4.13 4.13 0 0 0-3.15 1.82v7.9a.93.93 0 0 1-.91.91 1 1 0 0 1-.94-.91v-7.26c0-1.5-.64-2.46-2.19-2.46a4.15 4.15 0 0 0-3.13 1.84v7.88a.92.92 0 0 1-.91.91.93.93 0 0 1-.93-.91V445.4a.92.92 0 0 1 1.84 0v.91a5.13 5.13 0 0 1 3.84-2 3 3 0 0 1 3.2 2.21 5 5 0 0 1 4-2.21c2.16-.02 3.31 1.18 3.31 3.57zM178.18 450.52c0-3.45 2.26-6.23 5.88-6.23s5.88 2.78 5.88 6.23-2.26 6.25-5.88 6.25-5.88-2.77-5.88-6.25zm9.82 0c0-2.42-1.4-4.58-3.94-4.58s-4 2.16-4 4.58 1.43 4.6 4 4.6 3.94-2.12 3.94-4.6zM204.09 450.52c0 3.84-2.16 6.25-5.29 6.25a4.91 4.91 0 0 1-4-2.12v5.54a.93.93 0 0 1-1.85 0V445.4a.93.93 0 0 1 1.85 0v1a5 5 0 0 1 4-2.07c3.13-.04 5.29 2.32 5.29 6.19zm-1.94 0c0-2.64-1.43-4.58-3.82-4.58a4.4 4.4 0 0 0-3.54 1.89v5.37a4.42 4.42 0 0 0 3.54 1.92c2.39 0 3.82-1.97 3.82-4.6zM212.21 455.68a.69.69 0 0 1-.46.69 3.16 3.16 0 0 1-1.68.4c-1.75 0-2.63-1-2.63-2.78v-7.78h-1.26a.82.82 0 0 1 0-1.63h1.26v-2.43a.93.93 0 0 1 .93-.91.92.92 0 0 1 .91.91v2.43H211a.82.82 0 1 1 0 1.63h-1.7v7.38c0 .89.4 1.53 1.21 1.53.52 0 .69-.22.93-.22a.75.75 0 0 1 .77.78zM214 440.94a1.25 1.25 0 1 1 1.23 1.23 1.24 1.24 0 0 1-1.23-1.23zm.32 14.72V445.4a.93.93 0 0 1 1.85 0v10.26a.93.93 0 0 1-1.85 0zM236 447.88v7.78a.94.94 0 0 1-.93.91.93.93 0 0 1-.91-.91v-7.26c0-1.5-.67-2.46-2.19-2.46a4.13 4.13 0 0 0-3.15 1.82v7.9a.93.93 0 0 1-.91.91 1 1 0 0 1-.94-.91v-7.26c0-1.5-.64-2.46-2.19-2.46a4.15 4.15 0 0 0-3.13 1.84v7.88a.92.92 0 0 1-.91.91.93.93 0 0 1-.93-.91V445.4a.92.92 0 0 1 1.84 0v.91a5.13 5.13 0 0 1 3.84-2 3 3 0 0 1 3.2 2.21 5 5 0 0 1 4-2.21c2.19-.02 3.31 1.18 3.31 3.57zM239.4 440.94a1.25 1.25 0 1 1 1.23 1.23 1.24 1.24 0 0 1-1.23-1.23zm.32 14.72V445.4a.93.93 0 0 1 1.85 0v10.26a.93.93 0 0 1-1.85 0zM244.57 455.51a.92.92 0 0 1 .2-.59l6.47-8.71h-5.86a.82.82 0 0 1 0-1.63h7.41a1 1 0 0 1 1 1 1 1 0 0 1-.2.57l-6.5 8.76h6a.8.8 0 1 1 0 1.6h-7.49a1 1 0 0 1-1.03-1zM256.55 440.94a1.25 1.25 0 1 1 1.23 1.23 1.24 1.24 0 0 1-1.23-1.23zm.32 14.72V445.4a.93.93 0 0 1 1.85 0v10.26a.93.93 0 0 1-1.85 0zM272.28 448.13v7.53a.93.93 0 0 1-1.85 0v-7c0-2.09-1.06-2.75-2.66-2.75a4.59 4.59 0 0 0-3.52 1.84v7.88a.92.92 0 0 1-.91.91.93.93 0 0 1-.93-.91V445.4a.92.92 0 0 1 1.84 0v.93a5.82 5.82 0 0 1 4.24-2c2.51-.04 3.79 1.21 3.79 3.8zM286.4 445.4v10.73c0 3.94-2.75 5.17-5.66 5.17a6.17 6.17 0 0 1-4.31-1.36.87.87 0 0 1-.32-.64.82.82 0 0 1 .82-.81.74.74 0 0 1 .46.17 4.8 4.8 0 0 0 3.35 1.11c2 0 3.82-1 3.82-3.57v-1.67a5 5 0 0 1-4 2.09c-3.1 0-5.29-2.31-5.29-6.15s2.16-6.18 5.29-6.18a4.89 4.89 0 0 1 4 2.12v-1a.92.92 0 0 1 1.84 0zm-1.84 7.65v-5.19a4.37 4.37 0 0 0-3.55-1.92c-2.39 0-3.81 1.89-3.81 4.53s1.42 4.53 3.8 4.53a4.41 4.41 0 0 0 3.56-1.95zM295.75 450.52c0-3.45 2.26-6.23 5.88-6.23s5.88 2.78 5.88 6.23-2.26 6.25-5.88 6.25-5.88-2.77-5.88-6.25zm9.82 0c0-2.42-1.4-4.58-3.94-4.58s-4 2.16-4 4.58 1.43 4.6 4 4.6 3.94-2.12 3.94-4.6zM320.38 448.13v7.53a.92.92 0 0 1-1.84 0v-7c0-2.09-1.06-2.75-2.66-2.75a4.59 4.59 0 0 0-3.52 1.84v7.88a.93.93 0 0 1-1.85 0V445.4a.93.93 0 0 1 1.85 0v.93a5.78 5.78 0 0 1 4.23-2c2.49-.04 3.79 1.21 3.79 3.8zM335.56 455.68a.69.69 0 0 1-.46.69 3.16 3.16 0 0 1-1.68.4c-1.74 0-2.63-1-2.63-2.78v-7.78h-1.26a.82.82 0 0 1 0-1.63h1.26v-2.43a.93.93 0 0 1 1.85 0v2.43h1.69a.82.82 0 1 1 0 1.63h-1.69v7.38c0 .89.39 1.53 1.2 1.53.52 0 .69-.22.94-.22a.75.75 0 0 1 .78.78zM345.7 455.66v-7c0-2.1-1.08-2.71-2.68-2.71a4.66 4.66 0 0 0-3.52 1.84v7.88a.93.93 0 0 1-1.85 0v-14.8a.93.93 0 0 1 1.85 0v5.44a5.89 5.89 0 0 1 4.26-2c2.48 0 3.79 1.2 3.79 3.79v7.58a.93.93 0 0 1-1.85 0zM356.41 444.29a5.63 5.63 0 0 1 5.71 5.91c0 .59-.4.93-1.09.93h-8.54a4.19 4.19 0 0 0 4.28 4.11 5.1 5.1 0 0 0 3.2-1.13.87.87 0 0 1 .42-.1.75.75 0 0 1 .77.74.78.78 0 0 1-.32.61 6.78 6.78 0 0 1-4.24 1.41 6.25 6.25 0 0 1-.19-12.48zm-3.92 5.49h7.8a3.84 3.84 0 0 0-3.91-4 4 4 0 0 0-3.89 4zM75.06 474.92v10.27a.93.93 0 0 1-1.85 0v-.84A5.83 5.83 0 0 1 69 486.3c-2.49 0-3.79-1.21-3.79-3.8v-7.58a.93.93 0 0 1 .93-.91.92.92 0 0 1 .91.91v7c0 2.09 1.06 2.71 2.66 2.71a4.56 4.56 0 0 0 3.52-1.8v-7.93a.93.93 0 0 1 1.85 0zM77.91 484.23a.82.82 0 0 1 .81-.81.93.93 0 0 1 .49.14 5.3 5.3 0 0 0 3.38 1.23c1.82 0 2.8-.81 2.8-2s-1.45-1.72-3-2.11c-2-.47-4.31-1-4.31-3.47 0-1.85 1.6-3.42 4.43-3.42a6.16 6.16 0 0 1 3.94 1.3.86.86 0 0 1 .32.62.8.8 0 0 1-.79.78.76.76 0 0 1-.44-.17 4.6 4.6 0 0 0-3-1c-1.62 0-2.63.74-2.63 1.8s1.35 1.52 2.9 1.89c2.07.47 4.46 1.06 4.46 3.69 0 2-1.6 3.6-4.68 3.6a6.55 6.55 0 0 1-4.26-1.41.78.78 0 0 1-.42-.66zM95.36 473.82a5.63 5.63 0 0 1 5.71 5.9c0 .6-.4.94-1.09.94h-8.54a4.2 4.2 0 0 0 4.29 4.11 5.14 5.14 0 0 0 3.2-1.13.74.74 0 0 1 .41-.1.75.75 0 0 1 .77.74.79.79 0 0 1-.32.61 6.76 6.76 0 0 1-4.24 1.41 6.25 6.25 0 0 1-.19-12.48zm-3.92 5.49h7.81a3.86 3.86 0 0 0-3.92-4 4 4 0 0 0-3.89 4zM110 474.8c0 .44-.37.84-1 .91a4.37 4.37 0 0 0-3.07 1.87v7.61a.93.93 0 0 1-1.85 0v-10.27a.93.93 0 0 1 1.85 0V476a5.19 5.19 0 0 1 2.66-2 2 2 0 0 1 .59-.13.82.82 0 0 1 .82.93zM118.51 485.19V470.4a.93.93 0 0 1 1.85 0v14.79a.93.93 0 0 1-1.85 0zM129.21 473.82a5.63 5.63 0 0 1 5.71 5.9c0 .6-.39.94-1.08.94h-8.54a4.19 4.19 0 0 0 4.28 4.11 5.1 5.1 0 0 0 3.2-1.13.77.77 0 0 1 .42-.1.74.74 0 0 1 .76.74.78.78 0 0 1-.31.61 6.78 6.78 0 0 1-4.24 1.41 6.25 6.25 0 0 1-.2-12.48zm-3.91 5.49h7.8a3.85 3.85 0 0 0-3.91-4 4 4 0 0 0-3.89 4zM147.62 475a2 2 0 0 1-.07.37l-4.14 9.89a1.42 1.42 0 0 1-1.3.89 1.45 1.45 0 0 1-1.36-.89l-4.13-9.89a1.61 1.61 0 0 1-.07-.37.91.91 0 0 1 .91-.94.94.94 0 0 1 .86.57l3.76 9.3 3.74-9.3a1 1 0 0 1 .87-.57.92.92 0 0 1 .93.94zM155.13 473.82a5.63 5.63 0 0 1 5.71 5.9c0 .6-.4.94-1.09.94h-8.54a4.19 4.19 0 0 0 4.28 4.11 5.1 5.1 0 0 0 3.2-1.13.77.77 0 0 1 .42-.1.75.75 0 0 1 .77.74.79.79 0 0 1-.32.61 6.78 6.78 0 0 1-4.24 1.41 6.25 6.25 0 0 1-.19-12.48zm-3.92 5.49H159a3.85 3.85 0 0 0-3.91-4 4 4 0 0 0-3.88 4zM163.81 485.19V470.4a.93.93 0 0 1 1.85 0v14.79a.93.93 0 0 1-1.85 0zM169.76 489a.56.56 0 0 1-.56-.57.52.52 0 0 1 .17-.42 3.68 3.68 0 0 0 1.13-2 1.06 1.06 0 0 1-.34.05 1.16 1.16 0 0 1-1.18-1.25 1.32 1.32 0 0 1 1.3-1.33 1.67 1.67 0 0 1 1.55 1.87 4.64 4.64 0 0 1-1.7 3.47.48.48 0 0 1-.37.18zM192.5 480.07c0 3.86-2.19 6.23-5.29 6.23a5.06 5.06 0 0 1-4-2.07v1a.93.93 0 0 1-1.85 0V470.4a.93.93 0 0 1 1.85 0v5.53a4.88 4.88 0 0 1 4-2.11c3.1 0 5.29 2.46 5.29 6.25zm-1.92 0c0-2.64-1.42-4.6-3.84-4.6a4.4 4.4 0 0 0-3.54 1.92v5.39a4.38 4.38 0 0 0 3.54 1.87c2.42 0 3.84-1.95 3.84-4.58zM204.78 477.83v7.36a.93.93 0 0 1-.93.91.92.92 0 0 1-.91-.91v-.54a5.06 5.06 0 0 1-3.94 1.65 4 4 0 0 1-4.16-3.94 3.9 3.9 0 0 1 4.16-3.92 5 5 0 0 1 3.94 1.63v-2.14c0-1.6-1.28-2.51-3-2.51a4.38 4.38 0 0 0-3.1 1.18 1 1 0 0 1-.49.15.76.76 0 0 1-.44-1.38 6.14 6.14 0 0 1 4.28-1.55c2.5 0 4.59 1.18 4.59 4.01zm-1.84 5.66v-2.24a4 4 0 0 0-3.28-1.48 2.62 2.62 0 1 0 0 5.2 4 4 0 0 0 3.28-1.48zM207.63 484.23a.82.82 0 0 1 .82-.81 1 1 0 0 1 .49.14 5.27 5.27 0 0 0 3.37 1.23c1.82 0 2.81-.81 2.81-2s-1.46-1.72-3.06-2.11c-2-.47-4.3-1-4.3-3.47 0-1.85 1.6-3.42 4.43-3.42a6.16 6.16 0 0 1 3.94 1.3.85.85 0 0 1 .31.62.79.79 0 0 1-.78.78.78.78 0 0 1-.45-.17 4.55 4.55 0 0 0-3-1c-1.63 0-2.64.74-2.64 1.8s1.36 1.52 2.91 1.89c2.07.47 4.45 1.06 4.45 3.69 0 2-1.6 3.6-4.67 3.6a6.53 6.53 0 0 1-4.26-1.41.79.79 0 0 1-.37-.66zM225.08 473.82a5.63 5.63 0 0 1 5.71 5.9c0 .6-.39.94-1.08.94h-8.54a4.19 4.19 0 0 0 4.28 4.11 5.12 5.12 0 0 0 3.2-1.13.79.79 0 0 1 1.18.64.76.76 0 0 1-.32.61 6.73 6.73 0 0 1-4.23 1.41 6.25 6.25 0 0 1-.2-12.48zm-3.91 5.49H229a3.85 3.85 0 0 0-3.91-4 4 4 0 0 0-3.92 4zM244.23 470.4v14.79a.93.93 0 0 1-1.85 0v-1a5 5 0 0 1-4 2.07c-3.1 0-5.29-2.37-5.29-6.23s2.16-6.25 5.29-6.25a4.94 4.94 0 0 1 4 2.11v-5.49a.93.93 0 0 1 1.85 0zm-1.85 12.38v-5.39a4.44 4.44 0 0 0-3.57-1.92c-2.39 0-3.81 2-3.81 4.6s1.42 4.58 3.81 4.58a4.42 4.42 0 0 0 3.57-1.87zM253.57 480c0-3.44 2.27-6.22 5.89-6.22s5.88 2.78 5.88 6.22-2.27 6.26-5.88 6.26-5.89-2.77-5.89-6.26zm9.82 0c0-2.41-1.4-4.57-3.93-4.57s-4 2.16-4 4.57 1.43 4.61 4 4.61 3.93-2.13 3.93-4.61zM278.21 477.66v7.53a.93.93 0 0 1-1.85 0v-7c0-2.09-1.06-2.75-2.66-2.75a4.59 4.59 0 0 0-3.52 1.84v7.88a.92.92 0 0 1-.91.91.93.93 0 0 1-.93-.91v-10.24a.92.92 0 0 1 1.84 0v.94a5.82 5.82 0 0 1 4.24-2c2.48-.04 3.79 1.21 3.79 3.8zM301.9 485a1 1 0 0 1-2 .39l-1.19-3.07h-8.44l-1.18 3.07a1 1 0 0 1-1 .67 1 1 0 0 1-1.06-1 1.35 1.35 0 0 1 .1-.42l5.66-14a1.79 1.79 0 0 1 1.68-1.13 1.74 1.74 0 0 1 1.65 1.13l5.68 14a1.78 1.78 0 0 1 .1.36zm-3.88-4.5l-3.52-9.13-3.5 9.17zM304.51 484.92v-14.43a1 1 0 0 1 1-1 1 1 0 0 1 1 1v13.69h6.82a.91.91 0 1 1 0 1.82h-7.78a1 1 0 0 1-1.04-1.08zM317.06 484.92v-14.43a1 1 0 0 1 1-1 1 1 0 0 1 1 1v13.69h6.82a.91.91 0 1 1 0 1.82h-7.78a1 1 0 0 1-1.04-1.08zM346.34 470.4v14.79a.92.92 0 0 1-1.84 0v-1a5 5 0 0 1-4 2.07c-3.1 0-5.29-2.37-5.29-6.23s2.17-6.25 5.29-6.25a5 5 0 0 1 4 2.11v-5.49a.92.92 0 0 1 1.84 0zm-1.84 12.38v-5.39a4.47 4.47 0 0 0-3.57-1.92c-2.39 0-3.82 2-3.82 4.6s1.43 4.58 3.82 4.58a4.45 4.45 0 0 0 3.57-1.87zM359.31 477.83v7.36a.93.93 0 0 1-1.85 0v-.54a5 5 0 0 1-3.93 1.65 4 4 0 0 1-4.16-3.94 3.9 3.9 0 0 1 4.16-3.92 5 5 0 0 1 3.93 1.63v-2.14c0-1.6-1.28-2.51-3-2.51a4.38 4.38 0 0 0-3.1 1.18 1 1 0 0 1-.49.15.76.76 0 0 1-.44-1.38 6.14 6.14 0 0 1 4.28-1.55c2.51 0 4.6 1.18 4.6 4.01zm-1.85 5.66v-2.24a4 4 0 0 0-3.27-1.48 2.62 2.62 0 1 0 0 5.2 4 4 0 0 0 3.27-1.48zM368.14 485.21a.69.69 0 0 1-.46.69 3.16 3.16 0 0 1-1.68.4c-1.75 0-2.63-1-2.63-2.79v-7.77h-1.26a.82.82 0 0 1 0-1.63h1.26v-2.43a.93.93 0 0 1 .93-.92.92.92 0 0 1 .91.92v2.43h1.7a.82.82 0 1 1 0 1.63h-1.7v7.38c0 .89.4 1.53 1.21 1.53.52 0 .69-.23.94-.23a.75.75 0 0 1 .78.79zM379.51 477.83v7.36a.93.93 0 0 1-.93.91.92.92 0 0 1-.91-.91v-.54a5.06 5.06 0 0 1-3.94 1.65 4 4 0 0 1-4.16-3.94 3.9 3.9 0 0 1 4.16-3.92 5 5 0 0 1 3.94 1.63v-2.14c0-1.6-1.28-2.51-3-2.51a4.38 4.38 0 0 0-3.1 1.18 1 1 0 0 1-.49.15.76.76 0 0 1-.44-1.38 6.14 6.14 0 0 1 4.28-1.55c2.5 0 4.59 1.18 4.59 4.01zm-1.84 5.66v-2.24a4 4 0 0 0-3.28-1.48 2.62 2.62 0 1 0 0 5.2 4 4 0 0 0 3.28-1.48zM103.56 507.36v7.36a.92.92 0 0 1-1.84 0v-.55a5 5 0 0 1-3.94 1.65 4 4 0 0 1-4.16-3.93 3.9 3.9 0 0 1 4.16-3.89 5 5 0 0 1 3.94 1.63v-2.14c0-1.6-1.28-2.51-3-2.51a4.38 4.38 0 0 0-3.11 1.18 1 1 0 0 1-.49.14.76.76 0 0 1-.76-.76.79.79 0 0 1 .32-.61 6.16 6.16 0 0 1 4.32-1.59c2.47 0 4.56 1.14 4.56 4.02zm-1.84 5.64v-2.24a4 4 0 0 0-3.28-1.48 2.61 2.61 0 1 0 0 5.19 4 4 0 0 0 3.28-1.47zM117 504.48a1.43 1.43 0 0 1-.08.37l-4.13 9.89a1.44 1.44 0 0 1-2.66 0l-4.13-9.89a2.66 2.66 0 0 1-.07-.37.91.91 0 0 1 .91-.94.93.93 0 0 1 .86.57l3.77 9.3 3.74-9.3a1 1 0 0 1 .86-.57.93.93 0 0 1 .93.94zM128.59 507.36v7.36a.93.93 0 0 1-1.85 0v-.55a5 5 0 0 1-3.93 1.65 4 4 0 0 1-4.16-3.93 3.9 3.9 0 0 1 4.16-3.92 5 5 0 0 1 3.93 1.63v-2.14c0-1.6-1.28-2.51-3-2.51a4.36 4.36 0 0 0-3.1 1.18 1 1 0 0 1-.49.14.77.77 0 0 1-.77-.76.79.79 0 0 1 .32-.61 6.19 6.19 0 0 1 4.29-1.56c2.51 0 4.6 1.14 4.6 4.02zm-1.85 5.64v-2.24a4 4 0 0 0-3.27-1.48 2.61 2.61 0 1 0 0 5.19 4 4 0 0 0 3.27-1.47zM132 500a1.24 1.24 0 1 1 2.48 0 1.24 1.24 0 0 1-2.48 0zm.32 14.72v-10.27a.93.93 0 0 1 .93-.91.92.92 0 0 1 .91.91v10.27a.92.92 0 0 1-1.84 0zM137.81 514.72v-14.8a.93.93 0 0 1 1.85 0v14.8a.93.93 0 0 1-1.85 0zM152.63 507.36v7.36a.93.93 0 0 1-1.85 0v-.55a5 5 0 0 1-3.93 1.65 4 4 0 0 1-4.16-3.93 3.9 3.9 0 0 1 4.16-3.92 5 5 0 0 1 3.93 1.63v-2.14c0-1.6-1.28-2.51-3-2.51a4.36 4.36 0 0 0-3.1 1.18 1 1 0 0 1-.49.14.77.77 0 0 1-.77-.76.79.79 0 0 1 .32-.61 6.19 6.19 0 0 1 4.29-1.56c2.51 0 4.6 1.14 4.6 4.02zm-1.85 5.64v-2.24a4 4 0 0 0-3.27-1.48 2.61 2.61 0 1 0 0 5.19 4 4 0 0 0 3.27-1.47zM167.47 509.6c0 3.86-2.19 6.22-5.29 6.22a5.06 5.06 0 0 1-4-2.06v1a.92.92 0 0 1-.91.91.93.93 0 0 1-.93-.91v-14.8a.93.93 0 0 1 .93-.91.92.92 0 0 1 .91.91v5.54a4.92 4.92 0 0 1 4-2.12c3.1-.04 5.29 2.43 5.29 6.22zm-1.92 0c0-2.64-1.43-4.61-3.84-4.61a4.44 4.44 0 0 0-3.55 1.92v5.39a4.37 4.37 0 0 0 3.55 1.87c2.41 0 3.84-1.94 3.84-4.57zM170.47 514.72v-14.8a.92.92 0 0 1 1.84 0v14.8a.92.92 0 0 1-1.84 0zM181.17 503.34a5.63 5.63 0 0 1 5.71 5.91c0 .59-.39.94-1.08.94h-8.54a4.19 4.19 0 0 0 4.28 4.11 5.05 5.05 0 0 0 3.2-1.14.84.84 0 0 1 .42-.09.74.74 0 0 1 .76.74.76.76 0 0 1-.32.61 6.73 6.73 0 0 1-4.23 1.4 5.9 5.9 0 0 1-6.06-6.25 6 6 0 0 1 5.86-6.23zm-3.91 5.49h7.8a3.85 3.85 0 0 0-3.91-4 4 4 0 0 0-3.89 4zM201.35 514.74a.69.69 0 0 1-.47.69 3.12 3.12 0 0 1-1.67.39c-1.75 0-2.64-1-2.64-2.78v-7.78h-1.25a.81.81 0 0 1 0-1.62h1.25v-2.44a.93.93 0 0 1 1.85 0v2.44h1.7a.81.81 0 1 1 0 1.62h-1.7v7.39c0 .89.39 1.52 1.21 1.52.51 0 .69-.22.93-.22a.75.75 0 0 1 .79.79zM202.75 509.57c0-3.44 2.26-6.23 5.88-6.23s5.88 2.79 5.88 6.23-2.26 6.25-5.88 6.25-5.88-2.82-5.88-6.25zm9.82 0c0-2.41-1.4-4.58-3.94-4.58s-4 2.17-4 4.58 1.43 4.6 4 4.6 3.94-2.17 3.94-4.6zM229 514.74a.71.71 0 0 1-.47.69 3.16 3.16 0 0 1-1.68.39c-1.74 0-2.63-1-2.63-2.78v-7.78H223a.81.81 0 1 1 0-1.62h1.25v-2.44a.93.93 0 0 1 1.85 0v2.44h1.7a.81.81 0 1 1 0 1.62h-1.7v7.39c0 .89.39 1.52 1.2 1.52.52 0 .69-.22.94-.22a.75.75 0 0 1 .76.79zM239.14 514.72v-7c0-2.09-1.08-2.71-2.68-2.71a4.68 4.68 0 0 0-3.52 1.85v7.88a.92.92 0 0 1-1.84 0v-14.8a.92.92 0 0 1 1.84 0v5.44a5.93 5.93 0 0 1 4.26-2c2.49 0 3.79 1.21 3.79 3.8v7.58a.93.93 0 0 1-1.85 0zM249.85 503.34a5.64 5.64 0 0 1 5.71 5.91c0 .59-.4.94-1.09.94h-8.54a4.2 4.2 0 0 0 4.29 4.11 5.1 5.1 0 0 0 3.2-1.14.84.84 0 0 1 .42-.09.75.75 0 0 1 .76.74.79.79 0 0 1-.32.61 6.76 6.76 0 0 1-4.24 1.4 6.25 6.25 0 0 1-.19-12.48zm-3.92 5.49h7.81a3.86 3.86 0 0 0-3.92-4 4 4 0 0 0-3.89 4zM265 514.62v-14.43a1 1 0 0 1 1.09-1.08h5.51a5 5 0 1 1 0 9.9H267v5.61a1 1 0 0 1-2.05 0zm6.35-13.69H267v6.25h4.3a3.13 3.13 0 1 0 0-6.25zM279.32 514.72v-14.8a.93.93 0 0 1 1.85 0v14.8a.93.93 0 0 1-1.85 0zM294.14 507.36v7.36a.93.93 0 0 1-1.85 0v-.55a5 5 0 0 1-3.93 1.65 4 4 0 0 1-4.16-3.93 3.9 3.9 0 0 1 4.16-3.92 5 5 0 0 1 3.93 1.63v-2.14c0-1.6-1.28-2.51-3-2.51a4.38 4.38 0 0 0-3.1 1.18 1 1 0 0 1-.49.14.75.75 0 0 1-.44-1.37 6.14 6.14 0 0 1 4.28-1.56c2.51 0 4.6 1.14 4.6 4.02zm-1.85 5.64v-2.24a4 4 0 0 0-3.29-1.46 2.61 2.61 0 1 0 0 5.19 4 4 0 0 0 3.29-1.49zM303 514.74a.7.7 0 0 1-.46.69 3.16 3.16 0 0 1-1.68.39c-1.75 0-2.63-1-2.63-2.78v-7.78h-1.26a.81.81 0 0 1 0-1.62h1.26v-2.44a.93.93 0 0 1 .93-.91.92.92 0 0 1 .91.91v2.44h1.7a.81.81 0 1 1 0 1.62H300v7.39c0 .89.4 1.52 1.21 1.52.52 0 .69-.22.93-.22a.75.75 0 0 1 .86.79zM310.75 499.75a.69.69 0 0 1-.74.74c-.17 0-.42-.1-.71-.1-1.21 0-1.87.84-1.87 2.34v.91h1.69a.81.81 0 1 1 0 1.62h-1.69v9.46a.93.93 0 0 1-1.85 0v-9.46h-1.26a.81.81 0 1 1 0-1.62h1.26v-.91c0-2.46 1.38-3.86 3.45-3.86a4.32 4.32 0 0 1 1.15.14.77.77 0 0 1 .57.74zM311.34 509.57c0-3.44 2.26-6.23 5.88-6.23s5.88 2.79 5.88 6.23-2.26 6.25-5.88 6.25-5.88-2.82-5.88-6.25zm9.82 0c0-2.41-1.41-4.58-3.94-4.58s-4 2.17-4 4.58 1.42 4.6 4 4.6 3.94-2.17 3.94-4.6zM332 504.33c0 .44-.37.84-1 .91a4.37 4.37 0 0 0-3.07 1.87v7.61a.93.93 0 0 1-1.85 0v-10.27a.93.93 0 0 1 1.85 0v1.11a5.19 5.19 0 0 1 2.66-2 1.75 1.75 0 0 1 .59-.13.82.82 0 0 1 .82.9zM350.42 506.94v7.78a1 1 0 0 1-.94.91.93.93 0 0 1-.91-.91v-7.26c0-1.51-.66-2.47-2.19-2.47a4.15 4.15 0 0 0-3.15 1.83v7.9a.93.93 0 0 1-.91.91 1 1 0 0 1-.94-.91v-7.26c0-1.51-.64-2.47-2.19-2.47a4.15 4.15 0 0 0-3.12 1.85v7.88a.93.93 0 0 1-1.85 0v-10.27a.93.93 0 0 1 1.85 0v.91a5.12 5.12 0 0 1 3.84-2 3.06 3.06 0 0 1 3.2 2.22 5 5 0 0 1 4-2.22c2.15-.02 3.31 1.19 3.31 3.58z"/><rect class="cls-2" x="1383.7" y="664.9" width="326.34" height="60.33" rx="30.17"/><rect class="cls-3" x="1383.7" y="664.9" width="326.34" height="60.33" rx="30.17"/><rect class="cls-4" x="1391.7" y="657.9" width="326.34" height="60.33" rx="30.17"/><rect class="cls-5" x="1391.7" y="657.9" width="326.34" height="60.33" rx="30.17"/><text class="cls-15" transform="translate(1434.58 694.41)">Aggregated <tspan x="135.09" y="0" letter-spacing="-.04em">W</tspan><tspan x="155.83" y="0" letter-spacing="0">eb Data</tspan></text><path d="M1426.38 570.61C1400 652 1329.82 710.55 1247.91 710.55H861.86c-81.81 0-151.94-58.43-178.37-139.63" stroke-miterlimit="10" stroke-linecap="round" stroke-width="3" stroke="#1d1853" fill="none"/><path class="cls-1" d="M1426.38 386.1c-26.35-81.36-96.56-139.93-178.47-139.93H861.86c-81.81 0-151.94 58.42-178.37 139.62"/><path class="cls-1" d="M676.06 372.71l3.62 6.65 3.67 6.75 13.74-7.48M621.95 576.22l6.93-3.05 7.02-3.1 6.31 14.32M1433.77 584l-3.61-6.64-3.67-6.75-13.75 7.47"/><rect class="cls-2" x="823.96" y="182.56" width="446.07" height="126.34" rx="63.17"/><rect class="cls-3" x="823.96" y="182.56" width="446.07" height="126.34" rx="63.17"/><rect class="cls-4" x="831.96" y="175.56" width="446.07" height="126.34" rx="63.17"/><rect class="cls-5" x="831.96" y="175.56" width="446.07" height="126.34" rx="63.17"/><path class="cls-9" d="M907.72 212.31a1 1 0 0 1 1-1 .89.89 0 0 1 .61.23 6.79 6.79 0 0 0 4.51 1.72c2.92 0 3.86-1.58 3.86-2.83 0-2-2-2.51-4.16-3.1-2.63-.69-5.56-1.43-5.56-4.65 0-2.71 2.41-4.56 5.78-4.56a7.8 7.8 0 0 1 5.07 1.7.92.92 0 0 1 .42.79 1 1 0 0 1-1 1 .94.94 0 0 1-.59-.22 6.34 6.34 0 0 0-4.09-1.43c-2.11 0-3.52 1.06-3.52 2.61s1.9 2.14 4 2.71c2.68.71 5.74 1.55 5.74 5 0 2.38-1.63 4.82-6.06 4.82a8.34 8.34 0 0 1-5.66-2 1.05 1.05 0 0 1-.35-.79zM939 206.19V214a1 1 0 0 1-.94.91.93.93 0 0 1-.91-.91v-7.3c0-1.5-.66-2.46-2.19-2.46a4.18 4.18 0 0 0-3.15 1.82V214a.93.93 0 0 1-.91.91 1 1 0 0 1-.94-.91v-7.3c0-1.5-.64-2.46-2.19-2.46a4.15 4.15 0 0 0-3.12 1.85V214a.93.93 0 0 1-1.85 0v-10.3a.93.93 0 0 1 1.85 0v.91a5.13 5.13 0 0 1 3.84-2 3.06 3.06 0 0 1 3.2 2.22 5 5 0 0 1 4-2.22c2.13-.02 3.31 1.19 3.31 3.58zM951.94 206.6v7.4a.92.92 0 0 1-1.84 0v-.54a5.06 5.06 0 0 1-3.94 1.65 4 4 0 0 1-4.16-3.94 3.89 3.89 0 0 1 4.16-3.91 5 5 0 0 1 3.94 1.62v-2.18c0-1.6-1.28-2.51-3-2.51a4.42 4.42 0 0 0-3.1 1.18.89.89 0 0 1-.49.15.76.76 0 0 1-.76-.76.83.83 0 0 1 .32-.62 6.14 6.14 0 0 1 4.28-1.55c2.5 0 4.59 1.13 4.59 4.01zm-1.84 5.66V210a4 4 0 0 0-3.28-1.48 2.61 2.61 0 1 0 0 5.19 4 4 0 0 0 3.28-1.45zM961.56 203.58c0 .44-.37.83-1 .91a4.33 4.33 0 0 0-3.07 1.87V214a.93.93 0 0 1-1.85 0v-10.3a.93.93 0 0 1 1.85 0v1.11a5.27 5.27 0 0 1 2.66-2 2 2 0 0 1 .59-.12.82.82 0 0 1 .82.89zM968.9 214a.72.72 0 0 1-.47.69 3.26 3.26 0 0 1-1.68.39c-1.74 0-2.63-1-2.63-2.78v-7.78h-1.25a.81.81 0 1 1 0-1.62h1.25v-2.44a.93.93 0 0 1 1.85 0v2.44h1.69a.81.81 0 1 1 0 1.62H966v7.39c0 .88.39 1.52 1.2 1.52.52 0 .69-.22.94-.22a.75.75 0 0 1 .76.79zM971 214v-14.83a.92.92 0 0 1 1.84 0V214a.92.92 0 0 1-1.84 0zM976.77 217.93h.39a1.7 1.7 0 0 0 1.77-1.25l.79-1.8-4.48-10.83a.84.84 0 0 1-.07-.35.92.92 0 0 1 1.77-.36l3.77 9.27 3.74-9.27a.94.94 0 0 1 .86-.57.92.92 0 0 1 .93.93.94.94 0 0 1-.07.37l-5.46 13.1a3.55 3.55 0 0 1-3.5 2.41 2.09 2.09 0 0 1-.54 0 .83.83 0 0 1-.79-.81.85.85 0 0 1 .89-.84zM988.16 212.31a1.36 1.36 0 1 1-1.35 1.36 1.37 1.37 0 0 1 1.35-1.36zM992.52 199.24a1.24 1.24 0 1 1 1.23 1.24 1.24 1.24 0 0 1-1.23-1.24zm.32 14.72V203.7a.92.92 0 0 1 1.84 0V214a.93.93 0 0 1-.93.91.92.92 0 0 1-.91-.91zM997.68 208.82c0-3.45 2.27-6.23 5.89-6.23s5.88 2.78 5.88 6.23-2.27 6.25-5.88 6.25-5.89-2.81-5.89-6.25zm9.82 0c0-2.41-1.4-4.58-3.93-4.58s-4 2.17-4 4.58 1.43 4.6 4 4.6 3.93-2.16 3.93-4.6zM1018.11 208.82c0-3.45 2.26-6.23 5.88-6.23s5.88 2.78 5.88 6.23-2.26 6.25-5.88 6.25-5.88-2.81-5.88-6.25zm9.82 0c0-2.41-1.41-4.58-3.94-4.58s-4 2.17-4 4.58 1.42 4.6 4 4.6 3.94-2.16 3.94-4.6zM1044 208.82c0 3.84-2.17 6.25-5.29 6.25a4.88 4.88 0 0 1-4-2.12v5.54a.93.93 0 0 1-1.85 0V203.7a.93.93 0 0 1 1.85 0v1a5 5 0 0 1 4-2.07c3.14-.04 5.29 2.37 5.29 6.19zm-1.94 0c0-2.63-1.43-4.58-3.82-4.58a4.38 4.38 0 0 0-3.54 1.9v5.36a4.4 4.4 0 0 0 3.54 1.92c2.41 0 3.84-1.97 3.84-4.6zM1052.14 214a.7.7 0 0 1-.47.69 3.22 3.22 0 0 1-1.67.39c-1.75 0-2.64-1-2.64-2.78v-7.78h-1.25a.81.81 0 1 1 0-1.62h1.25v-2.44a.93.93 0 0 1 1.85 0v2.44h1.7a.81.81 0 1 1 0 1.62h-1.7v7.39c0 .88.39 1.52 1.21 1.52.51 0 .68-.22.93-.22a.75.75 0 0 1 .79.79zM1053.91 199.24a1.24 1.24 0 1 1 2.48 0 1.24 1.24 0 1 1-2.48 0zm.32 14.72V203.7a.93.93 0 0 1 1.85 0V214a.93.93 0 0 1-1.85 0zM1076 206.19V214a1 1 0 0 1-.94.91.93.93 0 0 1-.91-.91v-7.3c0-1.5-.66-2.46-2.19-2.46a4.18 4.18 0 0 0-3.15 1.82V214a.93.93 0 0 1-.91.91.94.94 0 0 1-.93-.91v-7.3c0-1.5-.64-2.46-2.19-2.46a4.16 4.16 0 0 0-3.13 1.85V214a.93.93 0 0 1-1.85 0v-10.3a.93.93 0 0 1 1.85 0v.91a5.13 5.13 0 0 1 3.84-2 3.05 3.05 0 0 1 3.2 2.22 5 5 0 0 1 4-2.22c2.11-.02 3.31 1.19 3.31 3.58zM1079.33 199.24a1.24 1.24 0 1 1 1.23 1.24 1.24 1.24 0 0 1-1.23-1.24zm.32 14.72V203.7a.93.93 0 0 1 .93-.91.92.92 0 0 1 .91.91V214a.92.92 0 0 1-1.84 0zM1084.49 213.82a1 1 0 0 1 .2-.6l6.47-8.71h-5.85a.81.81 0 1 1 0-1.62h7.4a1 1 0 0 1 1 1 1 1 0 0 1-.19.56l-6.5 8.77h6a.79.79 0 0 1 .81.78.81.81 0 0 1-.81.82h-7.48a1 1 0 0 1-1.05-1zM1096.48 199.24a1.24 1.24 0 1 1 1.23 1.24 1.24 1.24 0 0 1-1.23-1.24zm.32 14.72V203.7a.93.93 0 0 1 .93-.91.92.92 0 0 1 .91.91V214a.92.92 0 0 1-1.84 0zM1112.2 206.43V214a.92.92 0 0 1-1.84 0v-7c0-2.09-1.06-2.76-2.66-2.76a4.6 4.6 0 0 0-3.52 1.85V214a.93.93 0 0 1-1.85 0v-10.3a.93.93 0 0 1 1.85 0v.93a5.78 5.78 0 0 1 4.23-2c2.49-.04 3.79 1.22 3.79 3.8zM1126.33 203.7v10.73c0 3.94-2.76 5.17-5.66 5.17a6.19 6.19 0 0 1-4.31-1.35.87.87 0 0 1-.32-.64.82.82 0 0 1 .81-.82.78.78 0 0 1 .47.18 4.81 4.81 0 0 0 3.35 1.1c2 0 3.81-1 3.81-3.57v-1.67a5 5 0 0 1-4 2.09c-3.1 0-5.29-2.31-5.29-6.15s2.17-6.18 5.29-6.18a4.89 4.89 0 0 1 4 2.12v-1a.93.93 0 0 1 1.85 0zm-1.85 7.65v-5.19a4.39 4.39 0 0 0-3.54-1.92c-2.39 0-3.82 1.9-3.82 4.53s1.43 4.53 3.82 4.53a4.39 4.39 0 0 0 3.54-1.95zM1135.68 208.82c0-3.45 2.26-6.23 5.88-6.23s5.88 2.78 5.88 6.23-2.26 6.25-5.88 6.25-5.88-2.81-5.88-6.25zm9.82 0c0-2.41-1.41-4.58-3.94-4.58s-4 2.17-4 4.58 1.42 4.6 4 4.6 3.94-2.16 3.94-4.6zM1160.31 206.43V214a.93.93 0 0 1-1.85 0v-7c0-2.09-1.06-2.76-2.66-2.76a4.56 4.56 0 0 0-3.51 1.85V214a.93.93 0 0 1-1.85 0v-10.3a.93.93 0 0 1 1.85 0v.93a5.78 5.78 0 0 1 4.23-2c2.48-.04 3.79 1.22 3.79 3.8zM1175.49 214a.7.7 0 0 1-.47.69 3.22 3.22 0 0 1-1.67.39c-1.75 0-2.63-1-2.63-2.78v-7.78h-1.26a.81.81 0 1 1 0-1.62h1.26v-2.44a.92.92 0 0 1 1.84 0v2.44h1.7a.81.81 0 1 1 0 1.62h-1.7v7.39c0 .88.39 1.52 1.21 1.52.51 0 .69-.22.93-.22a.75.75 0 0 1 .79.79zM1185.63 214v-7c0-2.09-1.08-2.71-2.68-2.71a4.67 4.67 0 0 0-3.52 1.85V214a.93.93 0 0 1-1.85 0v-14.83a.93.93 0 0 1 1.85 0v5.44a5.91 5.91 0 0 1 4.25-2c2.49 0 3.79 1.21 3.79 3.79v7.6a.92.92 0 0 1-1.84 0zM1196.33 202.59a5.64 5.64 0 0 1 5.71 5.91c0 .59-.39.93-1.08.93h-8.54a4.19 4.19 0 0 0 4.28 4.11 5.12 5.12 0 0 0 3.2-1.13.84.84 0 0 1 .42-.1.74.74 0 0 1 .76.74.77.77 0 0 1-.32.62 6.73 6.73 0 0 1-4.23 1.4 6.25 6.25 0 0 1-.2-12.48zm-3.91 5.49h7.8a3.85 3.85 0 0 0-3.91-4 4 4 0 0 0-3.89 4zM888.26 232.12a5.14 5.14 0 0 1 3.82 1.48.91.91 0 0 1 .27.61.83.83 0 0 1-.84.84.79.79 0 0 1-.54-.22 3.44 3.44 0 0 0-2.61-1.06c-2.54 0-4.11 1.94-4.11 4.58s1.57 4.6 4.11 4.6a3.37 3.37 0 0 0 2.58-1.06.78.78 0 0 1 .57-.22.83.83 0 0 1 .84.84.87.87 0 0 1-.27.61 5.14 5.14 0 0 1-3.82 1.48c-3.54 0-5.93-2.71-5.93-6.25s2.39-6.23 5.93-6.23zM904.48 236.13v7.36a.93.93 0 0 1-1.85 0V243a5 5 0 0 1-3.94 1.65 4 4 0 0 1-4.16-3.94 3.89 3.89 0 0 1 4.16-3.91 5 5 0 0 1 3.94 1.62v-2.14c0-1.6-1.28-2.51-3-2.51a4.36 4.36 0 0 0-3.1 1.18 1 1 0 0 1-.5.15.77.77 0 0 1-.76-.76.81.81 0 0 1 .32-.62 6.17 6.17 0 0 1 4.28-1.55c2.51-.05 4.61 1.08 4.61 3.96zm-1.85 5.66v-2.24a4 4 0 0 0-3.27-1.47 2.61 2.61 0 1 0 0 5.19 4 4 0 0 0 3.27-1.48zM924.36 235.71v7.78a1 1 0 0 1-.94.91.93.93 0 0 1-.91-.91v-7.26c0-1.5-.66-2.46-2.19-2.46a4.18 4.18 0 0 0-3.15 1.82v7.9a.93.93 0 0 1-.91.91.94.94 0 0 1-.93-.91v-7.26c0-1.5-.64-2.46-2.19-2.46a4.17 4.17 0 0 0-3.13 1.84v7.88a.93.93 0 0 1-1.85 0v-10.26a.93.93 0 0 1 1.85 0v.91a5.13 5.13 0 0 1 3.84-2 3.05 3.05 0 0 1 3.2 2.22 5 5 0 0 1 4-2.22c2.15-.02 3.31 1.19 3.31 3.57zM939.2 238.35c0 3.84-2.17 6.25-5.29 6.25a4.91 4.91 0 0 1-4-2.12V248a.92.92 0 0 1-.91.91.93.93 0 0 1-.93-.91v-14.77a.93.93 0 0 1 .93-.91.92.92 0 0 1 .91.91v1a5 5 0 0 1 4-2.07c3.09-.04 5.29 2.32 5.29 6.19zm-2 0c0-2.64-1.42-4.58-3.81-4.58a4.41 4.41 0 0 0-3.55 1.89V241a4.44 4.44 0 0 0 3.55 1.92c2.44.08 3.86-1.92 3.86-4.57zM951.45 236.13v7.36a.93.93 0 0 1-1.85 0V243a5 5 0 0 1-3.93 1.65 4 4 0 0 1-4.16-3.94 3.89 3.89 0 0 1 4.16-3.91 5 5 0 0 1 3.93 1.62v-2.14c0-1.6-1.27-2.51-3-2.51a4.38 4.38 0 0 0-3.1 1.18.89.89 0 0 1-.49.15.77.77 0 0 1-.76-.76.78.78 0 0 1 .32-.62 6.14 6.14 0 0 1 4.28-1.55c2.51-.05 4.6 1.08 4.6 3.96zm-1.85 5.66v-2.24a4 4 0 0 0-3.27-1.47 2.61 2.61 0 1 0 0 5.19 4 4 0 0 0 3.27-1.48zM954.82 228.77a1.24 1.24 0 1 1 2.48 0 1.24 1.24 0 0 1-2.48 0zm.32 14.72v-10.26a.93.93 0 0 1 1.85 0v10.26a.93.93 0 0 1-1.85 0zM971.11 233.23V244c0 3.94-2.76 5.17-5.66 5.17a6.17 6.17 0 0 1-4.31-1.36.83.83 0 0 1-.32-.64.82.82 0 0 1 .82-.81.81.81 0 0 1 .46.17 4.8 4.8 0 0 0 3.35 1.11c2 0 3.82-1 3.82-3.57v-1.67a5 5 0 0 1-4 2.09c-3.1 0-5.29-2.31-5.29-6.15s2.16-6.18 5.29-6.18a4.89 4.89 0 0 1 4 2.12v-1a.92.92 0 0 1 1.84 0zm-1.84 7.65v-5.19a4.4 4.4 0 0 0-3.55-1.92c-2.39 0-3.81 1.89-3.81 4.53s1.42 4.53 3.81 4.53a4.4 4.4 0 0 0 3.55-1.95zM984.67 236v7.53a.93.93 0 0 1-1.85 0v-7c0-2.1-1.06-2.76-2.66-2.76a4.58 4.58 0 0 0-3.51 1.84v7.88a.93.93 0 0 1-1.85 0v-10.26a.93.93 0 0 1 1.85 0v.93a5.78 5.78 0 0 1 4.23-2c2.49-.04 3.79 1.22 3.79 3.84zM986.73 244.2a1 1 0 0 1 0-.24l5.44-16.2a.7.7 0 0 1 1.36.23 1 1 0 0 1-.05.24l-5.44 16.2a.7.7 0 0 1-1.36-.23zM1003.59 236.13v7.36a.93.93 0 0 1-.93.91.92.92 0 0 1-.91-.91V243a5.06 5.06 0 0 1-3.94 1.65 4 4 0 0 1-4.16-3.94 3.89 3.89 0 0 1 4.16-3.91 5 5 0 0 1 3.94 1.62v-2.14c0-1.6-1.28-2.51-3-2.51a4.38 4.38 0 0 0-3.1 1.18.89.89 0 0 1-.49.15.77.77 0 0 1-.76-.76.78.78 0 0 1 .32-.62 6.14 6.14 0 0 1 4.28-1.55c2.5-.05 4.59 1.08 4.59 3.96zm-1.84 5.66v-2.24a4 4 0 0 0-3.28-1.47 2.61 2.61 0 1 0 0 5.19 4 4 0 0 0 3.28-1.48zM1017.74 228.7v14.79a.93.93 0 0 1-1.85 0v-1a5 5 0 0 1-4 2.07c-3.1 0-5.29-2.36-5.29-6.23s2.17-6.25 5.29-6.25a5 5 0 0 1 4 2.12v-5.5a.93.93 0 0 1 1.85 0zm-1.85 12.38v-5.39a4.46 4.46 0 0 0-3.56-1.92c-2.39 0-3.82 2-3.82 4.6s1.43 4.58 3.82 4.58a4.42 4.42 0 0 0 3.56-1.87zM1026.94 242.53a.82.82 0 0 1 .81-.81.84.84 0 0 1 .49.15 5.38 5.38 0 0 0 3.38 1.23c1.82 0 2.8-.82 2.8-2 0-1.31-1.45-1.72-3.05-2.12-2-.47-4.31-1-4.31-3.47 0-1.84 1.6-3.42 4.43-3.42a6.16 6.16 0 0 1 3.94 1.3.86.86 0 0 1 .32.62.81.81 0 0 1-.79.79.83.83 0 0 1-.44-.17 4.6 4.6 0 0 0-3-1c-1.62 0-2.63.74-2.63 1.8s1.35 1.52 2.9 1.89c2.07.47 4.46 1.06 4.46 3.7 0 2-1.6 3.59-4.68 3.59a6.5 6.5 0 0 1-4.25-1.4.78.78 0 0 1-.38-.68zM1044.39 232.12a5.64 5.64 0 0 1 5.71 5.91c0 .59-.4.93-1.08.93h-8.55a4.2 4.2 0 0 0 4.29 4.11 5.14 5.14 0 0 0 3.2-1.13.84.84 0 0 1 .42-.1.75.75 0 0 1 .76.74.77.77 0 0 1-.32.62 6.76 6.76 0 0 1-4.24 1.4 6.25 6.25 0 0 1-.19-12.48zm-3.92 5.49h7.81a3.86 3.86 0 0 0-3.92-4 4 4 0 0 0-3.89 4zM1058.22 243.52a.69.69 0 0 1-.47.68 3.14 3.14 0 0 1-1.67.4c-1.75 0-2.64-1-2.64-2.78V234h-1.25a.81.81 0 1 1 0-1.62h1.25V230a.93.93 0 0 1 1.85 0v2.44h1.7a.81.81 0 1 1 0 1.62h-1.7v7.38c0 .89.39 1.53 1.2 1.53.52 0 .69-.22.94-.22a.75.75 0 0 1 .79.77zM1059.54 244.2a1 1 0 0 1 0-.24l5.44-16.2a.7.7 0 0 1 1.36.23 1 1 0 0 1-.05.24l-5.44 16.2a.7.7 0 0 1-1.36-.23zM1076.77 236.13v7.36a.93.93 0 0 1-1.85 0V243a5 5 0 0 1-3.93 1.65 4 4 0 0 1-4.16-3.94 3.89 3.89 0 0 1 4.16-3.91 5 5 0 0 1 3.93 1.62v-2.14c0-1.6-1.27-2.51-3-2.51a4.38 4.38 0 0 0-3.1 1.18.89.89 0 0 1-.49.15.77.77 0 0 1-.76-.76.78.78 0 0 1 .32-.62 6.14 6.14 0 0 1 4.28-1.55c2.51-.05 4.6 1.08 4.6 3.96zm-1.85 5.66v-2.24a4 4 0 0 0-3.27-1.47 2.61 2.61 0 1 0 0 5.19 4 4 0 0 0 3.27-1.48zM1090.92 228.7v14.79a.93.93 0 0 1-1.85 0v-1a5 5 0 0 1-4 2.07c-3.1 0-5.29-2.36-5.29-6.23s2.17-6.25 5.29-6.25a5 5 0 0 1 4 2.12v-5.5a.93.93 0 0 1 1.85 0zm-1.85 12.38v-5.39a4.46 4.46 0 0 0-3.56-1.92c-2.39 0-3.82 2-3.82 4.6s1.43 4.58 3.82 4.58a4.42 4.42 0 0 0 3.56-1.87zM1101 243.49V228.7a.92.92 0 0 1 1.84 0v14.79a.92.92 0 0 1-1.84 0zM1111.66 232.12a5.64 5.64 0 0 1 5.71 5.91c0 .59-.39.93-1.08.93h-8.54a4.19 4.19 0 0 0 4.28 4.11 5.12 5.12 0 0 0 3.2-1.13.84.84 0 0 1 .42-.1.74.74 0 0 1 .76.74.77.77 0 0 1-.32.62 6.73 6.73 0 0 1-4.23 1.4 6.25 6.25 0 0 1-.2-12.48zm-3.91 5.49h7.8a3.85 3.85 0 0 0-3.91-4 4 4 0 0 0-3.89 4zM1130.07 233.25a1.34 1.34 0 0 1-.08.37l-4.13 9.9a1.41 1.41 0 0 1-1.3.88 1.43 1.43 0 0 1-1.36-.88l-4.13-9.9a1.53 1.53 0 0 1-.08-.37.92.92 0 0 1 1.77-.37l3.77 9.31 3.74-9.31a.94.94 0 0 1 .86-.56.92.92 0 0 1 .94.93zM1137.57 232.12a5.63 5.63 0 0 1 5.71 5.91c0 .59-.39.93-1.08.93h-8.54a4.19 4.19 0 0 0 4.28 4.11 5.1 5.1 0 0 0 3.2-1.13.84.84 0 0 1 .42-.1.74.74 0 0 1 .76.74.77.77 0 0 1-.32.62 6.73 6.73 0 0 1-4.23 1.4 6.25 6.25 0 0 1-.2-12.48zm-3.91 5.49h7.8a3.85 3.85 0 0 0-3.91-4 4 4 0 0 0-3.89 4zM1146.26 243.49V228.7a.92.92 0 0 1 1.84 0v14.79a.92.92 0 0 1-1.84 0zM1152.21 247.33a.56.56 0 0 1-.56-.57.5.5 0 0 1 .17-.41 3.68 3.68 0 0 0 1.13-2 1.44 1.44 0 0 1-.34.05 1.18 1.18 0 0 1-1.19-1.26 1.33 1.33 0 0 1 1.31-1.33 1.67 1.67 0 0 1 1.55 1.87 4.63 4.63 0 0 1-1.7 3.47.5.5 0 0 1-.37.18zM1175 238.37c0 3.87-2.19 6.23-5.29 6.23a5 5 0 0 1-4-2.07v1a.93.93 0 0 1-1.85 0V228.7a.93.93 0 0 1 1.85 0v5.54a4.89 4.89 0 0 1 4-2.12c3.05 0 5.29 2.46 5.29 6.25zm-1.92 0c0-2.63-1.43-4.6-3.84-4.6a4.42 4.42 0 0 0-3.54 1.92v5.39a4.38 4.38 0 0 0 3.54 1.87c2.36.05 3.76-1.95 3.76-4.58zM1187.23 236.13v7.36a.93.93 0 0 1-1.85 0V243a5 5 0 0 1-3.93 1.65 4 4 0 0 1-4.16-3.94 3.89 3.89 0 0 1 4.16-3.91 5 5 0 0 1 3.93 1.62v-2.14c0-1.6-1.28-2.51-3-2.51a4.36 4.36 0 0 0-3.1 1.18.92.92 0 0 1-.49.15.77.77 0 0 1-.77-.76.81.81 0 0 1 .32-.62 6.18 6.18 0 0 1 4.29-1.55c2.51-.05 4.6 1.08 4.6 3.96zm-1.85 5.66v-2.24a4 4 0 0 0-3.27-1.47 2.61 2.61 0 1 0 0 5.19 4 4 0 0 0 3.27-1.48zM1190.08 242.53a.82.82 0 0 1 .81-.81.84.84 0 0 1 .49.15 5.38 5.38 0 0 0 3.38 1.23c1.82 0 2.8-.82 2.8-2 0-1.31-1.45-1.72-3-2.12-2-.47-4.31-1-4.31-3.47 0-1.84 1.6-3.42 4.43-3.42a6.16 6.16 0 0 1 3.94 1.3.86.86 0 0 1 .32.62.81.81 0 0 1-.79.79.83.83 0 0 1-.44-.17 4.6 4.6 0 0 0-3-1c-1.62 0-2.63.74-2.63 1.8s1.35 1.52 2.9 1.89c2.07.47 4.46 1.06 4.46 3.7 0 2-1.6 3.59-4.68 3.59a6.54 6.54 0 0 1-4.26-1.4.8.8 0 0 1-.42-.68zM1207.53 232.12a5.64 5.64 0 0 1 5.71 5.91c0 .59-.4.93-1.08.93h-8.54a4.18 4.18 0 0 0 4.28 4.11 5.14 5.14 0 0 0 3.2-1.13.84.84 0 0 1 .42-.1.75.75 0 0 1 .76.74.77.77 0 0 1-.32.62 6.75 6.75 0 0 1-4.23 1.4 6.25 6.25 0 0 1-.2-12.48zm-3.91 5.49h7.8a3.86 3.86 0 0 0-3.92-4 4 4 0 0 0-3.88 4zM1226.67 228.7v14.79a.92.92 0 0 1-1.84 0v-1a5 5 0 0 1-4 2.07c-3.11 0-5.3-2.36-5.3-6.23s2.17-6.25 5.3-6.25a5 5 0 0 1 4 2.12v-5.5a.92.92 0 0 1 1.84 0zm-1.84 12.38v-5.39a4.48 4.48 0 0 0-3.57-1.92c-2.39 0-3.82 2-3.82 4.6s1.43 4.58 3.82 4.58a4.44 4.44 0 0 0 3.57-1.87zM875.94 267.88c0-3.45 2.27-6.23 5.89-6.23s5.88 2.78 5.88 6.23-2.27 6.25-5.88 6.25-5.89-2.81-5.89-6.25zm9.82 0c0-2.42-1.4-4.58-3.93-4.58s-4 2.16-4 4.58 1.43 4.6 4 4.6 3.93-2.17 3.93-4.6zM900.58 265.49V273a.93.93 0 0 1-1.85 0v-7c0-2.09-1.06-2.75-2.66-2.75a4.59 4.59 0 0 0-3.52 1.84V273a.92.92 0 0 1-1.84 0v-10.24a.91.91 0 0 1 .91-.91.92.92 0 0 1 .93.91v.93a5.8 5.8 0 0 1 4.24-2c2.48-.04 3.79 1.21 3.79 3.8zM919.89 265.66V273a.93.93 0 0 1-.93.91.92.92 0 0 1-.91-.91v-.54a5.06 5.06 0 0 1-3.94 1.65 4 4 0 0 1-4.16-3.94 3.89 3.89 0 0 1 4.16-3.91 5 5 0 0 1 3.94 1.62v-2.14c0-1.6-1.28-2.51-3-2.51a4.38 4.38 0 0 0-3.1 1.18 1 1 0 0 1-.49.15.76.76 0 0 1-.44-1.38 6.14 6.14 0 0 1 4.28-1.55c2.5.02 4.59 1.15 4.59 4.03zm-1.84 5.66v-2.24a4 4 0 0 0-3.28-1.47 2.61 2.61 0 1 0 0 5.19 4 4 0 0 0 3.28-1.48zM946.12 265.24V273a.94.94 0 0 1-.93.91.93.93 0 0 1-.91-.91v-7.26c0-1.5-.67-2.46-2.19-2.46a4.13 4.13 0 0 0-3.15 1.82v7.9a.93.93 0 0 1-.91.91 1 1 0 0 1-.94-.91v-7.26c0-1.5-.64-2.46-2.19-2.46a4.14 4.14 0 0 0-3.12 1.84V273a.93.93 0 0 1-1.85 0v-10.24a.93.93 0 0 1 1.85 0v.91a5.09 5.09 0 0 1 3.84-2 3 3 0 0 1 3.19 2.21 5 5 0 0 1 4-2.21c2.19-.02 3.31 1.18 3.31 3.57zM955 261.65a5.63 5.63 0 0 1 5.71 5.91c0 .59-.39.93-1.08.93h-8.54a4.18 4.18 0 0 0 4.28 4.11 5.12 5.12 0 0 0 3.2-1.13.84.84 0 0 1 .42-.1.74.74 0 0 1 .44 1.35 6.73 6.73 0 0 1-4.23 1.41 6.25 6.25 0 0 1-.2-12.48zm-3.91 5.49h7.8a3.86 3.86 0 0 0-3.91-4 4 4 0 0 0-3.91 4zM968.81 273a.69.69 0 0 1-.47.69 3.12 3.12 0 0 1-1.67.4c-1.75 0-2.63-1-2.63-2.78v-7.78h-1.26a.82.82 0 0 1 0-1.63H964v-2.43a.92.92 0 0 1 1.84 0v2.43h1.7a.82.82 0 1 1 0 1.63h-1.7V271c0 .89.39 1.53 1.21 1.53.51 0 .69-.22.93-.22a.75.75 0 0 1 .83.69zM976.83 262.63c0 .45-.37.84-1 .91a4.41 4.41 0 0 0-3.08 1.87V273a.92.92 0 0 1-.91.91.93.93 0 0 1-.93-.91v-10.24a.92.92 0 0 1 1.84 0v1.1a5.28 5.28 0 0 1 2.66-2 2.13 2.13 0 0 1 .59-.12.82.82 0 0 1 .83.89zM978.7 258.3a1.25 1.25 0 1 1 1.23 1.23 1.24 1.24 0 0 1-1.23-1.23zm.3 14.7v-10.24a.93.93 0 0 1 1.85 0V273a.93.93 0 0 1-1.85 0zM989.8 261.65a5.06 5.06 0 0 1 3.81 1.48.85.85 0 0 1 .27.61.83.83 0 0 1-.83.84.79.79 0 0 1-.54-.22 3.44 3.44 0 0 0-2.61-1.06c-2.54 0-4.11 1.94-4.11 4.58s1.57 4.6 4.11 4.6a3.37 3.37 0 0 0 2.58-1.06.78.78 0 0 1 .57-.22.83.83 0 0 1 .83.83.84.84 0 0 1-.27.62 5.1 5.1 0 0 1-3.81 1.48c-3.55 0-5.93-2.71-5.93-6.25s2.38-6.23 5.93-6.23zM1012.36 265.66V273a.92.92 0 0 1-1.84 0v-.54a5.06 5.06 0 0 1-3.94 1.65 4 4 0 0 1-4.16-3.94 3.89 3.89 0 0 1 4.16-3.91 5 5 0 0 1 3.94 1.62v-2.14c0-1.6-1.28-2.51-3-2.51a4.38 4.38 0 0 0-3.1 1.18 1 1 0 0 1-.49.15.77.77 0 0 1-.76-.77.8.8 0 0 1 .32-.61 6.14 6.14 0 0 1 4.28-1.55c2.5.02 4.59 1.15 4.59 4.03zm-1.84 5.66v-2.24a4 4 0 0 0-3.28-1.47 2.61 2.61 0 1 0 0 5.19 4 4 0 0 0 3.28-1.48zM1025.77 262.78a2 2 0 0 1-.07.37l-4.13 9.89a1.44 1.44 0 0 1-2.66 0l-4.14-9.89a2.41 2.41 0 0 1-.07-.37.91.91 0 0 1 .91-.93.92.92 0 0 1 .86.56l3.77 9.31 3.74-9.31a.94.94 0 0 1 .86-.56.91.91 0 0 1 .93.93zM1037.39 265.66V273a.93.93 0 0 1-1.85 0v-.54a5 5 0 0 1-3.94 1.65 4 4 0 0 1-4.15-3.94 3.89 3.89 0 0 1 4.15-3.91 5 5 0 0 1 3.94 1.62v-2.14c0-1.6-1.28-2.51-3-2.51a4.36 4.36 0 0 0-3.1 1.18 1 1 0 0 1-.49.15.78.78 0 0 1-.77-.77.8.8 0 0 1 .32-.61 6.18 6.18 0 0 1 4.29-1.55c2.51.02 4.6 1.15 4.6 4.03zm-1.85 5.66v-2.24a4 4 0 0 0-3.27-1.47 2.61 2.61 0 1 0 0 5.19 4 4 0 0 0 3.27-1.48zM1040.76 258.3a1.24 1.24 0 1 1 2.48 0 1.24 1.24 0 0 1-2.48 0zm.32 14.72v-10.26a.92.92 0 0 1 1.84 0V273a.93.93 0 0 1-.93.91.92.92 0 0 1-.91-.91zM1046.61 273v-14.77a.93.93 0 0 1 1.85 0V273a.93.93 0 0 1-1.85 0zM1061.43 265.66V273a.93.93 0 0 1-1.85 0v-.54a5 5 0 0 1-3.94 1.65 4 4 0 0 1-4.15-3.94 3.89 3.89 0 0 1 4.15-3.91 5 5 0 0 1 3.94 1.62v-2.14c0-1.6-1.28-2.51-3-2.51a4.36 4.36 0 0 0-3.1 1.18 1 1 0 0 1-.49.15.78.78 0 0 1-.77-.77.8.8 0 0 1 .32-.61 6.18 6.18 0 0 1 4.29-1.55c2.51.02 4.6 1.15 4.6 4.03zm-1.85 5.66v-2.24a4 4 0 0 0-3.27-1.47 2.61 2.61 0 1 0 0 5.19 4 4 0 0 0 3.27-1.48zM1076.27 267.9c0 3.86-2.19 6.23-5.3 6.23a5 5 0 0 1-4-2.07v1a.92.92 0 0 1-1.84 0v-14.83a.92.92 0 0 1 1.84 0v5.54a4.9 4.9 0 0 1 4-2.12c3.11 0 5.3 2.46 5.3 6.25zm-1.92 0c0-2.63-1.43-4.6-3.84-4.6a4.4 4.4 0 0 0-3.55 1.92v5.39a4.38 4.38 0 0 0 3.55 1.87c2.41 0 3.84-1.95 3.84-4.58zM1079.27 273v-14.77a.92.92 0 0 1 1.84 0V273a.92.92 0 0 1-1.84 0zM1090 261.65a5.63 5.63 0 0 1 5.71 5.91c0 .59-.39.93-1.08.93h-8.54a4.18 4.18 0 0 0 4.28 4.11 5.12 5.12 0 0 0 3.2-1.13.84.84 0 0 1 .42-.1.74.74 0 0 1 .44 1.35 6.73 6.73 0 0 1-4.23 1.41 6.25 6.25 0 0 1-.2-12.48zm-3.91 5.49h7.8a3.86 3.86 0 0 0-3.91-4 4 4 0 0 0-3.92 4zM1110.15 273a.69.69 0 0 1-.47.69 3.14 3.14 0 0 1-1.67.4c-1.75 0-2.64-1-2.64-2.78v-7.78h-1.25a.82.82 0 0 1 0-1.63h1.25v-2.43a.93.93 0 0 1 1.85 0v2.43h1.7a.82.82 0 1 1 0 1.63h-1.7V271c0 .89.39 1.53 1.2 1.53.52 0 .69-.22.94-.22a.75.75 0 0 1 .79.69zM1111.55 267.88c0-3.45 2.26-6.23 5.88-6.23s5.88 2.78 5.88 6.23-2.26 6.25-5.88 6.25-5.88-2.81-5.88-6.25zm9.82 0c0-2.42-1.4-4.58-3.94-4.58s-4 2.16-4 4.58 1.43 4.6 4 4.6 3.94-2.17 3.94-4.6zM1132 271.37a1 1 0 0 1 1-1 .93.93 0 0 1 .61.22 6.79 6.79 0 0 0 4.5 1.73c2.93 0 3.87-1.58 3.87-2.83 0-2-2-2.52-4.16-3.11-2.63-.68-5.56-1.42-5.56-4.65 0-2.7 2.41-4.55 5.78-4.55a7.82 7.82 0 0 1 5.07 1.7.91.91 0 0 1 .42.79 1 1 0 0 1-1 1 .92.92 0 0 1-.59-.22 6.29 6.29 0 0 0-4.09-1.43c-2.11 0-3.52 1.06-3.52 2.61s1.9 2.14 4 2.71c2.68.71 5.74 1.55 5.74 5 0 2.39-1.63 4.83-6.06 4.83a8.28 8.28 0 0 1-5.66-2 1 1 0 0 1-.35-.8zM1163.28 265.24V273a1 1 0 0 1-.94.91.93.93 0 0 1-.91-.91v-7.26c0-1.5-.66-2.46-2.19-2.46a4.13 4.13 0 0 0-3.15 1.82v7.9a.93.93 0 0 1-.91.91 1 1 0 0 1-.94-.91v-7.26c0-1.5-.64-2.46-2.19-2.46a4.14 4.14 0 0 0-3.12 1.84V273a.93.93 0 0 1-1.85 0v-10.24a.93.93 0 0 1 1.85 0v.91a5.09 5.09 0 0 1 3.84-2 3.05 3.05 0 0 1 3.2 2.21 5 5 0 0 1 4-2.21c2.15-.02 3.31 1.18 3.31 3.57zM1176.24 265.66V273a.93.93 0 0 1-.93.91.92.92 0 0 1-.91-.91v-.54a5.06 5.06 0 0 1-3.94 1.65 4 4 0 0 1-4.16-3.94 3.89 3.89 0 0 1 4.16-3.91 5 5 0 0 1 3.94 1.62v-2.14c0-1.6-1.28-2.51-3-2.51a4.38 4.38 0 0 0-3.1 1.18 1 1 0 0 1-.49.15.76.76 0 0 1-.44-1.38 6.14 6.14 0 0 1 4.28-1.55c2.5.02 4.59 1.15 4.59 4.03zm-1.84 5.66v-2.24a4 4 0 0 0-3.28-1.47 2.61 2.61 0 1 0 0 5.19 4 4 0 0 0 3.28-1.48zM1185.86 262.63c0 .45-.37.84-1 .91a4.37 4.37 0 0 0-3.07 1.87V273a.93.93 0 0 1-1.85 0v-10.24a.93.93 0 0 1 1.85 0v1.1a5.22 5.22 0 0 1 2.65-2 2.12 2.12 0 0 1 .6-.12.82.82 0 0 1 .82.89zM1193.19 273a.69.69 0 0 1-.46.69 3.16 3.16 0 0 1-1.68.4c-1.74 0-2.63-1-2.63-2.78v-7.78h-1.26a.82.82 0 0 1 0-1.63h1.26v-2.43a.93.93 0 0 1 1.85 0v2.43h1.73a.82.82 0 1 1 0 1.63h-1.69V271c0 .89.39 1.53 1.2 1.53.52 0 .69-.22.94-.22a.75.75 0 0 1 .74.69zM1195.28 273v-14.77a.93.93 0 0 1 1.85 0V273a.93.93 0 0 1-1.85 0zM1201.07 277h.39a1.71 1.71 0 0 0 1.77-1.26l.79-1.8-4.48-10.82a.93.93 0 0 1 .84-1.28.92.92 0 0 1 .86.56l3.77 9.28 3.74-9.28a.94.94 0 0 1 .86-.56.91.91 0 0 1 .93.93 1 1 0 0 1-.07.37l-5.47 13.1a3.55 3.55 0 0 1-3.5 2.42 2.09 2.09 0 0 1-.54-.05.84.84 0 0 1-.79-.82.86.86 0 0 1 .9-.79zM1212.46 271.37a1.36 1.36 0 1 1-1.35 1.35 1.36 1.36 0 0 1 1.35-1.35zM1216.82 258.3a1.24 1.24 0 1 1 2.48 0 1.24 1.24 0 0 1-2.48 0zm.31 14.72v-10.26a.93.93 0 0 1 1.85 0V273a.93.93 0 0 1-1.85 0zM1222 267.88c0-3.45 2.27-6.23 5.88-6.23s5.89 2.78 5.89 6.23-2.27 6.25-5.89 6.25-5.88-2.81-5.88-6.25zm9.82 0c0-2.42-1.4-4.58-3.94-4.58s-4 2.16-4 4.58 1.43 4.6 4 4.6 3.92-2.17 3.92-4.6z"/><rect class="cls-2" x="1383.7" y="235.41" width="326.34" height="60.33" rx="30.17"/><rect class="cls-3" x="1383.7" y="235.41" width="326.34" height="60.33" rx="30.17"/><rect class="cls-4" x="1391.7" y="228.41" width="326.34" height="60.33" rx="30.17"/><rect class="cls-5" x="1391.7" y="228.41" width="326.34" height="60.33" rx="30.17"/><text class="cls-15" transform="translate(1422.43 264.92)">Aggregated Mobile Data</text><rect class="cls-2" x="893.13" y="683.89" width="326.34" height="60.33" rx="30.17"/><rect class="cls-3" x="893.13" y="683.89" width="326.34" height="60.33" rx="30.17"/><rect class="cls-4" x="901.13" y="676.89" width="326.34" height="60.33" rx="30.17"/><rect class="cls-5" x="901.13" y="676.89" width="326.34" height="60.33" rx="30.17"/><text class="cls-15" transform="translate(923.78 714.41)">Aggregated Platform Data</text></svg>