<svg id="Layer_1" data-name="Layer 1" xmlns="http://www.w3.org/2000/svg" viewBox="0 0 1488.64 1080"><defs><style>.cls-1{fill:#081742}.cls-15,.cls-16,.cls-2,.cls-4{fill:none;stroke-miterlimit:10}.cls-2{stroke:#081742}.cls-2,.cls-4{stroke-width:2px}.cls-3{fill:#852798}.cls-15,.cls-16,.cls-4{stroke:#1d1853}.cls-14,.cls-17,.cls-5{fill:#fff}.cls-6{fill:#29b1d8}.cls-10,.cls-13,.cls-14,.cls-17{font-size:24.61px}.cls-10,.cls-13{fill:#1d1853}.cls-10,.cls-17{font-family:ProximaSoft-Bold,Proxima Soft;font-weight:700}.cls-13,.cls-14{font-family:ProximaSoft-Regular,Proxima Soft}.cls-15,.cls-16{stroke-width:3px}.cls-16{stroke-linecap:round}</style></defs><rect class="cls-1" x="358.27" y="108.51" width="1025.78" height="879.62" rx="29.56"/><rect class="cls-2" x="358.27" y="108.51" width="1025.78" height="879.62" rx="29.56"/><rect class="cls-3" x="366.27" y="101.51" width="1025.78" height="879.62" rx="29.56"/><rect class="cls-4" x="366.27" y="101.51" width="1025.78" height="879.62" rx="29.56"/><rect class="cls-1" x="411.19" y="323.67" width="369.62" height="609.92" rx="20.95"/><rect class="cls-2" x="411.19" y="323.67" width="369.62" height="609.92" rx="20.95"/><rect class="cls-5" x="419.19" y="316.67" width="369.62" height="609.92" rx="20.95"/><rect class="cls-4" x="419.19" y="316.67" width="369.62" height="609.92" rx="20.95"/><rect class="cls-1" x="439.74" y="378.28" width="312.74" height="118.1" rx="14.96"/><rect class="cls-2" x="439.74" y="378.28" width="312.74" height="118.1" rx="14.96"/><rect class="cls-6" x="447.74" y="371.28" width="312.74" height="118.1" rx="14.96"/><rect class="cls-4" x="447.74" y="371.28" width="312.74" height="118.1" rx="14.96"/><rect class="cls-1" x="732.71" y="187.18" width="268.81" height="70.45" rx="9.41"/><rect class="cls-2" x="732.71" y="187.18" width="268.81" height="70.45" rx="9.41"/><rect class="cls-3" x="740.71" y="180.18" width="268.81" height="70.45" rx="9.41"/><rect class="cls-4" x="740.71" y="180.18" width="268.81" height="70.45" rx="9.41"/><rect class="cls-1" x="441.56" y="513.88" width="312.74" height="118.1" rx="14.96"/><rect class="cls-2" x="441.56" y="513.88" width="312.74" height="118.1" rx="14.96"/><rect class="cls-6" x="449.56" y="506.88" width="312.74" height="118.1" rx="14.96"/><rect class="cls-4" x="449.56" y="506.88" width="312.74" height="118.1" rx="14.96"/><rect class="cls-1" x="441.56" y="649.47" width="312.74" height="118.1" rx="14.96"/><rect class="cls-2" x="441.56" y="649.47" width="312.74" height="118.1" rx="14.96"/><rect x="449.56" y="642.47" width="312.74" height="118.1" rx="14.96" fill="#fde23e"/><rect class="cls-4" x="449.56" y="642.47" width="312.74" height="118.1" rx="14.96"/><rect class="cls-1" x="441.56" y="785.07" width="312.74" height="118.1" rx="14.96"/><rect class="cls-2" x="441.56" y="785.07" width="312.74" height="118.1" rx="14.96"/><rect x="449.56" y="778.07" width="312.74" height="118.1" rx="14.96" fill="#f66271"/><rect x="449.56" y="778.07" width="312.74" height="118.1" rx="14.96" stroke="#26245e" stroke-width="2" fill="none" stroke-miterlimit="10"/><rect class="cls-1" x="479.77" y="293.99" width="237.32" height="60.33" rx="30.17"/><rect class="cls-2" x="479.77" y="293.99" width="237.32" height="60.33" rx="30.17"/><rect class="cls-5" x="487.77" y="286.99" width="237.32" height="60.33" rx="30.17"/><rect class="cls-4" x="487.77" y="286.99" width="237.32" height="60.33" rx="30.17"/><rect class="cls-1" x="725.69" y="76.43" width="282.84" height="60.33" rx="30.17"/><rect class="cls-2" x="725.69" y="76.43" width="282.84" height="60.33" rx="30.17"/><rect class="cls-5" x="733.69" y="69.43" width="282.84" height="60.33" rx="30.17"/><rect class="cls-4" x="733.69" y="69.43" width="282.84" height="60.33" rx="30.17"/><text class="cls-10" transform="translate(535.92 325.12)">Ad Accounts</text><text class="cls-10" transform="translate(763.91 106.6)">Smartl<tspan x="72.49" y="0" letter-spacing="-.05em">y</tspan><tspan x="83.71" y="0">.io </tspan><tspan x="116.66" y="0" letter-spacing="-.02em">C</tspan><tspan x="132.75" y="0">ompany</tspan></text><text class="cls-13" transform="translate(496.52 438.94)">Meta Ad Account #1</text><text class="cls-14" transform="translate(807.13 221.99)">Example Inc.</text><text class="cls-13" transform="translate(496.52 573.69)">Meta Ad Account #2</text><text class="cls-13" transform="translate(476.83 708.44)">Snapchat Ad Account #1</text><text class="cls-14" transform="translate(476.83 843.18)">Pinterest Ad Account #1</text><rect class="cls-1" x="967.78" y="335.68" width="369.69" height="469.14" rx="19"/><rect class="cls-2" x="967.78" y="335.68" width="369.69" height="469.14" rx="19"/><rect class="cls-5" x="975.78" y="328.68" width="369.69" height="469.14" rx="19"/><rect class="cls-4" x="975.78" y="328.68" width="369.69" height="469.14" rx="19"/><rect class="cls-1" x="998.65" y="520.41" width="312.74" height="118.1" rx="17.88"/><rect class="cls-2" x="998.65" y="520.41" width="312.74" height="118.1" rx="17.88"/><rect class="cls-3" x="1006.65" y="513.41" width="312.74" height="118.1" rx="17.88"/><rect class="cls-4" x="1006.65" y="513.41" width="312.74" height="118.1" rx="17.88"/><rect class="cls-1" x="998.65" y="379.87" width="312.74" height="118.1" rx="17.88"/><rect class="cls-2" x="998.65" y="379.87" width="312.74" height="118.1" rx="17.88"/><rect class="cls-3" x="1006.65" y="372.87" width="312.74" height="118.1" rx="17.88"/><rect class="cls-4" x="1006.65" y="372.87" width="312.74" height="118.1" rx="17.88"/><rect class="cls-1" x="998.65" y="655.54" width="312.74" height="118.1" rx="17.88"/><rect class="cls-2" x="998.65" y="655.54" width="312.74" height="118.1" rx="17.88"/><rect class="cls-3" x="1006.65" y="648.54" width="312.74" height="118.1" rx="17.88"/><rect class="cls-4" x="1006.65" y="648.54" width="312.74" height="118.1" rx="17.88"/><path class="cls-15" d="M762.3 563.07h42a38.92 38.92 0 0 1 39 38.87v64.16a44.33 44.33 0 0 0 44.39 44.27h118.78M761.08 430.1h42.24A39 39 0 0 1 842.5 469v64.12a44.44 44.44 0 0 0 44.62 44.24h119.4"/><rect class="cls-1" x="1036.86" y="300.82" width="237.32" height="60.33" rx="30.17"/><rect class="cls-2" x="1036.86" y="300.82" width="237.32" height="60.33" rx="30.17"/><rect class="cls-5" x="1044.86" y="293.82" width="237.32" height="60.33" rx="30.17"/><rect class="cls-4" x="1044.86" y="293.82" width="237.32" height="60.33" rx="30.17"/><text class="cls-10" transform="translate(1081.03 331.95)">Asset Libraries</text><path class="cls-5" d="M1072.58 568.09v-12.75l-5.44 13.34a.57.57 0 0 1-.57.42.59.59 0 0 1-.57-.42l-5.41-13.34v12.75a1 1 0 0 1-1 1 1 1 0 0 1-1-1v-13.88a1.73 1.73 0 0 1 1.72-1.72 1.69 1.69 0 0 1 1.6 1.08l4.7 11.59 4.73-11.59a1.68 1.68 0 0 1 1.6-1.08 1.73 1.73 0 0 1 1.72 1.72v13.88a1 1 0 0 1-2 0zM1083.55 556.82a5.64 5.64 0 0 1 5.71 5.91c0 .59-.4.93-1.08.93h-8.54a4.18 4.18 0 0 0 4.28 4.11 5.14 5.14 0 0 0 3.2-1.13.84.84 0 0 1 .42-.1.75.75 0 0 1 .76.74.77.77 0 0 1-.32.62 6.75 6.75 0 0 1-4.23 1.4 6.25 6.25 0 0 1-.2-12.48zm-3.91 5.49h7.8a3.86 3.86 0 0 0-3.92-4 4 4 0 0 0-3.88 4zM1097.38 568.22a.72.72 0 0 1-.47.69 3.24 3.24 0 0 1-1.67.39c-1.75 0-2.64-1-2.64-2.78v-7.78h-1.25a.81.81 0 1 1 0-1.62h1.25v-2.44a.93.93 0 0 1 1.85 0v2.44h1.7a.81.81 0 1 1 0 1.62h-1.7v7.38c0 .89.39 1.53 1.2 1.53.52 0 .69-.22.94-.22a.75.75 0 0 1 .79.79zM1108.75 560.83v7.36a.93.93 0 0 1-1.85 0v-.54a5 5 0 0 1-3.94 1.65 4 4 0 0 1-4.16-3.94 3.89 3.89 0 0 1 4.16-3.91 5 5 0 0 1 3.94 1.62v-2.14c0-1.6-1.28-2.51-3-2.51a4.4 4.4 0 0 0-3.1 1.18 1 1 0 0 1-.5.15.77.77 0 0 1-.76-.76.81.81 0 0 1 .32-.62 6.17 6.17 0 0 1 4.28-1.55c2.51 0 4.61 1.18 4.61 4.01zm-1.85 5.66v-2.24a4 4 0 0 0-3.27-1.47 2.61 2.61 0 1 0 0 5.19 4 4 0 0 0 3.27-1.48zM1132.44 568a1 1 0 0 1-2 .4l-1.19-3.08h-8.44l-1.18 3.08a1 1 0 0 1-1 .66 1 1 0 0 1-1.06-1 1.49 1.49 0 0 1 .1-.42l5.66-14a1.81 1.81 0 0 1 1.68-1.13 1.73 1.73 0 0 1 1.64 1.13l5.69 14a2.66 2.66 0 0 1 .1.36zm-3.88-4.5l-3.52-9.13-3.52 9.13zM1145.43 553.4v14.79a.92.92 0 0 1-1.84 0v-1a5 5 0 0 1-4 2.07c-3.1 0-5.29-2.36-5.29-6.23s2.16-6.25 5.29-6.25a5 5 0 0 1 4 2.12v-5.5a.92.92 0 0 1 1.84 0zm-1.84 12.38v-5.39a4.48 4.48 0 0 0-3.57-1.92c-2.39 0-3.82 2-3.82 4.6s1.43 4.58 3.82 4.58a4.44 4.44 0 0 0 3.57-1.87zM1169.13 568a1 1 0 0 1-1 1.06 1.05 1.05 0 0 1-1-.66l-1.18-3.08h-8.44l-1.18 3.08a1 1 0 0 1-1 .66 1 1 0 0 1-1.06-1 1.49 1.49 0 0 1 .1-.42l5.66-14a1.8 1.8 0 0 1 1.67-1.13 1.74 1.74 0 0 1 1.65 1.13l5.69 14a2.66 2.66 0 0 1 .09.36zm-3.89-4.5l-3.52-9.13-3.52 9.13zM1176.91 556.82a5.11 5.11 0 0 1 3.81 1.48.89.89 0 0 1 .27.61.83.83 0 0 1-.84.84.81.81 0 0 1-.54-.22 3.46 3.46 0 0 0-2.61-1.06c-2.53 0-4.11 1.94-4.11 4.58s1.58 4.6 4.11 4.6a3.39 3.39 0 0 0 2.59-1.06.76.76 0 0 1 .56-.22.84.84 0 0 1 .57 1.45 5.11 5.11 0 0 1-3.81 1.48c-3.55 0-5.94-2.71-5.94-6.25a5.88 5.88 0 0 1 5.94-6.23zM1189.09 556.82a5.1 5.1 0 0 1 3.81 1.48.89.89 0 0 1 .27.61.83.83 0 0 1-.84.84.81.81 0 0 1-.54-.22 3.46 3.46 0 0 0-2.61-1.06c-2.53 0-4.11 1.94-4.11 4.58s1.58 4.6 4.11 4.6a3.39 3.39 0 0 0 2.59-1.06.76.76 0 0 1 .56-.22.84.84 0 0 1 .57 1.45 5.1 5.1 0 0 1-3.81 1.48c-3.55 0-5.94-2.71-5.94-6.25a5.88 5.88 0 0 1 5.94-6.23zM1195.33 563.05c0-3.45 2.27-6.23 5.89-6.23s5.88 2.78 5.88 6.23-2.27 6.25-5.88 6.25-5.89-2.81-5.89-6.25zm9.82 0c0-2.41-1.4-4.58-3.93-4.58s-4 2.17-4 4.58 1.43 4.6 4 4.6 3.93-2.17 3.93-4.6zM1220 557.93v10.26a.93.93 0 0 1-1.85 0v-.84a5.85 5.85 0 0 1-4.23 1.95c-2.49 0-3.79-1.21-3.79-3.79v-7.58a.93.93 0 0 1 .93-.91.92.92 0 0 1 .91.91v7c0 2.1 1.06 2.71 2.66 2.71a4.56 4.56 0 0 0 3.52-1.8v-7.92a.93.93 0 0 1 1.85 0zM1233.53 560.66v7.53a.93.93 0 0 1-1.85 0v-7c0-2.09-1.06-2.76-2.66-2.76a4.6 4.6 0 0 0-3.52 1.85v7.87a.92.92 0 0 1-1.84 0v-10.22a.92.92 0 0 1 .91-.91.93.93 0 0 1 .93.91v.93a5.78 5.78 0 0 1 4.23-2c2.49-.04 3.8 1.22 3.8 3.8zM1242.36 568.22a.7.7 0 0 1-.47.69 3.22 3.22 0 0 1-1.67.39c-1.75 0-2.64-1-2.64-2.78v-7.78h-1.25a.81.81 0 0 1 0-1.62h1.25v-2.44a.93.93 0 0 1 1.85 0v2.44h1.7a.81.81 0 1 1 0 1.62h-1.7v7.38c0 .89.39 1.53 1.21 1.53.51 0 .68-.22.93-.22a.75.75 0 0 1 .79.79zM1262.86 557.71a.66.66 0 0 1-.67.64h-2.29l-1.64 4.89h2a.66.66 0 0 1 .64.67.63.63 0 0 1-.64.64h-2.38l-1.38 4.06a.69.69 0 0 1-.67.49.71.71 0 0 1-.71-.69 1 1 0 0 1 .05-.29l1.21-3.57h-2.74l-1.35 4.06a.72.72 0 0 1-1.4-.2.76.76 0 0 1 .05-.27l1.2-3.59h-1.82a.64.64 0 0 1-.66-.64.66.66 0 0 1 .66-.67h2.27l1.62-4.89h-1.9a.64.64 0 0 1 0-1.28h2.34L1256 553a.68.68 0 0 1 .69-.49.71.71 0 0 1 .71.69 1 1 0 0 1 0 .27l-1.21 3.62h2.74l1.33-4.09a.73.73 0 0 1 .68-.49.71.71 0 0 1 .72.69 1 1 0 0 1 0 .27l-1.21 3.62h1.87a.66.66 0 0 1 .54.62zm-4.46.64h-2.73l-1.62 4.89h2.68zM1267.85 568.09V555.3l-2.09 2.21a.89.89 0 0 1-.62.27.88.88 0 0 1-.88-.89.86.86 0 0 1 .24-.61l3.35-3.45a1.22 1.22 0 0 1 .84-.34 1.2 1.2 0 0 1 1.2 1.18v14.42a1 1 0 0 1-2 0zM1109.72 597.57a1 1 0 0 1-2 .4l-1.18-3.08h-8.44l-1.2 3.11a1 1 0 0 1-1 .66 1 1 0 0 1-1.06-1 1.42 1.42 0 0 1 .1-.42l5.66-14a1.8 1.8 0 0 1 1.67-1.13 1.76 1.76 0 0 1 1.65 1.13l5.69 14a2.66 2.66 0 0 1 .11.33zm-3.89-4.5l-3.52-9.13-3.52 9.13zM1111.41 596.76a.82.82 0 0 1 .82-.81.88.88 0 0 1 .49.15 5.33 5.33 0 0 0 3.37 1.23c1.82 0 2.81-.82 2.81-2 0-1.31-1.46-1.72-3.05-2.12-2-.47-4.31-1-4.31-3.47 0-1.85 1.6-3.42 4.43-3.42a6.16 6.16 0 0 1 3.94 1.3.86.86 0 0 1 .32.62.81.81 0 0 1-.79.79.74.74 0 0 1-.44-.18 4.6 4.6 0 0 0-3-1c-1.63 0-2.64.74-2.64 1.8s1.36 1.52 2.91 1.89c2.07.47 4.45 1.06 4.45 3.69 0 2-1.6 3.6-4.67 3.6a6.53 6.53 0 0 1-4.26-1.4.81.81 0 0 1-.38-.67zM1122.86 596.76a.81.81 0 0 1 .81-.81.88.88 0 0 1 .49.15 5.33 5.33 0 0 0 3.37 1.23c1.82 0 2.81-.82 2.81-2 0-1.31-1.45-1.72-3-2.12-2-.47-4.31-1-4.31-3.47 0-1.85 1.6-3.42 4.43-3.42a6.16 6.16 0 0 1 3.94 1.3.86.86 0 0 1 .32.62.81.81 0 0 1-.79.79.74.74 0 0 1-.44-.18 4.6 4.6 0 0 0-3-1c-1.63 0-2.63.74-2.63 1.8s1.35 1.52 2.9 1.89c2.07.47 4.46 1.06 4.46 3.69 0 2-1.6 3.6-4.68 3.6a6.53 6.53 0 0 1-4.26-1.4.8.8 0 0 1-.42-.67zM1140.3 586.35a5.63 5.63 0 0 1 5.71 5.91c0 .59-.39.93-1.08.93h-8.54a4.19 4.19 0 0 0 4.28 4.11 5.1 5.1 0 0 0 3.2-1.13.87.87 0 0 1 .42-.1.74.74 0 0 1 .76.74.77.77 0 0 1-.32.62 6.73 6.73 0 0 1-4.23 1.4 6.25 6.25 0 0 1-.2-12.48zm-3.91 5.49h7.8a3.84 3.84 0 0 0-3.91-4 4 4 0 0 0-3.89 4zM1154.13 597.74a.69.69 0 0 1-.46.69 3.16 3.16 0 0 1-1.68.4c-1.75 0-2.63-1-2.63-2.78v-7.78h-1.26a.82.82 0 0 1 0-1.63h1.26v-2.43a.93.93 0 0 1 .93-.91.92.92 0 0 1 .91.91v2.43h1.7a.82.82 0 1 1 0 1.63h-1.7v7.38c0 .89.4 1.53 1.21 1.53.52 0 .69-.22.94-.22a.75.75 0 0 1 .78.78zM1162.64 597.45V583a1 1 0 0 1 2 0v13.68h6.82a.91.91 0 1 1 0 1.82h-7.78a1 1 0 0 1-1.04-1.05zM1174.8 583a1.25 1.25 0 1 1 1.23 1.23 1.24 1.24 0 0 1-1.23-1.23zm.32 14.72v-10.26a.93.93 0 0 1 1.85 0v10.26a.93.93 0 0 1-1.85 0zM1191.81 592.6c0 3.87-2.19 6.23-5.29 6.23a5 5 0 0 1-4-2.07v1a.92.92 0 0 1-1.84 0v-14.83a.92.92 0 0 1 1.84 0v5.54a4.9 4.9 0 0 1 4-2.12c3.1 0 5.29 2.46 5.29 6.25zm-1.92 0c0-2.63-1.43-4.6-3.84-4.6a4.41 4.41 0 0 0-3.55 1.92v5.39a4.4 4.4 0 0 0 3.55 1.87c2.41 0 3.84-1.95 3.84-4.58zM1200.74 587.33c0 .45-.37.84-1 .91a4.38 4.38 0 0 0-3.08 1.88v7.6a.92.92 0 0 1-1.84 0v-10.26a.92.92 0 0 1 .91-.91.93.93 0 0 1 .93.91v1.1a5.24 5.24 0 0 1 2.66-2 2.06 2.06 0 0 1 .59-.12.83.83 0 0 1 .83.89zM1212.2 590.36v7.36a.92.92 0 0 1-1.84 0v-.54a5.06 5.06 0 0 1-3.94 1.65 4 4 0 0 1-4.16-3.94 3.89 3.89 0 0 1 4.16-3.91 5 5 0 0 1 3.94 1.62v-2.14c0-1.6-1.28-2.51-3-2.51a4.38 4.38 0 0 0-3.11 1.18 1 1 0 0 1-.49.15.77.77 0 0 1-.76-.76.81.81 0 0 1 .32-.62 6.14 6.14 0 0 1 4.28-1.55c2.51 0 4.6 1.13 4.6 4.01zm-1.84 5.66v-2.24a4 4 0 0 0-3.27-1.47 2.61 2.61 0 1 0 0 5.19 4 4 0 0 0 3.27-1.5zM1221.82 587.33c0 .45-.36.84-1 .91a4.38 4.38 0 0 0-3.08 1.88v7.6a.93.93 0 0 1-1.85 0v-10.26a.93.93 0 0 1 1.85 0v1.1a5.24 5.24 0 0 1 2.66-2 2 2 0 0 1 .59-.12.82.82 0 0 1 .83.89zM1224.26 601.68h.39a1.71 1.71 0 0 0 1.78-1.26l.78-1.79-4.48-10.83a.93.93 0 0 1 .84-1.28.92.92 0 0 1 .86.56l3.77 9.28 3.74-9.28a.94.94 0 0 1 .86-.56.92.92 0 0 1 .93.93 1 1 0 0 1-.07.37l-5.46 13.09a3.55 3.55 0 0 1-3.5 2.42 2.09 2.09 0 0 1-.54-.05.84.84 0 0 1-.79-.81.86.86 0 0 1 .89-.79zM1069.59 700.83v-12.75l-5.44 13.34a.59.59 0 0 1-1.13 0l-5.42-13.34v12.75a1 1 0 0 1-1 1 1 1 0 0 1-1-1V687a1.72 1.72 0 0 1 1.72-1.72 1.69 1.69 0 0 1 1.6 1.08l4.7 11.59 4.73-11.59a1.68 1.68 0 0 1 1.6-1.08 1.72 1.72 0 0 1 1.72 1.72v13.88a1 1 0 0 1-2 0zM1080.56 689.56a5.63 5.63 0 0 1 5.71 5.9c0 .6-.39.94-1.08.94h-8.54a4.18 4.18 0 0 0 4.28 4.11 5.14 5.14 0 0 0 3.2-1.13.76.76 0 0 1 .86 1.25 6.75 6.75 0 0 1-4.23 1.41 6.25 6.25 0 0 1-.2-12.48zm-3.91 5.49h7.8a3.86 3.86 0 0 0-3.92-4 4 4 0 0 0-3.88 4zM1094.39 701a.69.69 0 0 1-.47.69 3.14 3.14 0 0 1-1.67.4c-1.75 0-2.64-1-2.64-2.79v-7.77h-1.25a.82.82 0 0 1 0-1.63h1.25v-2.43a.93.93 0 0 1 1.85 0v2.43h1.7a.82.82 0 1 1 0 1.63h-1.7v7.38c0 .89.39 1.53 1.2 1.53.52 0 .69-.22.94-.22a.75.75 0 0 1 .79.78zM1105.76 693.57v7.36a.93.93 0 0 1-1.85 0v-.54A5 5 0 0 1 1100 702a4 4 0 0 1-4.16-3.94 3.9 3.9 0 0 1 4.16-3.92 5 5 0 0 1 3.94 1.63v-2.14c0-1.6-1.28-2.51-3-2.51a4.36 4.36 0 0 0-3.1 1.18 1.05 1.05 0 0 1-.5.15.77.77 0 0 1-.76-.77.8.8 0 0 1 .32-.61 6.17 6.17 0 0 1 4.28-1.55c2.49.04 4.58 1.17 4.58 4.05zm-1.85 5.66V697a4 4 0 0 0-3.27-1.48 2.62 2.62 0 1 0 0 5.2 4 4 0 0 0 3.27-1.49zM1129.45 700.78a1 1 0 0 1-2 .39l-1.18-3.07h-8.45l-1.18 3.07a1 1 0 0 1-1 .67 1 1 0 0 1-1.06-1 1.35 1.35 0 0 1 .1-.42l5.66-14a1.79 1.79 0 0 1 1.68-1.13 1.72 1.72 0 0 1 1.64 1.13l5.69 14a1.78 1.78 0 0 1 .1.36zm-3.88-4.5l-3.52-9.13-3.52 9.13zM1142.45 686.14v14.79a.93.93 0 0 1-1.85 0v-1a5 5 0 0 1-4 2.07c-3.1 0-5.29-2.37-5.29-6.23s2.16-6.25 5.29-6.25a5 5 0 0 1 4 2.11v-5.53a.93.93 0 0 1 1.85 0zm-1.85 12.38v-5.39a4.45 4.45 0 0 0-3.57-1.92c-2.39 0-3.81 2-3.81 4.6s1.42 4.58 3.81 4.58a4.44 4.44 0 0 0 3.57-1.87zM1166.14 700.78a1 1 0 0 1-2 .39l-1.18-3.07h-8.44l-1.18 3.07a1 1 0 0 1-1 .67 1 1 0 0 1-1.06-1 1.35 1.35 0 0 1 .1-.42l5.66-14a1.79 1.79 0 0 1 1.67-1.13 1.72 1.72 0 0 1 1.65 1.13l5.69 14a2.66 2.66 0 0 1 .09.36zm-3.89-4.5l-3.52-9.13-3.52 9.13zM1173.92 689.56a5.09 5.09 0 0 1 3.81 1.47.89.89 0 0 1 .27.62.83.83 0 0 1-.84.84.81.81 0 0 1-.54-.22 3.43 3.43 0 0 0-2.61-1.06c-2.53 0-4.11 1.94-4.11 4.57s1.58 4.61 4.11 4.61a3.39 3.39 0 0 0 2.59-1.06.76.76 0 0 1 .56-.22.84.84 0 0 1 .57 1.45 5.1 5.1 0 0 1-3.81 1.48c-3.55 0-5.94-2.71-5.94-6.26a5.88 5.88 0 0 1 5.94-6.22zM1186.1 689.56a5.09 5.09 0 0 1 3.81 1.47.89.89 0 0 1 .27.62.83.83 0 0 1-.83.84.81.81 0 0 1-.55-.22 3.43 3.43 0 0 0-2.61-1.06c-2.53 0-4.11 1.94-4.11 4.57s1.58 4.61 4.11 4.61a3.39 3.39 0 0 0 2.59-1.06.77.77 0 0 1 .57-.22.83.83 0 0 1 .83.83.84.84 0 0 1-.27.62 5.1 5.1 0 0 1-3.81 1.48c-3.55 0-5.93-2.71-5.93-6.26s2.38-6.22 5.93-6.22zM1192.35 695.78c0-3.44 2.26-6.22 5.88-6.22s5.88 2.78 5.88 6.22-2.26 6.26-5.88 6.26-5.88-2.81-5.88-6.26zm9.82 0c0-2.41-1.41-4.57-3.94-4.57s-4 2.16-4 4.57 1.43 4.61 4 4.61 3.94-2.17 3.94-4.61zM1217 690.67v10.26a.93.93 0 0 1-1.85 0v-.84a5.83 5.83 0 0 1-4.23 1.95c-2.49 0-3.79-1.21-3.79-3.79v-7.58a.93.93 0 0 1 .93-.92.92.92 0 0 1 .91.92v7c0 2.09 1.06 2.71 2.66 2.71a4.56 4.56 0 0 0 3.52-1.8v-7.92a.93.93 0 0 1 1.85 0zM1230.54 693.4v7.53a.93.93 0 0 1-1.85 0v-7c0-2.09-1.06-2.75-2.66-2.75a4.59 4.59 0 0 0-3.52 1.84v7.88a.92.92 0 0 1-1.84 0v-10.23a.92.92 0 1 1 1.84 0v.93a5.79 5.79 0 0 1 4.24-2c2.48-.04 3.79 1.21 3.79 3.8zM1239.37 701a.69.69 0 0 1-.47.69 3.12 3.12 0 0 1-1.67.4c-1.75 0-2.64-1-2.64-2.79v-7.77h-1.25a.82.82 0 0 1 0-1.63h1.25v-2.43a.93.93 0 0 1 1.85 0v2.43h1.7a.82.82 0 1 1 0 1.63h-1.7v7.38c0 .89.39 1.53 1.21 1.53.51 0 .69-.22.93-.22a.75.75 0 0 1 .79.78zM1259.87 690.44a.66.66 0 0 1-.67.64h-2.29l-1.64 4.9h2a.66.66 0 0 1 .64.67.63.63 0 0 1-.64.64h-2.38l-1.38 4.06a.7.7 0 0 1-.67.49.71.71 0 0 1-.71-.69 1.57 1.57 0 0 1 .05-.3l1.21-3.56h-2.74l-1.35 4.06a.72.72 0 0 1-.69.49.71.71 0 0 1-.71-.69.72.72 0 0 1 .05-.27l1.2-3.59h-1.82a.64.64 0 0 1-.66-.64.66.66 0 0 1 .66-.67h2.27l1.62-4.9h-1.9a.64.64 0 0 1 0-1.28h2.34l1.36-4.08a.69.69 0 0 1 .69-.49.71.71 0 0 1 .71.68 1.16 1.16 0 0 1-.05.28l-1.21 3.61h2.74l1.33-4.08a.72.72 0 0 1 .68-.49.71.71 0 0 1 .72.68 1.16 1.16 0 0 1 0 .28l-1.21 3.61h1.87a.66.66 0 0 1 .58.64zm-4.46.64h-2.73l-1.62 4.9h2.68zM1261.54 700.66a1.12 1.12 0 0 1 .44-.89c5.71-4.43 8.79-7.11 8.79-9.87 0-2.09-1.72-3-3.42-3a5.47 5.47 0 0 0-3.92 1.53 1.1 1.1 0 0 1-.61.22.91.91 0 0 1-.91-.94.9.9 0 0 1 .32-.69 7.31 7.31 0 0 1 5.12-1.94c2.73 0 5.51 1.55 5.51 4.82s-3.4 6.4-8 10h7.23a.91.91 0 1 1 0 1.82h-9.5a1.11 1.11 0 0 1-1.05-1.06zM1109.72 730.31a1 1 0 0 1-2 .39l-1.18-3.07h-8.44l-1.18 3.07a1 1 0 0 1-1 .67 1.05 1.05 0 0 1-1.06-1 1.36 1.36 0 0 1 .1-.41l5.66-14a1.8 1.8 0 0 1 1.67-1.14 1.75 1.75 0 0 1 1.65 1.14l5.69 14a2.66 2.66 0 0 1 .09.35zm-3.89-4.5l-3.52-9.14-3.52 9.14zM1111.41 729.5a.82.82 0 0 1 .82-.82.88.88 0 0 1 .49.15 5.27 5.27 0 0 0 3.37 1.23c1.82 0 2.81-.81 2.81-2s-1.46-1.72-3.05-2.11c-2-.47-4.31-1-4.31-3.47 0-1.85 1.6-3.42 4.43-3.42a6.16 6.16 0 0 1 3.94 1.3.86.86 0 0 1 .32.62.81.81 0 0 1-.79.78.73.73 0 0 1-.44-.17 4.6 4.6 0 0 0-3-1c-1.63 0-2.64.74-2.64 1.79s1.36 1.53 2.91 1.9c2.07.47 4.45 1.06 4.45 3.69 0 2-1.6 3.59-4.67 3.59a6.53 6.53 0 0 1-4.26-1.4.79.79 0 0 1-.38-.66zM1122.86 729.5a.82.82 0 0 1 .81-.82.88.88 0 0 1 .49.15 5.27 5.27 0 0 0 3.37 1.23c1.82 0 2.81-.81 2.81-2s-1.45-1.72-3-2.11c-2-.47-4.31-1-4.31-3.47 0-1.85 1.6-3.42 4.43-3.42a6.16 6.16 0 0 1 3.94 1.3.86.86 0 0 1 .32.62.81.81 0 0 1-.79.78.73.73 0 0 1-.44-.17 4.6 4.6 0 0 0-3-1c-1.63 0-2.63.74-2.63 1.79s1.35 1.53 2.9 1.9c2.07.47 4.46 1.06 4.46 3.69 0 2-1.6 3.59-4.68 3.59a6.53 6.53 0 0 1-4.26-1.4.78.78 0 0 1-.42-.66zM1140.3 719.09a5.63 5.63 0 0 1 5.7 5.91c0 .59-.39.94-1.08.94h-8.54a4.19 4.19 0 0 0 4.28 4.11 5.16 5.16 0 0 0 3.2-1.13.77.77 0 0 1 .42-.1.74.74 0 0 1 .76.74.76.76 0 0 1-.32.61 6.73 6.73 0 0 1-4.23 1.4 6.24 6.24 0 0 1-.2-12.47zm-3.91 5.48h7.8a3.84 3.84 0 0 0-3.91-4 4 4 0 0 0-3.89 4zM1154.13 730.48a.69.69 0 0 1-.46.69 3.16 3.16 0 0 1-1.68.39c-1.75 0-2.63-1-2.63-2.78V721h-1.26a.82.82 0 0 1 0-1.63h1.26v-2.44a.93.93 0 0 1 .93-.91.92.92 0 0 1 .91.91v2.44h1.7a.82.82 0 1 1 0 1.63h-1.7v7.38c0 .89.4 1.53 1.21 1.53.52 0 .69-.23.94-.23a.75.75 0 0 1 .78.8zM1162.64 730.19v-14.43a1 1 0 0 1 2 0v13.69h6.82a.91.91 0 1 1 0 1.82h-7.78a1 1 0 0 1-1.04-1.08zM1174.8 715.74a1.25 1.25 0 1 1 2.49 0 1.25 1.25 0 0 1-2.49 0zm.32 14.72v-10.27a.93.93 0 0 1 1.85 0v10.27a.93.93 0 0 1-1.85 0zM1191.81 725.34c0 3.86-2.19 6.22-5.29 6.22a5.06 5.06 0 0 1-4-2.06v1a.92.92 0 0 1-1.84 0v-14.8a.92.92 0 0 1 1.84 0v5.54a4.89 4.89 0 0 1 4-2.11c3.1-.04 5.29 2.42 5.29 6.21zm-1.92 0c0-2.64-1.43-4.61-3.84-4.61a4.44 4.44 0 0 0-3.55 1.92V728a4.38 4.38 0 0 0 3.55 1.88c2.41.04 3.84-1.88 3.84-4.54zM1200.74 720.07c0 .44-.37.84-1 .91a4.37 4.37 0 0 0-3.08 1.87v7.61a.92.92 0 0 1-1.84 0v-10.27a.92.92 0 0 1 .91-.91.93.93 0 0 1 .93.91v1.11a5.19 5.19 0 0 1 2.66-2 1.81 1.81 0 0 1 .59-.13.83.83 0 0 1 .83.9zM1212.2 723.1v7.36a.92.92 0 0 1-1.84 0v-.54a5.05 5.05 0 0 1-3.94 1.64 4 4 0 0 1-4.16-3.93 3.9 3.9 0 0 1 4.16-3.92 5 5 0 0 1 3.94 1.63v-2.14c0-1.6-1.28-2.51-3-2.51a4.38 4.38 0 0 0-3.11 1.18 1 1 0 0 1-.49.15.77.77 0 0 1-.76-.77.8.8 0 0 1 .32-.61 6.14 6.14 0 0 1 4.28-1.55c2.51 0 4.6 1.13 4.6 4.01zm-1.84 5.66v-2.24a4 4 0 0 0-3.27-1.48 2.61 2.61 0 1 0 0 5.19 4 4 0 0 0 3.27-1.47zM1221.82 720.07a1 1 0 0 1-1 .91 4.37 4.37 0 0 0-3.08 1.87v7.61a.93.93 0 0 1-1.85 0v-10.27a.93.93 0 0 1 1.85 0v1.11a5.19 5.19 0 0 1 2.66-2 1.75 1.75 0 0 1 .59-.13.82.82 0 0 1 .83.9zM1224.26 734.42h.39a1.71 1.71 0 0 0 1.78-1.25l.78-1.8-4.48-10.83a.83.83 0 0 1-.07-.34.91.91 0 0 1 .91-.94.93.93 0 0 1 .86.57l3.77 9.28 3.74-9.28a1 1 0 0 1 .86-.57.92.92 0 0 1 .93.94 1 1 0 0 1-.07.37l-5.46 13.09a3.54 3.54 0 0 1-3.5 2.41 2.09 2.09 0 0 1-.54-.05.83.83 0 0 1-.79-.81.85.85 0 0 1 .89-.79zM1080.79 418a8.19 8.19 0 0 1 8.37-8.49 7.43 7.43 0 0 1 5.64 2.38 1 1 0 0 1 .24.67 1 1 0 0 1-1 1 1 1 0 0 1-.74-.32 5.65 5.65 0 0 0-4.18-1.87c-3.52 0-6.25 2.75-6.25 6.67s2.73 6.67 6.25 6.67a5.54 5.54 0 0 0 4.18-1.87 1 1 0 0 1 .74-.32 1 1 0 0 1 1 1 .93.93 0 0 1-.24.66 7.37 7.37 0 0 1-5.64 2.39 8.2 8.2 0 0 1-8.37-8.57zM1096.88 420.26c0-3.45 2.27-6.23 5.89-6.23s5.88 2.78 5.88 6.23-2.27 6.25-5.88 6.25-5.89-2.81-5.89-6.25zm9.82 0c0-2.41-1.4-4.58-3.93-4.58s-4 2.17-4 4.58 1.43 4.6 4 4.6 3.93-2.17 3.93-4.6zM1127.84 417.62v7.78a.94.94 0 0 1-.93.91.93.93 0 0 1-.91-.91v-7.26c0-1.5-.67-2.46-2.19-2.46a4.13 4.13 0 0 0-3.15 1.82v7.9a.93.93 0 0 1-.91.91 1 1 0 0 1-.94-.91v-7.26c0-1.5-.64-2.46-2.19-2.46a4.15 4.15 0 0 0-3.13 1.84v7.88a.92.92 0 0 1-.91.91.93.93 0 0 1-.93-.91v-10.26a.92.92 0 0 1 1.84 0v.91a5.13 5.13 0 0 1 3.84-2 3.05 3.05 0 0 1 3.2 2.22 5 5 0 0 1 4-2.22c2.16-.05 3.31 1.19 3.31 3.57zM1142.68 420.26c0 3.84-2.17 6.25-5.29 6.25a4.88 4.88 0 0 1-4-2.12v5.54a.93.93 0 0 1-1.85 0v-14.79a.93.93 0 0 1 1.85 0v1a5 5 0 0 1 4-2.07c3.12-.07 5.29 2.32 5.29 6.19zm-2 0c0-2.64-1.42-4.58-3.81-4.58a4.4 4.4 0 0 0-3.54 1.89v5.37a4.42 4.42 0 0 0 3.54 1.92c2.44 0 3.86-1.97 3.86-4.6zM1154.93 418v7.36a.92.92 0 0 1-1.84 0v-.54a5.06 5.06 0 0 1-3.94 1.65 4 4 0 0 1-4.16-3.94 3.89 3.89 0 0 1 4.16-3.91 5 5 0 0 1 3.94 1.62v-2.14c0-1.6-1.28-2.51-3-2.51a4.42 4.42 0 0 0-3.1 1.18.89.89 0 0 1-.49.15.77.77 0 0 1-.76-.76.81.81 0 0 1 .32-.62 6.14 6.14 0 0 1 4.28-1.55c2.5.01 4.59 1.17 4.59 4.01zm-1.84 5.66v-2.24a4 4 0 0 0-3.28-1.47 2.61 2.61 0 1 0 0 5.19 4 4 0 0 0 3.28-1.44zM1168.49 417.87v7.53a.93.93 0 0 1-1.85 0v-7c0-2.1-1.05-2.76-2.65-2.76a4.59 4.59 0 0 0-3.52 1.84v7.88a.93.93 0 0 1-1.85 0v-10.22a.93.93 0 0 1 1.85 0v.93a5.78 5.78 0 0 1 4.23-2c2.49-.07 3.79 1.22 3.79 3.8zM1172.43 429.36h.39a1.71 1.71 0 0 0 1.77-1.26l.79-1.79-4.48-10.83a.87.87 0 0 1-.07-.35.91.91 0 0 1 .91-.93.93.93 0 0 1 .86.56l3.76 9.28 3.74-9.28a1 1 0 0 1 .87-.56.92.92 0 0 1 .93.93.94.94 0 0 1-.07.37l-5.47 13.1a3.54 3.54 0 0 1-3.49 2.41 2.05 2.05 0 0 1-.54-.05.84.84 0 0 1-.79-.81.86.86 0 0 1 .89-.79zM1204.25 425.25a1 1 0 0 1-2 .4l-1.18-3.08h-8.45l-1.18 3.08a1 1 0 0 1-1 .66 1 1 0 0 1-1.06-1 1.42 1.42 0 0 1 .1-.42l5.66-14a1.81 1.81 0 0 1 1.68-1.13 1.76 1.76 0 0 1 1.65 1.13l5.68 14a1.8 1.8 0 0 1 .1.36zm-3.89-4.5l-3.52-9.13-3.52 9.13zM1205.94 424.44a.82.82 0 0 1 .81-.81.86.86 0 0 1 .49.15 5.36 5.36 0 0 0 3.38 1.23c1.82 0 2.8-.82 2.8-2 0-1.31-1.45-1.72-3.05-2.12-2-.47-4.31-1-4.31-3.47 0-1.85 1.6-3.42 4.43-3.42a6.16 6.16 0 0 1 3.94 1.3.86.86 0 0 1 .32.62.81.81 0 0 1-.79.79.74.74 0 0 1-.44-.18 4.65 4.65 0 0 0-3-1c-1.62 0-2.63.74-2.63 1.8s1.35 1.52 2.9 1.89c2.07.47 4.46 1.06 4.46 3.7 0 2-1.6 3.59-4.68 3.59a6.54 6.54 0 0 1-4.26-1.4.8.8 0 0 1-.37-.67zM1217.38 424.44a.82.82 0 0 1 .81-.81.89.89 0 0 1 .5.15 5.33 5.33 0 0 0 3.37 1.23c1.82 0 2.8-.82 2.8-2 0-1.31-1.45-1.72-3-2.12-2-.47-4.31-1-4.31-3.47 0-1.85 1.6-3.42 4.43-3.42a6.16 6.16 0 0 1 3.94 1.3.83.83 0 0 1 .32.62.81.81 0 0 1-.78.79.8.8 0 0 1-.45-.18 4.63 4.63 0 0 0-3-1c-1.62 0-2.63.74-2.63 1.8s1.35 1.52 2.91 1.89c2.06.47 4.45 1.06 4.45 3.7 0 2-1.6 3.59-4.68 3.59a6.52 6.52 0 0 1-4.25-1.4.78.78 0 0 1-.43-.67zM1234.83 414a5.64 5.64 0 0 1 5.71 5.91c0 .59-.39.93-1.08.93h-8.54a4.18 4.18 0 0 0 4.28 4.11 5.14 5.14 0 0 0 3.2-1.13.84.84 0 0 1 .42-.1.75.75 0 0 1 .76.74.77.77 0 0 1-.32.62 6.73 6.73 0 0 1-4.23 1.4 6.25 6.25 0 0 1-.2-12.48zm-3.91 5.49h7.8a3.86 3.86 0 0 0-3.91-4 4 4 0 0 0-3.89 4.03zM1248.66 425.43a.69.69 0 0 1-.47.68 3.14 3.14 0 0 1-1.67.4c-1.75 0-2.64-1-2.64-2.78V416h-1.25a.81.81 0 1 1 0-1.62h1.25v-2.44a.93.93 0 0 1 1.85 0v2.44h1.7a.81.81 0 1 1 0 1.62h-1.7v7.38c0 .89.39 1.53 1.2 1.53.52 0 .69-.22.94-.22a.75.75 0 0 1 .79.74zM1129.39 454.66v-14.42a1 1 0 0 1 2 0v13.68h6.82a.91.91 0 1 1 0 1.82h-7.78a1 1 0 0 1-1.04-1.08zM1141.55 440.21a1.24 1.24 0 1 1 1.23 1.23 1.23 1.23 0 0 1-1.23-1.23zm.31 14.72v-10.26a.93.93 0 0 1 1.85 0v10.26a.93.93 0 0 1-1.85 0zM1158.55 449.81c0 3.86-2.19 6.23-5.29 6.23a5 5 0 0 1-4-2.07v1a.93.93 0 0 1-1.85 0v-14.83a.93.93 0 0 1 1.85 0v5.54a4.89 4.89 0 0 1 4-2.12c3.1 0 5.29 2.44 5.29 6.25zm-1.92 0c0-2.63-1.43-4.6-3.84-4.6a4.4 4.4 0 0 0-3.54 1.92v5.39a4.38 4.38 0 0 0 3.54 1.87c2.41 0 3.84-1.95 3.84-4.58zM1167.48 444.54c0 .45-.37.84-1 .91a4.37 4.37 0 0 0-3.07 1.87v7.61a.93.93 0 0 1-1.85 0v-10.26a.93.93 0 0 1 1.85 0v1.1a5.22 5.22 0 0 1 2.65-2 2.13 2.13 0 0 1 .59-.12.82.82 0 0 1 .83.89zM1179 447.57v7.36a.93.93 0 0 1-1.85 0v-.54a5 5 0 0 1-3.93 1.65 4 4 0 0 1-4.16-3.94 3.89 3.89 0 0 1 4.16-3.91 5 5 0 0 1 3.93 1.62v-2.14c0-1.6-1.28-2.51-3-2.51a4.36 4.36 0 0 0-3.1 1.18 1 1 0 0 1-.49.15.78.78 0 0 1-.77-.77.8.8 0 0 1 .32-.61 6.18 6.18 0 0 1 4.29-1.55c2.46 0 4.6 1.13 4.6 4.01zm-1.85 5.66V451a4 4 0 0 0-3.27-1.47 2.61 2.61 0 1 0 0 5.19 4 4 0 0 0 3.22-1.49zM1188.57 444.54c0 .45-.37.84-1 .91a4.41 4.41 0 0 0-3.08 1.87v7.61a.92.92 0 0 1-.91.91.93.93 0 0 1-.93-.91v-10.26a.92.92 0 0 1 1.84 0v1.1a5.28 5.28 0 0 1 2.66-2 2.13 2.13 0 0 1 .59-.12.83.83 0 0 1 .83.89zM1191 458.89h.4a1.71 1.71 0 0 0 1.77-1.26l.79-1.8-4.48-10.83a.93.93 0 0 1-.08-.35.91.91 0 0 1 .91-.93.94.94 0 0 1 .87.56l3.76 9.28 3.74-9.28a1 1 0 0 1 .86-.56.91.91 0 0 1 .94.93 1.21 1.21 0 0 1-.07.37l-5.47 13.09a3.53 3.53 0 0 1-3.49 2.42 2.13 2.13 0 0 1-.55-.05.84.84 0 0 1-.78-.82.86.86 0 0 1 .88-.77z"/><path class="cls-16" d="M446.56 429.7h-14.35c-52.22 0-94.44-7.34-94.56 29.5v5.59c-3.06 30.82-54.13 29.5-106.35 29.5h-19.77"/><path class="cls-16" d="M447.9 558.94h-14.43c-52.52 0-95 7.35-95.1-29.49v-5.59c-2-32.34-54.44-29.5-107-29.5h-19.84M256.1 835.76h192.76"/><rect class="cls-1" x="114.33" y="812.59" width="135.76" height="60.33" rx="30.17"/><rect class="cls-2" x="114.33" y="812.59" width="135.76" height="60.33" rx="30.17"/><rect class="cls-3" x="122.33" y="805.59" width="135.76" height="60.33" rx="30.17"/><rect class="cls-4" x="122.33" y="805.59" width="135.76" height="60.33" rx="30.17"/><text class="cls-17" transform="translate(146.29 842.76)">User #3</text><path class="cls-16" d="M256.1 701.97h192.28"/><rect class="cls-1" x="114.33" y="678.8" width="135.76" height="60.33" rx="30.17"/><rect class="cls-2" x="114.33" y="678.8" width="135.76" height="60.33" rx="30.17"/><rect class="cls-3" x="122.33" y="671.8" width="135.76" height="60.33" rx="30.17"/><rect class="cls-4" x="122.33" y="671.8" width="135.76" height="60.33" rx="30.17"/><text class="cls-17" transform="translate(146.14 708.97)">User #2</text><rect class="cls-1" x="99.42" y="471.12" width="135.76" height="60.33" rx="30.17"/><rect class="cls-2" x="99.42" y="471.12" width="135.76" height="60.33" rx="30.17"/><rect class="cls-3" x="107.42" y="464.12" width="135.76" height="60.33" rx="30.17"/><rect class="cls-4" x="107.42" y="464.12" width="135.76" height="60.33" rx="30.17"/><text class="cls-17" transform="translate(133.47 500.22)">User #1</text></svg>