<svg id="Layer_1" xmlns="http://www.w3.org/2000/svg" viewBox="0 0 1216.1 933.7"><style>.st0{fill:#081742}.st1{fill:none;stroke:#081742;stroke-width:2;stroke-miterlimit:10}.st2{fill:#852798}.st3{fill:none;stroke:#1d1853;stroke-width:2;stroke-miterlimit:10}.st4{fill:#fff}.st5{font-family:&apos;ProximaSoft-Bold&apos;}.st6{font-size:24.61px}.st7{fill:#29b1d8}.st8{font-family:&apos;ProximaSoft-Regular&apos;}.st11{fill:#fde23e}.st12{fill:#1d1853}</style><path class="st0" d="M55.3 40.7h1079.6c16.3 0 29.6 13.2 29.6 29.6v798.8c0 16.3-13.2 29.6-29.6 29.6H55.3c-16.3 0-29.6-13.2-29.6-29.6V70.3C25.7 54 39 40.7 55.3 40.7z"/><path class="st1" d="M55.3 40.7h1079.6c16.3 0 29.6 13.2 29.6 29.6v798.8c0 16.3-13.2 29.6-29.6 29.6H55.3c-16.3 0-29.6-13.2-29.6-29.6V70.3C25.7 54 39 40.7 55.3 40.7z"/><path class="st2" d="M63.3 33.7h1079.6c16.3 0 29.6 13.2 29.6 29.6v798.8c0 16.3-13.2 29.6-29.6 29.6H63.3c-16.3 0-29.6-13.2-29.6-29.6V63.3C33.7 47 47 33.7 63.3 33.7z"/><path class="st3" d="M63.3 33.7h1079.6c16.3 0 29.6 13.2 29.6 29.6v798.8c0 16.3-13.2 29.6-29.6 29.6H63.3c-16.3 0-29.6-13.2-29.6-29.6V63.3C33.7 47 47 33.7 63.3 33.7z"/><path class="st0" d="M460.2 201.1h641c16.3 0 29.6 13.2 29.6 29.6v515.9c0 16.3-13.2 29.6-29.6 29.6h-641c-16.3 0-29.6-13.2-29.6-29.6V230.7c0-16.3 13.3-29.6 29.6-29.6z"/><path class="st1" d="M460.2 201.1h641c16.3 0 29.6 13.2 29.6 29.6v515.9c0 16.3-13.2 29.6-29.6 29.6h-641c-16.3 0-29.6-13.2-29.6-29.6V230.7c0-16.3 13.3-29.6 29.6-29.6z"/><path class="st4" d="M468.2 194.1h641c16.3 0 29.6 13.2 29.6 29.6v515.9c0 16.3-13.2 29.6-29.6 29.6h-641c-16.3 0-29.6-13.2-29.6-29.6V223.7c0-16.3 13.3-29.6 29.6-29.6z"/><path class="st3" d="M468.2 194.1h641c16.3 0 29.6 13.2 29.6 29.6v515.9c0 16.3-13.2 29.6-29.6 29.6h-641c-16.3 0-29.6-13.2-29.6-29.6V223.7c0-16.3 13.3-29.6 29.6-29.6z"/><path class="st0" d="M975.9 81.8h75.4c16.7 0 30.2 13.5 30.2 30.2s-13.5 30.2-30.2 30.2h-75.4c-16.7 0-30.2-13.5-30.2-30.2 0-16.6 13.5-30.2 30.2-30.2z"/><path class="st1" d="M975.9 81.8h75.4c16.7 0 30.2 13.5 30.2 30.2s-13.5 30.2-30.2 30.2h-75.4c-16.7 0-30.2-13.5-30.2-30.2 0-16.6 13.5-30.2 30.2-30.2z"/><path class="st2" d="M983.9 74.8h75.4c16.7 0 30.2 13.5 30.2 30.2s-13.5 30.2-30.2 30.2h-75.4c-16.7 0-30.2-13.5-30.2-30.2 0-16.6 13.5-30.2 30.2-30.2z"/><path class="st3" d="M983.9 74.8h75.4c16.7 0 30.2 13.5 30.2 30.2s-13.5 30.2-30.2 30.2h-75.4c-16.7 0-30.2-13.5-30.2-30.2 0-16.6 13.5-30.2 30.2-30.2z"/><text transform="translate(977.67 112.02)" class="st4 st5 st6">User #3</text><path class="st0" d="M750.1 81.8h75.4c16.7 0 30.2 13.5 30.2 30.2s-13.5 30.2-30.2 30.2h-75.4c-16.7 0-30.2-13.5-30.2-30.2 0-16.6 13.5-30.2 30.2-30.2z"/><path class="st1" d="M750.1 81.8h75.4c16.7 0 30.2 13.5 30.2 30.2s-13.5 30.2-30.2 30.2h-75.4c-16.7 0-30.2-13.5-30.2-30.2 0-16.6 13.5-30.2 30.2-30.2z"/><path class="st2" d="M758.1 74.8h75.4c16.7 0 30.2 13.5 30.2 30.2s-13.5 30.2-30.2 30.2h-75.4c-16.7 0-30.2-13.5-30.2-30.2 0-16.6 13.5-30.2 30.2-30.2z"/><path class="st3" d="M758.1 74.8h75.4c16.7 0 30.2 13.5 30.2 30.2s-13.5 30.2-30.2 30.2h-75.4c-16.7 0-30.2-13.5-30.2-30.2 0-16.6 13.5-30.2 30.2-30.2z"/><text transform="translate(751.71 112.02)" class="st4 st5 st6">User #2</text><path class="st0" d="M524.2 81.8h75.4c16.7 0 30.2 13.5 30.2 30.2s-13.5 30.2-30.2 30.2h-75.4c-16.7 0-30.2-13.5-30.2-30.2.1-16.6 13.6-30.2 30.2-30.2z"/><path class="st1" d="M524.2 81.8h75.4c16.7 0 30.2 13.5 30.2 30.2s-13.5 30.2-30.2 30.2h-75.4c-16.7 0-30.2-13.5-30.2-30.2.1-16.6 13.6-30.2 30.2-30.2z"/><path class="st2" d="M532.2 74.8h75.4c16.7 0 30.2 13.5 30.2 30.2s-13.5 30.2-30.2 30.2h-75.4c-16.7 0-30.2-13.5-30.2-30.2.1-16.6 13.6-30.2 30.2-30.2z"/><path class="st3" d="M532.2 74.8h75.4c16.7 0 30.2 13.5 30.2 30.2s-13.5 30.2-30.2 30.2h-75.4c-16.7 0-30.2-13.5-30.2-30.2.1-16.6 13.6-30.2 30.2-30.2z"/><text transform="translate(528.13 110.95)" class="st4 st5 st6">User #1</text><path class="st0" d="M77.8 201.1h305.4c8.3 0 15 6.7 15 15v88.2c0 8.3-6.7 15-15 15H77.8c-8.3 0-15-6.7-15-15v-88.2c0-8.3 6.7-15 15-15z"/><path class="st1" d="M77.8 201.1h305.4c8.3 0 15 6.7 15 15v88.2c0 8.3-6.7 15-15 15H77.8c-8.3 0-15-6.7-15-15v-88.2c0-8.3 6.7-15 15-15z"/><path class="st7" d="M85.8 194.1h305.4c8.3 0 15 6.7 15 15v88.2c0 8.3-6.7 15-15 15H85.8c-8.3 0-15-6.7-15-15v-88.2c0-8.3 6.7-15 15-15z"/><path class="st3" d="M85.8 194.1h305.4c8.3 0 15 6.7 15 15v88.2c0 8.3-6.7 15-15 15H85.8c-8.3 0-15-6.7-15-15v-88.2c0-8.3 6.7-15 15-15z"/><text transform="translate(93.14 244.78)" class="st4 st8 st6">Meta Ad Account #1</text><text transform="translate(93.14 274.31)" class="st4 st8 st6">+ Ad Account Asset Library</text><path class="st0" d="M77.8 351.8h305.4c8.3 0 15 6.7 15 15V455c0 8.3-6.7 15-15 15H77.8c-8.3 0-15-6.7-15-15v-88.2c0-8.3 6.7-15 15-15z"/><path class="st1" d="M77.8 351.8h305.4c8.3 0 15 6.7 15 15V455c0 8.3-6.7 15-15 15H77.8c-8.3 0-15-6.7-15-15v-88.2c0-8.3 6.7-15 15-15z"/><path class="st7" d="M85.8 344.8h305.4c8.3 0 15 6.7 15 15V448c0 8.3-6.7 15-15 15H85.8c-8.3 0-15-6.7-15-15v-88.2c0-8.3 6.7-15 15-15z"/><path class="st3" d="M85.8 344.8h305.4c8.3 0 15 6.7 15 15V448c0 8.3-6.7 15-15 15H85.8c-8.3 0-15-6.7-15-15v-88.2c0-8.3 6.7-15 15-15z"/><text transform="translate(93.14 395.4)" class="st4 st8 st6">Meta Ad Account #2</text><text transform="translate(93.14 424.93)" class="st4 st8 st6">+ Ad Account Asset Library</text><text transform="translate(738.22 835.41)" class="st4 st8 st6">authorizes</text><text transform="translate(965.52 835.41)" class="st4 st8 st6">has access to</text><path class="st0" d="M77.8 658.1h305.4c8.3 0 15 6.7 15 15v88.2c0 8.3-6.7 15-15 15H77.8c-8.3 0-15-6.7-15-15v-88.2c0-8.3 6.7-15 15-15z"/><path class="st1" d="M77.8 658.1h305.4c8.3 0 15 6.7 15 15v88.2c0 8.3-6.7 15-15 15H77.8c-8.3 0-15-6.7-15-15v-88.2c0-8.3 6.7-15 15-15z"/><path d="M85.8 651.1h305.4c8.3 0 15 6.7 15 15v88.2c0 8.3-6.7 15-15 15H85.8c-8.3 0-15-6.7-15-15v-88.2c0-8.3 6.7-15 15-15z" fill="#f66271"/><path d="M85.8 651.1h305.4c8.3 0 15 6.7 15 15v88.2c0 8.3-6.7 15-15 15H85.8c-8.3 0-15-6.7-15-15v-88.2c0-8.3 6.7-15 15-15z" fill="none" stroke="#26245e" stroke-width="2" stroke-miterlimit="10"/><text transform="translate(110.22 716.49)" class="st4 st8 st6">Pinterest Ad Account #1</text><path class="st0" d="M77.8 502.4h305.4c8.3 0 15 6.7 15 15v88.2c0 8.3-6.7 15-15 15H77.8c-8.3 0-15-6.7-15-15v-88.2c0-8.3 6.7-15 15-15z"/><path class="st1" d="M77.8 502.4h305.4c8.3 0 15 6.7 15 15v88.2c0 8.3-6.7 15-15 15H77.8c-8.3 0-15-6.7-15-15v-88.2c0-8.3 6.7-15 15-15z"/><path class="st11" d="M85.8 495.4h305.4c8.3 0 15 6.7 15 15v88.2c0 8.3-6.7 15-15 15H85.8c-8.3 0-15-6.7-15-15v-88.2c0-8.3 6.7-15 15-15z"/><path class="st3" d="M85.8 495.4h305.4c8.3 0 15 6.7 15 15v88.2c0 8.3-6.7 15-15 15H85.8c-8.3 0-15-6.7-15-15v-88.2c0-8.3 6.7-15 15-15z"/><text transform="translate(107.34 560.78)" class="st12 st8 st6">Snapchat Ad Account #1</text><path class="st3" d="M436.1 338.9h699.2M432.7 481.7h706M432.7 624.5h706M673 769.2V194.1M904.4 769.2V194.1"/><circle class="st11" cx="581.4" cy="274.3" r="16.7"/><circle class="st12" cx="532" cy="274.3" r="16.7"/><circle class="st11" cx="581.4" cy="413.5" r="16.7"/><circle class="st12" cx="532" cy="413.5" r="16.7"/><circle class="st11" cx="810.4" cy="548.8" r="16.7"/><circle class="st12" cx="761" cy="548.8" r="16.7"/><circle class="st11" cx="1046.3" cy="699.7" r="16.7"/><circle class="st11" cx="704.1" cy="829.1" r="16.7"/><circle class="st12" cx="996.9" cy="699.7" r="16.7"/><circle class="st12" cx="785.7" cy="279.1" r="16.7"/><circle class="st12" cx="556" cy="689" r="16.7"/><circle class="st12" cx="935.1" cy="829.1" r="16.7"/></svg>