<svg xmlns="http://www.w3.org/2000/svg" viewBox="0 0 3774.44 400.32"><defs><style>.cls-2{fill:#529ab9;stroke:#1b1950;stroke-width:1.6px}</style><filter id="filter"><feOffset dx="-7" dy="8"/><feGaussianBlur result="blur"/><feFlood flood-color="#852798"/><feComposite operator="in" in2="blur"/><feComposite in="SourceGraphic"/></filter></defs><g id="Layer_2" data-name="Layer 2"><g filter="url(#filter)" id="Layer_1-2" data-name="Layer 1"><path class="cls-2" d="M224.77 238.24a32.37 32.37 0 0 1-63.37 9.28L157.88 236H78.52L75 247.52a32.37 32.37 0 0 1-63.36-9.28A33 33 0 0 1 13.56 227L65.08 87.51a56.74 56.74 0 0 1 106.24 0L222.85 227a33 33 0 0 1 1.92 11.24zm-83.85-56l-22.72-71.36-22.72 71.36zM403.32 79.51v162.25c0 16.64-12.16 30.4-28.8 30.4-13.12 0-24.64-9-28.8-21.12-13.12 14.72-27.84 20.16-43.52 20.16-37.44 0-68.2-28.2-68.2-81.28 0-51.2 30.08-81 68.16-81 15.68 0 31.36 5.44 43.52 20.16V79.51a28.8 28.8 0 0 1 57.6 0zm-57.6 130.25v-39.68c-5.44-6.72-16.32-10.24-24-10.24-15.68 0-28.8 10.88-28.8 30.08s13.12 30.4 28.8 30.4c7.68 0 18.56-3.84 24-10.56zM594 79.51v162.25c0 16.64-12.16 30.4-28.8 30.4-13.12 0-24.64-9-28.8-21.12-13.12 14.72-27.84 20.16-43.52 20.16-37.44 0-68.17-28.16-68.17-81.28 0-51.2 30.09-81 68.17-81 15.68 0 31.36 5.44 43.52 20.16V79.51a28.8 28.8 0 1 1 57.6 0zm-57.6 130.25v-39.68c-5.44-6.72-16.32-10.24-24-10.24-15.68 0-28.8 10.88-28.8 30.08s13.12 30.4 28.8 30.4c7.72 0 18.6-3.84 24.04-10.56zM622.51 66.07a32.32 32.32 0 1 1 32.32 32.32 32.23 32.23 0 0 1-32.32-32.32zM626 241.76V138.4a28.8 28.8 0 1 1 57.6 0v103.36a28.8 28.8 0 1 1-57.6 0zM877.88 157.6v84.16a28.81 28.81 0 0 1-57.61 0v-59.84c0-16-8.64-22.08-22.4-22.08-13.12 0-19.84 6.72-24.64 12.16v69.76a28.8 28.8 0 0 1-57.6 0V138.4c0-16.65 12.16-30.08 28.8-30.08a29.29 29.29 0 0 1 28.8 22.08c9-10.24 25.92-21.44 53.12-21.44 35.84.04 51.53 21.76 51.53 48.64zM1068.27 138.4v112.32c0 66.88-55 79.36-93.44 79.36a118.58 118.58 0 0 1-51.52-11.2 24 24 0 0 1-13.44-21.12 23.63 23.63 0 0 1 23.68-23.68 21.44 21.44 0 0 1 9.92 2.24 73.89 73.89 0 0 0 31.36 6.68c13.44 0 35.84-5.12 35.84-32.32v-8.28c-13.12 15-27.52 20.8-43.52 20.8-37.12 0-67.84-24.32-67.84-77.12 0-51.52 29.76-77.12 67.84-77.12 16 0 31 5.44 43.52 20.16 3.2-11.53 16-19.53 28.8-19.53a28.89 28.89 0 0 1 28.8 28.81zm-57.6 64v-32.64c-5.44-6.4-16.32-9.92-23.68-9.92-15.68 0-28.8 7.36-28.8 26.24s13.12 26.24 28.8 26.24c7.36 0 18.24-3.52 23.68-9.92zM1328.75 173.92v65.92c0 17-11.85 30.72-28.81 30.72a30.92 30.92 0 0 1-28.48-18.56c-8.32 11.2-27.52 19.2-47 19.2-23 0-53.12-15.68-53.12-50.88 0-38.4 30.08-47.68 53.12-47.68 20.16 0 38.4 6.4 46.72 17V172c0-10.88-9.92-19.2-28.8-19.2-9.28 0-19.2 2.24-29.44 7a18.67 18.67 0 0 1-8.32 1.92 20.77 20.77 0 0 1-9.28-39.36A131 131 0 0 1 1252.9 109c38.41 0 75.85 13.4 75.85 64.92zm-57.61 51.52v-8.64c-3.84-5.44-13.76-8.32-22.72-8.32-9.6 0-20.16 3.2-20.16 12.8s10.56 12.48 20.16 12.48c8.96 0 18.88-2.88 22.72-8.32zM1604.58 157.6v84.16a28.8 28.8 0 0 1-57.6 0v-59.84c0-16-8.64-22.08-22.4-22.08-13.12 0-19.84 6.72-24.64 12.16v69.76a28.8 28.8 0 1 1-57.6 0V138.4c0-16.65 12.16-30.08 28.8-30.08a29.29 29.29 0 0 1 28.8 22.08c9-10.24 25.92-21.44 53.12-21.44 35.84.04 51.52 21.76 51.52 48.64zM1710.18 109c45.44 0 80.32 32.64 80.32 70.72 0 21.76-12.16 28.16-34.24 28.16h-70.72c3.19 9.92 14.4 19.52 33.92 19.52a62.44 62.44 0 0 0 22.72-4.48 21 21 0 0 1 8-1.6 21.78 21.78 0 0 1 21.76 21.68c0 9-6.08 17-14.08 20.16a135.21 135.21 0 0 1-45.76 8c-48.33 0-86.09-30.4-86.09-81.28-.01-44.76 34.24-80.88 84.17-80.88zm-25.28 62.4h50.88c-1.6-6.72-7-18.56-25.6-18.56-17.6-.04-23.37 11.48-25.28 18.52zM1940.58 241.44L1923 181l-17.6 60.48a40.52 40.52 0 0 1-77.77 0l-27.84-96a30.46 30.46 0 0 1-1-8 28.08 28.08 0 0 1 55.37-6.4l16 66.88 20.8-65a33.74 33.74 0 0 1 64.32.32l20.48 64.64 16-66.88a28.26 28.26 0 0 1 55.68 6.72 29.66 29.66 0 0 1-1.28 7.68l-27.52 96a40.73 40.73 0 0 1-78.08 0zM2296.41 173.92v65.92c0 17-11.84 30.72-28.8 30.72a30.92 30.92 0 0 1-28.48-18.56c-8.32 11.2-27.52 19.2-47 19.2-23 0-53.12-15.68-53.12-50.88 0-38.4 30.08-47.68 53.12-47.68 20.16 0 38.4 6.4 46.72 17V172c0-10.88-9.92-19.2-28.8-19.2-9.28 0-19.2 2.24-29.44 7a18.67 18.67 0 0 1-8.32 1.92 20.77 20.77 0 0 1-9.29-39.32 131 131 0 0 1 57.6-13.44c38.4.04 75.81 13.44 75.81 64.96zm-57.6 51.52v-8.64c-3.84-5.44-13.76-8.32-22.72-8.32-9.6 0-20.16 3.2-20.16 12.8s10.56 12.48 20.16 12.48c8.96 0 18.91-2.88 22.72-8.32zM2487.13 79.51v162.25c0 16.64-12.16 30.4-28.8 30.4-13.12 0-24.64-9-28.8-21.12-13.12 14.72-27.84 20.16-43.52 20.16-37.44 0-68.16-28.16-68.16-81.28 0-51.2 30.08-81 68.16-81 15.68 0 31.36 5.44 43.52 20.16V79.51a28.8 28.8 0 0 1 57.6 0zm-57.6 130.25v-39.68c-5.44-6.72-16.32-10.24-24-10.24-15.68 0-28.8 10.88-28.8 30.08s13.12 30.4 28.8 30.4c7.68 0 18.56-3.84 24-10.56zM2747.6 173.92v65.92c0 17-11.84 30.72-28.8 30.72a30.92 30.92 0 0 1-28.48-18.56c-8.32 11.2-27.52 19.2-47 19.2-23 0-53.12-15.68-53.12-50.88 0-38.4 30.08-47.68 53.12-47.68 20.16 0 38.4 6.4 46.72 17V172c0-10.88-9.92-19.2-28.8-19.2-9.28 0-19.2 2.24-29.44 7a18.67 18.67 0 0 1-8.32 1.92 20.77 20.77 0 0 1-9.28-39.36 131 131 0 0 1 57.6-13.44c38.36.08 75.8 13.48 75.8 65zm-57.6 51.52v-8.64c-3.84-5.44-13.76-8.32-22.72-8.32-9.6 0-20.16 3.2-20.16 12.8s10.56 12.48 20.16 12.48c8.96 0 18.88-2.88 22.72-8.32zM2855.76 109c17.28 0 31.36 3.83 42.24 9.6 8.32 4.48 14.08 12.8 14.08 22.72a25.68 25.68 0 0 1-25.6 25.6 23.42 23.42 0 0 1-12.48-3.2 31.62 31.62 0 0 0-15.68-3.84c-16.32 0-30.4 10.24-30.4 30.08s14.08 30.4 30.4 30.4a30.41 30.41 0 0 0 15.36-3.84 27 27 0 0 1 12.48-3.52 25.81 25.81 0 0 1 11.84 48.6c-10.88 5.76-25 9.6-42.24 9.6-49 0-86.72-32-86.72-81.28C2769 141 2806.8 109 2855.76 109zM3010 109c17.28 0 31.36 3.83 42.24 9.6 8.32 4.48 14.08 12.8 14.08 22.72a25.68 25.68 0 0 1-25.6 25.6 23.42 23.42 0 0 1-12.48-3.2 31.62 31.62 0 0 0-15.68-3.84c-16.32 0-30.4 10.24-30.4 30.08s14.08 30.4 30.4 30.4a30.41 30.41 0 0 0 15.36-3.84 27 27 0 0 1 12.48-3.52 25.81 25.81 0 0 1 11.84 48.64c-10.88 5.76-25 9.6-42.24 9.6-49 0-86.73-32-86.73-81.28C2923.27 141 2961 109 3010 109zM3077.51 189.92c0-43.2 32-81 86.72-81 55.05 0 87.05 37.76 87.05 81s-32 81.28-87.05 81.28c-54.72 0-86.72-38.08-86.72-81.28zm114.57 0c0-17-9.93-30.08-27.85-30.08-17.6 0-27.52 13.12-27.52 30.08 0 17.28 9.92 30.4 27.52 30.4 17.92 0 27.85-13.12 27.85-30.4zM3434.64 138.4v103.36c0 16.64-12.16 30.08-28.81 30.08a29.58 29.58 0 0 1-28.8-21.76c-9 9.92-25.92 21.12-53.12 21.12-35.84 0-51.2-21.44-51.2-48v-84.8a28.8 28.8 0 1 1 57.6 0v60.16c0 15.68 8.32 21.76 22.4 21.76 12.8 0 19.52-6.72 24.32-12.16V138.4a28.81 28.81 0 1 1 57.61 0zM3628.87 157.6v84.16a28.8 28.8 0 1 1-57.6 0v-59.84c0-16-8.64-22.08-22.4-22.08-13.12 0-19.84 6.72-24.64 12.16v69.76a28.8 28.8 0 0 1-57.6 0V138.4c0-16.65 12.16-30.08 28.8-30.08a29.29 29.29 0 0 1 28.8 22.08c9-10.24 25.92-21.44 53.12-21.44 35.84.04 51.52 21.76 51.52 48.64zM3764.23 245.6c0 11.84-8.64 21.12-19.52 23.68a83.63 83.63 0 0 1-18.88 1.92c-34.24 0-53.12-16.32-53.12-48.64v-59.84h-3.84a25 25 0 0 1 0-49.93h3.84V96.15a28.8 28.8 0 1 1 57.6 0v16.64h9.6a25 25 0 0 1 0 49.93h-9.6v43.2c0 7.68 4.48 13.76 11.52 14.4l2.88.32c11.84 1.28 19.52 12.48 19.52 24.96z"/></g></g></svg>