<svg xmlns="http://www.w3.org/2000/svg" viewBox="0 0 1917.96 196.75"><defs><style>.cls-1{fill:#fff}.cls-3{fill:#1b1950}.cls-4{fill:#fde23e}.cls-5,.cls-7{fill:none;stroke-linecap:round}.cls-5{stroke:#fff}.cls-6{fill:#852798}.cls-7{stroke:#852798;stroke-miterlimit:10}</style></defs><g id="Layer_2" data-name="Layer 2"><g id="Layer_1-2" data-name="Layer 1"><circle class="cls-1" cx="293.72" cy="28.9" r="4.96"/><path d="M0 .06V188c24.31.24 24.84 6.22 50.19 6.22C76.08 194.2 76.08 188 102 188s25.88 6.23 51.77 6.23 25.86-6.23 51.75-6.23 25.88 6.23 51.77 6.23 25.89-6.23 51.77-6.23 25.89 6.23 51.78 6.23 25.88-6.23 51.77-6.23 25.89 6.23 51.77 6.23 25.89-6.23 51.78-6.23 25.88 6.23 51.77 6.23S593.82 188 619.7 188s25.89 6.23 51.78 6.23 25.88-6.23 51.77-6.23 25.89 6.23 51.77 6.23S800.91 188 826.8 188s25.88 6.23 51.77 6.23 25.88-6.23 51.77-6.23 25.89 6.23 51.77 6.23v-.09c1.59 0 3.29.09 5.13.09 25.89 0 25.89-6.23 51.78-6.23s25.88 6.23 51.77 6.23 25.89-6.23 51.77-6.23 25.89 6.23 51.78 6.23 25.88-6.23 51.77-6.23 25.89 6.23 51.77 6.23 25.89-6.23 51.78-6.23 25.88 6.23 51.77 6.23 25.89-6.23 51.78-6.23 25.88 6.23 51.77 6.23 25.89-6.23 51.77-6.23 25.89 6.23 51.78 6.23 25.88-6.23 51.77-6.23 25.88 6.23 51.77 6.23S1738 188 1763.84 188s25.89 6.23 51.78 6.23 25.88-6.23 51.77-6.23c25.47 0 25.9 6 50.57 6.22V.08z" fill="#529ab9"/><path class="cls-3" d="M1331.62.39a97.3 97.3 0 0 0 97.3 97.3 97.31 97.31 0 0 0 97.3-97.3"/><circle class="cls-4" cx="1498.15" cy="162.54" r="13.62"/><circle class="cls-3" cx="1754.06" cy="84.61" r="12.07"/><path class="cls-5" d="M1863.27 1.76a61.27 61.27 0 1 1-122.53 0"/><circle class="cls-4" cx="1861.07" cy="152.07" r="5.25"/><circle class="cls-3" cx="866.52" cy="122.53" r="15.57"/><circle class="cls-6" cx="151.15" cy="161.38" r="15.57"/><circle class="cls-1" cx="681.88" cy="163.71" r="3.14"/><circle class="cls-1" cx="491.17" cy="155.56" r="10.79"/><circle class="cls-4" cx="691.38" cy="87.5" r="24.93"/><path class="cls-5" d="M350.64 196.25a53.2 53.2 0 1 1 89.45-2.25"/><circle class="cls-3" cx="319.7" cy="77.77" r="9.73"/><circle class="cls-3" cx="95.31" cy="42.6" r="5.69"/><circle class="cls-1" cx="947.64" cy="74.5" r="8.7"/><path class="cls-4" d="M136 0a65.19 65.19 0 1 0 116.3 0z"/><path class="cls-6" d="M1603.88 194c1.45.05 3 .08 4.65.08 25.88 0 25.88-6.23 51.77-6.23 22.47 0 25.44 4.69 42.77 5.93a49.82 49.82 0 0 0-99.19.22z"/><circle class="cls-4" cx="1092.19" cy="78.79" r="9.73"/><circle class="cls-4" cx="40.8" cy="144.71" r="13.57"/><rect class="cls-1" x="262.6" y="113.59" width="10.85" height="42.77" rx="5.42" transform="rotate(45 268.024 134.97)"/><rect class="cls-3" x="459.79" y="44.61" width="10.85" height="42.77" rx="5.42" transform="rotate(45 465.221 66.001)"/><rect class="cls-1" x="34.21" y="42.55" width="8.43" height="33.27" rx="4.22" transform="rotate(45 38.428 59.177)"/><rect class="cls-4" x="1264.74" y="13.2" width="10.85" height="42.77" rx="5.42" transform="rotate(45 1270.163 34.589)"/><rect class="cls-1" x="1620.25" y="32.82" width="10.85" height="97.47" rx="5.42" transform="rotate(45 1625.673 81.546)"/><rect class="cls-1" x="799.45" y="44.61" width="10.85" height="42.77" rx="5.42" transform="rotate(45 804.872 65.999)"/><rect class="cls-3" x="1139.93" y="59.59" width="28.77" height="113.45" rx="14.38" transform="rotate(45 1154.309 116.32)"/><path class="cls-7" d="M430.32 29.94l-74.45 74.44M1320.18 95.08l-74.45 74.44M803.71 118.34l-27.92 27.92M1049.15 2.02L993.9 57.27M108.11 88.1l-36.06 36.06M1574.92 28.77l-36.06 36.06M1879.1 57.27l-91.31 91.31"/><path class="cls-6" d="M595.71.21l-88.45 88.46a29.54 29.54 0 0 0 0 41.78 29.54 29.54 0 0 0 41.78 0l123-123a29.33 29.33 0 0 0 5.32-7.24zM1011.46 191.37a59.55 59.55 0 0 0-118.64 1.89c13-1.69 17.53-5.4 37.52-5.4 25.89 0 25.89 6.23 51.77 6.23V194c1.59.06 3.29.09 5.13.09a93.7 93.7 0 0 0 24.22-2.72z"/><circle class="cls-7" cx="1355.08" cy="128.81" r="15.12"/><circle cx="1692.02" cy="105.16" r="24.82" stroke="#852798" fill="none" stroke-linecap="round"/><circle class="cls-4" cx="886.3" cy="46.22" r="11.63"/></g></g></svg>