<svg xmlns="http://www.w3.org/2000/svg" viewBox="0 0 1917.96 195.83"><defs><style>.cls-2{fill:#f66271}.cls-3{fill:#529ab9}.cls-7,.cls-8{fill:none;stroke-linecap:round}.cls-8{stroke:#1b1950}.cls-5{fill:#fde23e}.cls-6{fill:#1b1950}.cls-7{stroke:#529ab9}.cls-8{stroke-miterlimit:10}</style></defs><g id="Layer_2" data-name="Layer 2"><g id="Layer_1-2" data-name="Layer 1"><path d="M0 1v187.9c24.31.24 24.84 6.22 50.19 6.22 25.89 0 25.89-6.23 51.78-6.23s25.88 6.23 51.77 6.23 25.89-6.23 51.78-6.23 25.88 6.23 51.77 6.23 25.89-6.23 51.77-6.23 25.89 6.23 51.78 6.23 25.88-6.23 51.77-6.23 25.89 6.23 51.77 6.23 25.89-6.23 51.78-6.23 25.88 6.23 51.77 6.23 25.89-6.23 51.77-6.23 25.89 6.23 51.78 6.23 25.88-6.23 51.77-6.23 25.89 6.23 51.77 6.23 25.89-6.23 51.78-6.23 25.88 6.23 51.77 6.23 25.88-6.23 51.77-6.23 25.89 6.23 51.77 6.23V195c1.59.05 3.29.09 5.13.09 25.89 0 25.89-6.23 51.78-6.23s25.88 6.23 51.77 6.23 25.89-6.23 51.77-6.23 25.89 6.23 51.78 6.23 25.88-6.23 51.77-6.23 25.89 6.23 51.77 6.23 25.89-6.23 51.78-6.23 25.88 6.23 51.77 6.23 25.89-6.23 51.78-6.23 25.88 6.23 51.77 6.23 25.89-6.23 51.77-6.23 25.89 6.23 51.78 6.23 25.88-6.23 51.77-6.23 25.88 6.23 51.77 6.23 25.89-6.23 51.77-6.23 25.89 6.23 51.78 6.23 25.88-6.23 51.77-6.23c25.47 0 25.9 6 50.57 6.22V1z" fill="#f2f2f2"/><path class="cls-2" d="M1331.62 1a97.3 97.3 0 1 0 194.6 0"/><circle class="cls-3" cx="1498.15" cy="161.28" r="13.62"/><circle class="cls-2" cx="1754.06" cy="83.35" r="12.07"/><path d="M1863.27.5a61.27 61.27 0 1 1-122.53 0" stroke="#1b1950" fill="none" stroke-linecap="round"/><circle class="cls-3" cx="1861.07" cy="150.81" r="5.25"/><circle class="cls-2" cx="866.52" cy="121.27" r="15.57"/><circle class="cls-5" cx="151.15" cy="160.12" r="15.57"/><circle class="cls-6" cx="293.72" cy="27.64" r="4.96"/><circle class="cls-6" cx="681.88" cy="162.45" r="3.14"/><circle class="cls-6" cx="491.17" cy="154.3" r="10.79"/><circle class="cls-3" cx="691.38" cy="86.24" r="24.93"/><path class="cls-7" d="M350.64 195a53.2 53.2 0 1 1 89.45-2.27"/><circle class="cls-2" cx="319.7" cy="76.51" r="9.73"/><circle class="cls-2" cx="95.31" cy="41.34" r="5.69"/><circle class="cls-6" cx="947.64" cy="73.24" r="8.7"/><path class="cls-3" d="M136 .92a65.19 65.19 0 1 0 116.3 0z"/><path class="cls-5" d="M1603.88 195.75c1.45.05 3 .08 4.65.08 25.88 0 25.88-6.23 51.77-6.23 22.47 0 25.44 4.69 42.77 5.93a49.82 49.82 0 0 0-99.19.22z"/><circle class="cls-3" cx="1092.19" cy="77.53" r="9.73"/><circle class="cls-3" cx="40.8" cy="143.45" r="13.57"/><rect class="cls-6" x="262.6" y="112.33" width="10.85" height="42.77" rx="5.42" transform="rotate(45 268.026 133.71)"/><rect class="cls-2" x="459.79" y="43.35" width="10.85" height="42.77" rx="5.42" transform="rotate(45 465.218 64.73)"/><rect class="cls-6" x="34.21" y="41.29" width="8.43" height="33.27" rx="4.22" transform="rotate(45 38.43 57.918)"/><rect class="cls-3" x="1264.74" y="11.94" width="10.85" height="42.77" rx="5.42" transform="rotate(45 1270.165 33.33)"/><rect class="cls-6" x="1620.25" y="31.56" width="10.85" height="97.47" rx="5.42" transform="rotate(45 1625.662 80.291)"/><rect class="cls-6" x="799.45" y="43.35" width="10.85" height="42.77" rx="5.42" transform="rotate(45 804.874 64.74)"/><rect class="cls-2" x="1139.93" y="58.33" width="28.77" height="113.45" rx="14.38" transform="rotate(45 1154.31 115.06)"/><path class="cls-8" d="M430.32 28.68l-74.45 74.44M1320.18 93.82l-74.45 74.44M803.71 117.08L775.79 145M1043.57 6.34L993.9 56.01M108.11 86.84L72.05 122.9M1574.92 27.51l-36.06 36.06M1879.1 56.01l-91.31 91.31"/><path class="cls-5" d="M595.71.5L507.26 89a29.55 29.55 0 0 0 0 41.79 29.56 29.56 0 0 0 41.78 0l123-123A29.1 29.1 0 0 0 677.36.5zM1011.46 193.11A59.55 59.55 0 0 0 892.82 195c13-1.69 17.53-5.4 37.52-5.4 25.89 0 25.89 6.23 51.77 6.23v-.09c1.59.06 3.29.09 5.13.09a93.7 93.7 0 0 0 24.22-2.72z"/><circle class="cls-8" cx="1355.08" cy="127.55" r="15.12"/><circle class="cls-7" cx="1692.02" cy="103.9" r="24.82"/><circle class="cls-3" cx="886.3" cy="44.96" r="11.63"/></g></g></svg>