<svg xmlns="http://www.w3.org/2000/svg" viewBox="0 0 4454.51 784.32"><defs><style>.cls-2{fill:#fde23e;stroke:#1b1950;stroke-width:1.6px}</style><filter id="filter"><feOffset dx="-7" dy="8"/><feGaussianBlur result="blur"/><feFlood flood-color="#081742"/><feComposite operator="in" in2="blur"/><feComposite in="SourceGraphic"/></filter></defs><g id="Layer_2" data-name="Layer 2"><g filter="url(#filter)" id="Layer_1-2" data-name="Layer 1"><path class="cls-2" d="M861.5 228.32a29.23 29.23 0 0 1 29.12-29.12 28.05 28.05 0 0 1 14.72 3.8 97.6 97.6 0 0 0 50.24 13.76c12.16 0 23.68-4.16 23.68-12.48s-9-12.48-30.08-16.32c-35.2-6.4-89-14.72-89-68.17 0-36.16 30.08-69.12 91.84-69.12 22.72 0 47.36 4.48 66.56 13.12a28.8 28.8 0 0 1-11.84 55.05 33.64 33.64 0 0 1-12.8-2.57c-18.88-7.36-33.6-11.2-45.44-11.2-19.2 0-22.72 5.77-22.72 11.2 0 8.33 8.64 11.21 31.36 15.05 35.2 6.08 87.36 16.32 87.36 65.6 0 47-34.88 74.24-92.16 74.24-31 0-55-6.08-75.52-17.28a28.88 28.88 0 0 1-15.32-25.56zM1319.42 155.36v86.4a28.8 28.8 0 0 1-57.6 0v-64.64c0-9.28-4.8-17.28-17.6-17.28s-19.84 7.68-23.68 12.16v69.76a28.8 28.8 0 1 1-57.6 0v-64.64c0-9.28-4.48-17.28-17.6-17.28-12.48 0-19.52 7.68-23.36 12.16v69.76a28.8 28.8 0 1 1-57.6 0V138.4c0-16.65 12.16-30.09 28.8-30.09A29.86 29.86 0 0 1 1122 130.4c6.72-8.65 26.24-21.45 51.2-21.45 21.76 0 37.44 8 44.48 27.21 9-13.45 29.12-27.21 54.08-27.21 28.46.05 47.66 14.4 47.66 46.41zM1498.3 173.92v65.92c0 17-11.85 30.72-28.81 30.72A30.92 30.92 0 0 1 1441 252c-8.32 11.2-27.52 19.2-47 19.2-23 0-53.12-15.68-53.12-50.88 0-38.4 30.08-47.68 53.12-47.68 20.16 0 38.4 6.4 46.72 17V172c0-10.88-9.92-19.2-28.8-19.2-9.28 0-19.2 2.24-29.44 7a18.67 18.67 0 0 1-8.32 1.92 20.77 20.77 0 0 1-9.28-39.36 131.06 131.06 0 0 1 57.6-13.45c38.37.09 75.82 13.49 75.82 65.01zm-57.61 51.52v-8.64c-3.84-5.44-13.76-8.32-22.72-8.32-9.6 0-20.16 3.2-20.16 12.8s10.56 12.48 20.16 12.48c8.96 0 18.88-2.88 22.72-8.32zM1640.05 133.92c0 14.72-7.36 27.2-24 29.12-8 1-21.76 2.56-28.16 10.24v68.48a28.8 28.8 0 0 1-57.6 0V139.68c0-16.64 12.16-30.09 28.8-30.09 13.76 0 25.28 8.33 28.8 20.81 2.88-6.4 7.68-13.44 15-17.61a27.08 27.08 0 0 1 12.48-3.52 24.46 24.46 0 0 1 24.68 24.65z"/><path class="cls-2" d="M1758.45 245.6c0 11.84-8.64 21.12-19.52 23.68a83.63 83.63 0 0 1-18.88 1.92c-34.24 0-53.12-16.32-53.12-48.64v-59.84h-3.84a25 25 0 0 1 0-49.93h3.84V96.15a28.8 28.8 0 0 1 57.6 0v16.64h9.6a25 25 0 0 1 0 49.93h-9.6v43.2c0 7.68 4.48 13.76 11.52 14.4l2.88.32c11.84 1.28 19.52 12.48 19.52 24.96zM1777.32 241.76V79.51a28.81 28.81 0 0 1 57.61 0v162.25a28.81 28.81 0 0 1-57.61 0zM1881 279.52l2.56-.32c10.57-1 17-2.24 18.89-6.08l1.28-3.2-48.33-121.28c-1.28-3.2-2.56-7.36-2.56-10.88a28 28 0 0 1 28.16-28.17c11.21 0 22.08 5.76 25.92 17.61l26.56 78.4 25.93-78.4c3.84-11.53 14.72-17.61 25.92-17.61 16.64 0 28.48 12.81 28.48 28.17 0 3.52-1.28 7.68-2.56 10.88l-54.72 137.92c-13.76 34.56-42.24 43.52-63.37 43.52h-3.52c-18.56 0-29.12-12.8-29.12-26.88a23.42 23.42 0 0 1 20.48-23.68zM2048.05 202.72c18.56 0 34.24 15.68 34.24 34.24s-15.68 34.24-34.24 34.24-34.24-15.68-34.24-34.24 15.68-34.24 34.24-34.24zM2106 66.07a32.32 32.32 0 1 1 32.32 32.32A32.23 32.23 0 0 1 2106 66.07zm3.52 175.69V138.4a28.8 28.8 0 1 1 57.6 0v103.36a28.8 28.8 0 1 1-57.6 0zM2188.52 189.92c0-43.2 32-81 86.72-81 55.05 0 87.05 37.77 87.05 81s-32 81.28-87.05 81.28c-54.72 0-86.72-38.08-86.72-81.28zm114.56 0c0-17-9.92-30.08-27.84-30.08-17.6 0-27.52 13.12-27.52 30.08 0 17.28 9.92 30.4 27.52 30.4 17.92 0 27.84-13.12 27.84-30.4zM2512.36 238.24v-128H2480a28.16 28.16 0 1 1 0-56.32h129a28.16 28.16 0 0 1 0 56.32h-32v128a32.32 32.32 0 0 1-64.64 0zM2780.2 173.92v65.92c0 17-11.84 30.72-28.8 30.72a30.92 30.92 0 0 1-28.48-18.56c-8.32 11.2-27.52 19.2-47 19.2-23 0-53.12-15.68-53.12-50.88 0-38.4 30.08-47.68 53.12-47.68 20.16 0 38.4 6.4 46.72 17V172c0-10.88-9.92-19.2-28.8-19.2-9.28 0-19.2 2.24-29.44 7a18.67 18.67 0 0 1-8.32 1.92 20.76 20.76 0 0 1-9.28-39.36 131.06 131.06 0 0 1 57.6-13.45c38.36.09 75.8 13.49 75.8 65.01zm-57.6 51.52v-8.64c-3.84-5.44-13.76-8.32-22.72-8.32-9.6 0-20.16 3.2-20.16 12.8s10.56 12.48 20.16 12.48c8.96 0 18.88-2.88 22.72-8.32zM2812.19 241.76V79.51a28.8 28.8 0 0 1 57.6 0v162.25a28.8 28.8 0 0 1-57.6 0zM3058 241.76c0 16.64-13.12 28.8-29.13 28.8a28.76 28.76 0 0 1-22.72-10.88l-34.24-42.56-12.48 12.16v12.48a28.8 28.8 0 1 1-57.6 0V79.51a28.8 28.8 0 1 1 57.6 0v85.77l44.8-47a26.79 26.79 0 0 1 19.53-8.64c15.67 0 27.51 11.85 27.51 26.89a26.8 26.8 0 0 1-8.31 19.84l-29.12 27.52 39 41.92c1.92 1.87 5.16 8.59 5.16 15.95zM3072.35 237.92a22.81 22.81 0 0 1 22.72-22.72 23.52 23.52 0 0 1 9.6 2.24c13.76 6.4 29.44 10.88 41 10.88 11.84 0 15.36-3.2 15.36-7.36 0-5.12-7-7-21.76-9-25.92-3.52-65.92-8.32-65.92-50.24 0-27.84 24.32-52.81 69.12-52.81a120.28 120.28 0 0 1 49.28 10.57 21 21 0 0 1-8.32 40.32 20.44 20.44 0 0 1-9-1.92 72.25 72.25 0 0 0-31.68-7.68c-8.32 0-14.4 2.24-14.4 6.72s4.48 6.4 19.84 8.64c25.92 3.84 67.84 9.28 67.84 52.48 0 30.72-27.52 53.12-73.28 53.12a137.09 137.09 0 0 1-57-12.48 23.13 23.13 0 0 1-13.4-20.76zM3421.79 245.6c0 11.84-8.65 21.12-19.53 23.68a83.6 83.6 0 0 1-18.87 1.92c-34.25 0-53.13-16.32-53.13-48.64v-59.84h-3.84a25 25 0 0 1 0-49.93h3.84V96.15a28.81 28.81 0 0 1 57.61 0v16.64h9.6a25 25 0 0 1 0 49.93h-9.6v43.2c0 7.68 4.47 13.76 11.52 14.4l2.87.32c11.85 1.28 19.53 12.48 19.53 24.96zM3430.1 189.92c0-43.2 32-81 86.72-81 55 0 87 37.77 87 81s-32 81.28-87 81.28c-54.72 0-86.72-38.08-86.72-81.28zm114.56 0c0-17-9.92-30.08-27.84-30.08-17.6 0-27.52 13.12-27.52 30.08 0 17.28 9.92 30.4 27.52 30.4 17.92 0 27.84-13.12 27.84-30.4zM232.72 622.24a32.37 32.37 0 0 1-63.36 9.28L165.84 620H86.48L83 631.52a32.37 32.37 0 0 1-63.36-9.28A33 33 0 0 1 21.51 611L73 471.51a56.75 56.75 0 0 1 106.25 0L230.8 611a33 33 0 0 1 1.92 11.24zm-83.84-56l-22.73-71.36-22.72 71.36zM411.27 463.51v162.25c0 16.64-12.16 30.4-28.8 30.4-13.12 0-24.64-9-28.8-21.12-13.12 14.72-27.84 20.16-43.52 20.16-37.44 0-68.15-28.2-68.15-81.28 0-51.2 30.08-81 68.16-81 15.68 0 31.36 5.43 43.52 20.16v-49.57a28.8 28.8 0 1 1 57.6 0zm-57.6 130.25v-39.68c-5.44-6.72-16.32-10.24-24-10.24-15.68 0-28.8 10.88-28.8 30.08s13.12 30.4 28.8 30.4c7.68 0 18.56-3.84 24-10.56zM593.35 521.76c0 3.52-1.28 7.68-2.56 10.88l-38.08 94.72a43.42 43.42 0 0 1-40 27.2c-17.92 0-33.28-11.52-39.68-27.2L435 532.64c-1.28-3.2-2.56-7.36-2.56-10.88a28 28 0 0 1 28.16-28.17c11.2 0 21.76 6.08 25.92 17.61l26.24 74.24L539 511.2c4.16-11.53 14.72-17.61 25.92-17.61 16.59 0 28.43 12.81 28.43 28.17zM688.06 493c45.45 0 80.33 32.64 80.33 70.72 0 21.76-12.16 28.16-34.24 28.16h-70.73c3.2 9.92 14.4 19.52 33.93 19.52a62.35 62.35 0 0 0 22.71-4.48 21.05 21.05 0 0 1 8-1.6A21.78 21.78 0 0 1 749.83 627c0 9-6.08 17-14.08 20.16a135.22 135.22 0 0 1-45.77 8c-48.32 0-86.08-30.4-86.08-81.28 0-44.76 34.24-80.88 84.16-80.88zm-25.28 62.4h50.89c-1.61-6.72-7-18.56-25.61-18.56-17.6-.04-23.36 11.48-25.28 18.52zM898 517.92c0 14.72-7.35 27.2-24 29.12-8 1-21.75 2.56-28.16 10.24v68.48a28.8 28.8 0 0 1-57.6 0V523.68c0-16.64 12.16-30.09 28.8-30.09 13.76 0 25.28 8.33 28.8 20.81 2.88-6.4 7.68-13.44 15-17.61a27.08 27.08 0 0 1 12.48-3.52A24.45 24.45 0 0 1 898 517.92z"/><path class="cls-2" d="M1016.39 629.6c0 11.84-8.65 21.12-19.53 23.68A83.63 83.63 0 0 1 978 655.2c-34.24 0-53.12-16.32-53.12-48.64v-59.84H921a25 25 0 0 1 0-49.93h3.84v-16.64a28.81 28.81 0 0 1 57.61 0v16.64h9.59a25 25 0 1 1 0 49.93h-9.59v43.2c0 7.68 4.47 13.76 11.51 14.4l2.88.32c11.87 1.28 19.55 12.48 19.55 24.96zM1031.74 450.07a32.32 32.32 0 1 1 32.32 32.32 32.23 32.23 0 0 1-32.32-32.32zm3.52 175.69V522.4a28.8 28.8 0 1 1 57.6 0v103.36a28.8 28.8 0 0 1-57.6 0zM1117.18 621.92a22.81 22.81 0 0 1 22.72-22.72 23.52 23.52 0 0 1 9.6 2.24c13.76 6.4 29.44 10.88 41 10.88 11.84 0 15.36-3.2 15.36-7.36 0-5.12-7-7-21.76-9-25.92-3.52-65.92-8.32-65.92-50.24 0-27.84 24.32-52.8 69.12-52.8a120.42 120.42 0 0 1 49.28 10.55 21 21 0 0 1-8.32 40.33 20.44 20.44 0 0 1-9-1.92 72.25 72.25 0 0 0-31.68-7.68c-8.32 0-14.4 2.24-14.4 6.72s4.48 6.4 19.84 8.64c25.92 3.84 67.84 9.28 67.84 52.48 0 30.72-27.52 53.12-73.28 53.12a137.09 137.09 0 0 1-57-12.48 23.13 23.13 0 0 1-13.4-20.76zM1278.14 450.07a32.32 32.32 0 1 1 32.32 32.32 32.23 32.23 0 0 1-32.32-32.32zm3.51 175.69V522.4a28.81 28.81 0 1 1 57.61 0v103.36a28.81 28.81 0 0 1-57.61 0zM1533.5 541.6v84.16a28.8 28.8 0 0 1-57.6 0v-59.84c0-16-8.64-22.08-22.4-22.08-13.12 0-19.84 6.72-24.64 12.16v69.76a28.81 28.81 0 0 1-57.61 0V522.4c0-16.65 12.16-30.09 28.81-30.09a29.3 29.3 0 0 1 28.8 22.09c9-10.24 25.92-21.44 53.12-21.44 35.84.04 51.52 21.75 51.52 48.64zM1723.9 522.4v112.32c0 66.88-55 79.36-93.44 79.36a118.63 118.63 0 0 1-51.53-11.2 24 24 0 0 1-13.44-21.12 23.63 23.63 0 0 1 23.68-23.68 21.44 21.44 0 0 1 9.92 2.24 73.94 73.94 0 0 0 31.37 6.72c13.43 0 35.84-5.12 35.84-32.32v-8.32c-13.12 15-27.52 20.8-43.53 20.8-37.12 0-67.84-24.32-67.84-77.12 0-51.52 29.76-77.12 67.84-77.12 16 0 31 5.43 43.53 20.16 3.2-11.53 16-19.53 28.8-19.53a28.89 28.89 0 0 1 28.8 28.81zm-57.6 64v-32.64c-5.44-6.4-16.32-9.92-23.68-9.92-15.69 0-28.81 7.36-28.81 26.24s13.12 26.24 28.81 26.24c7.38 0 18.24-3.52 23.68-9.92zM1838.77 622.24V472.15c0-22.08 12.16-34.24 34.24-34.24h79.68c49.92 0 76.8 33.28 76.8 73.29 0 39.68-26.88 71.68-76.8 71.68h-49.28v39.36a32.32 32.32 0 0 1-64.64 0zm105.6-130.57h-41v37.45h41c10.88 0 19.52-7.36 19.52-18.56 0-11.56-8.64-18.89-19.52-18.89zM2049.32 625.76V463.51a28.8 28.8 0 0 1 57.6 0v162.25a28.8 28.8 0 0 1-57.6 0zM2285.81 557.92v65.92c0 17-11.85 30.72-28.81 30.72a30.92 30.92 0 0 1-28.48-18.56c-8.32 11.2-27.52 19.2-47 19.2-23 0-53.12-15.68-53.12-50.88 0-38.4 30.08-47.68 53.12-47.68 20.16 0 38.4 6.4 46.72 17V556c0-10.88-9.92-19.2-28.8-19.2-9.28 0-19.2 2.24-29.44 7a18.67 18.67 0 0 1-8.32 1.92 20.77 20.77 0 0 1-9.28-39.36A131 131 0 0 1 2210 493c38.36 0 75.81 13.4 75.81 64.92zm-57.61 51.52v-8.64c-3.84-5.44-13.76-8.32-22.72-8.32-9.6 0-20.16 3.2-20.16 12.8s10.56 12.48 20.16 12.48c8.96 0 18.88-2.88 22.72-8.32zM2421.16 629.6c0 11.84-8.64 21.12-19.52 23.68a83.63 83.63 0 0 1-18.88 1.92c-34.24 0-53.12-16.32-53.12-48.64v-59.84h-3.84a25 25 0 0 1 0-49.93h3.84v-16.64a28.8 28.8 0 1 1 57.6 0v16.64h9.6a25 25 0 0 1 0 49.93h-9.6v43.2c0 7.68 4.48 13.76 11.52 14.4l2.88.32c11.84 1.28 19.52 12.48 19.52 24.96z"/><path class="cls-2" d="M2544 521.76a25 25 0 0 1-25 25h-9.6v79a28.8 28.8 0 0 1-57.6 0v-79h-3.8a25 25 0 1 1 0-49.93h3.84v-7c0-32 24.64-55 58.88-55a84.75 84.75 0 0 1 18.56 1.92c9.28 1.92 17 9.6 17 19.84a21.1 21.1 0 0 1-21.44 20.8h-.64c-8.64 0-14.72 5.44-14.72 14.4v5.12h9.6a25 25 0 0 1 24.92 24.85zM2548.19 573.92c0-43.2 32-81 86.72-81 55 0 87 37.76 87 81s-32 81.28-87 81.28c-54.72 0-86.72-38.08-86.72-81.28zm114.56 0c0-17-9.92-30.08-27.84-30.08-17.6 0-27.52 13.12-27.52 30.08 0 17.28 9.92 30.4 27.52 30.4 17.92 0 27.84-13.12 27.84-30.4zM2853.15 517.92c0 14.72-7.36 27.2-24 29.12-8 1-21.76 2.56-28.16 10.24v68.48a28.8 28.8 0 1 1-57.6 0V523.68c0-16.64 12.16-30.09 28.8-30.09 13.76 0 25.28 8.33 28.8 20.81 2.88-6.4 7.68-13.44 15-17.61a27.08 27.08 0 0 1 12.48-3.52 24.46 24.46 0 0 1 24.68 24.65zM3123.23 539.36v86.4a28.8 28.8 0 0 1-57.6 0v-64.64c0-9.28-4.8-17.28-17.6-17.28s-19.84 7.68-23.68 12.16v69.76a28.8 28.8 0 1 1-57.6 0v-64.64c0-9.28-4.48-17.28-17.6-17.28-12.48 0-19.52 7.68-23.36 12.16v69.76a28.8 28.8 0 0 1-57.6 0V522.4c0-16.65 12.16-30.09 28.8-30.09a29.86 29.86 0 0 1 28.8 22.09c6.72-8.65 26.21-21.4 51.21-21.4 21.76 0 37.44 8 44.48 27.2 9-13.45 29.12-27.2 54.08-27.2 28.44 0 47.67 14.36 47.67 46.36zM3147.55 621.92a22.81 22.81 0 0 1 22.72-22.72 23.56 23.56 0 0 1 9.6 2.24c13.76 6.4 29.44 10.88 41 10.88 11.84 0 15.36-3.2 15.36-7.36 0-5.12-7-7-21.76-9-25.92-3.52-65.93-8.32-65.93-50.24 0-27.84 24.32-52.8 69.13-52.8a120.42 120.42 0 0 1 49.28 10.55 21 21 0 0 1-8.32 40.33 20.44 20.44 0 0 1-9-1.92 72.25 72.25 0 0 0-31.68-7.68c-8.32 0-14.4 2.24-14.4 6.72s4.48 6.4 19.84 8.64c25.92 3.84 67.84 9.28 67.84 52.48 0 30.72-27.52 53.12-73.28 53.12a137.17 137.17 0 0 1-57-12.48 23.14 23.14 0 0 1-13.4-20.76zM3497.62 521.76a25 25 0 0 1-25 25h-9.6v79a28.8 28.8 0 1 1-57.6 0v-79h-3.84a25 25 0 0 1 0-49.93h3.84v-7c0-32 24.64-55 58.88-55a84.75 84.75 0 0 1 18.56 1.92c9.28 1.92 17 9.6 17 19.84a21.1 21.1 0 0 1-21.44 20.8h-.64c-8.64 0-14.72 5.44-14.72 14.4v5.12h9.6a25 25 0 0 1 24.96 24.85zM3501.77 573.92c0-43.2 32-81 86.73-81 55 0 87 37.76 87 81s-32 81.28-87 81.28c-54.73 0-86.73-38.08-86.73-81.28zm114.57 0c0-17-9.92-30.08-27.84-30.08-17.61 0-27.52 13.12-27.52 30.08 0 17.28 9.91 30.4 27.52 30.4 17.92 0 27.84-13.12 27.84-30.4zM3806.73 517.92c0 14.72-7.35 27.2-24 29.12-8 1-21.75 2.56-28.16 10.24v68.48a28.8 28.8 0 0 1-57.6 0V523.68c0-16.64 12.16-30.09 28.8-30.09 13.76 0 25.29 8.33 28.8 20.81 2.88-6.4 7.68-13.44 15-17.61a27.08 27.08 0 0 1 12.48-3.52 24.45 24.45 0 0 1 24.68 24.65zM4086.09 487.83l-60.48 78.41v56a32.32 32.32 0 0 1-64.64 0v-56l-60.48-78.41c-6.4-8-8.32-14.4-8.32-21.44a31.68 31.68 0 0 1 31.36-31.68 30.5 30.5 0 0 1 25.28 12.8l44.48 63.69 44.48-63.69a30.5 30.5 0 0 1 25.28-12.8 31.68 31.68 0 0 1 31.36 31.68c0 7.04-1.92 13.44-8.32 21.44zM4072.65 573.92c0-43.2 32-81 86.72-81 55 0 87 37.76 87 81s-32 81.28-87 81.28c-54.72 0-86.72-38.08-86.72-81.28zm114.56 0c0-17-9.92-30.08-27.84-30.08-17.6 0-27.52 13.12-27.52 30.08 0 17.28 9.92 30.4 27.52 30.4 17.92 0 27.84-13.12 27.84-30.4zM4429.77 522.4v103.36c0 16.64-12.16 30.08-28.8 30.08a29.58 29.58 0 0 1-28.8-21.76c-9 9.92-25.92 21.12-53.12 21.12-35.84 0-51.2-21.44-51.2-48v-84.8a28.8 28.8 0 1 1 57.6 0v60.16c0 15.68 8.32 21.76 22.4 21.76 12.8 0 19.52-6.72 24.32-12.16V522.4a28.8 28.8 0 1 1 57.6 0z"/></g></g></svg>