<svg xmlns="http://www.w3.org/2000/svg" viewBox="0 0 3391.02 400.32"><defs><style>.cls-2{fill:#fde23e;stroke:#1b1950;stroke-width:1.6px}</style><filter id="filter"><feOffset dx="-7" dy="8"/><feGaussianBlur result="blur"/><feFlood flood-color="#081742"/><feComposite operator="in" in2="blur"/><feComposite in="SourceGraphic"/></filter></defs><g id="Layer_2" data-name="Layer 2"><g filter="url(#filter)" id="Layer_1-2" data-name="Layer 1"><path class="cls-2" d="M28 228.32a29.23 29.23 0 0 1 29.12-29.12 28.05 28.05 0 0 1 14.72 3.8 97.6 97.6 0 0 0 50.24 13.76c12.16 0 23.68-4.16 23.68-12.48s-9-12.48-30.08-16.32c-35.2-6.4-89-14.72-89-68.17 0-36.16 30.08-69.12 91.84-69.12 22.72 0 47.36 4.48 66.56 13.12a28.8 28.8 0 0 1-11.84 55.05 33.64 33.64 0 0 1-12.8-2.57c-18.88-7.36-33.6-11.2-45.44-11.2-19.2 0-22.72 5.77-22.72 11.2 0 8.33 8.64 11.21 31.36 15.05C158.88 137.44 211 147.68 211 197c0 47-34.88 74.24-92.16 74.24-31 0-55-6.08-75.52-17.28A28.88 28.88 0 0 1 28 228.32zM361.12 241.44L343.52 181l-17.6 60.48a40.52 40.52 0 0 1-77.77 0l-27.84-96a30.46 30.46 0 0 1-1-8 28.08 28.08 0 0 1 55.36-6.4l16 66.88 20.8-65a33.74 33.74 0 0 1 64.32.32l20.48 64.64 16-66.88a28.26 28.26 0 0 1 55.73 6.72 29.66 29.66 0 0 1-1.28 7.68l-27.52 96a40.73 40.73 0 0 1-78.08 0zM485 66.07a32.32 32.32 0 1 1 32.32 32.32A32.23 32.23 0 0 1 485 66.07zm3.52 175.69V138.4a28.8 28.8 0 1 1 57.6 0v103.36a28.8 28.8 0 0 1-57.6 0zM681.43 245.6c0 11.84-8.64 21.12-19.52 23.68A83.63 83.63 0 0 1 643 271.2c-34.24 0-53.12-16.32-53.12-48.64v-59.84h-3.84a25 25 0 0 1 0-49.93h3.84V96.15a28.8 28.8 0 1 1 57.6 0v16.64h9.6a25 25 0 0 1 0 49.93h-9.6v43.2c0 7.68 4.48 13.76 11.52 14.4l2.88.32c11.87 1.28 19.55 12.48 19.55 24.96zM776.47 109c17.28 0 31.36 3.84 42.24 9.61 8.32 4.48 14.08 12.8 14.08 22.72a25.68 25.68 0 0 1-25.6 25.6 23.42 23.42 0 0 1-12.48-3.2 31.62 31.62 0 0 0-15.71-3.89c-16.32 0-30.4 10.24-30.4 30.08s14.08 30.4 30.4 30.4a30.41 30.41 0 0 0 15.36-3.84 27 27 0 0 1 12.51-3.48 25.81 25.81 0 0 1 11.84 48.64c-10.88 5.76-25 9.6-42.24 9.6-49 0-86.72-32-86.72-81.28 0-48.96 37.76-80.96 86.72-80.96zM959.51 241.76v-60.48c0-16-8.64-21.44-22.4-21.44-13.12 0-19.84 6.72-24.64 12.16v69.76a28.8 28.8 0 0 1-57.6 0V79.51a28.8 28.8 0 0 1 57.6 0v50.89c9-10.24 25.92-21.45 53.12-21.45 35.84 0 51.52 21.13 51.52 48v84.8a28.8 28.8 0 0 1-57.6 0zM1045.58 66.07a32.32 32.32 0 1 1 32.32 32.32 32.23 32.23 0 0 1-32.32-32.32zm3.52 175.69V138.4a28.8 28.8 0 1 1 57.6 0v103.36a28.8 28.8 0 1 1-57.6 0zM1300.94 157.6v84.16a28.8 28.8 0 1 1-57.6 0v-59.84c0-16-8.64-22.08-22.4-22.08-13.12 0-19.84 6.72-24.64 12.16v69.76a28.8 28.8 0 0 1-57.6 0V138.4c0-16.65 12.16-30.09 28.8-30.09a29.3 29.3 0 0 1 28.8 22.09c9-10.24 25.92-21.45 53.12-21.45 35.84.05 51.52 21.77 51.52 48.65zM1491.34 138.4v112.32c0 66.88-55 79.36-93.44 79.36a118.58 118.58 0 0 1-51.52-11.2 24 24 0 0 1-13.44-21.12 23.63 23.63 0 0 1 23.68-23.68 21.44 21.44 0 0 1 9.92 2.24 73.89 73.89 0 0 0 31.36 6.68c13.44 0 35.84-5.12 35.84-32.32v-8.28c-13.12 15-27.52 20.8-43.52 20.8-37.12 0-67.84-24.32-67.84-77.12 0-51.52 29.76-77.13 67.84-77.13 16 0 31 5.45 43.52 20.17 3.2-11.53 16-19.53 28.8-19.53a28.89 28.89 0 0 1 28.8 28.81zm-57.6 64v-32.64c-5.44-6.4-16.32-9.92-23.68-9.92-15.68 0-28.8 7.36-28.8 26.24s13.12 26.24 28.8 26.24c7.36 0 18.24-3.52 23.68-9.92zM1751.81 173.92v65.92c0 17-11.84 30.72-28.8 30.72a30.92 30.92 0 0 1-28.48-18.56c-8.32 11.2-27.52 19.2-47 19.2-23 0-53.12-15.68-53.12-50.88 0-38.4 30.08-47.68 53.12-47.68 20.16 0 38.4 6.4 46.72 17V172c0-10.88-9.92-19.2-28.8-19.2-9.28 0-19.2 2.24-29.44 7a18.67 18.67 0 0 1-8.32 1.92 20.77 20.77 0 0 1-9.28-39.36A131.06 131.06 0 0 1 1676 109c38.37 0 75.81 13.4 75.81 64.92zm-57.6 51.52v-8.64c-3.84-5.44-13.76-8.32-22.72-8.32-9.6 0-20.16 3.2-20.16 12.8s10.56 12.48 20.16 12.48c8.96 0 18.88-2.88 22.72-8.32zM1942.53 79.51v162.25c0 16.64-12.16 30.4-28.8 30.4-13.12 0-24.64-9-28.8-21.12-13.12 14.72-27.84 20.16-43.52 20.16-37.44 0-68.16-28.16-68.16-81.28 0-51.2 30.08-81 68.16-81 15.68 0 31.36 5.45 43.52 20.17V79.51a28.8 28.8 0 1 1 57.6 0zm-57.6 130.25v-39.68c-5.44-6.72-16.32-10.24-24-10.24-15.68 0-28.8 10.88-28.8 30.08s13.12 30.4 28.8 30.4c7.68 0 18.56-3.84 24-10.56zM2203 173.92v65.92c0 17-11.85 30.72-28.8 30.72a30.91 30.91 0 0 1-28.47-18.56c-8.33 11.2-27.53 19.2-47.05 19.2-23 0-53.12-15.68-53.12-50.88 0-38.4 30.08-47.68 53.12-47.68 20.16 0 38.4 6.4 46.72 17V172c0-10.88-9.92-19.2-28.8-19.2-9.28 0-19.2 2.24-29.44 7a18.67 18.67 0 0 1-8.32 1.92 20.77 20.77 0 0 1-9.28-39.36 131.06 131.06 0 0 1 57.6-13.45c38.4.09 75.84 13.49 75.84 65.01zm-57.61 51.52v-8.64c-3.84-5.44-13.76-8.32-22.72-8.32-9.6 0-20.16 3.2-20.16 12.8s10.56 12.48 20.16 12.48c8.97 0 18.89-2.88 22.73-8.32zM2311.16 109c17.28 0 31.36 3.84 42.24 9.61 8.32 4.48 14.08 12.8 14.08 22.72a25.68 25.68 0 0 1-25.6 25.6 23.42 23.42 0 0 1-12.48-3.2 31.62 31.62 0 0 0-15.68-3.84c-16.32 0-30.4 10.24-30.4 30.08s14.08 30.4 30.4 30.4a30.41 30.41 0 0 0 15.36-3.84 27 27 0 0 1 12.48-3.52 25.81 25.81 0 0 1 11.84 48.64c-10.88 5.76-25 9.6-42.24 9.6-49 0-86.72-32-86.72-81.28 0-48.97 37.76-80.97 86.72-80.97zM2465.4 109c17.28 0 31.36 3.84 42.24 9.61 8.32 4.48 14.08 12.8 14.08 22.72a25.68 25.68 0 0 1-25.6 25.6 23.42 23.42 0 0 1-12.48-3.2 31.62 31.62 0 0 0-15.68-3.84c-16.32 0-30.4 10.24-30.4 30.08s14.08 30.4 30.4 30.4a30.41 30.41 0 0 0 15.36-3.84 27 27 0 0 1 12.48-3.53 25.81 25.81 0 0 1 11.84 48.64c-10.88 5.76-25 9.6-42.24 9.6-49 0-86.72-32-86.72-81.28 0-48.96 37.76-80.96 86.72-80.96zM2532.92 189.92c0-43.2 32-81 86.72-81 55 0 87 37.77 87 81s-32 81.28-87 81.28c-54.72 0-86.72-38.08-86.72-81.28zm114.56 0c0-17-9.92-30.08-27.84-30.08-17.6 0-27.52 13.12-27.52 30.08 0 17.28 9.92 30.4 27.52 30.4 17.92 0 27.84-13.12 27.84-30.4zM2890 138.4v103.36c0 16.64-12.16 30.08-28.8 30.08a29.58 29.58 0 0 1-28.8-21.76c-9 9.92-25.92 21.12-53.13 21.12-35.83 0-51.2-21.44-51.2-48v-84.8a28.81 28.81 0 1 1 57.61 0v60.16c0 15.68 8.32 21.76 22.4 21.76 12.8 0 19.52-6.72 24.32-12.16V138.4a28.8 28.8 0 1 1 57.6 0zM3084.27 157.6v84.16a28.8 28.8 0 0 1-57.6 0v-59.84c0-16-8.64-22.08-22.4-22.08-13.12 0-19.84 6.72-24.64 12.16v69.76a28.8 28.8 0 0 1-57.6 0V138.4c0-16.65 12.16-30.09 28.8-30.09a29.3 29.3 0 0 1 28.8 22.09c9-10.24 25.92-21.45 53.12-21.45 35.84.05 51.52 21.77 51.52 48.65zM3219.63 245.6c0 11.84-8.64 21.12-19.52 23.68a83.63 83.63 0 0 1-18.88 1.92c-34.24 0-53.12-16.32-53.12-48.64v-59.84h-3.84a25 25 0 0 1 0-49.93h3.84V96.15a28.8 28.8 0 0 1 57.6 0v16.64h9.6a25 25 0 0 1 0 49.93h-9.6v43.2c0 7.68 4.48 13.76 11.52 14.4l2.88.32c11.89 1.28 19.52 12.48 19.52 24.96zM3230.82 237.92a22.81 22.81 0 0 1 22.73-22.72 23.47 23.47 0 0 1 9.59 2.24c13.77 6.4 29.45 10.88 41 10.88 11.84 0 15.36-3.2 15.36-7.36 0-5.12-7-7-21.76-9-25.92-3.52-65.92-8.32-65.92-50.24 0-27.84 24.32-52.81 69.12-52.81a120.28 120.28 0 0 1 49.28 10.57 21 21 0 0 1-8.32 40.32 20.44 20.44 0 0 1-9-1.92 72.25 72.25 0 0 0-31.68-7.68c-8.32 0-14.4 2.24-14.4 6.72s4.48 6.4 19.84 8.64c25.92 3.84 67.84 9.28 67.84 52.48 0 30.72-27.52 53.12-73.28 53.12a137.09 137.09 0 0 1-57-12.48 23.13 23.13 0 0 1-13.4-20.76z"/></g></g></svg>