<svg xmlns="http://www.w3.org/2000/svg" viewBox="0 0 2969.85 400.32"><defs><style>.cls-2{fill:#f66271;stroke:#1b1950;stroke-width:1.6px}</style><filter id="filter"><feOffset dx="-7" dy="8"/><feGaussianBlur result="blur"/><feFlood flood-color="#081742"/><feComposite operator="in" in2="blur"/><feComposite in="SourceGraphic"/></filter></defs><g id="Layer_2" data-name="Layer 2"><g filter="url(#filter)" id="Layer_1-2" data-name="Layer 1"><path class="cls-2" d="M181.24 237.28l-20.8-90.88-20.8 90.88a42.65 42.65 0 0 1-82.56 2.56L15.48 93.92a31 31 0 0 1-1.28-9.29 34 34 0 0 1 67.2-7l22.4 106.89 27.52-111a30 30 0 0 1 58.24 0l27.53 111 22.08-106.61a34.11 34.11 0 0 1 67.52 6.72 33 33 0 0 1-1.28 9.6l-41.6 145.61a42.66 42.66 0 0 1-82.57-2.56zM434 241.76v-60.48c0-16-8.64-21.44-22.4-21.44-13.12 0-19.84 6.72-24.64 12.16v69.76a28.8 28.8 0 0 1-57.6 0V79.51a28.8 28.8 0 0 1 57.6 0v50.89c9-10.24 25.92-21.44 53.12-21.44 35.84 0 51.52 21.12 51.52 48v84.8a28.8 28.8 0 0 1-57.6 0zM670.52 173.92v65.92c0 17-11.84 30.72-28.8 30.72A30.92 30.92 0 0 1 613.24 252c-8.32 11.2-27.52 19.2-47 19.2-23 0-53.13-15.68-53.13-50.88 0-38.4 30.09-47.68 53.13-47.68 20.16 0 38.4 6.4 46.72 17V172c0-10.88-9.92-19.2-28.8-19.2-9.28 0-19.2 2.24-29.44 7a18.67 18.67 0 0 1-8.32 1.92 20.77 20.77 0 0 1-9.28-39.36A131 131 0 0 1 594.68 109c38.4 0 75.84 13.4 75.84 64.92zm-57.6 51.52v-8.64c-3.84-5.44-13.76-8.32-22.72-8.32-9.6 0-20.16 3.2-20.16 12.8s10.56 12.48 20.16 12.48c8.96 0 18.88-2.88 22.72-8.32zM805.87 245.6c0 11.84-8.64 21.12-19.52 23.68a83.63 83.63 0 0 1-18.88 1.92c-34.24 0-53.12-16.32-53.12-48.64v-59.84h-3.84a25 25 0 0 1 0-49.93h3.84V96.15a28.8 28.8 0 0 1 57.6 0v16.64h9.6a25 25 0 0 1 0 49.93H772v43.2c0 7.68 4.48 13.76 11.52 14.4l2.88.32c11.79 1.28 19.47 12.48 19.47 24.96zM898.66 237.92a22.81 22.81 0 0 1 22.73-22.72 23.51 23.51 0 0 1 9.59 2.24c13.77 6.4 29.45 10.88 41 10.88 11.84 0 15.36-3.2 15.36-7.36 0-5.12-7-7-21.76-9-25.92-3.52-65.93-8.32-65.93-50.24 0-27.84 24.32-52.8 69.13-52.8a120.27 120.27 0 0 1 49.22 10.6 21 21 0 0 1-8.32 40.32 20.44 20.44 0 0 1-9-1.92 72.25 72.25 0 0 0-31.68-7.68c-8.32 0-14.4 2.24-14.4 6.72s4.48 6.4 19.84 8.64c25.92 3.84 67.84 9.28 67.84 52.48 0 30.72-27.52 53.12-73.28 53.12a137.13 137.13 0 0 1-57-12.48 23.13 23.13 0 0 1-13.34-20.8zM1136.74 109c45.44 0 80.32 32.64 80.32 70.72 0 21.76-12.16 28.16-34.24 28.16h-70.72c3.2 9.92 14.4 19.52 33.92 19.52a62.44 62.44 0 0 0 22.72-4.48 21 21 0 0 1 8-1.6A21.78 21.78 0 0 1 1198.5 243c0 9-6.08 17-14.08 20.16a135.21 135.21 0 0 1-45.76 8c-48.32 0-86.08-30.4-86.08-81.28 0-44.76 34.24-80.88 84.16-80.88zm-25.28 62.4h50.88c-1.6-6.72-7-18.56-25.6-18.56-17.6-.04-23.36 11.48-25.28 18.52zM1340.26 245.6c0 11.84-8.64 21.12-19.52 23.68a83.63 83.63 0 0 1-18.88 1.92c-34.24 0-53.12-16.32-53.12-48.64v-59.84h-3.84a25 25 0 0 1 0-49.93h3.84V96.15a28.8 28.8 0 0 1 57.6 0v16.64h9.6a25 25 0 0 1 0 49.93h-9.6v43.2c0 7.68 4.48 13.76 11.52 14.4l2.88.32c11.84 1.28 19.52 12.48 19.52 24.96zM1351.46 237.92a22.81 22.81 0 0 1 22.72-22.72 23.52 23.52 0 0 1 9.6 2.24c13.76 6.4 29.44 10.88 41 10.88 11.84 0 15.36-3.2 15.36-7.36 0-5.12-7-7-21.76-9-25.92-3.52-65.92-8.32-65.92-50.24 0-27.84 24.32-52.8 69.12-52.8a120.27 120.27 0 0 1 49.28 10.56 21 21 0 0 1-8.32 40.32 20.44 20.44 0 0 1-9-1.92 72.25 72.25 0 0 0-31.68-7.68c-8.32 0-14.4 2.24-14.4 6.72s4.48 6.4 19.84 8.64c25.92 3.84 67.84 9.28 67.84 52.48 0 30.72-27.52 53.12-73.28 53.12a137.09 137.09 0 0 1-57-12.48 23.13 23.13 0 0 1-13.4-20.76zM1759.45 138.4v103.36c0 16.64-12.16 30.08-28.8 30.08a29.58 29.58 0 0 1-28.8-21.76c-9 9.92-25.92 21.12-53.12 21.12-35.84 0-51.2-21.44-51.2-48v-84.8a28.8 28.8 0 1 1 57.6 0v60.16c0 15.68 8.32 21.76 22.4 21.76 12.8 0 19.52-6.72 24.32-12.16V138.4a28.8 28.8 0 1 1 57.6 0zM1783.77 237.92a22.81 22.81 0 0 1 22.72-22.72 23.52 23.52 0 0 1 9.6 2.24c13.76 6.4 29.44 10.88 41 10.88 11.84 0 15.36-3.2 15.36-7.36 0-5.12-7-7-21.76-9-25.92-3.52-65.92-8.32-65.92-50.24 0-27.84 24.32-52.8 69.12-52.8a120.27 120.27 0 0 1 49.28 10.56 21 21 0 0 1-8.32 40.32 20.44 20.44 0 0 1-9-1.92 72.25 72.25 0 0 0-31.68-7.68c-8.32 0-14.4 2.24-14.4 6.72s4.48 6.4 19.84 8.64c25.92 3.84 67.84 9.28 67.84 52.48 0 30.72-27.52 53.12-73.28 53.12a137.09 137.09 0 0 1-57-12.48 23.13 23.13 0 0 1-13.4-20.76zM2176.72 173.92v65.92c0 17-11.84 30.72-28.8 30.72a30.92 30.92 0 0 1-28.48-18.56c-8.32 11.2-27.52 19.2-47 19.2-23 0-53.12-15.68-53.12-50.88 0-38.4 30.08-47.68 53.12-47.68 20.16 0 38.4 6.4 46.72 17V172c0-10.88-9.92-19.2-28.8-19.2-9.28 0-19.2 2.24-29.44 7a18.67 18.67 0 0 1-8.32 1.92 20.77 20.77 0 0 1-9.28-39.36 131 131 0 0 1 57.6-13.44c38.36.08 75.8 13.48 75.8 65zm-57.6 51.52v-8.64c-3.84-5.44-13.76-8.32-22.72-8.32-9.6 0-20.16 3.2-20.16 12.8s10.56 12.48 20.16 12.48c8.96 0 18.88-2.88 22.72-8.32zM2377.68 189.92c0 53.12-29.44 81.28-67.84 81.28-16 0-30.72-5.44-43.52-20.16v49.6a28.8 28.8 0 0 1-57.6 0V138.4c0-16.65 12.16-30.4 28.8-30.4a30.36 30.36 0 0 1 28.8 21.12c12.48-14.72 27.52-20.16 43.52-20.16 38.4.04 67.84 28.16 67.84 80.96zm-58.88 0c0-19.2-13.44-30.08-28.8-30.08-7.36 0-18.24 3.84-23.68 10.56v39.36c5.12 6.4 16.32 10.56 23.68 10.56 15.36 0 28.8-10.88 28.8-30.4zM2546 173.92v65.92c0 17-11.84 30.72-28.8 30.72a30.92 30.92 0 0 1-28.48-18.56c-8.32 11.2-27.53 19.2-47 19.2-23 0-53.12-15.68-53.12-50.88 0-38.4 30.08-47.68 53.12-47.68 20.16 0 38.4 6.4 46.73 17V172c0-10.88-9.92-19.2-28.81-19.2-9.28 0-19.2 2.24-29.44 7a18.67 18.67 0 0 1-8.32 1.92 20.77 20.77 0 0 1-9.28-39.36 131 131 0 0 1 57.6-13.44c38.36.08 75.8 13.48 75.8 65zm-57.6 51.52v-8.64c-3.84-5.44-13.76-8.32-22.73-8.32-9.6 0-20.16 3.2-20.16 12.8s10.56 12.48 20.16 12.48c8.97 0 18.89-2.88 22.73-8.32zM2687.75 133.92c0 14.72-7.36 27.2-24 29.12-8 1-21.76 2.56-28.16 10.24v68.48a28.8 28.8 0 0 1-57.6 0V139.68c0-16.64 12.16-30.09 28.8-30.09 13.76 0 25.28 8.33 28.8 20.81 2.88-6.4 7.68-13.44 15-17.61a27.08 27.08 0 0 1 12.48-3.51 24.45 24.45 0 0 1 24.68 24.64z"/><path class="cls-2" d="M2806.15 245.6c0 11.84-8.64 21.12-19.52 23.68a83.63 83.63 0 0 1-18.88 1.92c-34.24 0-53.12-16.32-53.12-48.64v-59.84h-3.84a25 25 0 0 1 0-49.93h3.84V96.15a28.8 28.8 0 0 1 57.6 0v16.64h9.6a25 25 0 0 1 0 49.93h-9.6v43.2c0 7.68 4.48 13.76 11.52 14.4l2.88.32c11.84 1.28 19.52 12.48 19.52 24.96zM2875.27 124.64c5.76-3.85 9.92-6.72 9.92-10.24 0-3.85-2.56-6.73-12.48-6.73-4.16 0-9 1.29-14.08 3.84-3.52 1.93-7.68 2.57-12.16 2.57a27.69 27.69 0 0 1-12.16-52.49 103.24 103.24 0 0 1 45.76-10.88c43.2 0 70.4 19.84 70.4 51.52 0 26.57-15.68 38.73-28.8 48.65-8.32 6.4-15.68 11.84-16.64 20.16v1.28c0 .64-.32 1.6-.32 2.24-3.2 11.52-15.36 20.48-28.16 20.48a27 27 0 0 1-27.2-25.28v-4.48c0-22.72 15.36-33.28 25.92-40.64zm6.72 78.08c18.56 0 34.24 15.68 34.24 34.24s-15.68 34.24-34.23 34.24-34.24-15.68-34.24-34.24 15.67-34.24 34.24-34.24z"/></g></g></svg>