<svg id="Layer_1" data-name="Layer 1" xmlns="http://www.w3.org/2000/svg" viewBox="0 0 1975.79 1080"><defs><style>.cls-1{fill:#081742}.cls-15,.cls-18,.cls-2,.cls-4{fill:none;stroke-miterlimit:10}.cls-2{stroke:#081742}.cls-2,.cls-4{stroke-width:2px}.cls-3{fill:#852798}.cls-15,.cls-18,.cls-4{stroke:#1d1853}.cls-14,.cls-19,.cls-5{fill:#fff}.cls-6{fill:#29b1d8}.cls-7{fill:#fde23e}.cls-8{fill:#f66271}.cls-10,.cls-13,.cls-14,.cls-19{font-size:24.61px}.cls-10,.cls-13{fill:#1d1853}.cls-10,.cls-19{font-family:ProximaSoft-Bold,Proxima Soft;font-weight:700}.cls-13,.cls-14{font-family:ProximaSoft-Regular,Proxima Soft}.cls-15,.cls-18{stroke-width:3px}.cls-18{stroke-linecap:round}</style></defs><rect class="cls-1" x="845.42" y="108.51" width="1025.78" height="879.62" rx="29.56"/><rect class="cls-2" x="845.42" y="108.51" width="1025.78" height="879.62" rx="29.56"/><rect class="cls-3" x="853.42" y="101.51" width="1025.78" height="879.62" rx="29.56"/><rect class="cls-4" x="853.42" y="101.51" width="1025.78" height="879.62" rx="29.56"/><rect class="cls-1" x="898.34" y="323.67" width="369.62" height="609.92" rx="20.95"/><rect class="cls-2" x="898.34" y="323.67" width="369.62" height="609.92" rx="20.95"/><rect class="cls-5" x="906.34" y="316.67" width="369.62" height="609.92" rx="20.95"/><rect class="cls-4" x="906.34" y="316.67" width="369.62" height="609.92" rx="20.95"/><rect class="cls-1" x="926.89" y="378.28" width="312.74" height="118.1" rx="14.96"/><rect class="cls-2" x="926.89" y="378.28" width="312.74" height="118.1" rx="14.96"/><rect class="cls-6" x="934.89" y="371.28" width="312.74" height="118.1" rx="14.96"/><rect class="cls-4" x="934.89" y="371.28" width="312.74" height="118.1" rx="14.96"/><rect class="cls-1" x="1219.85" y="187.18" width="268.81" height="70.45" rx="9.41"/><rect class="cls-2" x="1219.85" y="187.18" width="268.81" height="70.45" rx="9.41"/><rect class="cls-3" x="1227.85" y="180.18" width="268.81" height="70.45" rx="9.41"/><rect class="cls-4" x="1227.85" y="180.18" width="268.81" height="70.45" rx="9.41"/><rect class="cls-1" x="928.71" y="513.88" width="312.74" height="118.1" rx="14.96"/><rect class="cls-2" x="928.71" y="513.88" width="312.74" height="118.1" rx="14.96"/><rect class="cls-6" x="936.71" y="506.88" width="312.74" height="118.1" rx="14.96"/><rect class="cls-4" x="936.71" y="506.88" width="312.74" height="118.1" rx="14.96"/><rect class="cls-1" x="928.71" y="649.47" width="312.74" height="118.1" rx="14.96"/><rect class="cls-2" x="928.71" y="649.47" width="312.74" height="118.1" rx="14.96"/><rect class="cls-7" x="936.71" y="642.47" width="312.74" height="118.1" rx="14.96"/><rect class="cls-4" x="936.71" y="642.47" width="312.74" height="118.1" rx="14.96"/><rect class="cls-1" x="928.71" y="785.07" width="312.74" height="118.1" rx="14.96"/><rect class="cls-2" x="928.71" y="785.07" width="312.74" height="118.1" rx="14.96"/><rect class="cls-8" x="936.71" y="778.07" width="312.74" height="118.1" rx="14.96"/><rect x="936.71" y="778.07" width="312.74" height="118.1" rx="14.96" stroke="#26245e" stroke-width="2" fill="none" stroke-miterlimit="10"/><rect class="cls-1" x="966.92" y="293.99" width="237.32" height="60.33" rx="30.17"/><rect class="cls-2" x="966.92" y="293.99" width="237.32" height="60.33" rx="30.17"/><rect class="cls-5" x="974.92" y="286.99" width="237.32" height="60.33" rx="30.17"/><rect class="cls-4" x="974.92" y="286.99" width="237.32" height="60.33" rx="30.17"/><rect class="cls-1" x="1212.84" y="76.43" width="282.84" height="60.33" rx="30.17"/><rect class="cls-2" x="1212.84" y="76.43" width="282.84" height="60.33" rx="30.17"/><rect class="cls-5" x="1220.84" y="69.43" width="282.84" height="60.33" rx="30.17"/><rect class="cls-4" x="1220.84" y="69.43" width="282.84" height="60.33" rx="30.17"/><text class="cls-10" transform="translate(1023.07 325.12)">Ad Accounts</text><text class="cls-10" transform="translate(1251.06 106.6)">Smartl<tspan x="72.49" y="0" letter-spacing="-.05em">y</tspan><tspan x="83.71" y="0">.io </tspan><tspan x="116.66" y="0" letter-spacing="-.02em">C</tspan><tspan x="132.75" y="0">ompany</tspan></text><text class="cls-13" transform="translate(983.67 438.94)">Meta Ad Account #1</text><text class="cls-14" transform="translate(1294.28 222)">Example Inc.</text><text class="cls-13" transform="translate(983.67 573.69)">Meta Ad Account #2</text><text class="cls-13" transform="translate(963.98 708.44)">Snapchat Ad Account #1</text><text class="cls-14" transform="translate(963.98 843.19)">Pinterest Ad Account #1</text><rect class="cls-1" x="1454.93" y="335.68" width="369.69" height="469.14" rx="19"/><rect class="cls-2" x="1454.93" y="335.68" width="369.69" height="469.14" rx="19"/><rect class="cls-5" x="1462.93" y="328.68" width="369.69" height="469.14" rx="19"/><rect class="cls-4" x="1462.93" y="328.68" width="369.69" height="469.14" rx="19"/><rect class="cls-1" x="1485.8" y="520.41" width="312.74" height="118.1" rx="17.88"/><rect class="cls-2" x="1485.8" y="520.41" width="312.74" height="118.1" rx="17.88"/><rect class="cls-3" x="1493.8" y="513.41" width="312.74" height="118.1" rx="17.88"/><rect class="cls-4" x="1493.8" y="513.41" width="312.74" height="118.1" rx="17.88"/><rect class="cls-1" x="1485.8" y="379.87" width="312.74" height="118.1" rx="17.88"/><rect class="cls-2" x="1485.8" y="379.87" width="312.74" height="118.1" rx="17.88"/><rect class="cls-3" x="1493.8" y="372.87" width="312.74" height="118.1" rx="17.88"/><rect class="cls-4" x="1493.8" y="372.87" width="312.74" height="118.1" rx="17.88"/><rect class="cls-1" x="1485.8" y="655.54" width="312.74" height="118.1" rx="17.88"/><rect class="cls-2" x="1485.8" y="655.54" width="312.74" height="118.1" rx="17.88"/><rect class="cls-3" x="1493.8" y="648.54" width="312.74" height="118.1" rx="17.88"/><rect class="cls-4" x="1493.8" y="648.54" width="312.74" height="118.1" rx="17.88"/><path class="cls-15" d="M1248.9 563.07h42.1a39 39 0 0 1 39 38.93v64.18a44.36 44.36 0 0 0 44.46 44.28h119M1247.62 430.12H1290a39.06 39.06 0 0 1 39.24 38.88v64.14c0 24.44 20 44.25 44.73 44.25h119.7"/><rect class="cls-1" x="1524.01" y="300.82" width="237.32" height="60.33" rx="30.17"/><rect class="cls-2" x="1524.01" y="300.82" width="237.32" height="60.33" rx="30.17"/><rect class="cls-5" x="1532.01" y="293.82" width="237.32" height="60.33" rx="30.17"/><rect class="cls-4" x="1532.01" y="293.82" width="237.32" height="60.33" rx="30.17"/><text class="cls-10" transform="translate(1568.17 331.95)">Asset Libraries</text><path class="cls-5" d="M1559.72 568.1v-12.75l-5.43 13.34a.58.58 0 0 1-.57.42.6.6 0 0 1-.57-.42l-5.41-13.34v12.75a1 1 0 0 1-1 1 1 1 0 0 1-1-1v-13.89a1.73 1.73 0 0 1 1.72-1.72 1.69 1.69 0 0 1 1.6 1.09l4.7 11.59 4.72-11.59a1.7 1.7 0 0 1 1.6-1.09 1.73 1.73 0 0 1 1.73 1.72v13.89a1 1 0 0 1-2 0zM1570.7 556.82a5.64 5.64 0 0 1 5.71 5.91c0 .59-.4.94-1.09.94h-8.54a4.2 4.2 0 0 0 4.29 4.11 5.11 5.11 0 0 0 3.19-1.14.88.88 0 0 1 .42-.09.75.75 0 0 1 .77.73.8.8 0 0 1-.32.62 6.76 6.76 0 0 1-4.24 1.4 6.25 6.25 0 0 1-.19-12.48zm-3.92 5.49h7.8a3.84 3.84 0 0 0-3.91-4 4 4 0 0 0-3.89 4zM1584.53 568.22a.71.71 0 0 1-.47.69 3.26 3.26 0 0 1-1.68.39c-1.74 0-2.63-1-2.63-2.78v-7.78h-1.25a.81.81 0 1 1 0-1.62h1.25v-2.44a.93.93 0 0 1 1.85 0v2.44h1.69a.81.81 0 1 1 0 1.62h-1.69v7.39c0 .88.39 1.52 1.2 1.52.52 0 .69-.22.94-.22a.75.75 0 0 1 .79.79zM1595.89 560.84v7.35a.92.92 0 1 1-1.84 0v-.54a5 5 0 0 1-3.94 1.65 4 4 0 0 1-4.16-3.94 3.89 3.89 0 0 1 4.16-3.91 5 5 0 0 1 3.94 1.63v-2.15c0-1.6-1.28-2.51-3-2.51a4.43 4.43 0 0 0-3.11 1.18.89.89 0 0 1-.49.15.76.76 0 0 1-.76-.76.83.83 0 0 1 .32-.62 6.18 6.18 0 0 1 4.28-1.55c2.51 0 4.6 1.18 4.6 4.02zm-1.84 5.66v-2.24a4 4 0 0 0-3.27-1.48 2.61 2.61 0 1 0 0 5.19 4 4 0 0 0 3.27-1.47zM1619.59 568.05a1 1 0 0 1-1 1.06 1.07 1.07 0 0 1-1-.67l-1.18-3.08H1608l-1.18 3.08a1 1 0 0 1-1 .67 1.05 1.05 0 0 1-1.06-1 1.49 1.49 0 0 1 .1-.42l5.66-14a1.8 1.8 0 0 1 1.67-1.13 1.74 1.74 0 0 1 1.65 1.13l5.69 14a2.79 2.79 0 0 1 .06.36zm-3.89-4.51l-3.52-9.13-3.52 9.13zM1632.58 553.4v14.79a.92.92 0 1 1-1.84 0v-1a5 5 0 0 1-4 2.07c-3.1 0-5.29-2.36-5.29-6.22s2.17-6.26 5.29-6.26a5 5 0 0 1 4 2.12v-5.5a.92.92 0 0 1 1.84 0zm-1.84 12.38v-5.39a4.49 4.49 0 0 0-3.57-1.92c-2.39 0-3.82 2-3.82 4.61s1.43 4.57 3.82 4.57a4.42 4.42 0 0 0 3.57-1.87zM1656.28 568.05a1 1 0 0 1-1 1.06 1.06 1.06 0 0 1-1-.67l-1.18-3.08h-8.44l-1.18 3.08a1 1 0 0 1-1 .67 1.05 1.05 0 0 1-1.06-1 1.49 1.49 0 0 1 .1-.42l5.66-14a1.8 1.8 0 0 1 1.67-1.13 1.76 1.76 0 0 1 1.65 1.13l5.69 14a2.79 2.79 0 0 1 .09.36zm-3.89-4.51l-3.52-9.13-3.52 9.13zM1664.05 556.82a5.12 5.12 0 0 1 3.82 1.48.89.89 0 0 1 .27.62.83.83 0 0 1-.84.83.79.79 0 0 1-.54-.22 3.46 3.46 0 0 0-2.61-1.06c-2.53 0-4.11 1.95-4.11 4.58s1.58 4.6 4.11 4.6a3.36 3.36 0 0 0 2.59-1.06.79.79 0 0 1 .56-.22.83.83 0 0 1 .84.84.85.85 0 0 1-.27.62 5.12 5.12 0 0 1-3.82 1.47c-3.54 0-5.93-2.71-5.93-6.25s2.39-6.23 5.93-6.23zM1676.23 556.82a5.12 5.12 0 0 1 3.82 1.48.89.89 0 0 1 .27.62.83.83 0 0 1-.84.83.79.79 0 0 1-.54-.22 3.46 3.46 0 0 0-2.61-1.06c-2.53 0-4.11 1.95-4.11 4.58s1.58 4.6 4.11 4.6a3.36 3.36 0 0 0 2.59-1.06.79.79 0 0 1 .56-.22.83.83 0 0 1 .84.84.85.85 0 0 1-.27.62 5.12 5.12 0 0 1-3.82 1.47c-3.54 0-5.93-2.71-5.93-6.25s2.39-6.23 5.93-6.23zM1682.48 563.05c0-3.45 2.27-6.23 5.88-6.23s5.89 2.78 5.89 6.23-2.27 6.25-5.89 6.25-5.88-2.8-5.88-6.25zm9.82 0c0-2.41-1.4-4.58-3.94-4.58s-4 2.17-4 4.58 1.43 4.6 4 4.6 3.94-2.16 3.94-4.6zM1707.12 557.93v10.26a.93.93 0 0 1-1.85 0v-.83a5.84 5.84 0 0 1-4.23 1.94c-2.49 0-3.79-1.2-3.79-3.79v-7.58a.92.92 0 0 1 1.84 0v7c0 2.09 1.06 2.7 2.66 2.7a4.55 4.55 0 0 0 3.52-1.79v-7.93a.93.93 0 0 1 1.85 0zM1720.67 560.66v7.53a.92.92 0 1 1-1.84 0v-7c0-2.09-1.06-2.76-2.66-2.76a4.6 4.6 0 0 0-3.52 1.85v7.87a.93.93 0 0 1-1.85 0v-10.22a.93.93 0 0 1 1.85 0v.94a5.75 5.75 0 0 1 4.23-2c2.49-.05 3.79 1.21 3.79 3.79zM1729.51 568.22a.71.71 0 0 1-.47.69 3.24 3.24 0 0 1-1.67.39c-1.75 0-2.64-1-2.64-2.78v-7.78h-1.25a.81.81 0 1 1 0-1.62h1.25v-2.44a.93.93 0 0 1 1.85 0v2.44h1.7a.81.81 0 1 1 0 1.62h-1.7v7.39c0 .88.39 1.52 1.2 1.52.52 0 .69-.22.94-.22a.75.75 0 0 1 .79.79zM1750 557.71a.66.66 0 0 1-.67.64h-2.29l-1.65 4.9h2a.65.65 0 0 1 .64.66.63.63 0 0 1-.64.64H1745l-1.37 4.06a.7.7 0 0 1-.67.5.71.71 0 0 1-.71-.69 1 1 0 0 1 0-.3l1.2-3.57h-2.73l-1.35 4.06a.72.72 0 0 1-.69.5.7.7 0 0 1-.71-.69 1 1 0 0 1 0-.27l1.21-3.6h-1.82a.65.65 0 0 1-.67-.64.66.66 0 0 1 .67-.66h2.26l1.63-4.9h-1.9a.64.64 0 0 1 0-1.28h2.34l1.35-4.09a.69.69 0 0 1 .69-.49.71.71 0 0 1 .72.69 1 1 0 0 1 0 .27l-1.21 3.62h2.76l1.33-4.09a.75.75 0 0 1 .69-.49.71.71 0 0 1 .72.69 1 1 0 0 1 0 .27l-1.21 3.62h1.87a.66.66 0 0 1 .6.64zm-4.46.64h-2.73l-1.63 4.9h2.69zM1755 568.1v-12.8l-2.09 2.21a.89.89 0 0 1-.62.27.89.89 0 0 1-.64-1.5l3.35-3.44a1.18 1.18 0 0 1 .83-.35 1.2 1.2 0 0 1 1.21 1.18v14.43a1 1 0 0 1-2 0zM1596.87 597.58a1 1 0 0 1-2 .39l-1.18-3.08h-8.44L1584 598a1 1 0 0 1-1 .66 1 1 0 0 1-1-1 1.49 1.49 0 0 1 .1-.42l5.66-14a1.8 1.8 0 0 1 1.67-1.13 1.76 1.76 0 0 1 1.65 1.13l5.68 14a1.77 1.77 0 0 1 .11.34zm-3.89-4.51l-3.52-9.13-3.52 9.13zM1598.56 596.76a.82.82 0 0 1 .82-.81.88.88 0 0 1 .49.15 5.33 5.33 0 0 0 3.37 1.23c1.82 0 2.8-.81 2.8-2s-1.45-1.72-3-2.12c-2-.46-4.3-1-4.3-3.47 0-1.84 1.6-3.42 4.43-3.42a6.09 6.09 0 0 1 3.93 1.31.77.77 0 0 1-.46 1.4.78.78 0 0 1-.45-.17 4.56 4.56 0 0 0-3-1c-1.63 0-2.64.74-2.64 1.8s1.36 1.53 2.91 1.89c2.06.47 4.45 1.06 4.45 3.7 0 2-1.6 3.59-4.67 3.59a6.53 6.53 0 0 1-4.26-1.4.81.81 0 0 1-.42-.68zM1610 596.76a.82.82 0 0 1 .82-.81.88.88 0 0 1 .49.15 5.33 5.33 0 0 0 3.37 1.23c1.82 0 2.81-.81 2.81-2s-1.46-1.72-3.06-2.12c-2-.46-4.3-1-4.3-3.47 0-1.84 1.6-3.42 4.43-3.42a6.1 6.1 0 0 1 3.94 1.31.84.84 0 0 1 .32.61.81.81 0 0 1-.79.79.78.78 0 0 1-.45-.17 4.56 4.56 0 0 0-3-1c-1.63 0-2.64.74-2.64 1.8s1.36 1.53 2.91 1.89c2.07.47 4.45 1.06 4.45 3.7 0 2-1.6 3.59-4.67 3.59a6.53 6.53 0 0 1-4.26-1.4.81.81 0 0 1-.37-.68zM1627.45 586.35a5.63 5.63 0 0 1 5.71 5.91c0 .59-.39.93-1.08.93h-8.54a4.19 4.19 0 0 0 4.28 4.11 5.1 5.1 0 0 0 3.2-1.13.84.84 0 0 1 .42-.1.74.74 0 0 1 .76.74.77.77 0 0 1-.32.62 6.73 6.73 0 0 1-4.23 1.4 6.25 6.25 0 0 1-.2-12.48zm-3.91 5.49h7.8a3.85 3.85 0 0 0-3.91-4 4 4 0 0 0-3.89 4zM1641.28 597.75a.7.7 0 0 1-.47.69 3.22 3.22 0 0 1-1.67.39c-1.75 0-2.63-1-2.63-2.78v-7.78h-1.26a.81.81 0 0 1 0-1.62h1.26v-2.44a.92.92 0 0 1 1.84 0v2.44h1.7a.81.81 0 1 1 0 1.62h-1.7v7.39c0 .88.4 1.52 1.21 1.52.52 0 .69-.22.93-.22a.75.75 0 0 1 .79.79zM1649.79 597.45V583a1 1 0 0 1 2 0v13.68h6.81a.92.92 0 1 1 0 1.83h-7.77a1 1 0 0 1-1.04-1.06zM1662 583a1.24 1.24 0 1 1 1.23 1.24A1.24 1.24 0 0 1 1662 583zm.32 14.72v-10.26a.93.93 0 0 1 .93-.91.92.92 0 0 1 .91.91v10.26a.92.92 0 0 1-1.84 0zM1679 592.6c0 3.87-2.19 6.23-5.29 6.23a5 5 0 0 1-4-2.07v1a.93.93 0 0 1-1.85 0v-14.83a.93.93 0 0 1 1.85 0v5.54a4.9 4.9 0 0 1 4-2.12c3.05 0 5.29 2.46 5.29 6.25zm-1.92 0c0-2.63-1.42-4.6-3.83-4.6a4.43 4.43 0 0 0-3.55 1.92v5.39a4.38 4.38 0 0 0 3.55 1.87c2.36 0 3.75-1.94 3.75-4.58zM1687.88 587.34c0 .44-.36.83-1 .91a4.33 4.33 0 0 0-3.08 1.87v7.6a.93.93 0 0 1-1.85 0v-10.26a.93.93 0 0 1 1.85 0v1.11a5.27 5.27 0 0 1 2.66-2 2 2 0 0 1 .59-.12.82.82 0 0 1 .83.89zM1699.35 590.36v7.36a.93.93 0 0 1-.93.91.92.92 0 0 1-.91-.91v-.54a5.06 5.06 0 0 1-3.94 1.65 4 4 0 0 1-4.16-3.94 3.89 3.89 0 0 1 4.16-3.91 5 5 0 0 1 3.94 1.62v-2.14c0-1.6-1.28-2.51-3-2.51a4.42 4.42 0 0 0-3.1 1.18.89.89 0 0 1-.49.15.76.76 0 0 1-.76-.76.79.79 0 0 1 .32-.62 6.14 6.14 0 0 1 4.28-1.55c2.5 0 4.59 1.13 4.59 4.01zm-1.84 5.66v-2.23a4 4 0 0 0-3.28-1.48 2.61 2.61 0 1 0 0 5.19 4 4 0 0 0 3.28-1.5zM1709 587.34c0 .44-.37.83-1 .91a4.33 4.33 0 0 0-3.07 1.87v7.6a.93.93 0 0 1-1.85 0v-10.26a.93.93 0 0 1 1.85 0v1.11a5.24 5.24 0 0 1 2.65-2 2.12 2.12 0 0 1 .6-.12.82.82 0 0 1 .82.89zM1711.41 601.69h.39a1.7 1.7 0 0 0 1.77-1.26l.79-1.79-4.48-10.83a.84.84 0 0 1-.07-.35.92.92 0 0 1 1.77-.36l3.77 9.27 3.74-9.27a.94.94 0 0 1 .86-.57.92.92 0 0 1 .93.93.94.94 0 0 1-.07.37l-5.46 13.1a3.55 3.55 0 0 1-3.5 2.41 2.09 2.09 0 0 1-.54-.05.83.83 0 0 1-.79-.81.85.85 0 0 1 .89-.79zM1556.74 700.83v-12.75l-5.44 13.34a.58.58 0 0 1-.57.42.6.6 0 0 1-.57-.42l-5.41-13.34v12.75a1 1 0 0 1-1 1 1 1 0 0 1-1-1V687a1.73 1.73 0 0 1 1.72-1.72 1.69 1.69 0 0 1 1.6 1.08l4.7 11.59 4.73-11.59a1.68 1.68 0 0 1 1.59-1.08 1.73 1.73 0 0 1 1.73 1.72v13.88a1 1 0 0 1-2 0zM1567.71 689.56a5.64 5.64 0 0 1 5.71 5.91c0 .59-.4.93-1.09.93h-8.54a4.2 4.2 0 0 0 4.29 4.11 5.14 5.14 0 0 0 3.2-1.13.83.83 0 0 1 .41-.1.75.75 0 0 1 .77.74.8.8 0 0 1-.32.62 6.76 6.76 0 0 1-4.24 1.4 6.25 6.25 0 0 1-.19-12.48zm-3.92 5.49h7.81a3.86 3.86 0 0 0-3.92-4 4 4 0 0 0-3.89 4zM1581.54 701a.69.69 0 0 1-.47.68 3.16 3.16 0 0 1-1.68.4c-1.74 0-2.63-1-2.63-2.78v-7.78h-1.25a.81.81 0 1 1 0-1.62h1.25v-2.44a.93.93 0 0 1 1.85 0v2.44h1.7a.81.81 0 1 1 0 1.62h-1.7v7.38c0 .89.39 1.53 1.2 1.53.52 0 .69-.22.94-.22a.75.75 0 0 1 .79.79zM1592.91 693.57v7.36a.93.93 0 0 1-1.85 0v-.54a5 5 0 0 1-3.94 1.65 4 4 0 0 1-4.16-3.94 3.89 3.89 0 0 1 4.16-3.91 5 5 0 0 1 3.94 1.62v-2.14c0-1.6-1.28-2.51-3-2.51a4.36 4.36 0 0 0-3.1 1.18 1.05 1.05 0 0 1-.5.15.77.77 0 0 1-.76-.76.81.81 0 0 1 .32-.62 6.15 6.15 0 0 1 4.28-1.55c2.51 0 4.61 1.13 4.61 4.01zm-1.85 5.66V697a4 4 0 0 0-3.27-1.47 2.61 2.61 0 1 0 0 5.19 4 4 0 0 0 3.27-1.49zM1616.6 700.78a1 1 0 0 1-1 1.06 1.06 1.06 0 0 1-1-.66l-1.18-3.08H1605l-1.18 3.08a1 1 0 0 1-1 .66 1 1 0 0 1-1.06-1 1.42 1.42 0 0 1 .1-.42l5.66-14a1.8 1.8 0 0 1 1.67-1.13 1.74 1.74 0 0 1 1.65 1.13l5.69 14a2.66 2.66 0 0 1 .07.36zm-3.89-4.5l-3.52-9.13-3.52 9.13zM1629.59 686.14v14.79a.92.92 0 0 1-1.84 0v-1a5 5 0 0 1-4 2.07c-3.11 0-5.3-2.36-5.3-6.23s2.17-6.25 5.3-6.25a5 5 0 0 1 4 2.12v-5.54a.92.92 0 0 1 1.84 0zm-1.84 12.38v-5.39a4.45 4.45 0 0 0-3.57-1.92c-2.39 0-3.82 2-3.82 4.6s1.43 4.58 3.82 4.58a4.44 4.44 0 0 0 3.57-1.87zM1653.29 700.78a1 1 0 0 1-2 .4l-1.18-3.08h-8.44l-1.18 3.08a1 1 0 0 1-1 .66 1 1 0 0 1-1.06-1 1.42 1.42 0 0 1 .1-.42l5.66-14a1.8 1.8 0 0 1 1.67-1.13 1.76 1.76 0 0 1 1.65 1.13l5.69 14a2.66 2.66 0 0 1 .09.36zm-3.89-4.5l-3.52-9.13-3.52 9.13zM1661.06 689.56a5.12 5.12 0 0 1 3.82 1.48.87.87 0 0 1 .27.61.83.83 0 0 1-.84.84.79.79 0 0 1-.54-.22 3.43 3.43 0 0 0-2.61-1.06c-2.53 0-4.11 1.94-4.11 4.58s1.58 4.6 4.11 4.6a3.39 3.39 0 0 0 2.59-1.06.75.75 0 0 1 .56-.22.84.84 0 0 1 .57 1.45 5.12 5.12 0 0 1-3.82 1.48c-3.54 0-5.93-2.71-5.93-6.25s2.39-6.23 5.93-6.23zM1673.25 689.56a5.11 5.11 0 0 1 3.81 1.48.87.87 0 0 1 .27.61.83.83 0 0 1-.84.84.81.81 0 0 1-.54-.22 3.43 3.43 0 0 0-2.61-1.06c-2.53 0-4.11 1.94-4.11 4.58s1.58 4.6 4.11 4.6a3.39 3.39 0 0 0 2.59-1.06.76.76 0 0 1 .56-.22.84.84 0 0 1 .57 1.45 5.11 5.11 0 0 1-3.81 1.48c-3.55 0-5.94-2.71-5.94-6.25a5.88 5.88 0 0 1 5.94-6.23zM1679.49 695.79c0-3.45 2.27-6.23 5.89-6.23s5.88 2.78 5.88 6.23-2.26 6.21-5.88 6.21-5.89-2.77-5.89-6.21zm9.82 0c0-2.42-1.4-4.58-3.93-4.58s-4 2.16-4 4.58 1.43 4.6 4 4.6 3.93-2.17 3.93-4.6zM1704.13 690.67v10.26a.93.93 0 0 1-1.85 0v-.84a5.85 5.85 0 0 1-4.23 1.95c-2.49 0-3.79-1.21-3.79-3.79v-7.58a.92.92 0 0 1 1.84 0v7c0 2.09 1.06 2.71 2.66 2.71a4.56 4.56 0 0 0 3.52-1.8v-7.92a.93.93 0 0 1 1.85 0zM1717.68 693.4v7.53a.92.92 0 0 1-1.84 0v-7c0-2.1-1.06-2.76-2.66-2.76a4.59 4.59 0 0 0-3.52 1.84v7.88a.93.93 0 0 1-1.85 0v-10.22a.93.93 0 0 1 1.85 0v.93a5.78 5.78 0 0 1 4.23-2c2.49-.04 3.79 1.22 3.79 3.8zM1726.52 701a.69.69 0 0 1-.47.68 3.14 3.14 0 0 1-1.67.4c-1.75 0-2.64-1-2.64-2.78v-7.78h-1.25a.81.81 0 1 1 0-1.62h1.25v-2.44a.93.93 0 0 1 1.85 0v2.44h1.7a.81.81 0 1 1 0 1.62h-1.7v7.38c0 .89.39 1.53 1.2 1.53.52 0 .69-.22.94-.22a.75.75 0 0 1 .79.79zM1747 690.45a.66.66 0 0 1-.67.64h-2.29l-1.65 4.89h2a.66.66 0 0 1 .64.67.63.63 0 0 1-.64.64H1742l-1.38 4.06a.7.7 0 0 1-.67.49.71.71 0 0 1-.71-.69 1 1 0 0 1 0-.29l1.2-3.57h-2.73l-1.35 4.06a.72.72 0 0 1-.69.49.71.71 0 0 1-.71-.69 1.1 1.1 0 0 1 0-.27l1.21-3.59h-1.82a.65.65 0 0 1-.67-.64.67.67 0 0 1 .67-.67h2.26l1.63-4.89h-1.9a.64.64 0 0 1 0-1.28h2.34l1.36-4.09a.67.67 0 0 1 .68-.49.71.71 0 0 1 .72.69 1.08 1.08 0 0 1 0 .27l-1.21 3.62h2.77l1.33-4.09a.74.74 0 0 1 .69-.49.71.71 0 0 1 .72.69 1.08 1.08 0 0 1 0 .27l-1.21 3.62h1.87a.66.66 0 0 1 .6.64zm-4.46.64h-2.73l-1.62 4.89h2.68zM1748.69 700.66a1.14 1.14 0 0 1 .44-.89c5.71-4.43 8.79-7.11 8.79-9.87 0-2.09-1.73-3-3.42-3a5.47 5.47 0 0 0-3.92 1.53 1.1 1.1 0 0 1-.61.22.91.91 0 0 1-.91-.94.88.88 0 0 1 .32-.68 7.28 7.28 0 0 1 5.12-1.95c2.73 0 5.51 1.55 5.51 4.82s-3.4 6.4-8 10h7.24a.91.91 0 0 1 0 1.82h-9.5a1.1 1.1 0 0 1-1.06-1.06zM1596.87 730.31a1 1 0 0 1-2 .39l-1.18-3.07h-8.44l-1.25 3.07a1 1 0 0 1-1 .67 1 1 0 0 1-1-1 1.42 1.42 0 0 1 .1-.42l5.66-14a1.79 1.79 0 0 1 1.67-1.13 1.74 1.74 0 0 1 1.65 1.13l5.68 14a1.8 1.8 0 0 1 .11.36zm-3.89-4.5l-3.52-9.13-3.52 9.13zM1598.56 729.5a.82.82 0 0 1 .82-.81 1 1 0 0 1 .49.14 5.28 5.28 0 0 0 3.37 1.24c1.82 0 2.8-.82 2.8-2 0-1.31-1.45-1.73-3-2.12-2-.47-4.3-1-4.3-3.47 0-1.85 1.6-3.42 4.43-3.42a6.15 6.15 0 0 1 3.93 1.3.83.83 0 0 1 .32.62.81.81 0 0 1-.78.79.8.8 0 0 1-.45-.18 4.55 4.55 0 0 0-3-1c-1.63 0-2.64.74-2.64 1.8s1.36 1.52 2.91 1.89c2.06.47 4.45 1.06 4.45 3.69 0 2-1.6 3.6-4.67 3.6a6.53 6.53 0 0 1-4.26-1.41.78.78 0 0 1-.42-.66zM1610 729.5a.82.82 0 0 1 .82-.81 1 1 0 0 1 .49.14 5.28 5.28 0 0 0 3.37 1.24c1.82 0 2.81-.82 2.81-2 0-1.31-1.46-1.73-3.06-2.12-2-.47-4.3-1-4.3-3.47 0-1.85 1.6-3.42 4.43-3.42a6.16 6.16 0 0 1 3.94 1.3.86.86 0 0 1 .32.62.81.81 0 0 1-.79.79.8.8 0 0 1-.45-.18 4.55 4.55 0 0 0-3-1c-1.63 0-2.64.74-2.64 1.8s1.36 1.52 2.91 1.89c2.07.47 4.45 1.06 4.45 3.69 0 2-1.6 3.6-4.67 3.6a6.53 6.53 0 0 1-4.26-1.41.78.78 0 0 1-.37-.66zM1627.45 719.09a5.63 5.63 0 0 1 5.71 5.91c0 .59-.39.93-1.08.93h-8.54a4.19 4.19 0 0 0 4.28 4.11 5.1 5.1 0 0 0 3.2-1.13.76.76 0 0 1 .86 1.25 6.73 6.73 0 0 1-4.23 1.41 6.25 6.25 0 0 1-.2-12.48zm-3.91 5.49h7.8a3.85 3.85 0 0 0-3.91-4 4 4 0 0 0-3.89 4zM1641.28 730.48a.69.69 0 0 1-.47.69 3.12 3.12 0 0 1-1.67.4c-1.75 0-2.63-1-2.63-2.78V721h-1.26a.82.82 0 0 1 0-1.63h1.26V717a.92.92 0 0 1 1.84 0v2.43h1.7a.82.82 0 1 1 0 1.63h-1.7v7.38c0 .89.4 1.53 1.21 1.53.52 0 .69-.22.93-.22a.75.75 0 0 1 .79.73zM1649.79 730.19v-14.42a1 1 0 0 1 2 0v13.68h6.81a.91.91 0 1 1 0 1.82h-7.77a1 1 0 0 1-1.04-1.08zM1662 715.74a1.24 1.24 0 1 1 2.48 0 1.24 1.24 0 0 1-2.48 0zm.32 14.72V720.2a.92.92 0 0 1 .93-.91.91.91 0 0 1 .91.91v10.26a.92.92 0 0 1-1.84 0zM1679 725.34c0 3.86-2.19 6.23-5.29 6.23a5.06 5.06 0 0 1-4-2.07v1a.93.93 0 0 1-1.85 0v-14.83a.93.93 0 0 1 1.85 0v5.53a4.92 4.92 0 0 1 4-2.11c3.05 0 5.29 2.46 5.29 6.25zm-1.92 0c0-2.63-1.42-4.6-3.83-4.6a4.4 4.4 0 0 0-3.55 1.92v5.39a4.38 4.38 0 0 0 3.55 1.87c2.36 0 3.75-1.92 3.75-4.58zM1687.88 720.07c0 .45-.36.84-1 .91a4.37 4.37 0 0 0-3.08 1.87v7.61a.93.93 0 0 1-1.85 0V720.2a.93.93 0 0 1 1.85 0v1.1a5.24 5.24 0 0 1 2.66-2 2 2 0 0 1 .59-.12.82.82 0 0 1 .83.89zM1699.35 723.1v7.36a.93.93 0 0 1-.93.91.92.92 0 0 1-.91-.91v-.54a5.06 5.06 0 0 1-3.94 1.65 4 4 0 0 1-4.16-3.94 3.89 3.89 0 0 1 4.16-3.91 5 5 0 0 1 3.94 1.62v-2.14c0-1.6-1.28-2.51-3-2.51a4.38 4.38 0 0 0-3.1 1.18 1 1 0 0 1-.49.15.76.76 0 0 1-.44-1.38 6.14 6.14 0 0 1 4.28-1.55c2.5 0 4.59 1.13 4.59 4.01zm-1.84 5.66v-2.24a4 4 0 0 0-3.28-1.48 2.62 2.62 0 1 0 0 5.2 4 4 0 0 0 3.28-1.48zM1709 720.07c0 .45-.37.84-1 .91a4.37 4.37 0 0 0-3.07 1.87v7.61a.93.93 0 0 1-1.85 0V720.2a.93.93 0 0 1 1.85 0v1.1a5.22 5.22 0 0 1 2.65-2 2.12 2.12 0 0 1 .6-.12.82.82 0 0 1 .82.89zM1711.41 734.42h.39a1.7 1.7 0 0 0 1.77-1.26l.79-1.8-4.48-10.82a.93.93 0 0 1 .84-1.28.92.92 0 0 1 .86.56l3.77 9.28 3.74-9.28a.94.94 0 0 1 .86-.56.91.91 0 0 1 .93.93 1 1 0 0 1-.07.37l-5.46 13.09a3.55 3.55 0 0 1-3.5 2.42 2.09 2.09 0 0 1-.54-.05.84.84 0 0 1-.79-.82.86.86 0 0 1 .89-.78zM1567.94 418a8.19 8.19 0 0 1 8.37-8.49 7.37 7.37 0 0 1 5.63 2.39.88.88 0 0 1 .25.66 1 1 0 0 1-1 1 .93.93 0 0 1-.74-.32 5.65 5.65 0 0 0-4.18-1.87c-3.52 0-6.25 2.76-6.25 6.67s2.73 6.67 6.25 6.67a5.51 5.51 0 0 0 4.18-1.87.93.93 0 0 1 .74-.32 1 1 0 0 1 1 1 .9.9 0 0 1-.25.66 7.34 7.34 0 0 1-5.63 2.39 8.19 8.19 0 0 1-8.37-8.57zM1584 420.26c0-3.45 2.27-6.23 5.88-6.23s5.89 2.78 5.89 6.23-2.27 6.25-5.89 6.25-5.88-2.81-5.88-6.25zm9.82 0c0-2.41-1.4-4.58-3.94-4.58s-4 2.17-4 4.58 1.43 4.6 4 4.6 3.97-2.16 3.97-4.6zM1615 417.63v7.77a.94.94 0 0 1-.93.91.91.91 0 0 1-.91-.91v-7.26c0-1.5-.67-2.46-2.19-2.46a4.18 4.18 0 0 0-3.16 1.82v7.9a.91.91 0 0 1-.91.91.94.94 0 0 1-.93-.91v-7.26c0-1.5-.64-2.46-2.19-2.46a4.16 4.16 0 0 0-3.13 1.85v7.87a.92.92 0 0 1-1.84 0v-10.26a.92.92 0 0 1 .91-.91.93.93 0 0 1 .93.91v.91a5.13 5.13 0 0 1 3.84-2 3.05 3.05 0 0 1 3.2 2.22 5 5 0 0 1 4-2.22c2.14-.05 3.31 1.19 3.31 3.58zM1629.83 420.26c0 3.84-2.17 6.25-5.29 6.25a4.91 4.91 0 0 1-4-2.12v5.54a.92.92 0 0 1-.91.91.93.93 0 0 1-.93-.91v-14.79a.93.93 0 0 1 .93-.91.92.92 0 0 1 .91.91v1a5 5 0 0 1 4-2.07c3.12-.07 5.29 2.33 5.29 6.19zm-1.95 0c0-2.63-1.42-4.58-3.81-4.58a4.4 4.4 0 0 0-3.55 1.9v5.36a4.41 4.41 0 0 0 3.55 1.92c2.39 0 3.81-1.97 3.81-4.6zM1642.08 418v7.36a.92.92 0 0 1-.93.91.91.91 0 0 1-.91-.91v-.54a5 5 0 0 1-3.94 1.65 4 4 0 0 1-4.16-3.94 3.89 3.89 0 0 1 4.16-3.91 5 5 0 0 1 3.94 1.62v-2.14c0-1.6-1.28-2.51-3-2.51a4.42 4.42 0 0 0-3.1 1.18.89.89 0 0 1-.49.15.76.76 0 0 1-.76-.76.79.79 0 0 1 .32-.62 6.18 6.18 0 0 1 4.28-1.55c2.51.01 4.59 1.17 4.59 4.01zm-1.84 5.66v-2.23A4 4 0 0 0 1637 420a2.61 2.61 0 1 0 0 5.19 4 4 0 0 0 3.24-1.49zM1655.64 417.87v7.53a.93.93 0 0 1-1.85 0v-7c0-2.09-1-2.76-2.65-2.76a4.57 4.57 0 0 0-3.52 1.85v7.87a.93.93 0 0 1-1.85 0v-10.22a.93.93 0 0 1 1.85 0v.94a5.75 5.75 0 0 1 4.23-2.05c2.48-.03 3.79 1.26 3.79 3.84zM1659.57 429.37h.4a1.71 1.71 0 0 0 1.77-1.25l.79-1.8-4.48-10.83a.85.85 0 0 1-.08-.35.92.92 0 0 1 .91-.93.94.94 0 0 1 .87.57l3.76 9.27 3.74-9.27a1 1 0 0 1 .86-.57.92.92 0 0 1 .94.93 1.16 1.16 0 0 1-.07.37l-5.47 13.1A3.53 3.53 0 0 1 1660 431a2.13 2.13 0 0 1-.55-.05.83.83 0 0 1-.78-.81.85.85 0 0 1 .9-.77zM1691.39 425.26a1 1 0 0 1-2 .39l-1.19-3.08h-8.44l-1.18 3.08a1 1 0 0 1-1 .66 1 1 0 0 1-1.06-1 1.49 1.49 0 0 1 .1-.42l5.66-14a1.81 1.81 0 0 1 1.68-1.13 1.73 1.73 0 0 1 1.64 1.13l5.69 14a2.79 2.79 0 0 1 .1.37zm-3.89-4.51l-3.51-9.13-3.52 9.13zM1693.09 424.44a.82.82 0 0 1 .81-.81.88.88 0 0 1 .49.15 5.33 5.33 0 0 0 3.37 1.23c1.82 0 2.81-.81 2.81-2s-1.45-1.72-3-2.12c-2-.46-4.31-1-4.31-3.47 0-1.84 1.6-3.42 4.43-3.42a6.1 6.1 0 0 1 3.94 1.31.84.84 0 0 1 .32.61.81.81 0 0 1-.79.79.73.73 0 0 1-.44-.17 4.6 4.6 0 0 0-3-1c-1.62 0-2.63.74-2.63 1.8s1.35 1.53 2.9 1.9c2.07.46 4.46 1 4.46 3.69 0 2-1.6 3.59-4.68 3.59a6.53 6.53 0 0 1-4.26-1.4.8.8 0 0 1-.42-.68zM1704.53 424.44a.82.82 0 0 1 .81-.81.86.86 0 0 1 .49.15 5.38 5.38 0 0 0 3.38 1.23c1.82 0 2.8-.81 2.8-2s-1.45-1.72-3-2.12c-2-.46-4.31-1-4.31-3.47 0-1.84 1.6-3.42 4.43-3.42a6.1 6.1 0 0 1 3.94 1.31.84.84 0 0 1 .32.61.81.81 0 0 1-.79.79.76.76 0 0 1-.44-.17 4.6 4.6 0 0 0-3-1c-1.62 0-2.63.74-2.63 1.8s1.35 1.53 2.9 1.9c2.07.46 4.46 1 4.46 3.69 0 2-1.6 3.59-4.68 3.59a6.54 6.54 0 0 1-4.26-1.4.8.8 0 0 1-.42-.68zM1722 414a5.64 5.64 0 0 1 5.71 5.91c0 .59-.4.93-1.09.93h-8.54a4.2 4.2 0 0 0 4.29 4.12 5.15 5.15 0 0 0 3.2-1.14.83.83 0 0 1 .41-.1.75.75 0 0 1 .77.74.8.8 0 0 1-.32.62 6.76 6.76 0 0 1-4.24 1.4A6.25 6.25 0 0 1 1722 414zm-3.92 5.49h7.81a3.86 3.86 0 0 0-3.92-4 4 4 0 0 0-3.91 4.03zM1735.81 425.43a.72.72 0 0 1-.47.69 3.26 3.26 0 0 1-1.68.39c-1.74 0-2.63-1-2.63-2.78V416h-1.25a.81.81 0 1 1 0-1.62h1.22v-2.44a.93.93 0 0 1 1.85 0v2.44h1.7a.81.81 0 1 1 0 1.62h-1.7v7.39c0 .88.39 1.52 1.2 1.52.52 0 .69-.22.94-.22a.75.75 0 0 1 .82.74zM1616.54 454.66v-14.42a1 1 0 0 1 1-1 1 1 0 0 1 1 1v13.68h6.82a.91.91 0 1 1 0 1.82h-7.78a1 1 0 0 1-1.04-1.08zM1628.69 440.21a1.25 1.25 0 1 1 1.23 1.23 1.24 1.24 0 0 1-1.23-1.23zm.32 14.72v-10.26a.93.93 0 0 1 1.85 0v10.26a.93.93 0 0 1-1.85 0zM1645.7 449.81c0 3.87-2.19 6.23-5.29 6.23a5 5 0 0 1-4-2.07v1a.93.93 0 0 1-1.85 0v-14.83a.93.93 0 0 1 1.85 0v5.54a4.89 4.89 0 0 1 4-2.12c3.1 0 5.29 2.44 5.29 6.25zm-1.92 0c0-2.63-1.43-4.6-3.84-4.6a4.42 4.42 0 0 0-3.54 1.92v5.39a4.38 4.38 0 0 0 3.54 1.87c2.41 0 3.84-1.94 3.84-4.58zM1654.63 444.55c0 .44-.37.83-1 .91a4.37 4.37 0 0 0-3.08 1.87v7.6a.92.92 0 0 1-.91.91.93.93 0 0 1-.93-.91v-10.26a.92.92 0 0 1 1.84 0v1.11a5.31 5.31 0 0 1 2.66-2 2.13 2.13 0 0 1 .59-.12.83.83 0 0 1 .83.89zM1666.1 447.57v7.36a.93.93 0 0 1-1.85 0v-.54a5 5 0 0 1-3.94 1.65 4 4 0 0 1-4.16-3.94 3.89 3.89 0 0 1 4.16-3.91 5 5 0 0 1 3.94 1.62v-2.14c0-1.6-1.28-2.51-3-2.51a4.36 4.36 0 0 0-3.1 1.18 1 1 0 0 1-.49.15.77.77 0 0 1-.77-.76.81.81 0 0 1 .32-.62 6.18 6.18 0 0 1 4.29-1.55c2.5 0 4.6 1.13 4.6 4.01zm-1.85 5.66V451a4 4 0 0 0-3.27-1.47 2.61 2.61 0 1 0 0 5.19 4 4 0 0 0 3.27-1.49zM1675.72 444.55c0 .44-.37.83-1 .91a4.35 4.35 0 0 0-3.08 1.87v7.6a.92.92 0 0 1-1.84 0v-10.26a.92.92 0 0 1 1.84 0v1.11a5.31 5.31 0 0 1 2.66-2 2.06 2.06 0 0 1 .59-.12.83.83 0 0 1 .83.89zM1678.15 458.89h.4a1.71 1.71 0 0 0 1.77-1.26l.79-1.79-4.48-10.84a.89.89 0 0 1-.08-.35.92.92 0 0 1 1.77-.37l3.77 9.28 3.74-9.28a.94.94 0 0 1 .86-.56.92.92 0 0 1 .94.93 1 1 0 0 1-.08.37l-5.46 13.1a3.54 3.54 0 0 1-3.5 2.41 2.09 2.09 0 0 1-.54-.05.83.83 0 0 1-.78-.81.85.85 0 0 1 .88-.78z"/><rect class="cls-1" x="343.91" y="109.18" width="432.97" height="879.62" rx="29.56"/><rect class="cls-2" x="343.91" y="109.18" width="432.97" height="879.62" rx="29.56"/><rect class="cls-3" x="351.91" y="102.18" width="432.97" height="879.62" rx="29.56"/><rect class="cls-4" x="351.91" y="102.18" width="432.97" height="879.62" rx="29.56"/><rect class="cls-1" x="494.83" y="76.43" width="135.76" height="60.33" rx="30.17"/><rect class="cls-2" x="494.83" y="76.43" width="135.76" height="60.33" rx="30.17"/><rect class="cls-5" x="502.83" y="69.43" width="135.76" height="60.33" rx="30.17"/><rect class="cls-4" x="502.83" y="69.43" width="135.76" height="60.33" rx="30.17"/><text class="cls-10" transform="translate(521.62 106.6)">Catalogs</text><rect class="cls-1" x="406.34" y="313.23" width="312.74" height="105.78" rx="52.89"/><rect class="cls-2" x="406.34" y="313.23" width="312.74" height="105.78" rx="52.89"/><rect class="cls-6" x="414.34" y="306.23" width="312.74" height="105.78" rx="52.89"/><rect class="cls-4" x="414.34" y="306.23" width="312.74" height="105.78" rx="52.89"/><rect class="cls-1" x="408.16" y="434.69" width="312.74" height="105.78" rx="52.89"/><rect class="cls-2" x="408.16" y="434.69" width="312.74" height="105.78" rx="52.89"/><rect class="cls-6" x="416.16" y="427.69" width="312.74" height="105.78" rx="52.89"/><rect class="cls-4" x="416.16" y="427.69" width="312.74" height="105.78" rx="52.89"/><rect class="cls-1" x="408.16" y="556.15" width="312.74" height="105.78" rx="52.89"/><rect class="cls-2" x="408.16" y="556.15" width="312.74" height="105.78" rx="52.89"/><rect class="cls-7" x="416.16" y="549.15" width="312.74" height="105.78" rx="52.89"/><rect class="cls-4" x="416.16" y="549.15" width="312.74" height="105.78" rx="52.89"/><text class="cls-13" transform="translate(481.26 365.47)">Meta Catalog #2</text><rect class="cls-1" x="408.16" y="191.78" width="312.74" height="105.78" rx="52.89"/><rect class="cls-2" x="408.16" y="191.78" width="312.74" height="105.78" rx="52.89"/><rect class="cls-6" x="416.16" y="184.78" width="312.74" height="105.78" rx="52.89"/><rect class="cls-4" x="416.16" y="184.78" width="312.74" height="105.78" rx="52.89"/><text class="cls-13" transform="translate(486.07 244.02)">Meta Catalog #1</text><text class="cls-13" transform="translate(483.39 486.93)">Meta Catalog #3</text><text class="cls-13" transform="translate(462.54 608.39)">Snapchat Catalog #1</text><rect class="cls-1" x="408.16" y="677.6" width="312.74" height="105.78" rx="52.89"/><rect class="cls-2" x="408.16" y="677.6" width="312.74" height="105.78" rx="52.89"/><rect class="cls-7" x="416.16" y="670.6" width="312.74" height="105.78" rx="52.89"/><rect class="cls-4" x="416.16" y="670.6" width="312.74" height="105.78" rx="52.89"/><rect class="cls-1" x="408.16" y="799.06" width="312.74" height="105.78" rx="52.89"/><rect class="cls-2" x="408.16" y="799.06" width="312.74" height="105.78" rx="52.89"/><rect class="cls-8" x="416.16" y="792.06" width="312.74" height="105.78" rx="52.89"/><rect class="cls-4" x="416.16" y="792.06" width="312.74" height="105.78" rx="52.89"/><text class="cls-13" transform="translate(459.55 729.84)">Snapchat Catalog #2</text><path d="M414.59 720h-12.13c-44.14 0-79.92 0-79.92-55.46V654c0-55.52-45.75-55.46-89.89-55.46h182.92" stroke-width="3" stroke-linecap="round" stroke="#1d1853" fill="none" stroke-miterlimit="10"/><text class="cls-14" transform="translate(465.42 851.3)">Pinterest Catalog #1</text><path d="M414.05 477.09h-12.13c-44.11 0-79.88 0-79.88 55.46v10.51c0 55.52-45.73 55.46-89.84 55.46H415" stroke-width="2.99" stroke-linecap="round" stroke="#1d1853" fill="none" stroke-miterlimit="10"/><path class="cls-18" d="M414.89 241.65h-12.17c-44.27 0-80.06-7.34-80.16 29.5v5.58c1.57 29.42-45.89 29.5-90.17 29.5h-16.76"/><path class="cls-18" d="M414.89 370.89h-12.17c-44.27 0-80.06 7.34-80.16-29.5v-5.58c1.82-29.92-45.89-29.5-90.17-29.5h-16.76"/><rect class="cls-1" x="80" y="575.35" width="135.76" height="60.33" rx="30.17"/><rect class="cls-2" x="80" y="575.35" width="135.76" height="60.33" rx="30.17"/><rect class="cls-3" x="88" y="568.35" width="135.76" height="60.33" rx="30.17"/><rect class="cls-4" x="88" y="568.35" width="135.76" height="60.33" rx="30.17"/><text class="cls-19" transform="translate(111.81 605.52)">User #2</text><path class="cls-18" d="M224.81 844.95h189.96"/><rect class="cls-1" x="79.98" y="821.78" width="135.76" height="60.33" rx="30.17"/><rect class="cls-2" x="79.98" y="821.78" width="135.76" height="60.33" rx="30.17"/><rect class="cls-3" x="87.98" y="814.78" width="135.76" height="60.33" rx="30.17"/><rect class="cls-4" x="87.98" y="814.78" width="135.76" height="60.33" rx="30.17"/><text class="cls-19" transform="translate(111.94 851.96)">User #3</text><rect class="cls-1" x="79.97" y="283.07" width="135.76" height="60.33" rx="30.17"/><rect class="cls-2" x="79.97" y="283.07" width="135.76" height="60.33" rx="30.17"/><rect class="cls-3" x="87.97" y="276.07" width="135.76" height="60.33" rx="30.17"/><rect class="cls-4" x="87.97" y="276.07" width="135.76" height="60.33" rx="30.17"/><text class="cls-19" transform="translate(114.02 312.16)">User #1</text></svg>