<svg xmlns="http://www.w3.org/2000/svg" viewBox="0 0 5433.99 400.32"><defs><style>.cls-2{fill:#529ab9;stroke:#1b1950;stroke-width:1.6px}</style><filter id="filter"><feOffset dx="-7" dy="8"/><feGaussianBlur result="blur"/><feFlood flood-color="#852798"/><feComposite operator="in" in2="blur"/><feComposite in="SourceGraphic"/></filter></defs><g id="Layer_2" data-name="Layer 2"><g filter="url(#filter)" id="Layer_1-2" data-name="Layer 1"><path class="cls-2" d="M213.89 238.24v-105.6L169.4 258.08a18.65 18.65 0 0 1-35.2 0L89.72 132.64v105.6a32.32 32.32 0 0 1-64.64 0v-136a51.52 51.52 0 0 1 100.16-17l26.56 77.45 26.56-77.45a51.52 51.52 0 0 1 100.17 17v136a32.32 32.32 0 1 1-64.64 0zM458.68 173.92v65.92c0 17-11.84 30.72-28.8 30.72A30.92 30.92 0 0 1 401.4 252c-8.32 11.2-27.52 19.2-47 19.2-23 0-53.12-15.68-53.12-50.88 0-38.4 30.08-47.68 53.12-47.68 20.16 0 38.4 6.4 46.72 17V172c0-10.88-9.92-19.2-28.8-19.2-9.28 0-19.2 2.24-29.44 7a18.67 18.67 0 0 1-8.32 1.92 20.77 20.77 0 0 1-9.28-39.36A131 131 0 0 1 382.84 109c38.4 0 75.84 13.4 75.84 64.92zm-57.6 51.52v-8.64c-3.84-5.44-13.76-8.32-22.72-8.32-9.6 0-20.16 3.2-20.16 12.8s10.56 12.48 20.16 12.48c8.96 0 18.88-2.88 22.72-8.32zM652.92 157.6v84.16a28.8 28.8 0 0 1-57.6 0v-59.84c0-16-8.64-22.08-22.4-22.08-13.12 0-19.84 6.72-24.64 12.16v69.76a28.8 28.8 0 1 1-57.6 0V138.4c0-16.65 12.16-30.08 28.8-30.08a29.29 29.29 0 0 1 28.8 22.08c9-10.24 25.92-21.44 53.12-21.44 35.84.04 51.52 21.76 51.52 48.64zM831.8 173.92v65.92c0 17-11.84 30.72-28.8 30.72A30.92 30.92 0 0 1 774.52 252c-8.32 11.2-27.52 19.2-47 19.2-23 0-53.13-15.68-53.13-50.88 0-38.4 30.09-47.68 53.13-47.68 20.16 0 38.4 6.4 46.72 17V172c0-10.88-9.92-19.2-28.8-19.2a69.41 69.41 0 0 0-29.45 7 18.61 18.61 0 0 1-8.32 1.92 20.77 20.77 0 0 1-9.28-39.36A131.08 131.08 0 0 1 756 109c38.36 0 75.8 13.4 75.8 64.92zm-57.6 51.52v-8.64c-3.84-5.44-13.76-8.32-22.72-8.32-9.6 0-20.17 3.2-20.17 12.8s10.57 12.48 20.17 12.48c8.96 0 18.88-2.88 22.72-8.32zM1022.19 138.4v112.32c0 66.88-55 79.36-93.44 79.36a118.58 118.58 0 0 1-51.52-11.2 24 24 0 0 1-13.44-21.12 23.63 23.63 0 0 1 23.68-23.68 21.44 21.44 0 0 1 9.92 2.24 73.89 73.89 0 0 0 31.36 6.68c13.44 0 35.84-5.12 35.84-32.32v-8.28c-13.12 15-27.52 20.8-43.52 20.8-37.12 0-67.84-24.32-67.84-77.12 0-51.52 29.76-77.12 67.84-77.12 16 0 31 5.44 43.52 20.16 3.2-11.53 16-19.53 28.8-19.53a28.89 28.89 0 0 1 28.8 28.81zm-57.6 64v-32.64c-5.44-6.4-16.32-9.92-23.68-9.92-15.68 0-28.8 7.36-28.8 26.24s13.12 26.24 28.8 26.24c7.36 0 18.24-3.52 23.68-9.92zM1127.79 109c45.44 0 80.32 32.64 80.32 70.72 0 21.76-12.16 28.16-34.24 28.16h-70.72c3.2 9.92 14.4 19.52 33.92 19.52a62.44 62.44 0 0 0 22.72-4.48 21 21 0 0 1 8-1.6 21.78 21.78 0 0 1 21.76 21.68c0 9-6.08 17-14.08 20.16a135.21 135.21 0 0 1-45.76 8c-48.32 0-86.08-30.4-86.08-81.28 0-44.76 34.24-80.88 84.16-80.88zm-25.28 62.4h50.88c-1.6-6.72-7-18.56-25.6-18.56-17.6-.04-23.36 11.48-25.28 18.52zM1386.67 79.51v162.25c0 16.64-12.16 30.4-28.8 30.4-13.12 0-24.64-9-28.8-21.12-13.12 14.72-27.84 20.16-43.52 20.16-37.44 0-68.16-28.16-68.16-81.28 0-51.2 30.08-81 68.16-81 15.68 0 31.36 5.44 43.52 20.16V79.51a28.8 28.8 0 0 1 57.6 0zm-57.6 130.25v-39.68c-5.44-6.72-16.32-10.24-24-10.24-15.68 0-28.8 10.88-28.8 30.08s13.12 30.4 28.8 30.4c7.68 0 18.56-3.84 24-10.56zM1493.54 228.32a29.23 29.23 0 0 1 29.12-29.12 28.05 28.05 0 0 1 14.72 3.84 97.6 97.6 0 0 0 50.24 13.76c12.16 0 23.68-4.16 23.68-12.48s-9-12.48-30.08-16.32c-35.2-6.4-89-14.72-89-68.17 0-36.16 30.08-69.12 91.84-69.12 22.72 0 47.36 4.48 66.56 13.12a28.8 28.8 0 0 1-11.84 55.05 33.83 33.83 0 0 1-12.8-2.56c-18.88-7.36-33.6-11.2-45.44-11.2-19.2 0-22.72 5.76-22.72 11.2 0 8.32 8.64 11.2 31.36 15 35.2 6.08 87.36 16.32 87.36 65.6 0 47-34.88 74.24-92.16 74.24-31 0-55-6.08-75.52-17.28a28.88 28.88 0 0 1-15.32-25.56zM1770 109c45.44 0 80.32 32.64 80.32 70.72 0 21.76-12.16 28.16-34.24 28.16h-70.72c3.2 9.92 14.4 19.52 33.92 19.52a62.44 62.44 0 0 0 22.72-4.48 21 21 0 0 1 8-1.6 21.78 21.78 0 0 1 21.78 21.68c0 9-6.08 17-14.08 20.16a135.21 135.21 0 0 1-45.76 8c-48.32 0-86.08-30.4-86.08-81.28 0-44.76 34.24-80.88 84.14-80.88zm-25.28 62.4h50.88c-1.6-6.72-7-18.56-25.6-18.56-17.58-.04-23.34 11.48-25.26 18.52zM1979.94 133.92c0 14.72-7.36 27.2-24 29.12-8 1-21.76 2.56-28.16 10.24v68.48a28.8 28.8 0 0 1-57.6 0V139.68c0-16.64 12.16-30.09 28.8-30.09 13.76 0 25.28 8.33 28.8 20.81 2.88-6.4 7.68-13.44 15-17.61a27.08 27.08 0 0 1 12.48-3.51 24.45 24.45 0 0 1 24.68 24.64zM2145.06 137.76c0 3.52-1.28 7.68-2.56 10.88l-38.08 94.72a43.42 43.42 0 0 1-40 27.2c-17.92 0-33.28-11.52-39.68-27.2l-38.08-94.72c-1.28-3.2-2.56-7.36-2.56-10.88a28 28 0 0 1 28.16-28.17c11.2 0 21.76 6.08 25.92 17.61l26.24 74.24 26.24-74.24c4.16-11.53 14.72-17.61 25.92-17.61 16.64 0 28.48 12.81 28.48 28.17zM2162.65 66.07A32.33 32.33 0 1 1 2195 98.39a32.23 32.23 0 0 1-32.35-32.32zm3.52 175.69V138.4a28.8 28.8 0 1 1 57.6 0v103.36a28.8 28.8 0 0 1-57.6 0zM2331.94 109c17.28 0 31.36 3.83 42.24 9.6 8.32 4.48 14.08 12.8 14.08 22.72a25.68 25.68 0 0 1-25.6 25.6 23.42 23.42 0 0 1-12.48-3.2 31.63 31.63 0 0 0-15.69-3.84c-16.32 0-30.4 10.24-30.4 30.08s14.08 30.4 30.4 30.4a30.42 30.42 0 0 0 15.37-3.84 27 27 0 0 1 12.48-3.52 25.81 25.81 0 0 1 11.84 48.64c-10.88 5.76-25 9.6-42.24 9.6-49 0-86.73-32-86.73-81.28 0-48.96 37.79-80.96 86.73-80.96zM2483.61 109c45.44 0 80.33 32.64 80.33 70.72 0 21.76-12.17 28.16-34.25 28.16H2459c3.2 9.92 14.4 19.52 33.92 19.52a62.44 62.44 0 0 0 22.72-4.48 21 21 0 0 1 8-1.6 21.78 21.78 0 0 1 21.73 21.68c0 9-6.08 17-14.08 20.16a135.21 135.21 0 0 1-45.76 8c-48.32 0-86.08-30.4-86.08-81.28 0-44.76 34.24-80.88 84.16-80.88zm-25.28 62.4h50.88c-1.6-6.72-7-18.56-25.6-18.56-17.61-.04-23.36 11.48-25.28 18.52zM2795.61 241.44L2778 181l-17.6 60.48a40.52 40.52 0 0 1-77.76 0l-27.84-96a30.46 30.46 0 0 1-1-8 28.08 28.08 0 0 1 55.36-6.4l16 66.88 20.8-65a33.74 33.74 0 0 1 64.32.32l20.48 64.64 16-66.88a28.26 28.26 0 0 1 55.68 6.72 29.66 29.66 0 0 1-1.28 7.68l-27.52 96a40.73 40.73 0 0 1-78.08 0zM2912.41 189.92c0-43.2 32-81 86.72-81 55 0 87 37.76 87 81s-32 81.28-87 81.28c-54.72 0-86.72-38.08-86.72-81.28zm114.56 0c0-17-9.92-30.08-27.84-30.08-17.6 0-27.52 13.12-27.52 30.08 0 17.28 9.92 30.4 27.52 30.4 17.92 0 27.87-13.12 27.87-30.4zM3217.37 133.92c0 14.72-7.36 27.2-24 29.12-8 1-21.76 2.56-28.16 10.24v68.48a28.81 28.81 0 0 1-57.61 0V139.68c0-16.64 12.16-30.09 28.8-30.09 13.77 0 25.29 8.33 28.81 20.81 2.88-6.4 7.68-13.44 15-17.61a27.08 27.08 0 0 1 12.48-3.51 24.45 24.45 0 0 1 24.68 24.64zM3388.57 241.76c0 16.64-13.12 28.8-29.12 28.8a28.75 28.75 0 0 1-22.72-10.88l-34.24-42.56-12.49 12.16v12.48a28.81 28.81 0 0 1-57.61 0V79.51a28.81 28.81 0 0 1 57.61 0v85.77l44.8-47a26.74 26.74 0 0 1 19.52-8.65c15.68 0 27.52 11.85 27.52 26.89a26.81 26.81 0 0 1-8.32 19.84l-29.12 27.52 39 41.92c1.97 1.88 5.17 8.6 5.17 15.96zM3407.12 66.07a32.32 32.32 0 1 1 32.32 32.32 32.23 32.23 0 0 1-32.32-32.32zm3.52 175.69V138.4a28.8 28.8 0 1 1 57.6 0v103.36a28.8 28.8 0 1 1-57.6 0zM3662.48 157.6v84.16a28.8 28.8 0 0 1-57.6 0v-59.84c0-16-8.64-22.08-22.4-22.08-13.12 0-19.84 6.72-24.64 12.16v69.76a28.8 28.8 0 0 1-57.6 0V138.4c0-16.65 12.16-30.08 28.8-30.08a29.29 29.29 0 0 1 28.8 22.08c9-10.24 25.92-21.44 53.12-21.44 35.84.04 51.52 21.76 51.52 48.64zM3852.88 138.4v112.32c0 66.88-55 79.36-93.44 79.36a118.58 118.58 0 0 1-51.52-11.2 24 24 0 0 1-13.44-21.12 23.63 23.63 0 0 1 23.68-23.68 21.44 21.44 0 0 1 9.92 2.24 73.89 73.89 0 0 0 31.36 6.72c13.44 0 35.84-5.12 35.84-32.32v-8.32c-13.12 15-27.52 20.8-43.52 20.8-37.12 0-67.84-24.32-67.84-77.12 0-51.52 29.76-77.12 67.84-77.12 16 0 31 5.44 43.52 20.16 3.2-11.53 16-19.53 28.8-19.53a28.89 28.89 0 0 1 28.8 28.81zm-57.6 64v-32.64c-5.44-6.4-16.32-9.92-23.68-9.92-15.68 0-28.8 7.36-28.8 26.24s13.12 26.24 28.8 26.24c7.4 0 18.24-3.52 23.68-9.92zM4096.71 241.44l-17.6-60.44-17.6 60.48a40.52 40.52 0 0 1-77.76 0l-27.84-96a30.46 30.46 0 0 1-1-8 28.08 28.08 0 0 1 55.36-6.4l16 66.88 20.8-65a33.75 33.75 0 0 1 64.33.32l20.48 64.64 16-66.88a28.26 28.26 0 0 1 55.68 6.72 29.66 29.66 0 0 1-1.28 7.68l-27.52 96a40.74 40.74 0 0 1-78.09 0zM4220.55 66.07a32.32 32.32 0 1 1 32.32 32.32 32.23 32.23 0 0 1-32.32-32.32zm3.52 175.69V138.4a28.8 28.8 0 1 1 57.6 0v103.36a28.8 28.8 0 0 1-57.6 0zM4417 245.6c0 11.84-8.64 21.12-19.52 23.68a83.63 83.63 0 0 1-18.88 1.92c-34.24 0-53.12-16.32-53.12-48.64v-59.84h-3.84a25 25 0 0 1 0-49.93h3.84V96.15a28.8 28.8 0 1 1 57.6 0v16.64h9.6a25 25 0 0 1 0 49.93h-9.6v43.2c0 7.68 4.48 13.76 11.52 14.4l2.88.32c11.87 1.28 19.52 12.48 19.52 24.96zM4540.87 241.76v-60.48c0-16-8.64-21.44-22.4-21.44-13.12 0-19.84 6.72-24.64 12.16v69.76a28.8 28.8 0 0 1-57.6 0V79.51a28.8 28.8 0 0 1 57.6 0v50.89c9-10.24 25.92-21.44 53.12-21.44 35.84 0 51.52 21.12 51.52 48v84.8a28.8 28.8 0 1 1-57.6 0zM4713.34 83.35a32.8 32.8 0 0 1 65.6 0v94.09c0 20.48 10.56 36.8 37.12 36.8 26.24 0 36.8-16.32 36.8-36.8V83.35a32.8 32.8 0 0 1 65.6 0v96c0 53.12-30.4 91.84-102.4 91.84s-102.72-38.72-102.72-91.52zM5121 189.92c0 53.12-30.72 81.28-68.16 81.28-15.68 0-30.4-5.44-43.52-20.16-3.52 11.52-16 19.52-28.8 19.52a28.89 28.89 0 0 1-28.81-28.8V79.51a28.81 28.81 0 0 1 57.61 0v49.61c12.16-14.72 27.84-20.16 43.52-20.16 38.1.04 68.16 29.76 68.16 80.96zm-58.88 0c0-19.2-13.12-30.08-28.8-30.08-7.68 0-18.56 3.84-24 10.56v39.68c5.44 6.72 16.32 10.24 24 10.24 15.68 0 28.82-10.88 28.82-30.4zM5216.06 109c45.44 0 80.32 32.64 80.32 70.72 0 21.76-12.16 28.16-34.24 28.16h-70.73c3.2 9.92 14.4 19.52 33.92 19.52a62.5 62.5 0 0 0 22.73-4.48 21 21 0 0 1 8-1.6 21.78 21.78 0 0 1 21.76 21.68c0 9-6.08 17-14.08 20.16a135.25 135.25 0 0 1-45.76 8c-48.33 0-86.09-30.4-86.09-81.28 0-44.76 34.24-80.88 84.17-80.88zm-25.29 62.4h50.88c-1.59-6.72-7-18.56-25.59-18.56-17.61-.04-23.37 11.48-25.29 18.52zM5426 133.92c0 14.72-7.37 27.2-24 29.12-8 1-21.77 2.56-28.17 10.24v68.48a28.8 28.8 0 1 1-57.6 0V139.68c0-16.64 12.16-30.09 28.8-30.09 13.76 0 25.28 8.33 28.8 20.81 2.88-6.4 7.68-13.44 15-17.61a27.08 27.08 0 0 1 12.48-3.51 24.45 24.45 0 0 1 24.69 24.64z"/></g></g></svg>