<svg xmlns="http://www.w3.org/2000/svg" viewBox="0 0 3764.87 400.32"><defs><style>.cls-2{fill:#f66271;stroke:#1b1950;stroke-width:1.6px}</style><filter id="filter"><feOffset dx="-7" dy="8"/><feGaussianBlur result="blur"/><feFlood flood-color="#081742"/><feComposite operator="in" in2="blur"/><feComposite in="SourceGraphic"/></filter></defs><g id="Layer_2" data-name="Layer 2"><g filter="url(#filter)" id="Layer_1-2" data-name="Layer 1"><path class="cls-2" d="M206.53 103.83L146 182.24v56a32.32 32.32 0 0 1-64.64 0v-56l-60.44-78.41c-6.4-8-8.32-14.4-8.32-21.44A31.68 31.68 0 0 1 44 50.71a30.5 30.5 0 0 1 25.28 12.8l44.48 63.69 44.44-63.69a30.5 30.5 0 0 1 25.28-12.8 31.69 31.69 0 0 1 31.37 31.68c0 7.04-1.92 13.44-8.32 21.44zM193.08 189.92c0-43.2 32-81 86.72-81 55 0 87 37.76 87 81s-32 81.28-87 81.28c-54.72 0-86.72-38.08-86.72-81.28zm114.56 0c0-17-9.92-30.08-27.84-30.08-17.6 0-27.52 13.12-27.52 30.08 0 17.28 9.92 30.4 27.52 30.4 17.92 0 27.84-13.12 27.84-30.4zM550.2 138.4v103.36c0 16.64-12.16 30.08-28.8 30.08a29.58 29.58 0 0 1-28.8-21.76c-9 9.92-25.92 21.12-53.12 21.12-35.84 0-51.2-21.44-51.2-48v-84.8a28.8 28.8 0 1 1 57.6 0v60.16c0 15.68 8.32 21.76 22.4 21.76 12.8 0 19.52-6.72 24.32-12.16V138.4a28.8 28.8 0 1 1 57.6 0zM592.75 151.52c-10.24-43.52-15.68-67.21-15.68-71.37a29.45 29.45 0 0 1 58.89 0c0 4.16-5.44 27.85-15.68 71.37-1.28 5.12-5.76 10.24-13.76 10.24a13.79 13.79 0 0 1-13.77-10.24zM772.6 133.92c0 14.72-7.36 27.2-24 29.12-8 1-21.76 2.56-28.16 10.24v68.48a28.81 28.81 0 0 1-57.61 0V139.68c0-16.64 12.16-30.09 28.8-30.09 13.77 0 25.29 8.33 28.81 20.81 2.88-6.4 7.68-13.44 15-17.61a27.08 27.08 0 0 1 12.56-3.51 24.45 24.45 0 0 1 24.6 24.64zM861.23 109c45.45 0 80.33 32.64 80.33 70.72 0 21.76-12.16 28.16-34.24 28.16H836.6c3.2 9.92 14.4 19.52 33.92 19.52a62.44 62.44 0 0 0 22.72-4.48 21 21 0 0 1 8-1.6A21.78 21.78 0 0 1 923 243c0 9-6.08 17-14.08 20.16a135.21 135.21 0 0 1-45.76 8c-48.33 0-86.09-30.4-86.09-81.28 0-44.76 34.24-80.88 84.16-80.88zM836 171.36h50.89c-1.6-6.72-7-18.56-25.61-18.56-17.64 0-23.4 11.52-25.28 18.56zM1212 189.92c0 53.12-29.44 81.28-67.84 81.28-16 0-30.72-5.44-43.52-20.16v49.6a28.8 28.8 0 0 1-57.6 0V138.4c0-16.65 12.16-30.4 28.8-30.4a30.36 30.36 0 0 1 28.8 21.12c12.48-14.72 27.52-20.16 43.52-20.16 38.35.04 67.84 28.16 67.84 80.96zm-58.88 0c0-19.2-13.44-30.08-28.8-30.08-7.36 0-18.24 3.84-23.68 10.56v39.36c5.12 6.4 16.32 10.56 23.68 10.56 15.31 0 28.75-10.88 28.75-30.4zM1380.27 173.92v65.92c0 17-11.84 30.72-28.8 30.72A30.92 30.92 0 0 1 1323 252c-8.32 11.2-27.52 19.2-47 19.2-23 0-53.12-15.68-53.12-50.88 0-38.4 30.08-47.68 53.12-47.68 20.16 0 38.4 6.4 46.72 17V172c0-10.88-9.92-19.2-28.8-19.2-9.28 0-19.2 2.24-29.44 7a18.67 18.67 0 0 1-8.32 1.92 20.77 20.77 0 0 1-9.28-39.36 131 131 0 0 1 57.6-13.44c38.35.08 75.79 13.48 75.79 65zm-57.6 51.52v-8.64c-3.84-5.44-13.76-8.32-22.72-8.32-9.6 0-20.16 3.2-20.16 12.8s10.56 12.48 20.16 12.48c8.96 0 18.88-2.88 22.72-8.32zM1522 133.92c0 14.72-7.36 27.2-24 29.12-8 1-21.76 2.56-28.16 10.24v68.48a28.8 28.8 0 0 1-57.6 0V139.68c0-16.64 12.16-30.09 28.8-30.09 13.76 0 25.28 8.33 28.8 20.81 2.88-6.4 7.68-13.44 15-17.61a27.08 27.08 0 0 1 12.48-3.51 24.44 24.44 0 0 1 24.68 24.64z"/><path class="cls-2" d="M1640.42 245.6c0 11.84-8.64 21.12-19.52 23.68a83.63 83.63 0 0 1-18.9 1.92c-34.24 0-53.12-16.32-53.12-48.64v-59.84h-3.84a25 25 0 0 1 0-49.93h3.84V96.15a28.8 28.8 0 1 1 57.6 0v16.64h9.6a25 25 0 0 1 0 49.93h-9.6v43.2c0 7.68 4.48 13.76 11.52 14.4l2.88.32c11.86 1.28 19.54 12.48 19.54 24.96zM1730.34 189.92c0-43.2 32-81 86.72-81 55 0 87 37.76 87 81s-32 81.28-87 81.28c-54.72 0-86.72-38.08-86.72-81.28zm114.56 0c0-17-9.92-30.08-27.84-30.08-17.6 0-27.52 13.12-27.52 30.08 0 17.28 9.92 30.4 27.52 30.4 17.94 0 27.84-13.12 27.84-30.4zM2029.54 137.76a25 25 0 0 1-25 25H1995v79a28.81 28.81 0 0 1-57.61 0v-79h-3.84a25 25 0 0 1 0-49.93h3.84v-7c0-32 24.65-55 58.89-55a84.75 84.75 0 0 1 18.56 1.92c9.28 1.92 17 9.6 17 19.84a21.1 21.1 0 0 1-21.44 20.8h-.64c-8.64 0-14.72 5.44-14.72 14.4v5.12h9.6a25 25 0 0 1 24.9 24.85zM2272.73 173.92v65.92c0 17-11.84 30.72-28.8 30.72a30.92 30.92 0 0 1-28.48-18.56c-8.32 11.2-27.52 19.2-47 19.2-23 0-53.12-15.68-53.12-50.88 0-38.4 30.08-47.68 53.12-47.68 20.16 0 38.4 6.4 46.72 17V172c0-10.88-9.92-19.2-28.8-19.2-9.28 0-19.2 2.24-29.44 7a18.67 18.67 0 0 1-8.32 1.92 20.77 20.77 0 0 1-9.28-39.36 131 131 0 0 1 57.6-13.44c38.36.08 75.8 13.48 75.8 65zm-57.6 51.52v-8.64c-3.84-5.44-13.76-8.32-22.72-8.32-9.6 0-20.16 3.2-20.16 12.8s10.56 12.48 20.16 12.48c8.96 0 18.88-2.88 22.72-8.32zM2462.48 109c17.28 0 31.36 3.83 42.24 9.6 8.32 4.48 14.08 12.8 14.08 22.72a25.68 25.68 0 0 1-25.6 25.6 23.42 23.42 0 0 1-12.48-3.2 31.62 31.62 0 0 0-15.68-3.84c-16.32 0-30.4 10.24-30.4 30.08s14.08 30.4 30.4 30.4a30.41 30.41 0 0 0 15.36-3.84 27 27 0 0 1 12.48-3.52 25.81 25.81 0 0 1 11.84 48.64c-10.88 5.76-25 9.6-42.24 9.6-49 0-86.72-32-86.72-81.28 0-48.96 37.76-80.96 86.72-80.96zM2530 189.92c0-43.2 32-81 86.72-81 55 0 87 37.76 87 81s-32 81.28-87 81.28c-54.72 0-86.72-38.08-86.72-81.28zm114.56 0c0-17-9.92-30.08-27.84-30.08-17.6 0-27.52 13.12-27.52 30.08 0 17.28 9.92 30.4 27.52 30.4 17.92 0 27.84-13.12 27.84-30.4zM2980.24 155.36v86.4a28.8 28.8 0 1 1-57.6 0v-64.64c0-9.28-4.8-17.28-17.6-17.28s-19.84 7.68-23.68 12.16v69.76a28.8 28.8 0 0 1-57.6 0v-64.64c0-9.28-4.48-17.28-17.6-17.28-12.48 0-19.52 7.68-23.36 12.16v69.76a28.8 28.8 0 0 1-57.6 0V138.4c0-16.65 12.16-30.08 28.8-30.08a29.85 29.85 0 0 1 28.8 22.08c6.72-8.65 26.2-21.4 51.2-21.4 21.76 0 37.44 8 44.48 27.2 9-13.45 29.12-27.2 54.08-27.2 28.44 0 47.68 14.36 47.68 46.36zM3181.2 189.92c0 53.12-29.44 81.28-67.84 81.28-16 0-30.72-5.44-43.53-20.16v49.6a28.8 28.8 0 1 1-57.6 0V138.4c0-16.65 12.16-30.4 28.8-30.4a30.36 30.36 0 0 1 28.8 21.12c12.48-14.72 27.52-20.16 43.53-20.16 38.4.04 67.84 28.16 67.84 80.96zm-58.88 0c0-19.2-13.44-30.08-28.8-30.08-7.37 0-18.25 3.84-23.69 10.56v39.36c5.12 6.4 16.32 10.56 23.69 10.56 15.36 0 28.8-10.88 28.8-30.4zM3349.51 173.92v65.92c0 17-11.84 30.72-28.8 30.72a30.92 30.92 0 0 1-28.48-18.56c-8.32 11.2-27.52 19.2-47 19.2-23 0-53.12-15.68-53.12-50.88 0-38.4 30.08-47.68 53.12-47.68 20.16 0 38.4 6.4 46.72 17V172c0-10.88-9.92-19.2-28.8-19.2-9.28 0-19.2 2.24-29.44 7a18.67 18.67 0 0 1-8.32 1.92 20.77 20.77 0 0 1-9.28-39.36 131 131 0 0 1 57.6-13.44c38.36.08 75.8 13.48 75.8 65zm-57.6 51.52v-8.64c-3.84-5.44-13.76-8.32-22.72-8.32-9.6 0-20.16 3.2-20.16 12.8s10.56 12.48 20.16 12.48c8.96 0 18.88-2.88 22.72-8.32zM3543.75 157.6v84.16a28.8 28.8 0 0 1-57.6 0v-59.84c0-16-8.64-22.08-22.4-22.08-13.12 0-19.84 6.72-24.64 12.16v69.76a28.8 28.8 0 0 1-57.6 0V138.4c0-16.65 12.16-30.08 28.8-30.08a29.29 29.29 0 0 1 28.8 22.08c9-10.24 25.92-21.44 53.12-21.44 35.84.04 51.52 21.76 51.52 48.64zM3589.82 279.52l2.56-.32c10.56-1 17-2.24 18.89-6.08l1.27-3.2-48.32-121.28c-1.28-3.2-2.56-7.36-2.56-10.88a28 28 0 0 1 28.16-28.17c11.2 0 22.08 5.77 25.92 17.61l26.57 78.4 25.92-78.4c3.84-11.53 14.72-17.61 25.92-17.61 16.64 0 28.48 12.81 28.48 28.17 0 3.52-1.28 7.68-2.56 10.88l-54.72 137.92c-13.76 34.56-42.25 43.52-63.37 43.52h-3.52c-18.56 0-29.12-12.8-29.12-26.88a23.42 23.42 0 0 1 20.48-23.68z"/></g></g></svg>