<svg xmlns="http://www.w3.org/2000/svg" viewBox="0 0 5376.39 400.32"><defs><style>.cls-2{fill:#fde23e;stroke:#1b1950;stroke-width:1.6px}</style><filter id="filter"><feOffset dx="-7" dy="8"/><feGaussianBlur result="blur"/><feFlood flood-color="#852798"/><feComposite operator="in" in2="blur"/><feComposite in="SourceGraphic"/></filter></defs><g id="Layer_2" data-name="Layer 2"><g filter="url(#filter)" id="Layer_1-2" data-name="Layer 1"><path class="cls-2" d="M25.08 233.12V83a32.32 32.32 0 0 1 64.64 0v128h56a28.16 28.16 0 0 1 0 56.32h-86.4c-22.08.04-34.24-12.12-34.24-34.2zM268.92 109c45.44 0 80.32 32.64 80.32 70.72 0 21.76-12.16 28.16-34.24 28.16h-70.72c3.2 9.92 14.4 19.52 33.92 19.52a62.44 62.44 0 0 0 22.72-4.48 21 21 0 0 1 8-1.6A21.78 21.78 0 0 1 330.68 243c0 9-6.08 17-14.08 20.16a135.21 135.21 0 0 1-45.76 8c-48.32 0-86.08-30.4-86.08-81.28 0-44.76 34.24-80.88 84.16-80.88zm-25.28 62.4h50.88c-1.6-6.72-7-18.56-25.6-18.56-17.6-.04-23.36 11.48-25.28 18.52zM516 173.92v65.92c0 17-11.84 30.72-28.8 30.72A30.92 30.92 0 0 1 458.68 252c-8.32 11.2-27.52 19.2-47 19.2-23 0-53.12-15.68-53.12-50.88 0-38.4 30.08-47.68 53.12-47.68 20.16 0 38.4 6.4 46.72 17V172c0-10.88-9.92-19.2-28.8-19.2-9.28 0-19.2 2.24-29.44 7a18.67 18.67 0 0 1-8.32 1.92 20.77 20.77 0 0 1-9.28-39.36A131 131 0 0 1 440.12 109c38.4 0 75.88 13.4 75.88 64.92zm-57.6 51.52v-8.64c-3.84-5.44-13.76-8.32-22.72-8.32-9.6 0-20.16 3.2-20.16 12.8s10.56 12.48 20.16 12.48c8.92 0 18.84-2.88 22.68-8.32zM657.72 133.92c0 14.72-7.36 27.2-24 29.12-8 1-21.76 2.56-28.16 10.24v68.48a28.8 28.8 0 0 1-57.6 0V139.68c0-16.64 12.16-30.09 28.8-30.09 13.76 0 25.28 8.33 28.8 20.81 2.88-6.4 7.68-13.44 15-17.61a27.08 27.08 0 0 1 12.48-3.51 24.45 24.45 0 0 1 24.68 24.64zM835 157.6v84.16a28.8 28.8 0 1 1-57.6 0v-59.84c0-16-8.64-22.08-22.4-22.08-13.12 0-19.84 6.72-24.64 12.16v69.76a28.8 28.8 0 0 1-57.6 0V138.4c0-16.65 12.16-30.08 28.8-30.08a29.29 29.29 0 0 1 28.8 22.08c9-10.24 25.92-21.44 53.12-21.44C819.32 109 835 130.72 835 157.6zM1052.59 137.76a25 25 0 0 1-25 25H1018v79a28.8 28.8 0 1 1-57.6 0v-79h-3.84a25 25 0 0 1 0-49.93h3.84v-7c0-32 24.64-55 58.88-55a84.75 84.75 0 0 1 18.56 1.92c9.28 1.92 17 9.6 17 19.84a21.1 21.1 0 0 1-21.44 20.8h-.64c-8.64 0-14.72 5.44-14.72 14.4v5.12h9.6a25 25 0 0 1 24.95 24.85zM1214.19 173.92v65.92c0 17-11.84 30.72-28.8 30.72a30.92 30.92 0 0 1-28.48-18.56c-8.32 11.2-27.52 19.2-47 19.2-23 0-53.12-15.68-53.12-50.88 0-38.4 30.08-47.68 53.12-47.68 20.16 0 38.4 6.4 46.72 17V172c0-10.88-9.92-19.2-28.8-19.2-9.28 0-19.2 2.24-29.44 7a18.67 18.67 0 0 1-8.32 1.92 20.77 20.77 0 0 1-9.28-39.36 131 131 0 0 1 57.6-13.44c38.36.08 75.8 13.48 75.8 65zm-57.6 51.52v-8.64c-3.84-5.44-13.76-8.32-22.72-8.32-9.6 0-20.16 3.2-20.16 12.8s10.56 12.48 20.16 12.48c8.96 0 18.88-2.88 22.72-8.32zM1238.5 237.92a22.81 22.81 0 0 1 22.72-22.72 23.52 23.52 0 0 1 9.6 2.24c13.76 6.4 29.45 10.88 41 10.88 11.84 0 15.36-3.2 15.36-7.36 0-5.12-7-7-21.76-9-25.93-3.52-65.93-8.32-65.93-50.24 0-27.84 24.32-52.8 69.12-52.8a120.28 120.28 0 0 1 49.29 10.56 21 21 0 0 1-8.32 40.32 20.44 20.44 0 0 1-9-1.92 72.25 72.25 0 0 0-31.68-7.68c-8.33 0-14.41 2.24-14.41 6.72s4.49 6.4 19.85 8.64c25.92 3.84 67.84 9.28 67.84 52.48 0 30.72-27.52 53.12-73.28 53.12a137.1 137.1 0 0 1-57-12.48 23.13 23.13 0 0 1-13.4-20.76zM1506.34 245.6c0 11.84-8.64 21.12-19.52 23.68a83.63 83.63 0 0 1-18.88 1.92c-34.24 0-53.12-16.32-53.12-48.64v-59.84H1411a25 25 0 0 1 0-49.93h3.84V96.15a28.8 28.8 0 0 1 57.6 0v16.64h9.6a25 25 0 0 1 0 49.93h-9.6v43.2c0 7.68 4.48 13.76 11.52 14.4l2.88.32c11.82 1.28 19.5 12.48 19.5 24.96zM1598.82 109c45.44 0 80.32 32.64 80.32 70.72 0 21.76-12.16 28.16-34.24 28.16h-70.72c3.2 9.92 14.4 19.52 33.92 19.52a62.44 62.44 0 0 0 22.72-4.48 21 21 0 0 1 8-1.6 21.78 21.78 0 0 1 21.76 21.68c0 9-6.08 17-14.08 20.16a135.21 135.21 0 0 1-45.76 8c-48.32 0-86.08-30.4-86.08-81.28 0-44.76 34.24-80.88 84.16-80.88zm-25.28 62.4h50.88c-1.6-6.72-7-18.56-25.6-18.56-17.6-.04-23.36 11.48-25.28 18.52zM1808.74 133.92c0 14.72-7.36 27.2-24 29.12-8 1-21.76 2.56-28.16 10.24v68.48a28.8 28.8 0 1 1-57.6 0V139.68c0-16.64 12.16-30.09 28.8-30.09 13.76 0 25.28 8.33 28.8 20.81 2.88-6.4 7.68-13.44 15-17.61a27.08 27.08 0 0 1 12.48-3.51 24.45 24.45 0 0 1 24.68 24.64zM2008.74 245.6c0 11.84-8.64 21.12-19.52 23.68a83.66 83.66 0 0 1-18.89 1.92c-34.24 0-53.12-16.32-53.12-48.64v-59.84h-3.84a25 25 0 0 1 0-49.93h3.84V96.15a28.81 28.81 0 0 1 57.61 0v16.64h9.6a25 25 0 0 1 0 49.93h-9.6v43.2c0 7.68 4.47 13.76 11.51 14.4l2.89.32c11.84 1.28 19.52 12.48 19.52 24.96zM2132.57 241.76v-60.48c0-16-8.64-21.44-22.4-21.44-13.12 0-19.84 6.72-24.64 12.16v69.76a28.8 28.8 0 0 1-57.6 0V79.51a28.8 28.8 0 0 1 57.6 0v50.89c9-10.24 25.92-21.44 53.12-21.44 35.84 0 51.52 21.12 51.52 48v84.8a28.8 28.8 0 0 1-57.6 0zM2369.05 173.92v65.92c0 17-11.84 30.72-28.8 30.72a30.92 30.92 0 0 1-28.48-18.56c-8.32 11.2-27.52 19.2-47 19.2-23 0-53.12-15.68-53.12-50.88 0-38.4 30.08-47.68 53.12-47.68 20.16 0 38.4 6.4 46.72 17V172c0-10.88-9.92-19.2-28.8-19.2-9.28 0-19.2 2.24-29.44 7a18.67 18.67 0 0 1-8.32 1.92 20.76 20.76 0 0 1-9.28-39.36 131 131 0 0 1 57.6-13.44c38.36.08 75.8 13.48 75.8 65zm-57.6 51.52v-8.64c-3.84-5.44-13.76-8.32-22.72-8.32-9.6 0-20.16 3.2-20.16 12.8s10.56 12.48 20.16 12.48c8.96 0 18.88-2.88 22.72-8.32zM2563.29 157.6v84.16a28.81 28.81 0 0 1-57.61 0v-59.84c0-16-8.64-22.08-22.4-22.08-13.12 0-19.84 6.72-24.64 12.16v69.76a28.8 28.8 0 1 1-57.6 0V138.4c0-16.65 12.16-30.08 28.8-30.08a29.29 29.29 0 0 1 28.8 22.08c9-10.24 25.92-21.44 53.12-21.44 35.85.04 51.53 21.76 51.53 48.64zM2691 279.52l2.56-.32c10.56-1 17-2.24 18.88-6.08l1.28-3.2-48.32-121.28c-1.28-3.2-2.56-7.36-2.56-10.88a28 28 0 0 1 28.16-28.17c11.2 0 22.08 5.77 25.92 17.61l26.56 78.4 25.92-78.4c3.84-11.53 14.72-17.61 25.92-17.61 16.64 0 28.48 12.81 28.48 28.17 0 3.52-1.28 7.68-2.56 10.88l-54.72 137.92c-13.76 34.56-42.24 43.52-63.36 43.52h-3.52c-18.56 0-29.12-12.8-29.12-26.88a23.42 23.42 0 0 1 20.48-23.68zM2834.32 189.92c0-43.2 32-81 86.72-81 55 0 87 37.76 87 81s-32 81.28-87 81.28c-54.72 0-86.72-38.08-86.72-81.28zm114.56 0c0-17-9.92-30.08-27.84-30.08-17.6 0-27.52 13.12-27.52 30.08 0 17.28 9.92 30.4 27.52 30.4 17.96 0 27.84-13.12 27.84-30.4zM3191.44 138.4v103.36c0 16.64-12.16 30.08-28.8 30.08a29.58 29.58 0 0 1-28.8-21.76c-9 9.92-25.92 21.12-53.13 21.12-35.84 0-51.2-21.44-51.2-48v-84.8a28.81 28.81 0 1 1 57.61 0v60.16c0 15.68 8.32 21.76 22.4 21.76 12.8 0 19.52-6.72 24.32-12.16V138.4a28.8 28.8 0 1 1 57.6 0zM3333.19 133.92c0 14.72-7.36 27.2-24 29.12-8 1-21.76 2.56-28.16 10.24v68.48a28.8 28.8 0 0 1-57.6 0V139.68c0-16.64 12.16-30.09 28.8-30.09 13.76 0 25.28 8.33 28.8 20.81 2.88-6.4 7.68-13.44 15-17.61a27.08 27.08 0 0 1 12.48-3.51 24.45 24.45 0 0 1 24.68 24.64zM3419.27 189.92c0-43.2 32-81 86.72-81 55 0 87 37.76 87 81s-32 81.28-87 81.28c-54.72 0-86.72-38.08-86.72-81.28zm114.56 0c0-17-9.92-30.08-27.84-30.08-17.6 0-27.52 13.12-27.52 30.08 0 17.28 9.92 30.4 27.52 30.4 17.92 0 27.84-13.12 27.84-30.4zM3744.71 241.44l-17.6-60.44-17.6 60.48a40.52 40.52 0 0 1-77.76 0l-27.84-96a30 30 0 0 1-1-8 28.08 28.08 0 0 1 55.36-6.4l16 66.88 20.8-65a33.74 33.74 0 0 1 64.32.32l20.48 64.64 16-66.88a28.26 28.26 0 0 1 55.68 6.72 29.66 29.66 0 0 1-1.28 7.68l-27.52 96a40.73 40.73 0 0 1-78.08 0zM4034.31 157.6v84.16a28.8 28.8 0 1 1-57.6 0v-59.84c0-16-8.64-22.08-22.41-22.08-13.12 0-19.84 6.72-24.64 12.16v69.76a28.8 28.8 0 1 1-57.6 0V138.4c0-16.65 12.16-30.08 28.8-30.08a29.29 29.29 0 0 1 28.8 22.08c9-10.24 25.92-21.44 53.13-21.44 35.84.04 51.52 21.76 51.52 48.64zM4144.38 66.07a32.32 32.32 0 1 1 32.32 32.32 32.23 32.23 0 0 1-32.32-32.32zm3.52 175.69V138.4a28.8 28.8 0 1 1 57.6 0v103.36a28.8 28.8 0 0 1-57.6 0zM4399.74 157.6v84.16a28.8 28.8 0 0 1-57.6 0v-59.84c0-16-8.64-22.08-22.4-22.08-13.12 0-19.84 6.72-24.64 12.16v69.76a28.8 28.8 0 0 1-57.6 0V138.4c0-16.65 12.16-30.08 28.8-30.08a29.29 29.29 0 0 1 28.8 22.08c9-10.24 25.92-21.44 53.12-21.44 35.84.04 51.52 21.76 51.52 48.64zM4590.46 79.51v162.25c0 16.64-12.16 30.4-28.8 30.4-13.12 0-24.64-9-28.8-21.12-13.12 14.72-27.84 20.16-43.52 20.16-37.44 0-68.16-28.16-68.16-81.28 0-51.2 30.08-81 68.16-81 15.68 0 31.36 5.44 43.52 20.16V79.51a28.8 28.8 0 1 1 57.6 0zm-57.6 130.25v-39.68c-5.44-6.72-16.32-10.24-24-10.24-15.68 0-28.8 10.88-28.8 30.08s13.12 30.4 28.8 30.4c7.68 0 18.56-3.84 24-10.56zM4784.38 138.4v103.36c0 16.64-12.16 30.08-28.8 30.08a29.58 29.58 0 0 1-28.8-21.76c-9 9.92-25.92 21.12-53.13 21.12-35.84 0-51.2-21.44-51.2-48v-84.8a28.8 28.8 0 1 1 57.6 0v60.16c0 15.68 8.33 21.76 22.41 21.76 12.8 0 19.52-6.72 24.32-12.16V138.4a28.8 28.8 0 1 1 57.6 0zM4808.69 237.92a22.81 22.81 0 0 1 22.72-22.72 23.52 23.52 0 0 1 9.6 2.24c13.76 6.4 29.44 10.88 41 10.88 11.84 0 15.36-3.2 15.36-7.36 0-5.12-7-7-21.76-9-25.92-3.52-65.92-8.32-65.92-50.24 0-27.84 24.32-52.8 69.12-52.8a120.27 120.27 0 0 1 49.28 10.56 21 21 0 0 1-8.32 40.32 20.44 20.44 0 0 1-9-1.92 72.25 72.25 0 0 0-31.68-7.68c-8.32 0-14.4 2.24-14.4 6.72s4.48 6.4 19.84 8.64c25.92 3.84 67.84 9.28 67.84 52.48 0 30.72-27.52 53.12-73.28 53.12a137.09 137.09 0 0 1-57-12.48 23.13 23.13 0 0 1-13.4-20.76zM5076.53 245.6c0 11.84-8.64 21.12-19.52 23.68a83.63 83.63 0 0 1-18.88 1.92c-34.24 0-53.12-16.32-53.12-48.64v-59.84h-3.84a25 25 0 0 1 0-49.93h3.83V96.15a28.8 28.8 0 1 1 57.6 0v16.64h9.6a25 25 0 0 1 0 49.93h-9.6v43.2c0 7.68 4.48 13.76 11.52 14.4l2.88.32c11.85 1.28 19.53 12.48 19.53 24.96zM5205.17 133.92c0 14.72-7.37 27.2-24 29.12-8 1-21.77 2.56-28.17 10.24v68.48a28.8 28.8 0 0 1-57.6 0V139.68c0-16.64 12.16-30.09 28.8-30.09 13.76 0 25.28 8.33 28.8 20.81 2.88-6.4 7.68-13.44 15-17.61a27.08 27.08 0 0 1 12.48-3.51 24.45 24.45 0 0 1 24.69 24.64zM5234.28 279.52l2.56-.32c10.56-1 17-2.24 18.88-6.08l1.28-3.2-48.32-121.28c-1.28-3.2-2.56-7.36-2.56-10.88a28 28 0 0 1 28.16-28.17c11.2 0 22.08 5.77 25.92 17.61l26.56 78.4 25.92-78.4c3.84-11.53 14.73-17.61 25.93-17.61 16.64 0 28.48 12.81 28.48 28.17 0 3.52-1.28 7.68-2.56 10.88l-54.73 137.92c-13.76 34.56-42.24 43.52-63.36 43.52h-3.52c-18.56 0-29.12-12.8-29.12-26.88a23.42 23.42 0 0 1 20.48-23.68z"/></g></g></svg>