<svg xmlns="http://www.w3.org/2000/svg" viewBox="0 0 1050.25 15.45"><g data-name="Layer 2"><path d="M1038.3 0c-6 0-6 2.93-12 2.93S1020.38 0 1014.4 0s-6 2.93-11.95 2.93-6-2.93-12-2.93-6 2.93-12 2.93S972.58 0 966.6 0s-6 2.93-12 2.93S948.68 0 942.7 0s-6 2.93-12 2.93-6-2.93-12-2.93-6 2.93-11.94 2.93-6-2.93-12-2.93-6 2.93-11.95 2.93S877 0 871 0s-6 2.93-12 2.93S853.08 0 847.11 0s-6 2.93-12 2.93S829.18 0 823.21 0s-6 2.93-12 2.93-6-2.93-12-2.93-6 2.93-11.95 2.93-6-2.93-12-2.93-6 2.93-11.95 2.93-6-2.93-12-2.93-6 2.93-11.94 2.93-6-2.93-12-2.93-6 2.93-12 2.93S709.69 0 703.72 0s-6 2.93-12 2.93S685.79 0 679.82 0s-6 2.93-12 2.93-6-2.93-12-2.93S650 2.93 644 2.93 638 0 632 0s-6 2.93-11.95 2.93-6-2.93-12-2.93-6 2.93-12 2.93S590.21 0 584.23 0s-6 2.93-12 2.93S566.31 0 560.33 0s-6 2.93-12 2.93-6-2.93-12-2.93-5.86 2.86-11.69 2.91c-5.08-.29-5.38-2.91-11-2.91-6 0-6 2.93-12 2.93S495.78 0 489.8 0s-6 2.93-11.95 2.93-6-2.93-12-2.93-6 2.93-11.95 2.93S448 0 442 0s-6 2.93-11.95 2.93S424.08 0 418.1 0s-6 2.93-12 2.93S400.18 0 394.21 0s-6 2.93-11.95 2.93S376.28 0 370.31 0s-6 2.93-11.95 2.93S352.38 0 346.41 0s-6 2.93-12 2.93S328.48 0 322.51 0s-6 2.93-11.95 2.93S304.59 0 298.61 0s-6 2.93-11.95 2.93-6-2.93-12-2.93-6 2.93-11.95 2.93S256.79 0 250.81 0s-6 2.93-11.94 2.93-6-2.93-12-2.93-6 2.93-11.95 2.93S209 0 203 0s-6 2.93-12 2.93S185.09 0 179.12 0s-6 2.93-12 2.93S161.2 0 155.22 0s-6 2.93-11.95 2.93-6-2.93-12-2.93-6 2.93-11.94 2.93S113.4 0 107.43 0s-6 2.93-12 2.93S89.5 0 83.53 0s-6 2.93-12 2.93S65.61 0 59.63 0s-6 2.93-12 2.93S41.71 0 35.73 0s-6 2.93-11.94 2.93S17.81 0 11.84 0 6 2.87.12 2.91H0v12.54h1050.25V2.93c-5.97 0-5.97-2.93-11.95-2.93z" fill="#f5f5f5" data-name="Layer 1"/></g></svg>