<svg xmlns="http://www.w3.org/2000/svg" viewBox="0 0 4541.25 400.32"><defs><style>.cls-2{fill:#fff;stroke:#1b1950;stroke-width:1.6px}</style><filter id="filter"><feOffset dx="-7" dy="8"/><feGaussianBlur result="blur"/><feFlood flood-color="#081742"/><feComposite operator="in" in2="blur"/><feComposite in="SourceGraphic"/></filter></defs><g id="Layer_2" data-name="Layer 2"><g filter="url(#filter)" id="Layer_1-2" data-name="Layer 1"><path class="cls-2" d="M25.08 83.35a32.8 32.8 0 0 1 65.6 0v94.09c0 20.48 10.56 36.8 37.12 36.8 26.24 0 36.8-16.32 36.8-36.8V83.35a32.81 32.81 0 0 1 65.61 0v96c0 53.12-30.4 91.84-102.41 91.84S25.08 232.48 25.08 179.68zM366.84 245.6c0 11.84-8.64 21.12-19.52 23.68a83.63 83.63 0 0 1-18.88 1.92c-34.24 0-53.12-16.32-53.12-48.64v-59.84h-3.84a25 25 0 0 1 0-49.93h3.84V96.15a28.8 28.8 0 1 1 57.6 0v16.64h9.6a25 25 0 0 1 0 49.93h-9.6v43.2c0 7.68 4.48 13.76 11.52 14.4l2.88.32c11.84 1.28 19.52 12.48 19.52 24.96zM382.2 66.07a32.32 32.32 0 1 1 32.32 32.32 32.23 32.23 0 0 1-32.32-32.32zm3.52 175.69V138.4a28.8 28.8 0 1 1 57.6 0v103.36a28.8 28.8 0 0 1-57.6 0zM475.31 241.76V79.51a28.81 28.81 0 0 1 57.61 0v162.25a28.81 28.81 0 0 1-57.61 0zM561.39 66.07a32.33 32.33 0 1 1 32.32 32.32 32.23 32.23 0 0 1-32.32-32.32zm3.52 175.69V138.4a28.81 28.81 0 1 1 57.61 0v103.36a28.81 28.81 0 0 1-57.61 0zM757.88 245.6c0 11.84-8.64 21.12-19.52 23.68a83.63 83.63 0 0 1-18.88 1.92c-34.25 0-53.13-16.32-53.13-48.64v-59.84h-3.84a25 25 0 0 1 0-49.93h3.84V96.15a28.81 28.81 0 0 1 57.61 0v16.64h9.6a25 25 0 0 1 0 49.93H724v43.2c0 7.68 4.48 13.76 11.52 14.4l2.88.32c11.8 1.28 19.48 12.48 19.48 24.96zM790.83 279.52l2.56-.32c10.56-1 17-2.24 18.88-6.08l1.28-3.2-48.32-121.28c-1.28-3.2-2.56-7.36-2.56-10.88a28 28 0 0 1 28.16-28.17c11.2 0 22.08 5.76 25.92 17.61l26.56 78.4 25.92-78.4c3.84-11.53 14.72-17.61 25.92-17.61 16.64 0 28.48 12.81 28.48 28.17 0 3.52-1.28 7.68-2.56 10.88l-54.72 137.92c-13.76 34.56-42.24 43.52-63.36 43.52h-3.52c-18.56 0-29.12-12.8-29.12-26.88a23.42 23.42 0 0 1 20.48-23.68zM1015.78 189.92c0-43.2 32-81 86.73-81 55 0 87 37.77 87 81s-32 81.28-87 81.28c-54.73 0-86.73-38.08-86.73-81.28zm114.57 0c0-17-9.92-30.08-27.84-30.08-17.6 0-27.52 13.12-27.52 30.08 0 17.28 9.92 30.4 27.52 30.4 17.92 0 27.84-13.12 27.84-30.4zM1315 137.76a25 25 0 0 1-25 25h-9.59v79a28.81 28.81 0 0 1-57.61 0v-79h-3.8a25 25 0 0 1 0-49.93h3.84v-7c0-32 24.64-55 58.88-55a84.78 84.78 0 0 1 18.57 1.92c9.28 1.92 17 9.6 17 19.84a21.1 21.1 0 0 1-21.44 20.8h-.64c-8.64 0-14.72 5.44-14.72 14.4v5.12h9.51a25 25 0 0 1 25 24.85zM1546.34 253.6l-69.12-100.8v85.44a32.32 32.32 0 1 1-64.64 0V93a42.41 42.41 0 0 1 42.24-42.24A41.47 41.47 0 0 1 1489.38 69l64 92.49V83a32.32 32.32 0 1 1 64.62 0v148.52a39.33 39.33 0 0 1-71.68 22.08zM1798.18 173.92v65.92c0 17-11.84 30.72-28.8 30.72A30.92 30.92 0 0 1 1740.9 252c-8.32 11.2-27.52 19.2-47 19.2-23 0-53.12-15.68-53.12-50.88 0-38.4 30.08-47.68 53.12-47.68 20.16 0 38.4 6.4 46.72 17V172c0-10.88-9.92-19.2-28.8-19.2-9.28 0-19.2 2.24-29.44 7a18.67 18.67 0 0 1-8.32 1.92 20.77 20.77 0 0 1-9.28-39.36 131.06 131.06 0 0 1 57.6-13.45c38.36.09 75.8 13.49 75.8 65.01zm-57.6 51.52v-8.64c-3.84-5.44-13.76-8.32-22.72-8.32-9.6 0-20.16 3.2-20.16 12.8s10.56 12.48 20.16 12.48c8.96 0 18.88-2.88 22.72-8.32zM2085.22 155.36v86.4a28.8 28.8 0 1 1-57.6 0v-64.64c0-9.28-4.8-17.28-17.6-17.28s-19.84 7.68-23.68 12.16v69.76a28.81 28.81 0 0 1-57.61 0v-64.64c0-9.28-4.48-17.28-17.6-17.28-12.48 0-19.52 7.68-23.36 12.16v69.76a28.8 28.8 0 0 1-57.6 0V138.4c0-16.65 12.16-30.09 28.8-30.09a29.86 29.86 0 0 1 28.8 22.09c6.72-8.65 26.23-21.4 51.23-21.4 21.76 0 37.44 8 44.48 27.21 9-13.45 29.12-27.21 54.08-27.21 28.44 0 47.66 14.35 47.66 46.36zM2113.69 66.07A32.32 32.32 0 1 1 2146 98.39a32.23 32.23 0 0 1-32.31-32.32zm3.52 175.69V138.4a28.8 28.8 0 1 1 57.6 0v103.36a28.8 28.8 0 1 1-57.6 0zM2369.05 157.6v84.16a28.8 28.8 0 0 1-57.6 0v-59.84c0-16-8.64-22.08-22.4-22.08-13.12 0-19.84 6.72-24.64 12.16v69.76a28.8 28.8 0 1 1-57.6 0V138.4c0-16.65 12.16-30.09 28.8-30.09a29.3 29.3 0 0 1 28.8 22.09c9-10.24 25.92-21.45 53.12-21.45 35.84.05 51.52 21.77 51.52 48.65zM2559.45 138.4v112.32c0 66.88-55 79.36-93.44 79.36a118.58 118.58 0 0 1-51.52-11.2 24 24 0 0 1-13.44-21.12 23.63 23.63 0 0 1 23.68-23.68 21.44 21.44 0 0 1 9.92 2.24A73.89 73.89 0 0 0 2466 283c13.44 0 35.84-5.12 35.84-32.32v-8.28c-13.12 15-27.52 20.8-43.52 20.8-37.12 0-67.84-24.32-67.84-77.12 0-51.52 29.76-77.13 67.84-77.13 16 0 31 5.45 43.52 20.17 3.2-11.53 16-19.53 28.8-19.53a28.89 28.89 0 0 1 28.81 28.81zm-57.6 64v-32.64c-5.44-6.4-16.32-9.92-23.68-9.92-15.68 0-28.8 7.36-28.8 26.24s13.12 26.24 28.8 26.24c7.36 0 18.24-3.52 23.68-9.92zM2662.8 160.8c0-65.93 50.56-110.41 115.84-110.41 37.12 0 62.08 13.44 78.72 31.68 4.8 5.44 8.32 12.8 8.32 20.8a30.66 30.66 0 0 1-30.68 30.41 29.79 29.79 0 0 1-22.76-10.28 44.22 44.22 0 0 0-33.6-15.69c-29.44 0-50.24 23.69-50.24 53.45s20.8 53.44 50.24 53.44a44.21 44.21 0 0 0 33.6-15.68 29.79 29.79 0 0 1 22.76-10.2 30.12 30.12 0 0 1 22.4 50.56c-17 18.24-41.92 32.32-78.72 32.32-65.32 0-115.88-44.8-115.88-110.4zM2872.72 189.92c0-43.2 32-81 86.72-81 55 0 87 37.77 87 81s-32 81.28-87 81.28c-54.72 0-86.72-38.08-86.72-81.28zm114.56 0c0-17-9.92-30.08-27.84-30.08-17.6 0-27.52 13.12-27.52 30.08 0 17.28 9.92 30.4 27.52 30.4 17.92 0 27.84-13.12 27.84-30.4zM3230.16 157.6v84.16a28.8 28.8 0 1 1-57.6 0v-59.84c0-16-8.64-22.08-22.4-22.08-13.12 0-19.84 6.72-24.64 12.16v69.76a28.8 28.8 0 0 1-57.6 0V138.4c0-16.65 12.16-30.09 28.8-30.09a29.3 29.3 0 0 1 28.8 22.09c9-10.24 25.92-21.45 53.12-21.45 35.84.05 51.52 21.77 51.52 48.65zM3412.24 137.76c0 3.52-1.28 7.68-2.56 10.88l-38.08 94.72a43.42 43.42 0 0 1-40 27.2c-17.92 0-33.28-11.52-39.68-27.2l-38.09-94.72c-1.27-3.2-2.56-7.36-2.56-10.88a28 28 0 0 1 28.17-28.17c11.2 0 21.76 6.08 25.92 17.61l26.24 74.24 26.24-74.24c4.16-11.53 14.72-17.61 25.92-17.61 16.64 0 28.48 12.81 28.48 28.17zM3507 109c45.44 0 80.32 32.65 80.32 70.73 0 21.76-12.16 28.16-34.24 28.16h-70.72c3.2 9.92 14.4 19.52 33.92 19.52a62.44 62.44 0 0 0 22.72-4.48 21 21 0 0 1 8-1.6 21.78 21.78 0 0 1 21.71 21.67c0 9-6.08 17-14.08 20.16a135.21 135.21 0 0 1-45.76 8c-48.32 0-86.08-30.4-86.08-81.28 0-44.76 34.21-80.88 84.21-80.88zm-25.28 62.41h50.88c-1.6-6.72-7-18.56-25.6-18.56-17.65-.05-23.41 11.47-25.33 18.51zM3769.35 157.6v84.16a28.8 28.8 0 1 1-57.6 0v-59.84c0-16-8.64-22.08-22.4-22.08-13.12 0-19.84 6.72-24.64 12.16v69.76a28.8 28.8 0 0 1-57.6 0V138.4c0-16.65 12.16-30.09 28.8-30.09a29.3 29.3 0 0 1 28.8 22.09c9-10.24 25.92-21.45 53.12-21.45 35.84.05 51.52 21.77 51.52 48.65zM3904.71 245.6c0 11.84-8.64 21.12-19.52 23.68a83.63 83.63 0 0 1-18.88 1.92c-34.24 0-53.12-16.32-53.12-48.64v-59.84h-3.84a25 25 0 0 1 0-49.93h3.84V96.15a28.8 28.8 0 0 1 57.6 0v16.64h9.6a25 25 0 0 1 0 49.93h-9.6v43.2c0 7.68 4.48 13.76 11.52 14.4l2.88.32c11.81 1.28 19.52 12.48 19.52 24.96zM3920.07 66.07a32.32 32.32 0 1 1 32.32 32.32 32.23 32.23 0 0 1-32.32-32.32zm3.52 175.69V138.4a28.8 28.8 0 1 1 57.6 0v103.36a28.8 28.8 0 0 1-57.6 0zM4002.63 189.92c0-43.2 32-81 86.72-81 55 0 87 37.77 87 81s-32 81.28-87 81.28c-54.72 0-86.72-38.08-86.72-81.28zm114.56 0c0-17-9.92-30.08-27.84-30.08-17.6 0-27.52 13.12-27.52 30.08 0 17.28 9.92 30.4 27.52 30.4 17.92 0 27.84-13.12 27.84-30.4zM4360.07 157.6v84.16a28.8 28.8 0 1 1-57.6 0v-59.84c0-16-8.64-22.08-22.4-22.08-13.12 0-19.84 6.72-24.64 12.16v69.76a28.81 28.81 0 0 1-57.61 0V138.4c0-16.65 12.16-30.09 28.8-30.09a29.31 29.31 0 0 1 28.81 22.09c9-10.24 25.92-21.45 53.12-21.45 35.84.05 51.52 21.77 51.52 48.65zM4384.38 237.92a22.81 22.81 0 0 1 22.72-22.72 23.52 23.52 0 0 1 9.6 2.24c13.76 6.4 29.44 10.88 41 10.88 11.84 0 15.36-3.2 15.36-7.36 0-5.12-7-7-21.76-9-25.92-3.52-65.92-8.32-65.92-50.24 0-27.84 24.32-52.81 69.12-52.81a120.28 120.28 0 0 1 49.28 10.57 21 21 0 0 1-8.32 40.32 20.47 20.47 0 0 1-9-1.92 72.25 72.25 0 0 0-31.68-7.68c-8.32 0-14.4 2.24-14.4 6.72s4.48 6.4 19.84 8.64c25.93 3.84 67.85 9.28 67.85 52.48 0 30.72-27.53 53.12-73.29 53.12a137.09 137.09 0 0 1-57-12.48 23.13 23.13 0 0 1-13.4-20.76z"/></g></g></svg>