<svg xmlns="http://www.w3.org/2000/svg" viewBox="0 0 4172.06 400.32"><defs><style>.g{fill:#f66271;stroke:#1b1950;stroke-width:1.6px}</style><filter id="d" filterUnits="userSpaceOnUse"><feOffset dx="-7" dy="8"/><feGaussianBlur result="e"/><feFlood flood-color="#081742" flood-opacity="1"/><feComposite in2="e" operator="in"/><feComposite in="SourceGraphic"/></filter></defs><g id="b"><g filter="url(#d)" id="c"><path class="g" d="M213.89 238.24v-105.6l-44.48 125.44c-2.56 7.04-9.6 12.48-17.6 12.48s-15.04-5.44-17.6-12.48L89.73 132.64v105.6c0 17.6-14.4 32.32-32.32 32.32s-32.32-14.72-32.32-32.32V102.23c0-28.16 23.04-51.52 51.52-51.52 22.4 0 41.6 14.4 48.64 34.56l26.56 77.44 26.56-77.44c7.04-20.16 26.24-34.56 48.64-34.56 28.48 0 51.52 23.36 51.52 51.52v136.01c0 17.6-14.4 32.32-32.32 32.32s-32.32-14.72-32.32-32.32zM385.4 108.95c45.44 0 80.32 32.64 80.32 70.72 0 21.76-12.16 28.16-34.24 28.16h-70.72c3.2 9.92 14.4 19.52 33.92 19.52 7.68 0 15.36-1.6 22.72-4.48 2.24-.96 5.12-1.6 8-1.6 11.84 0 21.76 9.6 21.76 21.76 0 8.96-6.08 16.96-14.08 20.16-14.72 5.44-31.04 8-45.76 8-48.32 0-86.08-30.4-86.08-81.28 0-44.8 34.24-80.96 84.16-80.96zm-25.28 62.4H411c-1.6-6.72-7.04-18.56-25.6-18.56-17.6 0-23.36 11.52-25.28 18.56zM588.92 245.6c0 11.84-8.64 21.12-19.52 23.68-5.44 1.28-11.84 1.92-18.88 1.92-34.24 0-53.12-16.32-53.12-48.64v-59.84h-3.84c-13.76 0-24.96-11.2-24.96-24.96s11.2-24.96 24.96-24.96h3.84V96.16c0-15.68 12.8-28.8 28.8-28.8S555 80.48 555 96.16v16.64h9.6c13.76 0 24.96 11.2 24.96 24.96s-11.2 24.96-24.96 24.96H555v43.2c0 7.68 4.48 13.76 11.52 14.4l2.88.32c11.84 1.28 19.52 12.48 19.52 24.96zM754.68 173.92v65.92c0 16.96-11.84 30.72-28.8 30.72-12.48 0-23.68-7.36-28.48-18.56-8.32 11.2-27.52 19.2-47.04 19.2-23.04 0-53.12-15.68-53.12-50.88 0-38.4 30.08-47.68 53.12-47.68 20.16 0 38.4 6.4 46.72 16.96V172c0-10.88-9.92-19.2-28.8-19.2-9.28 0-19.2 2.24-29.44 7.04-2.56 1.28-5.44 1.92-8.32 1.92-11.52 0-20.8-9.28-20.8-20.8 0-8 4.8-15.36 11.52-18.56 19.2-9.6 40-13.44 57.6-13.44 38.4 0 75.84 13.44 75.84 64.96zm-57.6 51.52v-8.64c-3.84-5.44-13.76-8.32-22.72-8.32-9.6 0-20.16 3.2-20.16 12.8s10.56 12.48 20.16 12.48c8.96 0 18.88-2.88 22.72-8.32zM1069.23 238.24a32.23 32.23 0 0 1-32.32 32.32c-14.72 0-27.2-9.92-31.04-23.04l-3.52-11.52h-79.36l-3.52 11.52c-3.84 13.12-16.32 23.04-31.04 23.04a32.23 32.23 0 0 1-32.32-32.32c0-3.84.64-7.68 1.92-11.2l51.52-139.52c8-21.76 28.8-36.8 53.12-36.8s45.12 15.04 53.12 36.8l51.52 139.52c1.28 3.52 1.92 7.36 1.92 11.2zm-83.84-56l-22.72-71.36-22.72 71.36h45.44zM1247.79 79.51v162.25c0 16.64-12.16 30.4-28.8 30.4-13.12 0-24.64-8.96-28.8-21.12-13.12 14.72-27.84 20.16-43.52 20.16-37.44 0-68.16-28.16-68.16-81.28s30.08-80.96 68.16-80.96c15.68 0 31.36 5.44 43.52 20.16v-49.6c0-15.68 12.8-28.8 28.8-28.8s28.8 13.12 28.8 28.8zm-57.6 130.24v-39.68c-5.44-6.72-16.32-10.24-24-10.24-15.68 0-28.8 10.88-28.8 30.08s13.12 30.4 28.8 30.4c7.68 0 18.56-3.84 24-10.56zM1408.42 238.24V110.23h-32.32c-15.36 0-28.16-12.48-28.16-28.16s12.8-28.16 28.16-28.16h128.96c15.36 0 28.16 12.48 28.16 28.16s-12.8 28.16-28.16 28.16h-32v128.01c0 17.6-14.4 32.32-32.32 32.32s-32.32-14.72-32.32-32.32zM1549.86 279.52l2.56-.32c10.56-.96 16.96-2.24 18.88-6.08l1.28-3.2-48.32-121.28c-1.28-3.2-2.56-7.36-2.56-10.88 0-15.36 12.16-28.16 28.16-28.16 11.2 0 22.08 5.76 25.92 17.6l26.56 78.4 25.92-78.4c3.84-11.52 14.72-17.6 25.92-17.6 16.64 0 28.48 12.8 28.48 28.16 0 3.52-1.28 7.68-2.56 10.88l-54.72 137.92c-13.76 34.56-42.24 43.52-63.36 43.52h-3.52c-18.56 0-29.12-12.8-29.12-26.88 0-13.12 9.6-22.4 20.48-23.68zM1872.74 189.92c0 53.12-29.44 81.28-67.84 81.28-16 0-30.72-5.44-43.52-20.16v49.6c0 15.68-12.8 28.8-28.8 28.8s-28.8-13.12-28.8-28.8V138.4c0-16.64 12.16-30.4 28.8-30.4 13.44 0 24.96 8.96 28.8 21.12 12.48-14.72 27.52-20.16 43.52-20.16 38.4 0 67.84 28.16 67.84 80.96zm-58.88 0c0-19.2-13.44-30.08-28.8-30.08-7.36 0-18.24 3.84-23.68 10.56v39.36c5.12 6.4 16.32 10.56 23.68 10.56 15.36 0 28.8-10.88 28.8-30.4zM1967.77 108.95c45.44 0 80.32 32.64 80.32 70.72 0 21.76-12.16 28.16-34.24 28.16h-70.72c3.2 9.92 14.4 19.52 33.92 19.52 7.68 0 15.36-1.6 22.72-4.48 2.24-.96 5.12-1.6 8-1.6 11.84 0 21.76 9.6 21.76 21.76 0 8.96-6.08 16.96-14.08 20.16-14.72 5.44-31.04 8-45.76 8-48.32 0-86.08-30.4-86.08-81.28 0-44.8 34.24-80.96 84.16-80.96zm-25.28 62.4h50.88c-1.6-6.72-7.04-18.56-25.6-18.56-17.6 0-23.36 11.52-25.28 18.56zM2060.25 237.92c0-12.48 10.24-22.72 22.72-22.72 3.52 0 6.72.96 9.6 2.24 13.76 6.4 29.44 10.88 40.96 10.88s15.36-3.2 15.36-7.36c0-5.12-7.04-7.04-21.76-8.96-25.92-3.52-65.92-8.32-65.92-50.24 0-27.84 24.32-52.8 69.12-52.8 17.6 0 34.24 3.84 49.28 10.56 7.36 3.2 12.8 10.56 12.8 19.2 0 11.52-9.6 21.12-21.12 21.12-3.2 0-6.4-.64-8.96-1.92-9.6-4.8-20.8-7.68-31.68-7.68-8.32 0-14.4 2.24-14.4 6.72s4.48 6.4 19.84 8.64c25.92 3.84 67.84 9.28 67.84 52.48 0 30.72-27.52 53.12-73.28 53.12-19.52 0-40-4.48-56.96-12.48-7.68-3.52-13.44-11.52-13.44-20.8zM2302.81 66.07c0-17.92 14.4-32.32 32.32-32.32s32.32 14.4 32.32 32.32-14.4 32.32-32.32 32.32-32.32-14.4-32.32-32.32zm3.52 175.68V138.39c0-15.68 12.8-28.8 28.8-28.8s28.8 13.12 28.8 28.8v103.36c0 15.68-12.8 28.8-28.8 28.8s-28.8-13.12-28.8-28.8zM2558.17 157.6v84.16c0 15.68-12.8 28.8-28.8 28.8s-28.8-13.12-28.8-28.8v-59.84c0-16-8.64-22.08-22.4-22.08s-19.84 6.72-24.64 12.16v69.76c0 15.68-12.8 28.8-28.8 28.8s-28.8-13.12-28.8-28.8V138.4c0-16.64 12.16-30.08 28.8-30.08 14.08 0 25.6 9.28 28.8 22.08 8.96-10.24 25.92-21.44 53.12-21.44 35.84 0 51.52 21.76 51.52 48.64zM2665.04 228.32c0-16 13.12-29.12 29.12-29.12 5.44 0 10.56 1.28 14.72 3.84 14.72 8.64 31.36 13.76 50.24 13.76 12.16 0 23.68-4.16 23.68-12.48s-8.96-12.48-30.08-16.32c-35.2-6.4-88.96-14.72-88.96-68.16 0-36.16 30.08-69.12 91.84-69.12 22.72 0 47.36 4.48 66.56 13.12 9.92 4.48 16.96 14.72 16.96 26.24 0 16-13.12 28.8-28.8 28.8-4.48 0-8.96-.96-12.8-2.56-18.88-7.36-33.6-11.2-45.44-11.2-19.2 0-22.72 5.76-22.72 11.2 0 8.32 8.64 11.2 31.36 15.04 35.2 6.08 87.36 16.32 87.36 65.6s-34.88 74.24-92.16 74.24c-31.04 0-55.04-6.08-75.52-17.28-9.28-5.12-15.36-14.4-15.36-25.6zM3122.96 155.36v86.4c0 15.68-12.8 28.8-28.8 28.8s-28.8-13.12-28.8-28.8v-64.64c0-9.28-4.8-17.28-17.6-17.28s-19.84 7.68-23.68 12.16v69.76c0 15.68-12.8 28.8-28.8 28.8s-28.8-13.12-28.8-28.8v-64.64c0-9.28-4.48-17.28-17.6-17.28s-19.52 7.68-23.36 12.16v69.76c0 15.68-12.8 28.8-28.8 28.8s-28.8-13.12-28.8-28.8V138.4c0-16.64 12.16-30.08 28.8-30.08 13.76 0 25.28 9.28 28.8 22.08 6.72-8.64 26.24-21.44 51.2-21.44 21.76 0 37.44 8 44.48 27.2 8.96-13.44 29.12-27.2 54.08-27.2 28.48 0 47.68 14.4 47.68 46.4zM3301.84 173.92v65.92c0 16.96-11.84 30.72-28.8 30.72-12.48 0-23.68-7.36-28.48-18.56-8.32 11.2-27.52 19.2-47.04 19.2-23.04 0-53.12-15.68-53.12-50.88 0-38.4 30.08-47.68 53.12-47.68 20.16 0 38.4 6.4 46.72 16.96V172c0-10.88-9.92-19.2-28.8-19.2-9.28 0-19.2 2.24-29.44 7.04-2.56 1.28-5.44 1.92-8.32 1.92-11.52 0-20.8-9.28-20.8-20.8 0-8 4.8-15.36 11.52-18.56 19.2-9.6 40-13.44 57.6-13.44 38.4 0 75.84 13.44 75.84 64.96zm-57.6 51.52v-8.64c-3.84-5.44-13.76-8.32-22.72-8.32-9.6 0-20.16 3.2-20.16 12.8s10.56 12.48 20.16 12.48c8.96 0 18.88-2.88 22.72-8.32zM3443.59 133.92c0 14.72-7.36 27.2-24 29.12-8 .96-21.76 2.56-28.16 10.24v68.48c0 15.68-12.8 28.8-28.8 28.8s-28.8-13.12-28.8-28.8V139.68c0-16.64 12.16-30.08 28.8-30.08 13.76 0 25.28 8.32 28.8 20.8 2.88-6.4 7.68-13.44 15.04-17.6 3.2-1.92 8.32-3.52 12.48-3.52 13.76 0 24.64 10.88 24.64 24.64z"/><path class="g" d="M3561.99 245.6c0 11.84-8.64 21.12-19.52 23.68-5.44 1.28-11.84 1.92-18.88 1.92-34.24 0-53.12-16.32-53.12-48.64v-59.84h-3.84c-13.76 0-24.96-11.2-24.96-24.96s11.2-24.96 24.96-24.96h3.84V96.16c0-15.68 12.8-28.8 28.8-28.8s28.8 13.12 28.8 28.8v16.64h9.6c13.76 0 24.96 11.2 24.96 24.96s-11.2 24.96-24.96 24.96h-9.6v43.2c0 7.68 4.48 13.76 11.52 14.4l2.88.32c11.84 1.28 19.52 12.48 19.52 24.96zM3580.87 241.76V79.51c0-15.68 12.8-28.8 28.8-28.8s28.8 13.12 28.8 28.8v162.25c0 15.68-12.8 28.8-28.8 28.8s-28.8-13.12-28.8-28.8zM3684.55 279.52l2.56-.32c10.56-.96 16.96-2.24 18.88-6.08l1.28-3.2-48.32-121.28c-1.28-3.2-2.56-7.36-2.56-10.88 0-15.36 12.16-28.16 28.16-28.16 11.2 0 22.08 5.76 25.92 17.6l26.56 78.4 25.92-78.4c3.84-11.52 14.72-17.6 25.92-17.6 16.64 0 28.48 12.8 28.48 28.16 0 3.52-1.28 7.68-2.56 10.88l-54.72 137.92c-13.76 34.56-42.24 43.52-63.36 43.52h-3.52c-18.56 0-29.12-12.8-29.12-26.88 0-13.12 9.6-22.4 20.48-23.68zM3851.59 202.72c18.56 0 34.24 15.68 34.24 34.24s-15.68 34.24-34.24 34.24-34.24-15.68-34.24-34.24 15.68-34.24 34.24-34.24zM3909.5 66.07c0-17.92 14.4-32.32 32.32-32.32s32.32 14.4 32.32 32.32-14.4 32.32-32.32 32.32-32.32-14.4-32.32-32.32zm3.52 175.68V138.39c0-15.68 12.8-28.8 28.8-28.8s28.8 13.12 28.8 28.8v103.36c0 15.68-12.8 28.8-28.8 28.8s-28.8-13.12-28.8-28.8zM3992.06 189.92c0-43.2 32-80.96 86.72-80.96s87.04 37.76 87.04 80.96-32 81.28-87.04 81.28-86.72-38.08-86.72-81.28zm114.56 0c0-16.96-9.92-30.08-27.84-30.08s-27.52 13.12-27.52 30.08 9.92 30.4 27.52 30.4 27.84-13.12 27.84-30.4z"/></g></g></svg>