<svg xmlns="http://www.w3.org/2000/svg" viewBox="0 0 4396.73 400.32"><defs><style>.cls-2{fill:#fde23e;stroke:#1b1950;stroke-width:1.6px}</style><filter id="filter"><feOffset dx="-7" dy="8"/><feGaussianBlur result="blur"/><feFlood flood-color="#081742"/><feComposite operator="in" in2="blur"/><feComposite in="SourceGraphic"/></filter></defs><g id="Layer_2" data-name="Layer 2"><g filter="url(#filter)" id="Layer_1-2" data-name="Layer 1"><path class="cls-2" d="M216.3 238.24v-105.6l-44.48 125.44a18.65 18.65 0 0 1-35.2 0L92.14 132.64v105.6a32.32 32.32 0 0 1-64.64 0v-136a51.52 51.52 0 0 1 100.16-17l26.56 77.45 26.56-77.45a51.52 51.52 0 0 1 100.16 17v136a32.32 32.32 0 0 1-64.64 0zM476.14 138.4v103.36c0 16.64-12.16 30.08-28.8 30.08a29.58 29.58 0 0 1-28.8-21.76c-9 9.92-25.92 21.12-53.12 21.12-35.84 0-51.2-21.44-51.2-48v-84.8a28.8 28.8 0 1 1 57.6 0v60.16c0 15.68 8.32 21.76 22.4 21.76 12.8 0 19.52-6.72 24.32-12.16V138.4a28.8 28.8 0 1 1 57.6 0zM508.13 241.76V79.51a28.8 28.8 0 0 1 57.6 0v162.25a28.8 28.8 0 0 1-57.6 0zM701.09 245.6c0 11.84-8.64 21.12-19.52 23.68a83.63 83.63 0 0 1-18.88 1.92c-34.24 0-53.12-16.32-53.12-48.64v-59.84h-3.84a25 25 0 0 1 0-49.93h3.84V96.15a28.8 28.8 0 1 1 57.6 0v16.64h9.6a25 25 0 0 1 0 49.93h-9.6v43.2c0 7.68 4.48 13.76 11.52 14.4l2.88.32c11.84 1.28 19.52 12.48 19.52 24.96zM716.45 66.07a32.32 32.32 0 1 1 32.32 32.32 32.23 32.23 0 0 1-32.32-32.32zM720 241.76V138.4a28.8 28.8 0 1 1 57.6 0v103.36a28.8 28.8 0 0 1-57.6 0zM978.53 189.92c0 53.12-29.44 81.28-67.84 81.28-16 0-30.72-5.44-43.52-20.16v49.6a28.8 28.8 0 1 1-57.6 0V138.4c0-16.65 12.16-30.41 28.8-30.41a30.37 30.37 0 0 1 28.8 21.13C879.65 114.4 894.69 109 910.69 109c38.4 0 67.84 28.12 67.84 80.92zm-58.88 0c0-19.2-13.44-30.08-28.8-30.08-7.36 0-18.24 3.84-23.68 10.56v39.36c5.12 6.4 16.32 10.56 23.68 10.56 15.36 0 28.8-10.88 28.8-30.4zM1000 241.76V79.51a28.8 28.8 0 1 1 57.6 0v162.25a28.8 28.8 0 1 1-57.6 0zM1163.16 109c45.45 0 80.33 32.65 80.33 70.73 0 21.76-12.16 28.16-34.25 28.16h-70.72c3.2 9.92 14.4 19.52 33.92 19.52a62.44 62.44 0 0 0 22.72-4.48 21 21 0 0 1 8-1.6 21.78 21.78 0 0 1 21.77 21.67c0 9-6.08 17-14.08 20.16a135.31 135.31 0 0 1-45.77 8c-48.32 0-86.08-30.4-86.08-81.28 0-44.76 34.24-80.88 84.16-80.88zm-25.28 62.41h50.88c-1.6-6.72-7-18.56-25.6-18.56-17.6-.05-23.36 11.47-25.28 18.51zM1545.88 238.24a32.37 32.37 0 0 1-63.36 9.28L1479 236h-79.36l-3.52 11.52a32.37 32.37 0 0 1-63.36-9.28 33 33 0 0 1 1.92-11.2l51.52-139.53a56.74 56.74 0 0 1 106.24 0L1544 227a33 33 0 0 1 1.88 11.24zm-83.84-56l-22.72-71.36-22.72 71.36zM1722.84 138.4v103.36c0 16.64-12.16 30.08-28.8 30.08a29.58 29.58 0 0 1-28.8-21.76c-9 9.92-25.92 21.12-53.12 21.12-35.84 0-51.21-21.44-51.21-48v-84.8a28.81 28.81 0 1 1 57.61 0v60.16c0 15.68 8.32 21.76 22.4 21.76 12.8 0 19.52-6.72 24.32-12.16V138.4a28.8 28.8 0 1 1 57.6 0zM1913.55 79.51v162.25c0 16.64-12.16 30.4-28.8 30.4-13.12 0-24.64-9-28.8-21.12-13.12 14.72-27.84 20.16-43.52 20.16-37.44 0-68.16-28.16-68.16-81.28 0-51.2 30.08-81 68.16-81 15.68 0 31.36 5.45 43.52 20.17V79.51a28.8 28.8 0 1 1 57.6 0zM1856 209.76v-39.68c-5.44-6.72-16.32-10.24-24-10.24-15.68 0-28.8 10.88-28.8 30.08s13.12 30.4 28.8 30.4c7.63 0 18.51-3.84 24-10.56zM1942 66.07a32.32 32.32 0 1 1 32.32 32.32A32.23 32.23 0 0 1 1942 66.07zm3.52 175.69V138.4a28.8 28.8 0 1 1 57.6 0v103.36a28.8 28.8 0 0 1-57.6 0zM2108.75 109c45.44 0 80.32 32.65 80.32 70.73 0 21.76-12.16 28.16-34.24 28.16h-70.72c3.2 9.92 14.4 19.52 33.92 19.52a62.44 62.44 0 0 0 22.72-4.48 21 21 0 0 1 8-1.6 21.78 21.78 0 0 1 21.76 21.67c0 9-6.08 17-14.08 20.16a135.21 135.21 0 0 1-45.76 8c-48.32 0-86.08-30.4-86.08-81.28 0-44.76 34.24-80.88 84.16-80.88zm-25.28 62.41h50.88c-1.6-6.72-7-18.56-25.6-18.56-17.6-.05-23.36 11.47-25.28 18.51zM2371.15 157.6v84.16a28.8 28.8 0 0 1-57.6 0v-59.84c0-16-8.64-22.08-22.4-22.08-13.12 0-19.84 6.72-24.64 12.16v69.76a28.8 28.8 0 0 1-57.6 0V138.4c0-16.65 12.16-30.09 28.8-30.09a29.3 29.3 0 0 1 28.8 22.09c9-10.24 25.92-21.45 53.12-21.45 35.84.05 51.52 21.77 51.52 48.65zM2479.31 109c17.28 0 31.36 3.84 42.24 9.61 8.32 4.48 14.08 12.8 14.08 22.72a25.68 25.68 0 0 1-25.6 25.6 23.42 23.42 0 0 1-12.48-3.2 31.62 31.62 0 0 0-15.68-3.84c-16.32 0-30.4 10.24-30.4 30.08s14.08 30.4 30.4 30.4a30.41 30.41 0 0 0 15.36-3.84 27 27 0 0 1 12.48-3.52 25.81 25.81 0 0 1 11.84 48.64c-10.88 5.76-25 9.6-42.24 9.6-49 0-86.72-32-86.72-81.28 0-48.97 37.76-80.97 86.72-80.97zM2631 109c45.44 0 80.32 32.65 80.32 70.73 0 21.76-12.16 28.16-34.24 28.16h-70.72c3.19 9.92 14.4 19.52 33.92 19.52a62.44 62.44 0 0 0 22.72-4.48 21 21 0 0 1 8-1.6 21.78 21.78 0 0 1 21.75 21.67c0 9-6.08 17-14.08 20.16a135.21 135.21 0 0 1-45.76 8c-48.32 0-86.09-30.4-86.09-81.28 0-44.76 34.24-80.88 84.18-80.88zm-25.29 62.41h50.89c-1.6-6.72-7-18.56-25.6-18.56-17.61-.05-23.38 11.47-25.3 18.51zM2723.46 237.92a22.81 22.81 0 0 1 22.73-22.72 23.51 23.51 0 0 1 9.59 2.24c13.76 6.4 29.45 10.88 41 10.88 11.84 0 15.36-3.2 15.36-7.36 0-5.12-7-7-21.76-9-25.92-3.52-65.93-8.32-65.93-50.24 0-27.84 24.32-52.81 69.12-52.81a120.29 120.29 0 0 1 49.29 10.57 21 21 0 0 1-8.32 40.32 20.44 20.44 0 0 1-9-1.92 72.25 72.25 0 0 0-31.68-7.68c-8.33 0-14.41 2.24-14.41 6.72s4.49 6.4 19.85 8.64c25.92 3.84 67.84 9.28 67.84 52.48 0 30.72-27.52 53.12-73.28 53.12a137.17 137.17 0 0 1-57-12.48 23.13 23.13 0 0 1-13.4-20.76zM3099.78 241.44l-17.6-60.44-17.6 60.48a40.52 40.52 0 0 1-77.76 0l-27.84-96a30.46 30.46 0 0 1-1-8 28.08 28.08 0 0 1 55.36-6.4l16 66.88 20.8-65a33.74 33.74 0 0 1 64.32.32l20.54 64.64 16-66.92a28.26 28.26 0 0 1 55.68 6.72 29.66 29.66 0 0 1-1.28 7.68l-27.52 96a40.73 40.73 0 0 1-78.08 0zM3223.62 66.07a32.32 32.32 0 1 1 32.32 32.32 32.23 32.23 0 0 1-32.32-32.32zm3.51 175.69V138.4a28.81 28.81 0 1 1 57.61 0v103.36a28.81 28.81 0 0 1-57.61 0zM3420.1 245.6c0 11.84-8.64 21.12-19.52 23.68a83.63 83.63 0 0 1-18.88 1.92c-34.25 0-53.12-16.32-53.12-48.64v-59.84h-3.84a25 25 0 0 1 0-49.93h3.84V96.15a28.8 28.8 0 1 1 57.6 0v16.64h9.6a25 25 0 0 1 0 49.93h-9.6v43.2c0 7.68 4.48 13.76 11.52 14.4l2.88.32c11.84 1.28 19.52 12.48 19.52 24.96zM3543.93 241.76v-60.48c0-16-8.64-21.44-22.4-21.44-13.12 0-19.84 6.72-24.64 12.16v69.76a28.8 28.8 0 1 1-57.6 0V79.51a28.8 28.8 0 1 1 57.6 0v50.89c9-10.24 25.92-21.45 53.12-21.45 35.85 0 51.52 21.13 51.52 48v84.8a28.8 28.8 0 0 1-57.6 0zM3762.16 238.24v-128h-32.32a28.16 28.16 0 0 1 0-56.32h129a28.16 28.16 0 0 1 0 56.32h-32v128a32.33 32.33 0 0 1-64.65 0zM4030 173.92v65.92c0 17-11.85 30.72-28.81 30.72a30.92 30.92 0 0 1-28.47-18.56c-8.32 11.2-27.52 19.2-47 19.2-23 0-53.12-15.68-53.12-50.88 0-38.4 30.08-47.68 53.12-47.68 20.16 0 38.4 6.4 46.72 17V172c0-10.88-9.92-19.2-28.8-19.2-9.28 0-19.2 2.24-29.44 7a18.67 18.67 0 0 1-8.32 1.92 20.77 20.77 0 0 1-9.28-39.36 131.06 131.06 0 0 1 57.6-13.45c38.36.09 75.8 13.49 75.8 65.01zm-57.61 51.52v-8.64c-3.84-5.44-13.76-8.32-22.72-8.32-9.6 0-20.16 3.2-20.16 12.8s10.56 12.48 20.16 12.48c8.97 0 18.89-2.88 22.73-8.32zM4231.28 189.92c0 53.12-30.72 81.28-68.16 81.28-15.68 0-30.4-5.44-43.52-20.16-3.52 11.52-16 19.52-28.8 19.52a28.88 28.88 0 0 1-28.8-28.8V79.51a28.8 28.8 0 0 1 57.6 0v49.61c12.16-14.72 27.84-20.17 43.52-20.17 38.08.05 68.16 29.77 68.16 80.97zm-58.88 0c0-19.2-13.12-30.08-28.8-30.08-7.68 0-18.56 3.84-24 10.56v39.68c5.44 6.72 16.32 10.24 24 10.24 15.68 0 28.8-10.88 28.8-30.4zM4245 237.92a22.81 22.81 0 0 1 22.72-22.72 23.52 23.52 0 0 1 9.6 2.24c13.76 6.4 29.44 10.88 41 10.88 11.84 0 15.36-3.2 15.36-7.36 0-5.12-7-7-21.76-9-25.92-3.52-65.92-8.32-65.92-50.24 0-27.84 24.32-52.81 69.12-52.81a120.28 120.28 0 0 1 49.28 10.57 21 21 0 0 1-8.32 40.32 20.44 20.44 0 0 1-9-1.92 72.25 72.25 0 0 0-31.68-7.68c-8.32 0-14.4 2.24-14.4 6.72s4.48 6.4 19.84 8.64c25.92 3.84 67.84 9.28 67.84 52.48 0 30.72-27.52 53.12-73.28 53.12a137.09 137.09 0 0 1-57-12.48 23.13 23.13 0 0 1-13.4-20.76z"/></g></g></svg>