<svg xmlns="http://www.w3.org/2000/svg" viewBox="0 0 1379.83 400.32"><defs><style>.g{fill:#fff;stroke:#1b1950;stroke-width:1.6px}</style><filter id="d" filterUnits="userSpaceOnUse"><feOffset dx="-7" dy="8"/><feGaussianBlur result="e"/><feFlood flood-color="#081742" flood-opacity="1"/><feComposite in2="e" operator="in"/><feComposite in="SourceGraphic"/></filter></defs><g id="b"><g filter="url(#d)" id="c"><path class="g" d="M60.46 233.12V83.03c0-17.6 14.4-32.32 32.32-32.32s32.32 14.72 32.32 32.32v128.01h56c15.36 0 28.16 12.48 28.16 28.16s-12.8 28.16-28.16 28.16H94.7c-22.08 0-34.24-12.16-34.24-34.24zM227.18 66.07c0-17.92 14.4-32.32 32.32-32.32s32.32 14.4 32.32 32.32-14.4 32.32-32.32 32.32-32.32-14.4-32.32-32.32zm3.52 175.68V138.39c0-15.68 12.8-28.8 28.8-28.8s28.8 13.12 28.8 28.8v103.36c0 15.68-12.8 28.8-28.8 28.8s-28.8-13.12-28.8-28.8zM489.59 189.92c0 53.12-30.72 81.28-68.16 81.28-15.68 0-30.4-5.44-43.52-20.16-3.52 11.52-16 19.52-28.8 19.52-16 0-28.8-13.12-28.8-28.8V79.51c0-15.68 12.8-28.8 28.8-28.8s28.8 13.12 28.8 28.8v49.6c12.16-14.72 27.84-20.16 43.52-20.16 38.08 0 68.16 29.76 68.16 80.96zm-58.88 0c0-19.2-13.12-30.08-28.8-30.08-7.68 0-18.56 3.84-24 10.56v39.68c5.44 6.72 16.32 10.24 24 10.24 15.68 0 28.8-10.88 28.8-30.4zM620.78 133.92c0 14.72-7.36 27.2-24 29.12-8 .96-21.76 2.56-28.16 10.24v68.48c0 15.68-12.8 28.8-28.8 28.8s-28.8-13.12-28.8-28.8V139.68c0-16.64 12.16-30.08 28.8-30.08 13.76 0 25.28 8.32 28.8 20.8 2.88-6.4 7.68-13.44 15.04-17.6 3.2-1.92 8.32-3.52 12.48-3.52 13.76 0 24.64 10.88 24.64 24.64zM782.7 173.92v65.92c0 16.96-11.84 30.72-28.8 30.72-12.48 0-23.68-7.36-28.48-18.56-8.32 11.2-27.52 19.2-47.04 19.2-23.04 0-53.12-15.68-53.12-50.88 0-38.4 30.08-47.68 53.12-47.68 20.16 0 38.4 6.4 46.72 16.96V172c0-10.88-9.92-19.2-28.8-19.2-9.28 0-19.2 2.24-29.44 7.04-2.56 1.28-5.44 1.92-8.32 1.92-11.52 0-20.8-9.28-20.8-20.8 0-8 4.8-15.36 11.52-18.56 19.2-9.6 40-13.44 57.6-13.44 38.4 0 75.84 13.44 75.84 64.96zm-57.6 51.52v-8.64c-3.84-5.44-13.76-8.32-22.72-8.32-9.6 0-20.16 3.2-20.16 12.8s10.56 12.48 20.16 12.48c8.96 0 18.88-2.88 22.72-8.32zM924.46 133.92c0 14.72-7.36 27.2-24 29.12-8 .96-21.76 2.56-28.16 10.24v68.48c0 15.68-12.8 28.8-28.8 28.8s-28.8-13.12-28.8-28.8V139.68c0-16.64 12.16-30.08 28.8-30.08 13.76 0 25.28 8.32 28.8 20.8 2.88-6.4 7.68-13.44 15.04-17.6 3.2-1.92 8.32-3.52 12.48-3.52 13.76 0 24.64 10.88 24.64 24.64zM935.98 66.07c0-17.92 14.4-32.32 32.32-32.32s32.32 14.4 32.32 32.32-14.4 32.32-32.32 32.32-32.32-14.4-32.32-32.32zm3.52 175.68V138.39c0-15.68 12.8-28.8 28.8-28.8s28.8 13.12 28.8 28.8v103.36c0 15.68-12.8 28.8-28.8 28.8s-28.8-13.12-28.8-28.8zM1102.7 108.95c45.44 0 80.32 32.64 80.32 70.72 0 21.76-12.16 28.16-34.24 28.16h-70.72c3.2 9.92 14.4 19.52 33.92 19.52 7.68 0 15.36-1.6 22.72-4.48 2.24-.96 5.12-1.6 8-1.6 11.84 0 21.76 9.6 21.76 21.76 0 8.96-6.08 16.96-14.08 20.16-14.72 5.44-31.04 8-45.76 8-48.32 0-86.08-30.4-86.08-81.28 0-44.8 34.24-80.96 84.16-80.96zm-25.28 62.4h50.88c-1.6-6.72-7.04-18.56-25.6-18.56-17.6 0-23.36 11.52-25.28 18.56zM1195.17 237.92c0-12.48 10.24-22.72 22.72-22.72 3.52 0 6.72.96 9.6 2.24 13.76 6.4 29.44 10.88 40.96 10.88s15.36-3.2 15.36-7.36c0-5.12-7.04-7.04-21.76-8.96-25.92-3.52-65.92-8.32-65.92-50.24 0-27.84 24.32-52.8 69.12-52.8 17.6 0 34.24 3.84 49.28 10.56 7.36 3.2 12.8 10.56 12.8 19.2 0 11.52-9.6 21.12-21.12 21.12-3.2 0-6.4-.64-8.96-1.92-9.6-4.8-20.8-7.68-31.68-7.68-8.32 0-14.4 2.24-14.4 6.72s4.48 6.4 19.84 8.64c25.92 3.84 67.84 9.28 67.84 52.48 0 30.72-27.52 53.12-73.28 53.12-19.52 0-40-4.48-56.96-12.48-7.68-3.52-13.44-11.52-13.44-20.8z"/></g></g></svg>