<svg xmlns="http://www.w3.org/2000/svg" viewBox="0 0 4292.25 400.32"><defs><style>.g{fill:#fde23e;stroke:#1b1950;stroke-width:1.6px}</style><filter id="d" filterUnits="userSpaceOnUse"><feOffset dx="-7" dy="8"/><feGaussianBlur result="e"/><feFlood flood-color="#852798" flood-opacity="1"/><feComposite in2="e" operator="in"/><feComposite in="SourceGraphic"/></filter></defs><g id="b"><g filter="url(#d)" id="c"><path class="g" d="M33.17 238.24V88.15c0-22.08 12.16-34.24 34.24-34.24h79.68c49.92 0 76.8 33.28 76.8 73.28s-26.88 71.68-76.8 71.68H97.81v39.36c0 17.6-14.4 32.32-32.32 32.32s-32.32-14.72-32.32-32.32zm105.61-130.57H97.82v37.44h40.96c10.88 0 19.52-7.36 19.52-18.56s-8.64-18.88-19.52-18.88zM353.49 133.92c0 14.72-7.36 27.2-24 29.12-8 .96-21.76 2.56-28.16 10.24v68.48c0 15.68-12.8 28.8-28.8 28.8s-28.8-13.12-28.8-28.8V139.68c0-16.64 12.16-30.08 28.8-30.08 13.76 0 25.28 8.32 28.8 20.8 2.88-6.4 7.68-13.44 15.04-17.6 3.2-1.92 8.32-3.52 12.48-3.52 13.76 0 24.64 10.88 24.64 24.64zM442.13 108.96c45.44 0 80.32 32.64 80.32 70.72 0 21.76-12.16 28.16-34.24 28.16h-70.72c3.2 9.92 14.4 19.52 33.92 19.52 7.68 0 15.36-1.6 22.72-4.48 2.24-.96 5.12-1.6 8-1.6 11.84 0 21.76 9.6 21.76 21.76 0 8.96-6.08 16.96-14.08 20.16-14.72 5.44-31.04 8-45.76 8-48.32 0-86.08-30.4-86.08-81.28 0-44.8 34.24-80.96 84.16-80.96zm-25.28 62.4h50.88c-1.6-6.72-7.04-18.56-25.6-18.56-17.6 0-23.36 11.52-25.28 18.56zM701.01 79.51v162.25c0 16.64-12.16 30.4-28.8 30.4-13.12 0-24.64-8.96-28.8-21.12-13.12 14.72-27.84 20.16-43.52 20.16-37.44 0-68.16-28.16-68.16-81.28s30.08-80.96 68.16-80.96c15.68 0 31.36 5.44 43.52 20.16v-49.6c0-15.68 12.8-28.8 28.8-28.8s28.8 13.12 28.8 28.8zm-57.6 130.24v-39.68c-5.44-6.72-16.32-10.24-24-10.24-15.68 0-28.8 10.88-28.8 30.08s13.12 30.4 28.8 30.4c7.68 0 18.56-3.84 24-10.56zM729.49 66.07c0-17.92 14.4-32.32 32.32-32.32s32.32 14.4 32.32 32.32-14.4 32.32-32.32 32.32-32.32-14.4-32.32-32.32zm3.52 175.68V138.39c0-15.68 12.8-28.8 28.8-28.8s28.8 13.12 28.8 28.8v103.36c0 15.68-12.8 28.8-28.8 28.8s-28.8-13.12-28.8-28.8zM898.77 108.96c17.28 0 31.36 3.84 42.24 9.6 8.32 4.48 14.08 12.8 14.08 22.72 0 14.08-11.52 25.6-25.6 25.6-4.8 0-8.64-.96-12.48-3.2-4.48-2.56-9.92-3.84-15.68-3.84-16.32 0-30.4 10.24-30.4 30.08s14.08 30.4 30.4 30.4c5.76 0 10.88-1.28 15.36-3.84 3.52-1.92 8-3.52 12.48-3.52 14.08 0 25.6 11.52 25.6 25.92 0 9.92-5.44 18.24-13.76 22.72-10.88 5.76-24.96 9.6-42.24 9.6-48.96 0-86.72-32-86.72-81.28s37.76-80.96 86.72-80.96zM1080.21 245.6c0 11.84-8.64 21.12-19.52 23.68-5.44 1.28-11.84 1.92-18.88 1.92-34.24 0-53.12-16.32-53.12-48.64v-59.84h-3.84c-13.76 0-24.96-11.2-24.96-24.96s11.2-24.96 24.96-24.96h3.84V96.16c0-15.68 12.8-28.8 28.8-28.8s28.8 13.12 28.8 28.8v16.64h9.6c13.76 0 24.96 11.2 24.96 24.96s-11.2 24.96-24.96 24.96h-9.6v43.2c0 7.68 4.48 13.76 11.52 14.4l2.88.32c11.84 1.28 19.52 12.48 19.52 24.96zM1095.56 66.07c0-17.92 14.4-32.32 32.32-32.32s32.32 14.4 32.32 32.32-14.4 32.32-32.32 32.32-32.32-14.4-32.32-32.32zm3.52 175.68V138.39c0-15.68 12.8-28.8 28.8-28.8s28.8 13.12 28.8 28.8v103.36c0 15.68-12.8 28.8-28.8 28.8s-28.8-13.12-28.8-28.8zM1338.76 137.76c0 3.52-1.28 7.68-2.56 10.88l-38.08 94.72c-6.4 15.68-21.76 27.2-40 27.2s-33.28-11.52-39.68-27.2l-38.08-94.72c-1.28-3.2-2.56-7.36-2.56-10.88 0-15.36 12.16-28.16 28.16-28.16 11.2 0 21.76 6.08 25.92 17.6l26.24 74.24 26.24-74.24c4.16-11.52 14.72-17.6 25.92-17.6 16.64 0 28.48 12.8 28.48 28.16zM1433.48 108.96c45.44 0 80.32 32.64 80.32 70.72 0 21.76-12.16 28.16-34.24 28.16h-70.72c3.2 9.92 14.4 19.52 33.92 19.52 7.68 0 15.36-1.6 22.72-4.48 2.24-.96 5.12-1.6 8-1.6 11.84 0 21.76 9.6 21.76 21.76 0 8.96-6.08 16.96-14.08 20.16-14.72 5.44-31.04 8-45.76 8-48.32 0-86.08-30.4-86.08-81.28 0-44.8 34.24-80.96 84.16-80.96zm-25.28 62.4h50.88c-1.6-6.72-7.04-18.56-25.6-18.56-17.6 0-23.36 11.52-25.28 18.56zM1616.51 233.12V88.15c0-22.08 12.16-34.24 34.24-34.24h95.36c44.16 0 63.36 29.44 63.36 54.4 0 26.56-15.68 44.48-36.48 48.96 23.04 3.52 40.64 24.64 40.64 52.16 0 29.76-20.16 57.92-63.04 57.92h-99.84c-22.08 0-34.24-12.16-34.24-34.24zm114.56-99.84c6.72 0 12.8-6.08 12.8-13.76s-6.08-13.12-12.8-13.12h-49.92v26.88h49.92zm1.92 81.6c9.28 0 15.04-6.4 15.04-14.4s-5.76-14.72-15.04-14.72h-51.84v29.12h51.84zM2000.19 138.4v103.36c0 16.64-12.16 30.08-28.8 30.08-13.76 0-25.28-8.96-28.8-21.76-8.96 9.92-25.92 21.12-53.12 21.12-35.84 0-51.2-21.44-51.2-48v-84.8c0-15.68 12.8-28.8 28.8-28.8s28.8 13.12 28.8 28.8v60.16c0 15.68 8.32 21.76 22.4 21.76 12.8 0 19.52-6.72 24.32-12.16V138.4c0-15.68 12.8-28.8 28.8-28.8s28.8 13.12 28.8 28.8zM2190.91 79.51v162.25c0 16.64-12.16 30.4-28.8 30.4-13.12 0-24.64-8.96-28.8-21.12-13.12 14.72-27.84 20.16-43.52 20.16-37.44 0-68.16-28.16-68.16-81.28s30.08-80.96 68.16-80.96c15.68 0 31.36 5.44 43.52 20.16v-49.6c0-15.68 12.8-28.8 28.8-28.8s28.8 13.12 28.8 28.8zm-57.6 130.24v-39.68c-5.44-6.72-16.32-10.24-24-10.24-15.68 0-28.8 10.88-28.8 30.08s13.12 30.4 28.8 30.4c7.68 0 18.56-3.84 24-10.56zM2381.31 138.4v112.32c0 66.88-55.04 79.36-93.44 79.36-18.24 0-35.2-3.52-51.52-11.2-7.68-3.84-13.44-11.84-13.44-21.12 0-13.12 10.56-23.68 23.68-23.68 3.52 0 6.72.64 9.92 2.24 10.24 4.8 21.12 6.72 31.36 6.72 13.44 0 35.84-5.12 35.84-32.32v-8.32c-13.12 15.04-27.52 20.8-43.52 20.8-37.12 0-67.84-24.32-67.84-77.12s29.76-77.12 67.84-77.12c16 0 31.04 5.44 43.52 20.16 3.2-11.52 16-19.52 28.8-19.52 16 0 28.8 13.12 28.8 28.8zm-57.6 64v-32.64c-5.44-6.4-16.32-9.92-23.68-9.92-15.68 0-28.8 7.36-28.8 26.24s13.12 26.24 28.8 26.24c7.36 0 18.24-3.52 23.68-9.92zM2486.9 108.96c45.44 0 80.32 32.64 80.32 70.72 0 21.76-12.16 28.16-34.24 28.16h-70.72c3.2 9.92 14.4 19.52 33.92 19.52 7.68 0 15.36-1.6 22.72-4.48 2.24-.96 5.12-1.6 8-1.6 11.84 0 21.76 9.6 21.76 21.76 0 8.96-6.08 16.96-14.08 20.16-14.72 5.44-31.04 8-45.76 8-48.32 0-86.08-30.4-86.08-81.28 0-44.8 34.24-80.96 84.16-80.96zm-25.28 62.4h50.88c-1.6-6.72-7.04-18.56-25.6-18.56-17.6 0-23.36 11.52-25.28 18.56zM2690.42 245.6c0 11.84-8.64 21.12-19.52 23.68-5.44 1.28-11.84 1.92-18.88 1.92-34.24 0-53.12-16.32-53.12-48.64v-59.84h-3.84c-13.76 0-24.96-11.2-24.96-24.96s11.2-24.96 24.96-24.96h3.84V96.16c0-15.68 12.8-28.8 28.8-28.8s28.8 13.12 28.8 28.8v16.64h9.6c13.76 0 24.96 11.2 24.96 24.96s-11.2 24.96-24.96 24.96h-9.6v43.2c0 7.68 4.48 13.76 11.52 14.4l2.88.32c11.84 1.28 19.52 12.48 19.52 24.96zM2991.86 238.24a32.23 32.23 0 0 1-32.32 32.32c-14.72 0-27.2-9.92-31.04-23.04l-3.52-11.52h-79.36l-3.52 11.52c-3.84 13.12-16.32 23.04-31.04 23.04a32.23 32.23 0 0 1-32.32-32.32c0-3.84.64-7.68 1.92-11.2l51.52-139.52c8-21.76 28.8-36.8 53.12-36.8s45.12 15.04 53.12 36.8l51.52 139.52c1.28 3.52 1.92 7.36 1.92 11.2zm-83.84-56l-22.72-71.36-22.72 71.36h45.44zM3011.69 241.76V79.51c0-15.68 12.8-28.8 28.8-28.8s28.8 13.12 28.8 28.8v162.25c0 15.68-12.8 28.8-28.8 28.8s-28.8-13.12-28.8-28.8zM3101.29 241.76V79.51c0-15.68 12.8-28.8 28.8-28.8s28.8 13.12 28.8 28.8v162.25c0 15.68-12.8 28.8-28.8 28.8s-28.8-13.12-28.8-28.8zM3180.33 189.92c0-43.2 32-80.96 86.72-80.96s87.04 37.76 87.04 80.96-32 81.28-87.04 81.28-86.72-38.08-86.72-81.28zm114.56 0c0-16.96-9.92-30.08-27.84-30.08s-27.52 13.12-27.52 30.08 9.92 30.4 27.52 30.4 27.84-13.12 27.84-30.4zM3451.69 108.96c17.28 0 31.36 3.84 42.24 9.6 8.32 4.48 14.08 12.8 14.08 22.72 0 14.08-11.52 25.6-25.6 25.6-4.8 0-8.64-.96-12.48-3.2-4.48-2.56-9.92-3.84-15.68-3.84-16.32 0-30.4 10.24-30.4 30.08s14.08 30.4 30.4 30.4c5.76 0 10.88-1.28 15.36-3.84 3.52-1.92 8-3.52 12.48-3.52 14.08 0 25.6 11.52 25.6 25.92 0 9.92-5.44 18.24-13.76 22.72-10.88 5.76-24.96 9.6-42.24 9.6-48.96 0-86.72-32-86.72-81.28s37.76-80.96 86.72-80.96zM3676.65 173.92v65.92c0 16.96-11.84 30.72-28.8 30.72-12.48 0-23.68-7.36-28.48-18.56-8.32 11.2-27.52 19.2-47.04 19.2-23.04 0-53.12-15.68-53.12-50.88 0-38.4 30.08-47.68 53.12-47.68 20.16 0 38.4 6.4 46.72 16.96V172c0-10.88-9.92-19.2-28.8-19.2-9.28 0-19.2 2.24-29.44 7.04-2.56 1.28-5.44 1.92-8.32 1.92-11.52 0-20.8-9.28-20.8-20.8 0-8 4.8-15.36 11.52-18.56 19.2-9.6 40-13.44 57.6-13.44 38.4 0 75.84 13.44 75.84 64.96zm-57.6 51.52v-8.64c-3.84-5.44-13.76-8.32-22.72-8.32-9.6 0-20.16 3.2-20.16 12.8s10.56 12.48 20.16 12.48c8.96 0 18.88-2.88 22.72-8.32zM3812 245.6c0 11.84-8.64 21.12-19.52 23.68-5.44 1.28-11.84 1.92-18.88 1.92-34.24 0-53.12-16.32-53.12-48.64v-59.84h-3.84c-13.76 0-24.96-11.2-24.96-24.96s11.2-24.96 24.96-24.96h3.84V96.16c0-15.68 12.8-28.8 28.8-28.8s28.8 13.12 28.8 28.8v16.64h9.6c13.76 0 24.96 11.2 24.96 24.96s-11.2 24.96-24.96 24.96h-9.6v43.2c0 7.68 4.48 13.76 11.52 14.4l2.88.32c11.84 1.28 19.52 12.48 19.52 24.96zM3827.36 66.07c0-17.92 14.4-32.32 32.32-32.32S3892 48.15 3892 66.07s-14.4 32.32-32.32 32.32-32.32-14.4-32.32-32.32zm3.52 175.68V138.39c0-15.68 12.8-28.8 28.8-28.8s28.8 13.12 28.8 28.8v103.36c0 15.68-12.8 28.8-28.8 28.8s-28.8-13.12-28.8-28.8zM3909.92 189.92c0-43.2 32-80.96 86.72-80.96s87.04 37.76 87.04 80.96-32 81.28-87.04 81.28-86.72-38.08-86.72-81.28zm114.56 0c0-16.96-9.92-30.08-27.84-30.08s-27.52 13.12-27.52 30.08 9.92 30.4 27.52 30.4 27.84-13.12 27.84-30.4zM4267.36 157.6v84.16c0 15.68-12.8 28.8-28.8 28.8s-28.8-13.12-28.8-28.8v-59.84c0-16-8.64-22.08-22.4-22.08s-19.84 6.72-24.64 12.16v69.76c0 15.68-12.8 28.8-28.8 28.8s-28.8-13.12-28.8-28.8V138.4c0-16.64 12.16-30.08 28.8-30.08 14.08 0 25.6 9.28 28.8 22.08 8.96-10.24 25.92-21.44 53.12-21.44 35.84 0 51.52 21.76 51.52 48.64z"/></g></g></svg>