<svg xmlns="http://www.w3.org/2000/svg" viewBox="0 0 2303.45 400.32"><defs><style>.cls-2{fill:#f66271;stroke:#1b1950;stroke-width:1.6px}</style><filter id="filter"><feOffset dx="-7" dy="8"/><feGaussianBlur result="blur"/><feFlood flood-color="#081742"/><feComposite operator="in" in2="blur"/><feComposite in="SourceGraphic"/></filter></defs><g id="Layer_2" data-name="Layer 2"><g filter="url(#filter)" id="Layer_1-2" data-name="Layer 1"><path class="cls-2" d="M25.08 233.12v-145c0-22.08 12.16-34.24 34.24-34.24h95.36c44.17 0 63.37 29.44 63.37 54.41 0 26.56-15.68 44.48-36.49 49 23.05 3.52 40.65 24.64 40.65 52.16 0 29.76-20.16 57.92-63.05 57.92H59.32c-22.08-.01-34.24-12.17-34.24-34.25zm114.56-99.84c6.72 0 12.8-6.08 12.8-13.76a13.13 13.13 0 0 0-12.8-13.13H89.72v26.89zm1.92 81.6c9.28 0 15-6.4 15-14.4a14.55 14.55 0 0 0-15-14.72H89.72v29.12zM243.32 66.07a32.32 32.32 0 1 1 32.32 32.32 32.23 32.23 0 0 1-32.32-32.32zm3.52 175.69V138.4a28.8 28.8 0 1 1 57.6 0v103.36a28.8 28.8 0 0 1-57.6 0zM495.16 79.51v162.25c0 16.64-12.16 30.4-28.8 30.4-13.12 0-24.64-9-28.8-21.12-13.12 14.72-27.84 20.16-43.56 20.16-37.44 0-68.16-28.16-68.16-81.28 0-51.2 30.08-81 68.16-81 15.68 0 31.36 5.44 43.52 20.16V79.51a28.8 28.8 0 1 1 57.6 0zm-57.6 130.25v-39.68c-5.44-6.72-16.32-10.24-24-10.24-15.68 0-28.8 10.88-28.8 30.08s13.12 30.4 28.8 30.4c7.68 0 18.56-3.84 24-10.56zM519.48 237.92a22.81 22.81 0 0 1 22.72-22.72 23.52 23.52 0 0 1 9.6 2.24c13.76 6.4 29.44 10.88 41 10.88 11.84 0 15.36-3.2 15.36-7.36 0-5.12-7-7-21.76-9-25.92-3.52-65.92-8.32-65.92-50.24 0-27.84 24.32-52.8 69.12-52.8a120.27 120.27 0 0 1 49.28 10.56 21 21 0 0 1-8.32 40.32 20.44 20.44 0 0 1-9-1.92 72.25 72.25 0 0 0-31.68-7.68c-8.32 0-14.4 2.24-14.4 6.72s4.48 6.4 19.84 8.64c25.92 3.84 67.84 9.28 67.84 52.48 0 30.72-27.52 53.12-73.28 53.12a137.09 137.09 0 0 1-57-12.48 23.13 23.13 0 0 1-13.4-20.76zM947 243.68a27 27 0 0 1-26.88 26.88c-5.76 0-10.56-.64-16-4.48-4.8-3.2-10.88-7.68-17.28-12.8A104.92 104.92 0 0 1 828 271.2c-41.6 0-74.56-21.12-74.56-64.32 0-31.68 20.8-48.32 44.8-59.84-7-14.72-11.84-29.76-11.84-43.53 0-29.12 27.52-52.8 68.16-52.8 32.64 0 63.68 17.92 63.68 48.33 0 33-25 46.4-50.24 57.28 4.16 5.76 8.32 10.88 11.84 15.68 3.84 4.8 7.68 9.6 11.84 14.08 2.88-4.8 5.76-9.6 8.32-14.72a22.66 22.66 0 0 1 20.8-13.12 23.49 23.49 0 0 1 23.36 23.36 25.19 25.19 0 0 1-3.2 11.84 210.53 210.53 0 0 1-15 22.4l8.32 5.44a26.39 26.39 0 0 1 12.72 22.4zm-94.09-20.48c-7-7-13.12-13.44-17.28-18.88-5.12-6.72-10.56-13.76-15.68-21.12a26.12 26.12 0 0 0-6.4 17.92c0 15 10.56 25.92 23 25.92a38 38 0 0 0 16.36-3.84zm-4.16-97c12.48-6.08 21.12-13.12 21.12-23.69 0-6.72-5.44-11.84-12.48-11.84-8.64 0-14.72 6.08-14.72 14.41 0 6.12 2.24 13.48 6.08 21.16zM1057.06 233.12v-145c0-22.08 12.16-34.24 34.24-34.24h95.37c44.16 0 63.36 29.44 63.36 54.41 0 26.56-15.68 44.48-36.48 49 23 3.52 40.64 24.64 40.64 52.16 0 29.76-20.16 57.92-63 57.92h-99.89c-22.08-.01-34.24-12.17-34.24-34.25zm114.57-99.84c6.72 0 12.8-6.08 12.8-13.76a13.13 13.13 0 0 0-12.8-13.13h-49.93v26.89zm1.92 81.6c9.28 0 15-6.4 15-14.4a14.55 14.55 0 0 0-15-14.72h-51.85v29.12zM1440.74 138.4v103.36c0 16.64-12.16 30.08-28.8 30.08a29.58 29.58 0 0 1-28.8-21.76c-9 9.92-25.92 21.12-53.12 21.12-35.84 0-51.2-21.44-51.2-48v-84.8a28.8 28.8 0 1 1 57.6 0v60.16c0 15.68 8.32 21.76 22.4 21.76 12.8 0 19.52-6.72 24.32-12.16V138.4a28.8 28.8 0 1 1 57.6 0zM1631.46 79.51v162.25c0 16.64-12.16 30.4-28.8 30.4-13.12 0-24.64-9-28.8-21.12-13.12 14.72-27.84 20.16-43.52 20.16-37.44 0-68.16-28.16-68.16-81.28 0-51.2 30.08-81 68.16-81 15.68 0 31.36 5.44 43.52 20.16V79.51a28.8 28.8 0 1 1 57.6 0zm-57.6 130.25v-39.68c-5.44-6.72-16.32-10.24-24-10.24-15.68 0-28.8 10.88-28.8 30.08s13.12 30.4 28.8 30.4c7.68 0 18.56-3.84 24-10.56zM1821.86 138.4v112.32c0 66.88-55 79.36-93.44 79.36a118.63 118.63 0 0 1-51.53-11.2 24 24 0 0 1-13.44-21.12 23.63 23.63 0 0 1 23.68-23.68 21.51 21.51 0 0 1 9.93 2.24 73.89 73.89 0 0 0 31.36 6.72c13.44 0 35.84-5.12 35.84-32.32v-8.32c-13.12 15-27.52 20.8-43.53 20.8-37.12 0-67.84-24.32-67.84-77.12 0-51.52 29.76-77.12 67.84-77.12 16 0 31 5.44 43.53 20.16 3.2-11.53 16-19.53 28.8-19.53a28.89 28.89 0 0 1 28.8 28.81zm-57.6 64v-32.64c-5.44-6.4-16.32-9.92-23.68-9.92-15.68 0-28.81 7.36-28.81 26.24s13.13 26.24 28.81 26.24c7.36 0 18.24-3.52 23.68-9.92zM1927.45 109c45.44 0 80.32 32.64 80.32 70.72 0 21.76-12.16 28.16-34.24 28.16h-70.72c3.2 9.92 14.4 19.52 33.92 19.52a62.44 62.44 0 0 0 22.72-4.48 21 21 0 0 1 8-1.6 21.78 21.78 0 0 1 21.76 21.68c0 9-6.08 17-14.08 20.16a135.21 135.21 0 0 1-45.76 8c-48.32 0-86.08-30.4-86.08-81.28 0-44.76 34.24-80.88 84.16-80.88zm-25.28 62.4h50.88c-1.6-6.72-7-18.56-25.6-18.56-17.6-.04-23.36 11.48-25.28 18.52zM2131 245.6c0 11.84-8.64 21.12-19.52 23.68a83.63 83.63 0 0 1-18.88 1.92c-34.24 0-53.12-16.32-53.12-48.64v-59.84h-3.84a25 25 0 0 1 0-49.93h3.84V96.15a28.8 28.8 0 0 1 57.6 0v16.64h9.6a25 25 0 0 1 0 49.93h-9.6v43.2c0 7.68 4.48 13.76 11.52 14.4l2.88.32c11.81 1.28 19.52 12.48 19.52 24.96zM2142.17 237.92a22.81 22.81 0 0 1 22.72-22.72 23.52 23.52 0 0 1 9.6 2.24c13.76 6.4 29.44 10.88 41 10.88 11.84 0 15.36-3.2 15.36-7.36 0-5.12-7-7-21.76-9-25.92-3.52-65.92-8.32-65.92-50.24 0-27.84 24.32-52.8 69.12-52.8a120.27 120.27 0 0 1 49.28 10.56 21 21 0 0 1-8.32 40.32 20.44 20.44 0 0 1-9-1.92 72.25 72.25 0 0 0-31.68-7.68c-8.32 0-14.4 2.24-14.4 6.72s4.48 6.4 19.84 8.64c25.92 3.84 67.84 9.28 67.84 52.48 0 30.72-27.52 53.12-73.28 53.12a137.09 137.09 0 0 1-57-12.48 23.13 23.13 0 0 1-13.4-20.76z"/></g></g></svg>