<svg xmlns="http://www.w3.org/2000/svg" viewBox="0 0 2553 400.32"><defs><style>.g{fill:#fff;stroke:#1b1950;stroke-width:1.6px}</style><filter id="d" filterUnits="userSpaceOnUse"><feOffset dx="-7" dy="8"/><feGaussianBlur result="e"/><feFlood flood-color="#081742" flood-opacity="1"/><feComposite in2="e" operator="in"/><feComposite in="SourceGraphic"/></filter></defs><g id="b"><g filter="url(#d)" id="c"><path class="g" d="M30.26 233.12V88.15c0-22.08 12.16-34.24 34.24-34.24h95.36c44.16 0 63.36 29.44 63.36 54.4 0 26.56-15.68 44.48-36.48 48.96 23.04 3.52 40.64 24.64 40.64 52.16 0 29.76-20.16 57.92-63.04 57.92H64.5c-22.08 0-34.24-12.16-34.24-34.24zm114.56-99.84c6.72 0 12.8-6.08 12.8-13.76s-6.08-13.12-12.8-13.12H94.9v26.88h49.92zm1.92 81.6c9.28 0 15.04-6.4 15.04-14.4s-5.76-14.72-15.04-14.72H94.9v29.12h51.84zM248.5 66.07c0-17.92 14.4-32.32 32.32-32.32s32.32 14.4 32.32 32.32-14.4 32.32-32.32 32.32-32.32-14.4-32.32-32.32zm3.52 175.68V138.39c0-15.68 12.8-28.8 28.8-28.8s28.8 13.12 28.8 28.8v103.36c0 15.68-12.8 28.8-28.8 28.8s-28.8-13.12-28.8-28.8zM500.34 79.51v162.25c0 16.64-12.16 30.4-28.8 30.4-13.12 0-24.64-8.96-28.8-21.12-13.12 14.72-27.84 20.16-43.52 20.16-37.44 0-68.16-28.16-68.16-81.28s30.08-80.96 68.16-80.96c15.68 0 31.36 5.44 43.52 20.16v-49.6c0-15.68 12.8-28.8 28.8-28.8s28.8 13.12 28.8 28.8zm-57.6 130.24v-39.68c-5.44-6.72-16.32-10.24-24-10.24-15.68 0-28.8 10.88-28.8 30.08s13.12 30.4 28.8 30.4c7.68 0 18.56-3.84 24-10.56zM720.49 50.39c65.92 0 116.8 44.8 116.8 110.4s-50.88 110.4-116.8 110.4-116.8-44.8-116.8-110.4 50.88-110.4 116.8-110.4zm0 56.96c-31.04 0-51.2 23.68-51.2 53.44s20.16 53.44 51.2 53.44 51.2-23.68 51.2-53.44-20.16-53.44-51.2-53.44zM1028.01 189.92c0 53.12-29.44 81.28-67.84 81.28-16 0-30.72-5.44-43.52-20.16v49.6c0 15.68-12.8 28.8-28.8 28.8s-28.8-13.12-28.8-28.8V138.4c0-16.64 12.16-30.4 28.8-30.4 13.44 0 24.96 8.96 28.8 21.12 12.48-14.72 27.52-20.16 43.52-20.16 38.4 0 67.84 28.16 67.84 80.96zm-58.88 0c0-19.2-13.44-30.08-28.8-30.08-7.36 0-18.24 3.84-23.68 10.56v39.36c5.12 6.4 16.32 10.56 23.68 10.56 15.36 0 28.8-10.88 28.8-30.4zM1152.81 245.6c0 11.84-8.64 21.12-19.52 23.68-5.44 1.28-11.84 1.92-18.88 1.92-34.24 0-53.12-16.32-53.12-48.64v-59.84h-3.84c-13.76 0-24.96-11.2-24.96-24.96s11.2-24.96 24.96-24.96h3.84V96.16c0-15.68 12.8-28.8 28.8-28.8s28.8 13.12 28.8 28.8v16.64h9.6c13.76 0 24.96 11.2 24.96 24.96s-11.2 24.96-24.96 24.96h-9.6v43.2c0 7.68 4.48 13.76 11.52 14.4l2.88.32c11.84 1.28 19.52 12.48 19.52 24.96zM1168.16 66.07c0-17.92 14.4-32.32 32.32-32.32s32.32 14.4 32.32 32.32-14.4 32.32-32.32 32.32-32.32-14.4-32.32-32.32zm3.52 175.68V138.39c0-15.68 12.8-28.8 28.8-28.8s28.8 13.12 28.8 28.8v103.36c0 15.68-12.8 28.8-28.8 28.8s-28.8-13.12-28.8-28.8zM1516.32 155.36v86.4c0 15.68-12.8 28.8-28.8 28.8s-28.8-13.12-28.8-28.8v-64.64c0-9.28-4.8-17.28-17.6-17.28s-19.84 7.68-23.68 12.16v69.76c0 15.68-12.8 28.8-28.8 28.8s-28.8-13.12-28.8-28.8v-64.64c0-9.28-4.48-17.28-17.6-17.28s-19.52 7.68-23.36 12.16v69.76c0 15.68-12.8 28.8-28.8 28.8s-28.8-13.12-28.8-28.8V138.4c0-16.64 12.16-30.08 28.8-30.08 13.76 0 25.28 9.28 28.8 22.08 6.72-8.64 26.24-21.44 51.2-21.44 21.76 0 37.44 8 44.48 27.2 8.96-13.44 29.12-27.2 54.08-27.2 28.48 0 47.68 14.4 47.68 46.4zM1544.8 66.07c0-17.92 14.4-32.32 32.32-32.32s32.32 14.4 32.32 32.32-14.4 32.32-32.32 32.32-32.32-14.4-32.32-32.32zm3.52 175.68V138.39c0-15.68 12.8-28.8 28.8-28.8s28.8 13.12 28.8 28.8v103.36c0 15.68-12.8 28.8-28.8 28.8s-28.8-13.12-28.8-28.8zM1629.27 239.2c0-7.04 2.56-13.44 6.72-18.24l50.88-58.24h-32.64c-13.76 0-24.96-11.2-24.96-24.96s11.2-24.96 24.96-24.96h88c14.72 0 26.56 11.84 26.56 26.56 0 6.72-2.56 13.12-6.4 17.6l-52.48 60.48h35.2c13.76 0 24.96 11.2 24.96 24.96s-11.2 24.96-24.96 24.96h-88c-15.36 0-27.84-12.48-27.84-28.16zM1940.32 173.92v65.92c0 16.96-11.84 30.72-28.8 30.72-12.48 0-23.68-7.36-28.48-18.56-8.32 11.2-27.52 19.2-47.04 19.2-23.04 0-53.12-15.68-53.12-50.88 0-38.4 30.08-47.68 53.12-47.68 20.16 0 38.4 6.4 46.72 16.96V172c0-10.88-9.92-19.2-28.8-19.2-9.28 0-19.2 2.24-29.44 7.04-2.56 1.28-5.44 1.92-8.32 1.92-11.52 0-20.8-9.28-20.8-20.8 0-8 4.8-15.36 11.52-18.56 19.2-9.6 40-13.44 57.6-13.44 38.4 0 75.84 13.44 75.84 64.96zm-57.6 51.52v-8.64c-3.84-5.44-13.76-8.32-22.72-8.32-9.6 0-20.16 3.2-20.16 12.8s10.56 12.48 20.16 12.48c8.96 0 18.88-2.88 22.72-8.32zM2075.67 245.6c0 11.84-8.64 21.12-19.52 23.68-5.44 1.28-11.84 1.92-18.88 1.92-34.24 0-53.12-16.32-53.12-48.64v-59.84h-3.84c-13.76 0-24.96-11.2-24.96-24.96s11.2-24.96 24.96-24.96h3.84V96.16c0-15.68 12.8-28.8 28.8-28.8s28.8 13.12 28.8 28.8v16.64h9.6c13.76 0 24.96 11.2 24.96 24.96s-11.2 24.96-24.96 24.96h-9.6v43.2c0 7.68 4.48 13.76 11.52 14.4l2.88.32c11.84 1.28 19.52 12.48 19.52 24.96zM2091.03 66.07c0-17.92 14.4-32.32 32.32-32.32s32.32 14.4 32.32 32.32-14.4 32.32-32.32 32.32-32.32-14.4-32.32-32.32zm3.52 175.68V138.39c0-15.68 12.8-28.8 28.8-28.8s28.8 13.12 28.8 28.8v103.36c0 15.68-12.8 28.8-28.8 28.8s-28.8-13.12-28.8-28.8zM2173.59 189.92c0-43.2 32-80.96 86.72-80.96s87.04 37.76 87.04 80.96-32 81.28-87.04 81.28-86.72-38.08-86.72-81.28zm114.56 0c0-16.96-9.92-30.08-27.84-30.08s-27.52 13.12-27.52 30.08 9.92 30.4 27.52 30.4 27.84-13.12 27.84-30.4zM2531.03 157.6v84.16c0 15.68-12.8 28.8-28.8 28.8s-28.8-13.12-28.8-28.8v-59.84c0-16-8.64-22.08-22.4-22.08s-19.84 6.72-24.64 12.16v69.76c0 15.68-12.8 28.8-28.8 28.8s-28.8-13.12-28.8-28.8V138.4c0-16.64 12.16-30.08 28.8-30.08 14.08 0 25.6 9.28 28.8 22.08 8.96-10.24 25.92-21.44 53.12-21.44 35.84 0 51.52 21.76 51.52 48.64z"/></g></g></svg>