<svg xmlns="http://www.w3.org/2000/svg" viewBox="0 0 5035.44 400.32"><defs><style>.cls-2{fill:#fde23e;stroke:#1b1950;stroke-width:1.6px}</style><filter id="filter"><feOffset dx="-7" dy="8"/><feGaussianBlur result="blur"/><feFlood flood-color="#852798"/><feComposite operator="in" in2="blur"/><feComposite in="SourceGraphic"/></filter></defs><g id="Layer_2" data-name="Layer 2"><g filter="url(#filter)" id="Layer_1-2" data-name="Layer 1"><path class="cls-2" d="M25.08 238.24V88.15c0-22.08 12.16-34.24 34.24-34.24h104a26.88 26.88 0 1 1 0 53.76h-73.6v25h71.36a26.88 26.88 0 0 1 0 53.76H89.72v51.84a32.32 32.32 0 0 1-64.64 0zM213.24 241.76V79.51a28.8 28.8 0 1 1 57.6 0v162.25a28.8 28.8 0 0 1-57.6 0zM376.44 109c45.44 0 80.32 32.64 80.32 70.72 0 21.76-12.16 28.16-34.24 28.16H351.8c3.2 9.92 14.4 19.52 33.92 19.52a62.44 62.44 0 0 0 22.72-4.48 21 21 0 0 1 8-1.6A21.78 21.78 0 0 1 438.2 243c0 9-6.08 17-14.08 20.16a135.21 135.21 0 0 1-45.76 8c-48.32 0-86.08-30.4-86.08-81.28 0-44.76 34.24-80.88 84.16-80.88zm-25.28 62.4H402c-1.6-6.72-7-18.56-25.6-18.56-17.56-.04-23.32 11.48-25.24 18.52zM607.81 244c0 14.4-11.84 26.56-26.25 26.56-8 0-14.72-1.6-19.2-7.68l-27.84-36.16-28.16 36.16c-4.48 6.08-11.2 7.68-19.2 7.68-14.4 0-26.24-12.16-26.24-26.56 0-7 4.16-13.76 8-17.92l32-37.44-30.08-34.88a30 30 0 0 1-6.72-18.24 26.37 26.37 0 0 1 26.56-25.93c6.08 0 13.44 1 19.52 8.65l24.32 31.36 24-31.36c6.08-7.69 13.44-8.65 19.52-8.65a26.37 26.37 0 0 1 26.57 25.93 30 30 0 0 1-6.72 18.24l-30.09 34.88 32 37.44c3.85 4.16 8.01 10.92 8.01 17.92zM627 66.07a32.32 32.32 0 1 1 32.32 32.32A32.23 32.23 0 0 1 627 66.07zm3.52 175.69V138.4a28.8 28.8 0 1 1 57.6 0v103.36a28.8 28.8 0 1 1-57.6 0zM889.4 189.92c0 53.12-30.72 81.28-68.16 81.28-15.68 0-30.4-5.44-43.52-20.16-3.52 11.52-16 19.52-28.8 19.52a28.88 28.88 0 0 1-28.8-28.8V79.51a28.8 28.8 0 0 1 57.6 0v49.61C789.88 114.4 805.56 109 821.24 109c38.08 0 68.16 29.72 68.16 80.92zm-58.88 0c0-19.2-13.12-30.08-28.8-30.08-7.68 0-18.56 3.84-24 10.56v39.68c5.44 6.72 16.32 10.24 24 10.24 15.68 0 28.8-10.88 28.8-30.4zM910.84 241.76V79.51a28.8 28.8 0 0 1 57.6 0v162.25a28.8 28.8 0 0 1-57.6 0zM1074 109c45.44 0 80.32 32.64 80.32 70.72 0 21.76-12.16 28.16-34.24 28.16h-70.68c3.2 9.92 14.4 19.52 33.92 19.52a62.44 62.44 0 0 0 22.72-4.48 21 21 0 0 1 8-1.6A21.78 21.78 0 0 1 1135.8 243c0 9-6.08 17-14.08 20.16a135.21 135.21 0 0 1-45.76 8c-48.32 0-86.08-30.4-86.08-81.28 0-44.76 34.24-80.88 84.12-80.88zm-25.28 62.4h50.88c-1.6-6.72-7-18.56-25.6-18.56-17.56-.04-23.32 11.48-25.24 18.52zM1302.83 238.24v-128h-32.32a28.17 28.17 0 0 1 0-56.33h129a28.17 28.17 0 0 1 0 56.33h-32v128a32.33 32.33 0 0 1-64.65 0zM1570.67 173.92v65.92c0 17-11.84 30.72-28.8 30.72a30.92 30.92 0 0 1-28.48-18.56c-8.32 11.2-27.52 19.2-47 19.2-23 0-53.12-15.68-53.12-50.88 0-38.4 30.08-47.68 53.12-47.68 20.16 0 38.4 6.4 46.72 17V172c0-10.88-9.92-19.2-28.8-19.2-9.28 0-19.2 2.24-29.44 7a18.67 18.67 0 0 1-8.32 1.92 20.77 20.77 0 0 1-9.28-39.36 131 131 0 0 1 57.6-13.44c38.36.08 75.8 13.48 75.8 65zm-57.6 51.52v-8.64c-3.84-5.44-13.76-8.32-22.72-8.32-9.6 0-20.16 3.2-20.16 12.8s10.56 12.48 20.16 12.48c8.96 0 18.88-2.88 22.72-8.32zM1712.43 133.92c0 14.72-7.36 27.2-24 29.12-8 1-21.76 2.56-28.16 10.24v68.48a28.8 28.8 0 0 1-57.6 0V139.68c0-16.64 12.16-30.09 28.8-30.09 13.76 0 25.28 8.33 28.8 20.81 2.88-6.4 7.68-13.44 15-17.61a27.08 27.08 0 0 1 12.48-3.51 24.45 24.45 0 0 1 24.68 24.64zM1885.87 138.4v112.32c0 66.88-55 79.36-93.44 79.36a118.58 118.58 0 0 1-51.52-11.2 24 24 0 0 1-13.44-21.12 23.63 23.63 0 0 1 23.68-23.68 21.44 21.44 0 0 1 9.92 2.24 73.89 73.89 0 0 0 31.36 6.72c13.44 0 35.84-5.12 35.84-32.32v-8.32c-13.12 15-27.52 20.8-43.52 20.8-37.12 0-67.84-24.32-67.84-77.12 0-51.52 29.76-77.12 67.84-77.12 16 0 31 5.44 43.52 20.16 3.2-11.53 16-19.53 28.8-19.53a28.89 28.89 0 0 1 28.8 28.81zm-57.6 64v-32.64c-5.44-6.4-16.32-9.92-23.68-9.92-15.68 0-28.8 7.36-28.8 26.24s13.12 26.24 28.8 26.24c7.41 0 18.24-3.52 23.68-9.92zM1991.47 109c45.44 0 80.32 32.64 80.32 70.72 0 21.76-12.16 28.16-34.24 28.16h-70.72c3.19 9.92 14.4 19.52 33.92 19.52a62.44 62.44 0 0 0 22.72-4.48 21 21 0 0 1 8-1.6 21.78 21.78 0 0 1 21.76 21.68c0 9-6.08 17-14.08 20.16a135.21 135.21 0 0 1-45.76 8c-48.33 0-86.09-30.4-86.09-81.28 0-44.76 34.24-80.88 84.17-80.88zm-25.29 62.4h50.89c-1.6-6.72-7-18.56-25.6-18.56-17.6-.04-23.37 11.48-25.29 18.52zM2195 245.6c0 11.84-8.64 21.12-19.52 23.68a83.72 83.72 0 0 1-18.89 1.92c-34.24 0-53.12-16.32-53.12-48.64v-59.84h-3.84a25 25 0 0 1 0-49.93h3.84V96.15a28.81 28.81 0 0 1 57.61 0v16.64h9.6a25 25 0 0 1 0 49.93h-9.6v43.2c0 7.68 4.47 13.76 11.51 14.4l2.89.32c11.83 1.28 19.52 12.48 19.52 24.96zM2210.34 66.07a32.32 32.32 0 1 1 32.32 32.32 32.23 32.23 0 0 1-32.32-32.32zm3.52 175.69V138.4a28.8 28.8 0 1 1 57.6 0v103.36a28.8 28.8 0 0 1-57.6 0zM2465.7 157.6v84.16a28.8 28.8 0 1 1-57.6 0v-59.84c0-16-8.64-22.08-22.4-22.08-13.12 0-19.84 6.72-24.64 12.16v69.76a28.8 28.8 0 1 1-57.6 0V138.4c0-16.65 12.16-30.08 28.8-30.08a29.29 29.29 0 0 1 28.8 22.08c9-10.24 25.92-21.44 53.12-21.44 35.82.04 51.52 21.76 51.52 48.64zM2656.1 138.4v112.32c0 66.88-55 79.36-93.44 79.36a118.58 118.58 0 0 1-51.52-11.2 24 24 0 0 1-13.44-21.12 23.63 23.63 0 0 1 23.68-23.68 21.44 21.44 0 0 1 9.92 2.24 73.89 73.89 0 0 0 31.36 6.72c13.44 0 35.84-5.12 35.84-32.32v-8.32c-13.12 15-27.52 20.8-43.52 20.8-37.12 0-67.84-24.32-67.84-77.12 0-51.52 29.76-77.12 67.84-77.12 16 0 31 5.44 43.52 20.16 3.2-11.53 16-19.53 28.8-19.53a28.89 28.89 0 0 1 28.8 28.81zm-57.6 64v-32.64c-5.44-6.4-16.32-9.92-23.68-9.92-15.68 0-28.8 7.36-28.8 26.24s13.12 26.24 28.8 26.24c7.36 0 18.24-3.52 23.68-9.92zM2899.93 241.44l-17.6-60.44-17.6 60.48a40.52 40.52 0 0 1-77.76 0l-27.84-96a30.46 30.46 0 0 1-1-8 28.08 28.08 0 0 1 55.36-6.4l16 66.88 20.8-65a33.74 33.74 0 0 1 64.32.32l20.48 64.64 16-66.88a28.26 28.26 0 0 1 55.69 6.72 30.09 30.09 0 0 1-1.28 7.68l-27.53 96a40.73 40.73 0 0 1-78.08 0zM3023.77 66.07a32.32 32.32 0 1 1 32.32 32.32 32.23 32.23 0 0 1-32.32-32.32zm3.52 175.69V138.4a28.8 28.8 0 1 1 57.6 0v103.36a28.8 28.8 0 1 1-57.6 0zM3220.25 245.6c0 11.84-8.64 21.12-19.52 23.68a83.63 83.63 0 0 1-18.88 1.92c-34.24 0-53.12-16.32-53.12-48.64v-59.84h-3.84a25 25 0 0 1 0-49.93h3.84V96.15a28.8 28.8 0 1 1 57.6 0v16.64h9.6a25 25 0 0 1 0 49.93h-9.6v43.2c0 7.68 4.48 13.76 11.52 14.4l2.88.32c11.84 1.28 19.52 12.48 19.52 24.96zM3344.09 241.76v-60.48c0-16-8.64-21.44-22.4-21.44-13.12 0-19.85 6.72-24.65 12.16v69.76a28.8 28.8 0 0 1-57.6 0V79.51a28.8 28.8 0 0 1 57.6 0v50.89c9-10.24 25.93-21.44 53.13-21.44 35.84 0 51.52 21.12 51.52 48v84.8a28.8 28.8 0 0 1-57.6 0zM3716.24 238.24a32.37 32.37 0 0 1-63.36 9.28l-3.52-11.52H3570l-3.52 11.52a32.37 32.37 0 0 1-63.36-9.28A33 33 0 0 1 3505 227l51.52-139.53a56.74 56.74 0 0 1 106.24 0L3714.32 227a33 33 0 0 1 1.92 11.24zm-83.84-56l-22.72-71.36-22.68 71.36zM3871.11 253.6L3802 152.8v85.44a32.32 32.32 0 1 1-64.64 0V93a42.41 42.41 0 0 1 42.24-42.25A41.47 41.47 0 0 1 3814.15 69l64 92.49V83a32.32 32.32 0 0 1 64.64 0v148.52a39.34 39.34 0 0 1-71.69 22.08zM3977.35 233.12v-145c0-22.08 12.16-34.24 34.24-34.24h61.12c67.21 0 117.13 38.4 117.13 106.57S4139.92 267.36 4073 267.36h-61.44c-22.05 0-34.21-12.16-34.21-34.24zm95.36-22.12c32.32 0 51.53-23.68 51.53-50.56 0-28.8-16.65-50.24-51.21-50.24h-31V211zM4474.63 243.68a27 27 0 0 1-26.88 26.88c-5.76 0-10.56-.64-16-4.48-4.8-3.2-10.88-7.68-17.28-12.8a104.92 104.92 0 0 1-58.88 17.92c-41.6 0-74.56-21.12-74.56-64.32 0-31.68 20.8-48.32 44.8-59.84-7-14.72-11.84-29.76-11.84-43.53 0-29.12 27.52-52.8 68.16-52.8 32.64 0 63.68 17.92 63.68 48.33 0 33-25 46.4-50.24 57.28 4.16 5.76 8.32 10.88 11.84 15.68 3.84 4.8 7.68 9.6 11.84 14.08 2.88-4.8 5.76-9.6 8.32-14.72a22.66 22.66 0 0 1 20.8-13.12 23.49 23.49 0 0 1 23.36 23.36 25.19 25.19 0 0 1-3.2 11.84 210.53 210.53 0 0 1-15 22.4l8.32 5.44a26.39 26.39 0 0 1 12.76 22.4zm-94.08-20.48c-7-7-13.12-13.44-17.28-18.88-5.12-6.72-10.56-13.76-15.68-21.12a26.12 26.12 0 0 0-6.4 17.92c0 15 10.56 25.92 23 25.92a38 38 0 0 0 16.36-3.84zm-4.16-97c12.48-6.08 21.12-13.12 21.12-23.69 0-6.72-5.44-11.84-12.48-11.84-8.64 0-14.72 6.08-14.72 14.41 0 6.12 2.24 13.48 6.08 21.16zM4690 50.39c65.92 0 116.81 44.8 116.81 110.41S4755.9 271.2 4690 271.2s-116.8-44.8-116.8-110.4S4624.06 50.39 4690 50.39zm0 57c-31 0-51.2 23.69-51.2 53.45s20.16 53.44 51.2 53.44 51.2-23.68 51.2-53.44-20.2-53.49-51.2-53.49zM5011.26 218.08a32.3 32.3 0 1 1-51.2 39.36l-41.28-58.56h-24.32v39.36a32.32 32.32 0 1 1-64.64 0V88.15c0-22.08 12.16-34.24 34.24-34.24h79.68c49.92 0 76.8 33.28 76.8 73.29 0 32.64-17 51.84-32.64 61.44zm-116.8-73h39.36c10.88 0 21.12-7 21.12-18.88 0-11.53-10.24-18.57-21.12-18.57h-39.36z"/></g></g></svg>