<svg xmlns="http://www.w3.org/2000/svg" viewBox="0 0 2707.84 400.32"><defs><style>.cls-2{fill:#f66271;stroke:#1b1950;stroke-width:1.6px}</style><filter id="filter"><feOffset dx="-7" dy="8"/><feGaussianBlur result="blur"/><feFlood flood-color="#081742"/><feComposite operator="in" in2="blur"/><feComposite in="SourceGraphic"/></filter></defs><g id="Layer_2" data-name="Layer 2"><g filter="url(#filter)" id="Layer_1-2" data-name="Layer 1"><path class="cls-2" d="M229.44 238.24a32.37 32.37 0 0 1-63.36 9.28L162.56 236H83.2l-3.52 11.52a32.37 32.37 0 0 1-63.36-9.28A33 33 0 0 1 18.24 227L69.76 87.51a56.74 56.74 0 0 1 106.24 0L227.52 227a33 33 0 0 1 1.92 11.24zm-83.84-56l-22.72-71.36-22.72 71.36zM406.4 138.4v103.36c0 16.64-12.16 30.08-28.8 30.08a29.58 29.58 0 0 1-28.8-21.76c-9 9.92-25.92 21.12-53.13 21.12-35.84 0-51.2-21.44-51.2-48v-84.8a28.8 28.8 0 1 1 57.6 0v60.16c0 15.68 8.32 21.76 22.4 21.76 12.81 0 19.53-6.72 24.33-12.16V138.4a28.8 28.8 0 1 1 57.6 0zM597.11 79.51v162.25c0 16.64-12.16 30.4-28.8 30.4-13.12 0-24.64-9-28.8-21.12-13.12 14.72-27.84 20.16-43.51 20.16-37.44 0-68.16-28.16-68.16-81.28 0-51.2 30.08-81 68.16-81 15.68 0 31.36 5.45 43.52 20.17V79.51a28.8 28.8 0 0 1 57.6 0zm-57.6 130.25v-39.68c-5.44-6.72-16.32-10.24-24-10.24-15.68 0-28.8 10.88-28.8 30.08s13.12 30.4 28.8 30.4c7.68 0 18.56-3.84 24-10.56zM625.59 66.07a32.32 32.32 0 1 1 32.32 32.32 32.23 32.23 0 0 1-32.32-32.32zm3.52 175.69V138.4a28.8 28.8 0 1 1 57.6 0v103.36a28.8 28.8 0 0 1-57.6 0zM792.31 109c45.44 0 80.32 32.65 80.32 70.73 0 21.76-12.16 28.16-34.24 28.16h-70.72c3.2 9.92 14.4 19.52 33.92 19.52a62.44 62.44 0 0 0 22.72-4.48 21 21 0 0 1 8-1.6A21.78 21.78 0 0 1 854.07 243c0 9-6.08 17-14.08 20.16a135.21 135.21 0 0 1-45.76 8c-48.32 0-86.08-30.4-86.08-81.28 0-44.76 34.24-80.88 84.16-80.88zM767 171.36h50.88c-1.6-6.72-7-18.56-25.6-18.56-17.57 0-23.28 11.52-25.28 18.56zM1054.71 157.6v84.16a28.8 28.8 0 1 1-57.6 0v-59.84c0-16-8.64-22.08-22.4-22.08-13.12 0-19.84 6.72-24.64 12.16v69.76a28.8 28.8 0 0 1-57.6 0V138.4c0-16.65 12.16-30.09 28.8-30.09a29.3 29.3 0 0 1 28.8 22.09C959 120.16 976 109 1003.19 109c35.81 0 51.52 21.72 51.52 48.6zM1162.87 109c17.28 0 31.36 3.84 42.24 9.61 8.32 4.48 14.08 12.8 14.08 22.72a25.68 25.68 0 0 1-25.6 25.6 23.42 23.42 0 0 1-12.48-3.2 31.62 31.62 0 0 0-15.68-3.84c-16.32 0-30.4 10.24-30.4 30.08s14.08 30.4 30.4 30.4a30.41 30.41 0 0 0 15.36-3.84 27 27 0 0 1 12.48-3.52 25.81 25.81 0 0 1 11.84 48.64c-10.88 5.76-25 9.6-42.24 9.6-49 0-86.73-32-86.73-81.28 0-48.97 37.77-80.97 86.73-80.97zM1314.54 109c45.45 0 80.33 32.65 80.33 70.73 0 21.76-12.16 28.16-34.24 28.16h-70.73c3.2 9.92 14.4 19.52 33.92 19.52a62.44 62.44 0 0 0 22.72-4.48 21 21 0 0 1 8-1.6 21.78 21.78 0 0 1 21.77 21.67c0 9-6.08 17-14.08 20.16a135.31 135.31 0 0 1-45.77 8c-48.32 0-86.08-30.4-86.08-81.28 0-44.76 34.24-80.88 84.16-80.88zm-25.28 62.41h50.89c-1.61-6.72-7.05-18.56-25.61-18.56-17.6-.05-23.36 11.47-25.28 18.51zM1497.58 233.12v-145c0-22.08 12.16-34.24 34.24-34.24h95.36c44.16 0 63.36 29.44 63.36 54.4 0 26.57-15.68 44.49-36.48 49 23 3.52 40.64 24.64 40.64 52.16 0 29.76-20.16 57.92-63 57.92h-99.84c-22.12 0-34.28-12.16-34.28-34.24zm114.56-99.84c6.72 0 12.8-6.08 12.8-13.76a13.12 13.12 0 0 0-12.8-13.13h-49.92v26.89zm1.92 81.6c9.28 0 15-6.4 15-14.4a14.55 14.55 0 0 0-15-14.72h-51.84v29.12zM1881.26 138.4v103.36c0 16.64-12.16 30.08-28.8 30.08a29.58 29.58 0 0 1-28.8-21.76c-9 9.92-25.92 21.12-53.12 21.12-35.84 0-51.2-21.44-51.2-48v-84.8a28.8 28.8 0 1 1 57.6 0v60.16c0 15.68 8.32 21.76 22.4 21.76 12.8 0 19.52-6.72 24.32-12.16V138.4a28.8 28.8 0 1 1 57.6 0zM2075.5 157.6v84.16a28.81 28.81 0 0 1-57.61 0v-59.84c0-16-8.64-22.08-22.4-22.08-13.12 0-19.84 6.72-24.64 12.16v69.76a28.8 28.8 0 1 1-57.6 0V138.4c0-16.65 12.16-30.09 28.8-30.09a29.3 29.3 0 0 1 28.8 22.09c9-10.24 25.92-21.45 53.12-21.45 35.85.05 51.53 21.77 51.53 48.65zM2266.21 79.51v162.25c0 16.64-12.16 30.4-28.8 30.4-13.12 0-24.64-9-28.8-21.12-13.12 14.72-27.84 20.16-43.52 20.16-37.44 0-68.16-28.16-68.16-81.28 0-51.2 30.08-81 68.16-81 15.68 0 31.36 5.45 43.52 20.17V79.51a28.8 28.8 0 0 1 57.6 0zm-57.6 130.25v-39.68c-5.44-6.72-16.32-10.24-24-10.24-15.68 0-28.8 10.88-28.8 30.08s13.12 30.4 28.8 30.4c7.68 0 18.56-3.84 24-10.56zM2298.21 241.76V79.51a28.8 28.8 0 1 1 57.6 0v162.25a28.8 28.8 0 1 1-57.6 0zM2461.41 109c45.44 0 80.32 32.65 80.32 70.73 0 21.76-12.16 28.16-34.24 28.16h-70.72c3.2 9.92 14.4 19.52 33.92 19.52a62.44 62.44 0 0 0 22.72-4.48 21 21 0 0 1 8-1.6 21.78 21.78 0 0 1 21.76 21.67c0 9-6.08 17-14.08 20.16a135.21 135.21 0 0 1-45.76 8c-48.32 0-86.08-30.4-86.08-81.28 0-44.76 34.24-80.88 84.16-80.88zm-25.28 62.41H2487c-1.6-6.72-7-18.56-25.6-18.56-17.59-.05-23.35 11.47-25.27 18.51zM2553.89 237.92a22.81 22.81 0 0 1 22.72-22.72 23.52 23.52 0 0 1 9.6 2.24c13.76 6.4 29.44 10.88 41 10.88 11.84 0 15.36-3.2 15.36-7.36 0-5.12-7-7-21.76-9-25.92-3.52-65.92-8.32-65.92-50.24 0-27.84 24.32-52.81 69.12-52.81a120.28 120.28 0 0 1 49.28 10.57 21 21 0 0 1-8.32 40.32 20.44 20.44 0 0 1-9-1.92 72.25 72.25 0 0 0-31.68-7.68c-8.32 0-14.4 2.24-14.4 6.72s4.48 6.4 19.84 8.64c25.92 3.84 67.84 9.28 67.84 52.48 0 30.72-27.52 53.12-73.28 53.12a137.09 137.09 0 0 1-57-12.48 23.13 23.13 0 0 1-13.4-20.76z"/></g></g></svg>