<svg xmlns="http://www.w3.org/2000/svg" viewBox="0 0 2821 400.32"><defs><style>.cls-2{fill:#fff;stroke:#1b1950;stroke-width:1.6px}</style><filter id="filter"><feOffset dx="-7" dy="8"/><feGaussianBlur result="blur"/><feFlood flood-color="#081742"/><feComposite operator="in" in2="blur"/><feComposite in="SourceGraphic"/></filter></defs><g id="Layer_2" data-name="Layer 2"><g filter="url(#filter)" id="Layer_1-2" data-name="Layer 1"><path class="cls-2" d="M13.56 160.8c0-65.93 50.56-110.41 115.84-110.41 37.12 0 62.08 13.44 78.73 31.68 4.8 5.44 8.32 12.8 8.32 20.8a30.67 30.67 0 0 1-30.73 30.41A29.79 29.79 0 0 1 163 123a44.22 44.22 0 0 0-33.6-15.69c-29.4.04-50.24 23.69-50.24 53.49s20.8 53.44 50.24 53.44a44.21 44.21 0 0 0 33.6-15.68 29.79 29.79 0 0 1 22.72-10.24 30.12 30.12 0 0 1 22.41 50.56c-17 18.24-41.93 32.32-78.73 32.32-65.28 0-115.84-44.8-115.84-110.4zM223.48 189.92c0-43.2 32-81 86.72-81 55 0 87 37.77 87 81s-32 81.28-87 81.28c-54.72 0-86.72-38.08-86.72-81.28zm114.56 0c0-17-9.92-30.08-27.84-30.08-17.6 0-27.52 13.12-27.52 30.08 0 17.28 9.92 30.4 27.52 30.4 17.92 0 27.8-13.12 27.8-30.4zM587.64 189.92c0 53.12-29.44 81.28-67.84 81.28-16 0-30.72-5.44-43.52-20.16v49.6a28.8 28.8 0 1 1-57.6 0V138.4c0-16.65 12.16-30.41 28.8-30.41a30.37 30.37 0 0 1 28.8 21.13C488.76 114.4 503.8 109 519.8 109c38.4 0 67.84 28.12 67.84 80.92zm-58.88 0c0-19.2-13.44-30.08-28.8-30.08-7.36 0-18.24 3.84-23.68 10.56v39.36c5.12 6.4 16.32 10.56 23.68 10.56 15.36 0 28.8-10.88 28.8-30.4zM623.15 279.52l2.56-.32c10.57-1 17-2.24 18.89-6.08l1.28-3.2-48.33-121.28c-1.28-3.2-2.56-7.36-2.56-10.88a28 28 0 0 1 28.16-28.17c11.2 0 22.09 5.76 25.93 17.61l26.56 78.4 25.92-78.4c3.84-11.53 14.72-17.61 25.92-17.61 16.64 0 28.48 12.81 28.48 28.17 0 3.52-1.28 7.68-2.56 10.88l-54.72 137.92c-13.76 34.56-42.24 43.52-63.36 43.52h-3.53c-18.56 0-29.12-12.8-29.12-26.88a23.42 23.42 0 0 1 20.48-23.68zM962 245.6c0 11.84-8.64 21.12-19.52 23.68a83.63 83.63 0 0 1-18.88 1.92c-34.24 0-53.12-16.32-53.12-48.64v-59.84h-3.84a25 25 0 0 1 0-49.93h3.84V96.15a28.8 28.8 0 0 1 57.6 0v16.64h9.6a25 25 0 0 1 0 49.93h-9.6v43.2c0 7.68 4.48 13.76 11.52 14.4l2.88.32c11.87 1.28 19.52 12.48 19.52 24.96zM970.35 189.92c0-43.2 32-81 86.72-81 55 0 87 37.77 87 81s-32 81.28-87 81.28c-54.72 0-86.72-38.08-86.72-81.28zm114.56 0c0-17-9.92-30.08-27.84-30.08-17.6 0-27.52 13.12-27.52 30.08 0 17.28 9.92 30.4 27.52 30.4 17.93 0 27.84-13.12 27.84-30.4zM1236.58 189.92c0-43.2 32-81 86.72-81 55 0 87 37.77 87 81s-32 81.28-87 81.28c-54.72 0-86.72-38.08-86.72-81.28zm114.56 0c0-17-9.92-30.08-27.84-30.08-17.6 0-27.52 13.12-27.52 30.08 0 17.28 9.92 30.4 27.52 30.4 17.92 0 27.84-13.12 27.84-30.4zM1535.14 245.6c0 11.84-8.64 21.12-19.52 23.68a83.63 83.63 0 0 1-18.88 1.92c-34.24 0-53.12-16.32-53.12-48.64v-59.84h-3.84a25 25 0 0 1 0-49.93h3.84V96.15a28.8 28.8 0 1 1 57.6 0v16.64h9.6a25 25 0 0 1 0 49.93h-9.6v43.2c0 7.68 4.48 13.76 11.52 14.4l2.88.32c11.84 1.28 19.52 12.48 19.52 24.96zM1659 241.76v-60.48c0-16-8.64-21.44-22.4-21.44-13.12 0-19.84 6.72-24.64 12.16v69.76a28.8 28.8 0 1 1-57.6 0V79.51a28.8 28.8 0 1 1 57.6 0v50.89c9-10.24 25.92-21.45 53.12-21.45 35.84 0 51.52 21.13 51.52 48v84.8a28.8 28.8 0 1 1-57.6 0zM1822.17 109c45.44 0 80.32 32.65 80.32 70.73 0 21.76-12.16 28.16-34.24 28.16h-70.72c3.2 9.92 14.4 19.52 33.92 19.52a62.44 62.44 0 0 0 22.72-4.48 21 21 0 0 1 8-1.6 21.78 21.78 0 0 1 21.76 21.67c0 9-6.08 17-14.08 20.16a135.21 135.21 0 0 1-45.76 8c-48.32 0-86.08-30.4-86.08-81.28-.01-44.76 34.24-80.88 84.16-80.88zm-25.28 62.41h50.88c-1.6-6.72-7-18.56-25.6-18.56-17.6-.05-23.36 11.47-25.28 18.51zM2032.09 133.92c0 14.72-7.36 27.2-24 29.12-8 1-21.76 2.56-28.16 10.24v68.48a28.8 28.8 0 1 1-57.6 0V139.68c0-16.64 12.16-30.09 28.8-30.09 13.76 0 25.28 8.33 28.8 20.81 2.88-6.4 7.68-13.44 15-17.61a27.08 27.08 0 0 1 12.48-3.52 24.46 24.46 0 0 1 24.68 24.65zM2175.77 238.24v-128h-32.32a28.16 28.16 0 1 1 0-56.32h129a28.16 28.16 0 1 1 0 56.32h-32v128a32.32 32.32 0 1 1-64.64 0zM2443.61 173.92v65.92c0 17-11.84 30.72-28.8 30.72a30.92 30.92 0 0 1-28.48-18.56c-8.32 11.2-27.52 19.2-47 19.2-23 0-53.12-15.68-53.12-50.88 0-38.4 30.08-47.68 53.12-47.68 20.16 0 38.4 6.4 46.72 17V172c0-10.88-9.92-19.2-28.8-19.2-9.28 0-19.2 2.24-29.44 7a18.67 18.67 0 0 1-8.32 1.92 20.77 20.77 0 0 1-9.28-39.36 131.06 131.06 0 0 1 57.6-13.45c38.36.09 75.8 13.49 75.8 65.01zM2386 225.44v-8.64c-3.84-5.44-13.76-8.32-22.72-8.32-9.6 0-20.16 3.2-20.16 12.8s10.56 12.48 20.16 12.48c8.97 0 18.89-2.88 22.72-8.32zM2644.89 189.92c0 53.12-30.72 81.28-68.16 81.28-15.69 0-30.41-5.44-43.53-20.16-3.52 11.52-16 19.52-28.8 19.52a28.88 28.88 0 0 1-28.8-28.8V79.51a28.8 28.8 0 1 1 57.6 0v49.61c12.16-14.72 27.8-20.12 43.53-20.12 38.08 0 68.16 29.72 68.16 80.92zm-58.88 0c0-19.2-13.13-30.08-28.81-30.08-7.68 0-18.56 3.84-24 10.56v39.68c5.44 6.72 16.32 10.24 24 10.24 15.68 0 28.8-10.88 28.8-30.4zM2658.64 237.92a22.81 22.81 0 0 1 22.72-22.72 23.52 23.52 0 0 1 9.6 2.24c13.76 6.4 29.44 10.88 41 10.88 11.84 0 15.36-3.2 15.36-7.36 0-5.12-7-7-21.76-9-25.92-3.52-65.92-8.32-65.92-50.24 0-27.84 24.32-52.81 69.12-52.81a120.28 120.28 0 0 1 49.24 10.61 21 21 0 0 1-8.32 40.32 20.44 20.44 0 0 1-9-1.92 72.25 72.25 0 0 0-31.68-7.68c-8.32 0-14.4 2.24-14.4 6.72s4.48 6.4 19.84 8.64c25.92 3.84 67.84 9.28 67.84 52.48 0 30.72-27.52 53.12-73.28 53.12a137.09 137.09 0 0 1-57-12.48 23.13 23.13 0 0 1-13.36-20.8z"/></g></g></svg>