<svg xmlns="http://www.w3.org/2000/svg" viewBox="0 0 3827.43 784.32"><defs><style>.cls-2{fill:#f66271;stroke:#1b1950;stroke-width:1.6px}</style><filter id="filter"><feOffset dx="-7" dy="8"/><feGaussianBlur result="blur"/><feFlood flood-color="#081742"/><feComposite operator="in" in2="blur"/><feComposite in="SourceGraphic"/></filter></defs><g id="Layer_2" data-name="Layer 2"><g filter="url(#filter)" id="Layer_1-2" data-name="Layer 1"><path class="cls-2" d="M224.77 238.24a32.37 32.37 0 0 1-63.37 9.28L157.88 236H78.52L75 247.52a32.37 32.37 0 0 1-63.36-9.28A33 33 0 0 1 13.56 227L65.08 87.51a56.74 56.74 0 0 1 106.24 0L222.85 227a33 33 0 0 1 1.92 11.24zm-83.85-56l-22.72-71.36-22.72 71.36zM401.72 138.4v103.36c0 16.64-12.16 30.08-28.8 30.08a29.58 29.58 0 0 1-28.8-21.76c-9 9.92-25.92 21.12-53.12 21.12-35.84 0-51.2-21.44-51.2-48v-84.8a28.8 28.8 0 1 1 57.6 0v60.16c0 15.68 8.32 21.76 22.4 21.76 12.8 0 19.52-6.72 24.32-12.16V138.4a28.8 28.8 0 1 1 57.6 0zM592.44 79.51v162.25c0 16.64-12.16 30.4-28.8 30.4-13.12 0-24.64-9-28.8-21.12-13.12 14.72-27.84 20.16-43.53 20.16-37.44 0-68.16-28.16-68.16-81.28 0-51.2 30.08-81 68.16-81 15.69 0 31.37 5.45 43.53 20.17V79.51a28.8 28.8 0 0 1 57.6 0zm-57.6 130.25v-39.68c-5.44-6.72-16.32-10.24-24-10.24-15.68 0-28.8 10.88-28.8 30.08s13.12 30.4 28.8 30.4c7.68 0 18.56-3.84 24-10.56zM620.91 66.07a32.32 32.32 0 1 1 32.32 32.32 32.23 32.23 0 0 1-32.32-32.32zm3.52 175.69V138.4a28.8 28.8 0 1 1 57.6 0v103.36a28.8 28.8 0 1 1-57.6 0zM787.63 109c45.44 0 80.37 32.6 80.37 70.68 0 21.76-12.16 28.16-34.24 28.16H763c3.2 9.92 14.4 19.52 33.92 19.52a62.44 62.44 0 0 0 22.72-4.48 21 21 0 0 1 8-1.6A21.78 21.78 0 0 1 849.39 243c0 9-6.08 17-14.08 20.16a135.21 135.21 0 0 1-45.76 8c-48.32 0-86.08-30.4-86.08-81.28 0-44.76 34.24-80.88 84.16-80.88zm-25.28 62.41h50.88c-1.6-6.72-7-18.56-25.6-18.56-17.63-.05-23.36 11.47-25.28 18.51zM1050 157.6v84.16a28.8 28.8 0 1 1-57.6 0v-59.84c0-16-8.64-22.08-22.4-22.08-13.12 0-19.84 6.72-24.64 12.16v69.76a28.8 28.8 0 1 1-57.6 0V138.4c0-16.65 12.16-30.09 28.8-30.09a29.3 29.3 0 0 1 28.8 22.09c9-10.24 25.92-21.45 53.12-21.45 35.87.05 51.52 21.77 51.52 48.65zM1158.19 109c17.28 0 31.36 3.84 42.24 9.61 8.32 4.48 14.08 12.8 14.08 22.72a25.68 25.68 0 0 1-25.6 25.6 23.42 23.42 0 0 1-12.48-3.2 31.62 31.62 0 0 0-15.68-3.84c-16.32 0-30.4 10.24-30.4 30.08s14.08 30.4 30.4 30.4a30.41 30.41 0 0 0 15.36-3.84 27 27 0 0 1 12.48-3.52 25.81 25.81 0 0 1 11.84 48.64c-10.88 5.76-25 9.6-42.24 9.6-49 0-86.72-32-86.72-81.28 0-48.97 37.76-80.97 86.72-80.97zM1309.87 109c45.44 0 80.32 32.65 80.32 70.73 0 21.76-12.16 28.16-34.24 28.16h-70.72c3.2 9.92 14.4 19.52 33.92 19.52a62.44 62.44 0 0 0 22.72-4.48 21 21 0 0 1 8-1.6 21.78 21.78 0 0 1 21.76 21.67c0 9-6.08 17-14.08 20.16a135.21 135.21 0 0 1-45.76 8c-48.32 0-86.08-30.4-86.08-81.28 0-44.76 34.29-80.88 84.16-80.88zm-25.28 62.41h50.88c-1.6-6.72-7-18.56-25.6-18.56-17.6-.05-23.36 11.47-25.28 18.51zM1402.35 237.92a22.81 22.81 0 0 1 22.72-22.72 23.52 23.52 0 0 1 9.6 2.24c13.76 6.4 29.44 10.88 41 10.88 11.84 0 15.36-3.2 15.36-7.36 0-5.12-7-7-21.76-9-25.92-3.52-65.92-8.32-65.92-50.24 0-27.84 24.32-52.81 69.12-52.81a120.28 120.28 0 0 1 49.28 10.57 21 21 0 0 1-8.32 40.32 20.44 20.44 0 0 1-9-1.92 72.25 72.25 0 0 0-31.68-7.68c-8.32 0-14.4 2.24-14.4 6.72s4.48 6.4 19.84 8.64c25.92 3.84 67.84 9.28 67.84 52.48 0 30.72-27.52 53.12-73.28 53.12a137.09 137.09 0 0 1-57-12.48 23.13 23.13 0 0 1-13.4-20.76zM1829.86 243.68a27 27 0 0 1-26.86 26.88c-5.76 0-10.56-.64-16-4.48-4.8-3.2-10.88-7.68-17.28-12.8a104.92 104.92 0 0 1-58.88 17.92c-41.6 0-74.56-21.12-74.56-64.32 0-31.68 20.8-48.32 44.8-59.84-7-14.72-11.84-29.77-11.84-43.53 0-29.12 27.52-52.8 68.16-52.8 32.64 0 63.68 17.92 63.68 48.32 0 33-25 46.41-50.24 57.29 4.16 5.76 8.32 10.88 11.84 15.68 3.84 4.8 7.68 9.6 11.84 14.08 2.88-4.8 5.76-9.6 8.32-14.72a22.66 22.66 0 0 1 20.8-13.12A23.49 23.49 0 0 1 1827 181.6a25.19 25.19 0 0 1-3.2 11.84 210.53 210.53 0 0 1-15 22.4l8.32 5.44a26.39 26.39 0 0 1 12.74 22.4zm-94.08-20.48c-7-7-13.12-13.44-17.28-18.88-5.12-6.72-10.56-13.76-15.68-21.12a26.12 26.12 0 0 0-6.4 17.92c0 15 10.56 25.92 23 25.92a38 38 0 0 0 16.36-3.84zm-4.16-97c12.48-6.08 21.12-13.13 21.12-23.69 0-6.72-5.44-11.84-12.48-11.84-8.64 0-14.72 6.08-14.72 14.4 0 6.12 2.24 13.49 6.08 21.17zM2139.62 238.24a32.37 32.37 0 0 1-63.36 9.28l-3.52-11.52h-79.36l-3.52 11.52a32.37 32.37 0 0 1-63.37-9.28 33 33 0 0 1 1.92-11.2l51.53-139.53a56.74 56.74 0 0 1 106.24 0L2137.7 227a33 33 0 0 1 1.92 11.24zm-83.84-56l-22.72-71.36-22.72 71.36zM2318.17 79.51v162.25c0 16.64-12.16 30.4-28.8 30.4-13.12 0-24.64-9-28.8-21.12-13.12 14.72-27.84 20.16-43.52 20.16-37.44 0-68.16-28.16-68.16-81.28 0-51.2 30.08-81 68.16-81 15.68 0 31.36 5.45 43.52 20.17V79.51a28.8 28.8 0 0 1 57.6 0zm-57.6 130.25v-39.68c-5.44-6.72-16.32-10.24-24-10.24-15.68 0-28.8 10.88-28.8 30.08s13.12 30.4 28.8 30.4c7.68 0 18.56-3.84 24-10.56zM2421.52 160.8c0-65.93 50.57-110.41 115.85-110.41 37.12 0 62.08 13.44 78.72 31.68 4.8 5.44 8.32 12.8 8.32 20.8a30.66 30.66 0 0 1-30.72 30.41A29.79 29.79 0 0 1 2571 123a44.22 44.22 0 0 0-33.6-15.69c-29.44 0-50.24 23.69-50.24 53.45s20.8 53.44 50.24 53.44a44.21 44.21 0 0 0 33.6-15.68 29.79 29.79 0 0 1 22.72-10.24 30.12 30.12 0 0 1 22.4 50.56c-17 18.24-41.92 32.32-78.72 32.32-65.31.04-115.88-44.76-115.88-110.36zM2761.37 133.92c0 14.72-7.36 27.2-24 29.12-8 1-21.76 2.56-28.16 10.24v68.48a28.81 28.81 0 0 1-57.61 0V139.68c0-16.64 12.16-30.09 28.8-30.09 13.77 0 25.29 8.33 28.81 20.81 2.87-6.4 7.68-13.44 15-17.61a27.08 27.08 0 0 1 12.48-3.52 24.46 24.46 0 0 1 24.68 24.65zM2850 109c45.44 0 80.32 32.65 80.32 70.73 0 21.76-12.16 28.16-34.24 28.16h-70.72c3.19 9.92 14.4 19.52 33.92 19.52a62.44 62.44 0 0 0 22.72-4.48 21 21 0 0 1 8-1.6 21.78 21.78 0 0 1 21.77 21.67c0 9-6.08 17-14.08 20.16a135.21 135.21 0 0 1-45.76 8c-48.33 0-86.09-30.4-86.09-81.28 0-44.76 34.24-80.88 84.16-80.88zm-25.29 62.41h50.89c-1.6-6.72-7-18.56-25.6-18.56-17.59-.05-23.36 11.47-25.28 18.51zM3097.05 173.92v65.92c0 17-11.84 30.72-28.8 30.72a30.92 30.92 0 0 1-28.48-18.56c-8.32 11.2-27.52 19.2-47.05 19.2-23 0-53.12-15.68-53.12-50.88 0-38.4 30.08-47.68 53.12-47.68 20.16 0 38.4 6.4 46.73 17V172c0-10.88-9.92-19.2-28.81-19.2-9.28 0-19.2 2.24-29.44 7a18.67 18.67 0 0 1-8.32 1.92 20.77 20.77 0 0 1-9.28-39.36 131.07 131.07 0 0 1 57.61-13.36c38.4 0 75.84 13.4 75.84 64.92zm-57.6 51.52v-8.64c-3.84-5.44-13.76-8.32-22.73-8.32-9.6 0-20.16 3.2-20.16 12.8s10.56 12.48 20.16 12.48c8.97 0 18.89-2.88 22.73-8.32zM3232.4 245.6c0 11.84-8.64 21.12-19.52 23.68a83.63 83.63 0 0 1-18.88 1.92c-34.24 0-53.12-16.32-53.12-48.64v-59.84H3137a25 25 0 0 1 0-49.93h3.84V96.15a28.8 28.8 0 0 1 57.6 0v16.64h9.6a25 25 0 0 1 0 49.93h-9.6v43.2c0 7.68 4.48 13.76 11.52 14.4l2.88.32c11.88 1.28 19.56 12.48 19.56 24.96zM3247.76 66.07a32.32 32.32 0 1 1 32.32 32.32 32.23 32.23 0 0 1-32.32-32.32zm3.52 175.69V138.4a28.8 28.8 0 1 1 57.6 0v103.36a28.8 28.8 0 0 1-57.6 0zM3491 137.76c0 3.52-1.28 7.68-2.56 10.88l-38.08 94.72a43.42 43.42 0 0 1-40 27.2c-17.92 0-33.28-11.52-39.68-27.2l-38.08-94.72c-1.28-3.2-2.56-7.36-2.56-10.88a28 28 0 0 1 28.16-28.17c11.2 0 21.76 6.08 25.92 17.61l26.24 74.24 26.24-74.24c4.16-11.53 14.72-17.61 25.92-17.61 16.6 0 28.48 12.81 28.48 28.17zM3585.67 109c45.45 0 80.33 32.65 80.33 70.73 0 21.76-12.16 28.16-34.24 28.16H3561c3.2 9.92 14.4 19.52 33.92 19.52a62.44 62.44 0 0 0 22.72-4.48 21 21 0 0 1 8-1.6 21.78 21.78 0 0 1 21.8 21.67c0 9-6.08 17-14.08 20.16a135.31 135.31 0 0 1-45.77 8c-48.32 0-86.08-30.4-86.08-81.28 0-44.76 34.24-80.88 84.16-80.88zm-25.28 62.41h50.89c-1.61-6.72-7.05-18.56-25.61-18.56-17.6-.05-23.36 11.47-25.28 18.51zM3678.15 237.92a22.81 22.81 0 0 1 22.72-22.72 23.52 23.52 0 0 1 9.6 2.24c13.76 6.4 29.44 10.88 41 10.88 11.84 0 15.36-3.2 15.36-7.36 0-5.12-7-7-21.76-9-25.92-3.52-65.92-8.32-65.92-50.24 0-27.84 24.32-52.81 69.12-52.81a120.28 120.28 0 0 1 49.28 10.57 21 21 0 0 1-8.32 40.32 20.47 20.47 0 0 1-9-1.92 72.25 72.25 0 0 0-31.68-7.68c-8.32 0-14.4 2.24-14.4 6.72s4.48 6.4 19.84 8.64c25.92 3.84 67.85 9.28 67.85 52.48 0 30.72-27.53 53.12-73.29 53.12a137.09 137.09 0 0 1-57-12.48 23.13 23.13 0 0 1-13.4-20.76zM1093.08 622.24a32.37 32.37 0 0 1-63.36 9.28L1026.2 620h-79.37l-3.52 11.52a32.37 32.37 0 0 1-63.31-9.28 33 33 0 0 1 1.92-11.2l51.52-139.53a56.75 56.75 0 0 1 106.25 0L1091.16 611a33 33 0 0 1 1.92 11.24zm-83.84-56l-22.72-71.36-22.73 71.36zM1271.63 463.51v162.25c0 16.64-12.16 30.4-28.8 30.4-13.12 0-24.64-9-28.8-21.12-13.12 14.72-27.84 20.16-43.52 20.16-37.44 0-68.16-28.16-68.16-81.28 0-51.2 30.08-81 68.16-81 15.68 0 31.36 5.43 43.52 20.16v-49.57a28.8 28.8 0 0 1 57.6 0zM1214 593.76v-39.68c-5.44-6.72-16.32-10.24-24-10.24-15.68 0-28.8 10.88-28.8 30.08s13.12 30.4 28.8 30.4c7.71 0 18.59-3.84 24-10.56zM1378.5 612.32a29.23 29.23 0 0 1 29.12-29.12 28.05 28.05 0 0 1 14.72 3.84 97.67 97.67 0 0 0 50.25 13.76c12.16 0 23.68-4.16 23.68-12.48s-9-12.48-30.08-16.32c-35.2-6.4-89-14.72-89-68.17 0-36.16 30.08-69.12 91.85-69.12 22.72 0 47.36 4.48 66.56 13.12a28.8 28.8 0 0 1-11.84 55.05 33.83 33.83 0 0 1-12.8-2.56c-18.88-7.36-33.6-11.21-45.44-11.21-19.2 0-22.72 5.77-22.72 11.21 0 8.31 8.64 11.2 31.36 15 35.2 6.08 87.36 16.32 87.36 65.6 0 47-34.88 74.24-92.16 74.24-31 0-55.05-6.08-75.53-17.28a28.88 28.88 0 0 1-15.33-25.56zM1655 493c45.44 0 80.32 32.64 80.32 70.72 0 21.76-12.16 28.16-34.24 28.16h-70.72c3.2 9.92 14.4 19.52 33.92 19.52a62.44 62.44 0 0 0 22.72-4.48 21 21 0 0 1 8-1.6 21.78 21.78 0 0 1 21.74 21.68c0 9-6.08 17-14.08 20.16a135.21 135.21 0 0 1-45.76 8c-48.32 0-86.08-30.4-86.08-81.28 0-44.76 34.24-80.88 84.18-80.88zm-25.28 62.4h50.88c-1.6-6.72-7-18.56-25.6-18.56-17.62-.04-23.38 11.48-25.3 18.52zM1858.5 629.6c0 11.84-8.64 21.12-19.52 23.68a83.63 83.63 0 0 1-18.88 1.92c-34.24 0-53.12-16.32-53.12-48.64v-59.84h-3.84a25 25 0 0 1 0-49.93h3.86v-16.64a28.8 28.8 0 1 1 57.6 0v16.64h9.6a25 25 0 0 1 0 49.93h-9.6v43.2c0 7.68 4.48 13.76 11.52 14.4l2.88.32c11.82 1.28 19.5 12.48 19.5 24.96zM1869.7 621.92a22.81 22.81 0 0 1 22.72-22.72 23.52 23.52 0 0 1 9.6 2.24c13.76 6.4 29.44 10.88 41 10.88 11.84 0 15.36-3.2 15.36-7.36 0-5.12-7-7-21.76-9-25.92-3.52-65.92-8.32-65.92-50.24 0-27.84 24.32-52.8 69.12-52.8a120.42 120.42 0 0 1 49.28 10.55 21 21 0 0 1-8.32 40.33 20.44 20.44 0 0 1-9-1.92 72.25 72.25 0 0 0-31.68-7.68c-8.32 0-14.4 2.24-14.4 6.72s4.48 6.4 19.84 8.64c25.92 3.84 67.84 9.28 67.84 52.48 0 30.72-27.52 53.12-73.28 53.12a137.09 137.09 0 0 1-57-12.48 23.13 23.13 0 0 1-13.4-20.76zM2297.21 627.68a27 27 0 0 1-26.88 26.88c-5.76 0-10.56-.64-16-4.48-4.8-3.2-10.88-7.68-17.28-12.8a104.92 104.92 0 0 1-58.88 17.92c-41.6 0-74.56-21.12-74.56-64.32 0-31.68 20.8-48.32 44.8-59.84-7-14.72-11.84-29.76-11.84-43.53 0-29.12 27.52-52.8 68.16-52.8 32.64 0 63.68 17.92 63.68 48.32 0 33-25 46.41-50.24 57.29 4.16 5.76 8.32 10.88 11.84 15.68 3.84 4.8 7.68 9.6 11.84 14.08 2.88-4.8 5.76-9.6 8.32-14.72a22.66 22.66 0 0 1 20.8-13.12 23.49 23.49 0 0 1 23.36 23.36 25.19 25.19 0 0 1-3.2 11.84 209 209 0 0 1-15 22.4l8.33 5.44a26.38 26.38 0 0 1 12.75 22.4zm-94.08-20.48c-7-7-13.12-13.44-17.28-18.88-5.12-6.72-10.56-13.76-15.68-21.12a26.12 26.12 0 0 0-6.4 17.92c0 15 10.56 25.92 23 25.92a38 38 0 0 0 16.36-3.84zm-4.16-97c12.48-6.08 21.12-13.12 21.12-23.69 0-6.72-5.44-11.84-12.48-11.84-8.64 0-14.72 6.08-14.72 14.4 0 6.12 2.24 13.48 6.11 21.17zM2607 622.24a32.37 32.37 0 0 1-63.36 9.28l-3.55-11.52h-79.36l-3.52 11.52a32.37 32.37 0 0 1-63.37-9.28 33.21 33.21 0 0 1 1.92-11.2l51.53-139.53a56.74 56.74 0 0 1 106.24 0L2605.05 611a33 33 0 0 1 1.95 11.24zm-83.84-56l-22.72-71.36-22.72 71.36zM2785.52 463.51v162.25c0 16.64-12.16 30.4-28.8 30.4-13.12 0-24.64-9-28.8-21.12-13.12 14.72-27.84 20.16-43.52 20.16-37.44 0-68.16-28.16-68.16-81.28 0-51.2 30.08-81 68.16-81 15.68 0 31.36 5.43 43.52 20.16v-49.57a28.8 28.8 0 0 1 57.6 0zm-57.6 130.25v-39.68c-5.44-6.72-16.32-10.24-24-10.24-15.68 0-28.8 10.88-28.8 30.08s13.12 30.4 28.8 30.4c7.68 0 18.56-3.84 24-10.56zM2809.84 621.92a22.81 22.81 0 0 1 22.72-22.72 23.52 23.52 0 0 1 9.6 2.24c13.76 6.4 29.44 10.88 41 10.88 11.84 0 15.36-3.2 15.36-7.36 0-5.12-7-7-21.76-9-25.92-3.52-65.92-8.32-65.92-50.24 0-27.84 24.32-52.8 69.12-52.8a120.42 120.42 0 0 1 49.28 10.55 21 21 0 0 1-8.32 40.33 20.44 20.44 0 0 1-9-1.92 72.25 72.25 0 0 0-31.68-7.68c-8.32 0-14.4 2.24-14.4 6.72s4.48 6.4 19.84 8.64c25.92 3.84 67.84 9.28 67.84 52.48 0 30.72-27.52 53.12-73.28 53.12a137.09 137.09 0 0 1-57-12.48 23.13 23.13 0 0 1-13.4-20.76z"/></g></g></svg>