<svg xmlns="http://www.w3.org/2000/svg" viewBox="0 0 1050.25 19.45"><path d="M1038.3 0c-5.98 0-5.98 2.93-11.95 2.93S1020.38 0 1014.4 0s-5.97 2.93-11.95 2.93S996.48 0 990.5 0s-5.97 2.93-11.95 2.93S972.58 0 966.6 0s-5.97 2.93-11.95 2.93S948.68 0 942.7 0s-5.97 2.93-11.95 2.93S924.78 0 918.8 0s-5.97 2.93-11.95 2.93S900.88 0 894.9 0s-5.97 2.93-11.95 2.93S876.98 0 871 0s-5.97 2.93-11.95 2.93S853.08 0 847.1 0s-5.97 2.93-11.95 2.93S829.18 0 823.2 0s-5.97 2.93-11.95 2.93S805.28 0 799.3 0s-5.97 2.93-11.95 2.93S781.38 0 775.4 0s-5.97 2.93-11.95 2.93S757.48 0 751.5 0s-5.97 2.93-11.95 2.93S733.58 0 727.6 0s-5.97 2.93-11.95 2.93S709.68 0 703.7 0s-5.97 2.93-11.95 2.93S685.78 0 679.8 0s-5.97 2.93-11.95 2.93S661.88 0 655.9 0s-5.97 2.93-11.95 2.93S637.98 0 632 0s-5.97 2.93-11.95 2.93S614.08 0 608.1 0s-5.97 2.93-11.95 2.93S590.18 0 584.2 0s-5.97 2.93-11.95 2.93S566.28 0 560.3 0s-5.97 2.93-11.95 2.93S542.38 0 536.4 0s-5.86 2.86-11.7 2.91C519.63 2.63 519.32 0 513.66 0c-5.98 0-5.98 2.93-11.95 2.93S495.74 0 489.76 0s-5.97 2.93-11.95 2.93S471.84 0 465.86 0s-5.97 2.93-11.95 2.93S447.94 0 441.96 0s-5.97 2.93-11.95 2.93S424.04 0 418.06 0s-5.97 2.93-11.95 2.93S400.14 0 394.16 0s-5.97 2.93-11.95 2.93S376.24 0 370.26 0s-5.97 2.93-11.95 2.93S352.34 0 346.36 0s-5.97 2.93-11.95 2.93S328.44 0 322.46 0s-5.97 2.93-11.95 2.93S304.54 0 298.56 0s-5.97 2.93-11.95 2.93S280.64 0 274.66 0s-5.97 2.93-11.95 2.93S256.74 0 250.76 0s-5.97 2.93-11.95 2.93S232.84 0 226.86 0s-5.97 2.93-11.95 2.93S208.94 0 202.96 0s-5.97 2.93-11.95 2.93S185.04 0 179.06 0s-5.97 2.93-11.95 2.93S161.14 0 155.16 0s-5.97 2.93-11.95 2.93S137.24 0 131.26 0s-5.97 2.93-11.95 2.93S113.34 0 107.36 0s-5.97 2.93-11.95 2.93S89.44 0 83.46 0s-5.97 2.93-11.95 2.93S65.54 0 59.56 0s-5.97 2.93-11.95 2.93S41.64 0 35.66 0s-5.97 2.93-11.95 2.93S17.81 0 11.84 0 5.98 2.87.12 2.91H0v16.54h1050.25V2.93c-5.98 0-5.98-2.93-11.95-2.93z" fill="#fde23e"/></svg>