<svg xmlns="http://www.w3.org/2000/svg" viewBox="0 0 3594.65 400.32"><defs><style>.cls-2{fill:#529ab9;stroke:#1b1950;stroke-width:1.6px}</style><filter id="filter"><feOffset dx="-7" dy="8"/><feGaussianBlur result="blur"/><feFlood flood-color="#081742"/><feComposite operator="in" in2="blur"/><feComposite in="SourceGraphic"/></filter></defs><g id="Layer_2" data-name="Layer 2"><g filter="url(#filter)" id="Layer_1-2" data-name="Layer 1"><path class="cls-2" d="M224.77 238.24a32.37 32.37 0 0 1-63.37 9.28L157.88 236H78.52L75 247.52a32.37 32.37 0 0 1-63.36-9.28A33 33 0 0 1 13.56 227L65.08 87.51a56.74 56.74 0 0 1 106.24 0L222.85 227a33 33 0 0 1 1.92 11.24zm-83.85-56l-22.72-71.36-22.72 71.36zM401.72 138.4v103.36c0 16.64-12.16 30.08-28.8 30.08a29.58 29.58 0 0 1-28.8-21.76c-9 9.92-25.92 21.12-53.12 21.12-35.84 0-51.2-21.44-51.2-48v-84.8a28.8 28.8 0 1 1 57.6 0v60.16c0 15.68 8.32 21.76 22.4 21.76 12.8 0 19.52-6.72 24.32-12.16V138.4a28.8 28.8 0 1 1 57.6 0zM592.44 79.51v162.25c0 16.64-12.16 30.4-28.8 30.4-13.12 0-24.64-9-28.8-21.12-13.12 14.72-27.84 20.16-43.53 20.16-37.44 0-68.16-28.16-68.16-81.28 0-51.2 30.08-81 68.16-81 15.69 0 31.37 5.45 43.53 20.17V79.51a28.8 28.8 0 0 1 57.6 0zm-57.6 130.25v-39.68c-5.44-6.72-16.32-10.24-24-10.24-15.68 0-28.8 10.88-28.8 30.08s13.12 30.4 28.8 30.4c7.68 0 18.56-3.84 24-10.56zM620.91 66.07a32.32 32.32 0 1 1 32.32 32.32 32.23 32.23 0 0 1-32.32-32.32zm3.52 175.69V138.4a28.8 28.8 0 1 1 57.6 0v103.36a28.8 28.8 0 1 1-57.6 0zM787.63 109c45.44 0 80.37 32.6 80.37 70.68 0 21.76-12.16 28.16-34.24 28.16H763c3.2 9.92 14.4 19.52 33.92 19.52a62.44 62.44 0 0 0 22.72-4.48 21 21 0 0 1 8-1.6A21.78 21.78 0 0 1 849.39 243c0 9-6.08 17-14.08 20.16a135.21 135.21 0 0 1-45.76 8c-48.32 0-86.08-30.4-86.08-81.28 0-44.76 34.24-80.88 84.16-80.88zm-25.28 62.41h50.88c-1.6-6.72-7-18.56-25.6-18.56-17.63-.05-23.36 11.47-25.28 18.51zM1050 157.6v84.16a28.8 28.8 0 1 1-57.6 0v-59.84c0-16-8.64-22.08-22.4-22.08-13.12 0-19.84 6.72-24.64 12.16v69.76a28.8 28.8 0 1 1-57.6 0V138.4c0-16.65 12.16-30.09 28.8-30.09a29.3 29.3 0 0 1 28.8 22.09c9-10.24 25.92-21.45 53.12-21.45 35.87.05 51.52 21.77 51.52 48.65zM1158.19 109c17.28 0 31.36 3.84 42.24 9.61 8.32 4.48 14.08 12.8 14.08 22.72a25.68 25.68 0 0 1-25.6 25.6 23.42 23.42 0 0 1-12.48-3.2 31.62 31.62 0 0 0-15.68-3.84c-16.32 0-30.4 10.24-30.4 30.08s14.08 30.4 30.4 30.4a30.41 30.41 0 0 0 15.36-3.84 27 27 0 0 1 12.48-3.52 25.81 25.81 0 0 1 11.84 48.64c-10.88 5.76-25 9.6-42.24 9.6-49 0-86.72-32-86.72-81.28 0-48.97 37.76-80.97 86.72-80.97zM1309.87 109c45.44 0 80.32 32.65 80.32 70.73 0 21.76-12.16 28.16-34.24 28.16h-70.72c3.2 9.92 14.4 19.52 33.92 19.52a62.44 62.44 0 0 0 22.72-4.48 21 21 0 0 1 8-1.6 21.78 21.78 0 0 1 21.76 21.67c0 9-6.08 17-14.08 20.16a135.21 135.21 0 0 1-45.76 8c-48.32 0-86.08-30.4-86.08-81.28 0-44.76 34.29-80.88 84.16-80.88zm-25.28 62.41h50.88c-1.6-6.72-7-18.56-25.6-18.56-17.6-.05-23.36 11.47-25.28 18.51zM1484.9 228.32a29.23 29.23 0 0 1 29.1-29.12 28.05 28.05 0 0 1 14.72 3.84A97.6 97.6 0 0 0 1579 216.8c12.17 0 23.69-4.16 23.69-12.48s-9-12.48-30.09-16.32c-35.2-6.4-89-14.72-89-68.17 0-36.16 30.08-69.12 91.85-69.12 22.72 0 47.36 4.48 66.56 13.12a28.8 28.8 0 0 1-11.84 55.05 33.64 33.64 0 0 1-12.8-2.57c-18.88-7.36-33.61-11.2-45.45-11.2-19.2 0-22.72 5.77-22.72 11.2 0 8.33 8.64 11.21 31.36 15.05 35.21 6.08 87.37 16.32 87.37 65.6 0 47-34.88 74.24-92.17 74.24-31 0-55-6.08-75.52-17.28a28.88 28.88 0 0 1-15.34-25.6zM1761.38 109c45.44 0 80.32 32.65 80.32 70.73 0 21.76-12.16 28.16-34.24 28.16h-70.72c3.2 9.92 14.4 19.52 33.92 19.52a62.44 62.44 0 0 0 22.72-4.48 21 21 0 0 1 8-1.6 21.78 21.78 0 0 1 21.76 21.67c0 9-6.08 17-14.08 20.16a135.21 135.21 0 0 1-45.76 8c-48.32 0-86.08-30.4-86.08-81.28 0-44.76 34.24-80.88 84.16-80.88zm-25.28 62.41h50.9c-1.6-6.72-7-18.56-25.6-18.56-17.62-.05-23.4 11.47-25.3 18.51zM2019.94 138.4v112.32c0 66.88-55 79.36-93.44 79.36a118.58 118.58 0 0 1-51.52-11.2 24 24 0 0 1-13.44-21.12 23.63 23.63 0 0 1 23.68-23.68 21.44 21.44 0 0 1 9.92 2.24 73.89 73.89 0 0 0 31.36 6.68c13.44 0 35.84-5.12 35.84-32.32v-8.28c-13.12 15-27.52 20.8-43.52 20.8-37.12 0-67.84-24.32-67.84-77.12 0-51.52 29.76-77.13 67.84-77.13 16 0 31 5.45 43.52 20.17 3.2-11.53 16-19.53 28.8-19.53a28.89 28.89 0 0 1 28.8 28.81zm-57.6 64v-32.64c-5.44-6.4-16.32-9.92-23.68-9.92-15.68 0-28.8 7.36-28.8 26.24s13.12 26.24 28.8 26.24c7.34 0 18.24-3.52 23.68-9.92zM2307 155.36v86.4a28.8 28.8 0 0 1-57.6 0v-64.64c0-9.28-4.8-17.28-17.6-17.28s-19.84 7.68-23.68 12.16v69.76a28.8 28.8 0 1 1-57.6 0v-64.64c0-9.28-4.48-17.28-17.6-17.28-12.48 0-19.52 7.68-23.36 12.16v69.76a28.8 28.8 0 0 1-57.6 0V138.4c0-16.65 12.16-30.09 28.8-30.09a29.86 29.86 0 0 1 28.8 22.09c6.72-8.65 26.24-21.45 51.2-21.45 21.76 0 37.44 8 44.48 27.21 9-13.45 29.12-27.21 54.08-27.21 28.46.05 47.68 14.4 47.68 46.41zM2412.57 109c45.44 0 80.33 32.65 80.33 70.73 0 21.76-12.17 28.16-34.25 28.16h-70.72c3.2 9.92 14.4 19.52 33.92 19.52a62.44 62.44 0 0 0 22.72-4.48 21 21 0 0 1 8-1.6 21.78 21.78 0 0 1 21.76 21.67c0 9-6.08 17-14.08 20.16a135.21 135.21 0 0 1-45.76 8c-48.32 0-86.08-30.4-86.08-81.28 0-44.76 34.24-80.88 84.16-80.88zm-25.28 62.41h50.88c-1.6-6.72-7-18.56-25.6-18.56-17.57-.05-23.36 11.47-25.28 18.51zM2675 157.6v84.16a28.81 28.81 0 0 1-57.61 0v-59.84c0-16-8.64-22.08-22.4-22.08-13.12 0-19.84 6.72-24.64 12.16v69.76a28.8 28.8 0 1 1-57.6 0V138.4c0-16.65 12.16-30.09 28.8-30.09a29.3 29.3 0 0 1 28.8 22.09c9-10.24 25.92-21.45 53.12-21.45 35.82.05 51.53 21.77 51.53 48.65zM2810.33 245.6c0 11.84-8.64 21.12-19.52 23.68a83.63 83.63 0 0 1-18.88 1.92c-34.24 0-53.12-16.32-53.12-48.64v-59.84H2715a25 25 0 0 1 0-49.93h3.84V96.15a28.8 28.8 0 1 1 57.6 0v16.64h9.6a25 25 0 0 1 0 49.93h-9.6v43.2c0 7.68 4.48 13.76 11.52 14.4l2.88.32c11.81 1.28 19.49 12.48 19.49 24.96zM2976.09 173.92v65.92c0 17-11.84 30.72-28.8 30.72a30.92 30.92 0 0 1-28.48-18.56c-8.32 11.2-27.52 19.2-47 19.2-23 0-53.12-15.68-53.12-50.88 0-38.4 30.08-47.68 53.12-47.68 20.16 0 38.4 6.4 46.72 17V172c0-10.88-9.92-19.2-28.8-19.2-9.28 0-19.2 2.24-29.44 7a18.67 18.67 0 0 1-8.32 1.92 20.77 20.77 0 0 1-9.28-39.36 131.06 131.06 0 0 1 57.6-13.45c38.36.09 75.8 13.49 75.8 65.01zm-57.6 51.52v-8.64c-3.84-5.44-13.76-8.32-22.72-8.32-9.6 0-20.16 3.2-20.16 12.8s10.56 12.48 20.16 12.48c8.96 0 18.88-2.88 22.72-8.32zM3111.44 245.6c0 11.84-8.63 21.12-19.52 23.68a83.63 83.63 0 0 1-18.92 1.92c-34.24 0-53.12-16.32-53.12-48.64v-59.84h-3.84a25 25 0 0 1 0-49.93h3.84V96.15a28.8 28.8 0 0 1 57.6 0v16.64h9.6a25 25 0 1 1 0 49.93h-9.6v43.2c0 7.68 4.48 13.76 11.52 14.4l2.88.32c11.89 1.28 19.56 12.48 19.56 24.96zM3126.8 66.07a32.32 32.32 0 1 1 32.32 32.32 32.23 32.23 0 0 1-32.32-32.32zm3.52 175.69V138.4a28.8 28.8 0 1 1 57.6 0v103.36a28.8 28.8 0 0 1-57.6 0zM3209.36 189.92c0-43.2 32-81 86.72-81 55 0 87 37.77 87 81s-32 81.28-87 81.28c-54.72 0-86.72-38.08-86.72-81.28zm114.56 0c0-17-9.92-30.08-27.84-30.08-17.6 0-27.52 13.12-27.52 30.08 0 17.28 9.92 30.4 27.52 30.4 17.92 0 27.84-13.12 27.84-30.4zM3566.8 157.6v84.16a28.8 28.8 0 0 1-57.6 0v-59.84c0-16-8.64-22.08-22.4-22.08-13.12 0-19.84 6.72-24.64 12.16v69.76a28.8 28.8 0 1 1-57.6 0V138.4c0-16.65 12.16-30.09 28.8-30.09a29.3 29.3 0 0 1 28.8 22.09c9-10.24 25.92-21.45 53.12-21.45 35.84.05 51.52 21.77 51.52 48.65z"/></g></g></svg>