<svg xmlns="http://www.w3.org/2000/svg" viewBox="0 0 4024.11 400.32"><defs><style>.cls-2{fill:#fde23e;stroke:#1b1950;stroke-width:1.6px}</style><filter id="filter"><feOffset dx="-7" dy="8"/><feGaussianBlur result="blur"/><feFlood flood-color="#081742"/><feComposite operator="in" in2="blur"/><feComposite in="SourceGraphic"/></filter></defs><g id="Layer_2" data-name="Layer 2"><g filter="url(#filter)" id="Layer_1-2" data-name="Layer 1"><path class="cls-2" d="M167 238.24v-52.48H90.47v52.48a32.33 32.33 0 0 1-64.65 0V83a32.33 32.33 0 0 1 64.65 0v46.41H167V83a32.32 32.32 0 1 1 64.64 0v155.24a32.32 32.32 0 1 1-64.64 0zM254.3 189.92c0-43.2 32-81 86.72-81 55.05 0 87.05 37.77 87.05 81s-32 81.28-87.05 81.28c-54.72 0-86.72-38.08-86.72-81.28zm114.56 0c0-17-9.92-30.08-27.84-30.08-17.6 0-27.52 13.12-27.52 30.08 0 17.28 9.92 30.4 27.52 30.4 17.92 0 27.84-13.12 27.84-30.4zM579.74 241.44L562.14 181l-17.6 60.48a40.52 40.52 0 0 1-77.76 0l-27.84-96a30.46 30.46 0 0 1-1-8 28.08 28.08 0 0 1 55.36-6.4l16 66.88 20.8-65a33.74 33.74 0 0 1 64.32.32l20.48 64.64 16-66.88a28.26 28.26 0 0 1 55.69 6.72 29.66 29.66 0 0 1-1.28 7.68l-27.53 96a40.73 40.73 0 0 1-78.08 0zM892.06 245.6c0 11.84-8.64 21.12-19.52 23.68a83.63 83.63 0 0 1-18.88 1.92c-34.24 0-53.12-16.32-53.12-48.64v-59.84h-3.85a25 25 0 0 1 0-49.93h3.85V96.15a28.8 28.8 0 1 1 57.6 0v16.64h9.6a25 25 0 0 1 0 49.93h-9.6v43.2c0 7.68 4.48 13.76 11.52 14.4l2.88.32c11.84 1.28 19.52 12.48 19.52 24.96zM900.37 189.92c0-43.2 32-81 86.72-81 55 0 87.05 37.77 87.05 81s-32 81.28-87.05 81.28c-54.72 0-86.72-38.08-86.72-81.28zm114.56 0c0-17-9.92-30.08-27.84-30.08-17.6 0-27.52 13.12-27.52 30.08 0 17.28 9.92 30.4 27.52 30.4 17.91 0 27.84-13.12 27.84-30.4zM1253.33 109c17.28 0 31.36 3.84 42.24 9.61 8.32 4.48 14.08 12.8 14.08 22.72a25.68 25.68 0 0 1-25.6 25.6 23.42 23.42 0 0 1-12.48-3.2 31.62 31.62 0 0 0-15.68-3.84c-16.32 0-30.4 10.24-30.4 30.08s14.08 30.4 30.4 30.4a30.41 30.41 0 0 0 15.36-3.84 27 27 0 0 1 12.48-3.52 25.81 25.81 0 0 1 11.84 48.64c-10.88 5.76-25 9.6-42.24 9.6-49 0-86.72-32-86.72-81.28 0-48.97 37.76-80.97 86.72-80.97zM1441.17 133.92c0 14.72-7.36 27.2-24 29.12-8 1-21.76 2.56-28.16 10.24v68.48a28.81 28.81 0 0 1-57.61 0V139.68c0-16.64 12.17-30.09 28.81-30.09 13.76 0 25.28 8.33 28.8 20.81 2.88-6.4 7.68-13.44 15-17.61a27.08 27.08 0 0 1 12.48-3.52 24.46 24.46 0 0 1 24.68 24.65zM1529.81 109c45.44 0 80.32 32.65 80.32 70.73 0 21.76-12.16 28.16-34.24 28.16h-70.72c3.2 9.92 14.4 19.52 33.92 19.52a62.44 62.44 0 0 0 22.72-4.48 21 21 0 0 1 8-1.6 21.78 21.78 0 0 1 21.76 21.67c0 9-6.08 17-14.08 20.16a135.21 135.21 0 0 1-45.76 8c-48.33 0-86.09-30.4-86.09-81.28 0-44.76 34.25-80.88 84.17-80.88zm-25.28 62.41h50.88c-1.6-6.72-7-18.56-25.6-18.56-17.6-.05-23.36 11.47-25.28 18.51zM1776.85 173.92v65.92c0 17-11.84 30.72-28.8 30.72a30.92 30.92 0 0 1-28.48-18.56c-8.32 11.2-27.52 19.2-47 19.2-23 0-53.13-15.68-53.13-50.88 0-38.4 30.08-47.68 53.13-47.68 20.16 0 38.4 6.4 46.72 17V172c0-10.88-9.92-19.2-28.8-19.2-9.29 0-19.21 2.24-29.45 7a18.61 18.61 0 0 1-8.32 1.92 20.77 20.77 0 0 1-9.28-39.36A131.07 131.07 0 0 1 1701 109c38.41 0 75.85 13.4 75.85 64.92zm-57.6 51.52v-8.64c-3.84-5.44-13.76-8.32-22.72-8.32-9.6 0-20.16 3.2-20.16 12.8s10.56 12.48 20.16 12.48c8.96 0 18.88-2.88 22.72-8.32zM1912.2 245.6c0 11.84-8.64 21.12-19.52 23.68a83.63 83.63 0 0 1-18.88 1.92c-34.24 0-53.12-16.32-53.12-48.64v-59.84h-3.84a25 25 0 0 1 0-49.93h3.84V96.15a28.8 28.8 0 0 1 57.6 0v16.64h9.6a25 25 0 0 1 0 49.93h-9.6v43.2c0 7.68 4.48 13.76 11.52 14.4l2.88.32c11.84 1.28 19.52 12.48 19.52 24.96zM2004.68 109c45.44 0 80.32 32.65 80.32 70.73 0 21.76-12.16 28.16-34.24 28.16H1980c3.2 9.92 14.4 19.52 33.92 19.52a62.44 62.44 0 0 0 22.72-4.48 21 21 0 0 1 8-1.6 21.78 21.78 0 0 1 21.8 21.67c0 9-6.08 17-14.08 20.16a135.21 135.21 0 0 1-45.76 8c-48.32 0-86.08-30.4-86.08-81.28 0-44.76 34.24-80.88 84.16-80.88zm-25.28 62.41h50.88c-1.6-6.72-7-18.56-25.6-18.56-17.6-.05-23.36 11.47-25.28 18.51zM2333.32 173.92v65.92c0 17-11.84 30.72-28.8 30.72A30.92 30.92 0 0 1 2276 252c-8.32 11.2-27.52 19.2-47.05 19.2-23 0-53.12-15.68-53.12-50.88 0-38.4 30.08-47.68 53.12-47.68 20.16 0 38.41 6.4 46.73 17V172c0-10.88-9.92-19.2-28.81-19.2-9.27 0-19.19 2.24-29.43 7a18.74 18.74 0 0 1-8.33 1.92 20.77 20.77 0 0 1-9.28-39.36 131.1 131.1 0 0 1 57.65-13.36c38.4 0 75.84 13.4 75.84 64.92zm-57.6 51.52v-8.64c-3.84-5.44-13.76-8.32-22.73-8.32-9.59 0-20.16 3.2-20.16 12.8s10.57 12.48 20.16 12.48c9.01 0 18.89-2.88 22.73-8.32zM2523.07 109c17.28 0 31.36 3.84 42.24 9.61 8.32 4.48 14.08 12.8 14.08 22.72a25.68 25.68 0 0 1-25.6 25.6 23.42 23.42 0 0 1-12.48-3.2 31.62 31.62 0 0 0-15.68-3.84c-16.32 0-30.4 10.24-30.4 30.08s14.08 30.4 30.4 30.4a30.41 30.41 0 0 0 15.36-3.84 27 27 0 0 1 12.48-3.52 25.81 25.81 0 0 1 11.84 48.64c-10.88 5.76-25 9.6-42.24 9.6-49 0-86.72-32-86.72-81.28 0-48.97 37.76-80.97 86.72-80.97zM2748 173.92v65.92c0 17-11.84 30.72-28.8 30.72a30.92 30.92 0 0 1-28.45-18.56c-8.32 11.2-27.52 19.2-47 19.2-23 0-53.12-15.68-53.12-50.88 0-38.4 30.08-47.68 53.12-47.68 20.16 0 38.4 6.4 46.72 17V172c0-10.88-9.92-19.2-28.8-19.2-9.28 0-19.2 2.24-29.44 7a18.67 18.67 0 0 1-8.32 1.92 20.77 20.77 0 0 1-9.28-39.36 131.06 131.06 0 0 1 57.6-13.45c38.36.09 75.77 13.49 75.77 65.01zm-57.6 51.52v-8.64c-3.84-5.44-13.76-8.32-22.72-8.32-9.6 0-20.16 3.2-20.16 12.8s10.56 12.48 20.16 12.48c8.99 0 18.91-2.88 22.75-8.32zM3035.07 155.36v86.4a28.8 28.8 0 0 1-57.6 0v-64.64c0-9.28-4.8-17.28-17.6-17.28s-19.87 7.68-23.68 12.16v69.76a28.81 28.81 0 0 1-57.61 0v-64.64c0-9.28-4.48-17.28-17.6-17.28-12.48 0-19.52 7.68-23.36 12.16v69.76a28.8 28.8 0 1 1-57.6 0V138.4c0-16.65 12.16-30.09 28.8-30.09a29.86 29.86 0 0 1 28.8 22.09c6.72-8.65 26.24-21.45 51.2-21.45 21.77 0 37.45 8 44.49 27.21 9-13.45 29.12-27.21 54.08-27.21 28.48.05 47.68 14.4 47.68 46.41zM3236 189.92c0 53.12-29.44 81.28-67.84 81.28-16 0-30.72-5.44-43.52-20.16v49.6a28.8 28.8 0 1 1-57.6 0V138.4c0-16.65 12.16-30.41 28.8-30.41a30.37 30.37 0 0 1 28.8 21.13c12.48-14.72 27.52-20.17 43.52-20.17 38.42.05 67.84 28.17 67.84 80.97zm-58.88 0c0-19.2-13.44-30.08-28.8-30.08-7.36 0-18.24 3.84-23.68 10.56v39.36c5.12 6.4 16.32 10.56 23.68 10.56 15.38 0 28.82-10.88 28.82-30.4zM3404.34 173.92v65.92c0 17-11.84 30.72-28.8 30.72a30.92 30.92 0 0 1-28.48-18.56c-8.32 11.2-27.52 19.2-47 19.2-23 0-53.12-15.68-53.12-50.88 0-38.4 30.08-47.68 53.12-47.68 20.16 0 38.4 6.4 46.72 17V172c0-10.88-9.92-19.2-28.8-19.2-9.29 0-19.21 2.24-29.45 7a18.61 18.61 0 0 1-8.32 1.92 20.76 20.76 0 0 1-9.27-39.36A131 131 0 0 1 3328.5 109c38.4 0 75.84 13.4 75.84 64.92zm-57.6 51.52v-8.64c-3.84-5.44-13.76-8.32-22.72-8.32-9.6 0-20.16 3.2-20.16 12.8s10.56 12.48 20.16 12.48c8.98 0 18.88-2.88 22.72-8.32zM3432.81 66.07a32.32 32.32 0 1 1 32.32 32.32 32.23 32.23 0 0 1-32.32-32.32zm3.52 175.69V138.4a28.8 28.8 0 1 1 57.6 0v103.36a28.8 28.8 0 1 1-57.6 0zM3684.33 138.4v112.32c0 66.88-55 79.36-93.44 79.36a118.58 118.58 0 0 1-51.52-11.2 24 24 0 0 1-13.44-21.12 23.63 23.63 0 0 1 23.68-23.68 21.44 21.44 0 0 1 9.92 2.24 73.89 73.89 0 0 0 31.36 6.72c13.44 0 35.84-5.12 35.84-32.32v-8.32c-13.12 15-27.52 20.8-43.52 20.8-37.12 0-67.84-24.32-67.84-77.12 0-51.52 29.76-77.13 67.84-77.13 16 0 31 5.45 43.52 20.17 3.2-11.53 16-19.53 28.8-19.53a28.89 28.89 0 0 1 28.8 28.81zm-57.6 64v-32.64c-5.44-6.4-16.32-9.92-23.68-9.92-15.68 0-28.8 7.36-28.8 26.24s13.12 26.24 28.8 26.24c7.36 0 18.24-3.52 23.68-9.92zM3878.57 157.6v84.16a28.8 28.8 0 0 1-57.6 0v-59.84c0-16-8.64-22.08-22.4-22.08-13.12 0-19.84 6.72-24.64 12.16v69.76a28.8 28.8 0 1 1-57.6 0V138.4c0-16.65 12.16-30.09 28.8-30.09a29.3 29.3 0 0 1 28.8 22.09c9-10.24 25.92-21.45 53.12-21.45 35.84.05 51.52 21.77 51.52 48.65zM3944.81 124.64c5.76-3.85 9.92-6.72 9.92-10.24 0-3.85-2.56-6.73-12.48-6.73-4.16 0-9 1.28-14.08 3.84-3.52 1.93-7.68 2.56-12.16 2.56a27.69 27.69 0 0 1-12.16-52.48 103.24 103.24 0 0 1 45.76-10.88c43.2 0 70.4 19.84 70.4 51.52 0 26.57-15.68 38.73-28.8 48.65-8.32 6.4-15.68 11.84-16.64 20.16v1.28c0 .64-.32 1.6-.32 2.24-3.2 11.52-15.36 20.48-28.16 20.48a27 27 0 0 1-27.2-25.28v-4.48c0-22.72 15.36-33.28 25.92-40.64zm6.72 78.08c18.56 0 34.24 15.68 34.24 34.24s-15.68 34.24-34.24 34.24-34.24-15.68-34.24-34.24 15.71-34.24 34.24-34.24z"/></g></g></svg>