<svg xmlns="http://www.w3.org/2000/svg" viewBox="0 0 6306.91 400.32"><defs><style>.g{fill:#fde23e;stroke:#1b1950;stroke-width:1.6px}</style><filter id="d" filterUnits="userSpaceOnUse"><feOffset dx="-7" dy="8"/><feGaussianBlur result="e"/><feFlood flood-color="#081742" flood-opacity="1"/><feComposite in2="e" operator="in"/><feComposite in="SourceGraphic"/></filter></defs><g id="b"><g filter="url(#d)" id="c"><path class="g" d="M70.84 238.24V110.23H38.52c-15.36 0-28.16-12.48-28.16-28.16s12.8-28.16 28.16-28.16h128.96c15.36 0 28.16 12.48 28.16 28.16s-12.8 28.16-28.16 28.16h-32v128.01c0 17.6-14.4 32.32-32.32 32.32s-32.32-14.72-32.32-32.32zM338.68 173.92v65.92c0 16.96-11.84 30.72-28.8 30.72-12.48 0-23.68-7.36-28.48-18.56-8.32 11.2-27.52 19.2-47.04 19.2-23.04 0-53.12-15.68-53.12-50.88 0-38.4 30.08-47.68 53.12-47.68 20.16 0 38.4 6.4 46.72 16.96V172c0-10.88-9.92-19.2-28.8-19.2-9.28 0-19.2 2.24-29.44 7.04-2.56 1.28-5.44 1.92-8.32 1.92-11.52 0-20.8-9.28-20.8-20.8 0-8 4.8-15.36 11.52-18.56 19.2-9.6 40-13.44 57.6-13.44 38.4 0 75.84 13.44 75.84 64.96zm-57.6 51.52v-8.64c-3.84-5.44-13.76-8.32-22.72-8.32-9.6 0-20.16 3.2-20.16 12.8s10.56 12.48 20.16 12.48c8.96 0 18.88-2.88 22.72-8.32zM539.96 189.92c0 53.12-30.72 81.28-68.16 81.28-15.68 0-30.4-5.44-43.52-20.16-3.52 11.52-16 19.52-28.8 19.52-16 0-28.8-13.12-28.8-28.8V79.51c0-15.68 12.8-28.8 28.8-28.8s28.8 13.12 28.8 28.8v49.6c12.16-14.72 27.84-20.16 43.52-20.16 38.08 0 68.16 29.76 68.16 80.96zm-58.88 0c0-19.2-13.12-30.08-28.8-30.08-7.68 0-18.56 3.84-24 10.56v39.68c5.44 6.72 16.32 10.24 24 10.24 15.68 0 28.8-10.88 28.8-30.4zM553.71 237.92c0-12.48 10.24-22.72 22.72-22.72 3.52 0 6.72.96 9.6 2.24 13.76 6.4 29.44 10.88 40.96 10.88s15.36-3.2 15.36-7.36c0-5.12-7.04-7.04-21.76-8.96-25.92-3.52-65.92-8.32-65.92-50.24 0-27.84 24.32-52.8 69.12-52.8 17.6 0 34.24 3.84 49.28 10.56 7.36 3.2 12.8 10.56 12.8 19.2 0 11.52-9.6 21.12-21.12 21.12-3.2 0-6.4-.64-8.96-1.92-9.6-4.8-20.8-7.68-31.68-7.68-8.32 0-14.4 2.24-14.4 6.72s4.48 6.4 19.84 8.64c25.92 3.84 67.84 9.28 67.84 52.48 0 30.72-27.52 53.12-73.28 53.12-19.52 0-40-4.48-56.96-12.48-7.68-3.52-13.44-11.52-13.44-20.8zM981.23 243.68c0 14.72-12.16 26.88-26.88 26.88-5.76 0-10.56-.64-16-4.48-4.8-3.2-10.88-7.68-17.28-12.8-16.96 11.2-36.48 17.92-58.88 17.92-41.6 0-74.56-21.12-74.56-64.32 0-31.68 20.8-48.32 44.8-59.84-7.04-14.72-11.84-29.76-11.84-43.52 0-29.12 27.52-52.8 68.16-52.8 32.64 0 63.68 17.92 63.68 48.32 0 32.96-24.96 46.4-50.24 57.28 4.16 5.76 8.32 10.88 11.84 15.68 3.84 4.8 7.68 9.6 11.84 14.08 2.88-4.8 5.76-9.6 8.32-14.72 3.84-8 11.52-13.12 20.8-13.12 12.8 0 23.36 10.56 23.36 23.36 0 4.16-1.28 8.32-3.2 11.84-4.48 7.68-9.6 15.36-15.04 22.4l8.32 5.44c8.32 5.12 12.8 13.76 12.8 22.4zm-94.08-20.48c-7.04-7.04-13.12-13.44-17.28-18.88-5.12-6.72-10.56-13.76-15.68-21.12-4.16 4.8-6.4 10.56-6.4 17.92 0 15.04 10.56 25.92 23.04 25.92 5.44 0 10.88-1.28 16.32-3.84zm-4.16-96.96c12.48-6.08 21.12-13.12 21.12-23.68 0-6.72-5.44-11.84-12.48-11.84-8.64 0-14.72 6.08-14.72 14.4 0 6.08 2.24 13.44 6.08 21.12zM1232.42 238.24v-52.48h-76.48v52.48c0 17.6-14.4 32.32-32.32 32.32s-32.32-14.72-32.32-32.32V83.03c0-17.6 14.4-32.32 32.32-32.32s32.32 14.72 32.32 32.32v46.4h76.48v-46.4c0-17.6 14.4-32.32 32.32-32.32s32.32 14.72 32.32 32.32v155.21c0 17.6-14.4 32.32-32.32 32.32s-32.32-14.72-32.32-32.32zM1319.78 189.92c0-43.2 32-80.96 86.72-80.96s87.04 37.76 87.04 80.96-32 81.28-87.04 81.28-86.72-38.08-86.72-81.28zm114.56 0c0-16.96-9.92-30.08-27.84-30.08s-27.52 13.12-27.52 30.08 9.92 30.4 27.52 30.4 27.84-13.12 27.84-30.4zM1645.22 241.44l-17.6-60.48-17.6 60.48c-4.8 16.64-20.16 29.12-38.72 29.12s-34.24-12.48-39.04-29.12l-27.84-96c-.64-2.24-.96-5.12-.96-8 0-15.36 12.48-27.84 28.16-27.84 13.12 0 24.32 8.96 27.2 21.44l16 66.88 20.8-64.96c4.16-13.44 16.96-23.36 32-23.36s28.16 9.92 32.32 23.68l20.48 64.64 16-66.88c2.88-12.16 14.08-21.44 27.52-21.44 15.36 0 28.16 12.48 28.16 28.16 0 2.56-.64 5.44-1.28 7.68l-27.52 96c-4.8 16.64-20.48 29.12-39.04 29.12s-34.24-12.48-39.04-29.12zM1957.53 245.6c0 11.84-8.64 21.12-19.52 23.68-5.44 1.28-11.84 1.92-18.88 1.92-34.24 0-53.12-16.32-53.12-48.64v-59.84h-3.84c-13.76 0-24.96-11.2-24.96-24.96s11.2-24.96 24.96-24.96h3.84V96.16c0-15.68 12.8-28.8 28.8-28.8s28.8 13.12 28.8 28.8v16.64h9.6c13.76 0 24.96 11.2 24.96 24.96s-11.2 24.96-24.96 24.96h-9.6v43.2c0 7.68 4.48 13.76 11.52 14.4l2.88.32c11.84 1.28 19.52 12.48 19.52 24.96zM1965.85 189.92c0-43.2 32-80.96 86.72-80.96s87.04 37.76 87.04 80.96-32 81.28-87.04 81.28-86.72-38.08-86.72-81.28zm114.56 0c0-16.96-9.92-30.08-27.84-30.08s-27.52 13.12-27.52 30.08 9.92 30.4 27.52 30.4 27.84-13.12 27.84-30.4zM2318.81 108.95c17.28 0 31.36 3.84 42.24 9.6 8.32 4.48 14.08 12.8 14.08 22.72 0 14.08-11.52 25.6-25.6 25.6-4.8 0-8.64-.96-12.48-3.2-4.48-2.56-9.92-3.84-15.68-3.84-16.32 0-30.4 10.24-30.4 30.08s14.08 30.4 30.4 30.4c5.76 0 10.88-1.28 15.36-3.84 3.52-1.92 8-3.52 12.48-3.52 14.08 0 25.6 11.52 25.6 25.92 0 9.92-5.44 18.24-13.76 22.72-10.88 5.76-24.96 9.6-42.24 9.6-48.96 0-86.72-32-86.72-81.28s37.76-80.96 86.72-80.96zM2386.32 189.92c0-43.2 32-80.96 86.72-80.96s87.04 37.76 87.04 80.96-32 81.28-87.04 81.28-86.72-38.08-86.72-81.28zm114.56 0c0-16.96-9.92-30.08-27.84-30.08s-27.52 13.12-27.52 30.08 9.92 30.4 27.52 30.4 27.84-13.12 27.84-30.4zM2750.48 189.92c0 53.12-29.44 81.28-67.84 81.28-16 0-30.72-5.44-43.52-20.16v49.6c0 15.68-12.8 28.8-28.8 28.8s-28.8-13.12-28.8-28.8V138.4c0-16.64 12.16-30.4 28.8-30.4 13.44 0 24.96 8.96 28.8 21.12 12.48-14.72 27.52-20.16 43.52-20.16 38.4 0 67.84 28.16 67.84 80.96zm-58.88 0c0-19.2-13.44-30.08-28.8-30.08-7.36 0-18.24 3.84-23.68 10.56v39.36c5.12 6.4 16.32 10.56 23.68 10.56 15.36 0 28.8-10.88 28.8-30.4zM2786 279.52l2.56-.32c10.56-.96 16.96-2.24 18.88-6.08l1.28-3.2-48.32-121.28c-1.28-3.2-2.56-7.36-2.56-10.88 0-15.36 12.16-28.16 28.16-28.16 11.2 0 22.08 5.76 25.92 17.6l26.56 78.4 25.92-78.4c3.84-11.52 14.72-17.6 25.92-17.6 16.64 0 28.48 12.8 28.48 28.16 0 3.52-1.28 7.68-2.56 10.88l-54.72 137.92c-13.76 34.56-42.24 43.52-63.36 43.52h-3.52c-18.56 0-29.12-12.8-29.12-26.88 0-13.12 9.6-22.4 20.48-23.68zM3097.67 108.95c17.28 0 31.36 3.84 42.24 9.6 8.32 4.48 14.08 12.8 14.08 22.72 0 14.08-11.52 25.6-25.6 25.6-4.8 0-8.64-.96-12.48-3.2-4.48-2.56-9.92-3.84-15.68-3.84-16.32 0-30.4 10.24-30.4 30.08s14.08 30.4 30.4 30.4c5.76 0 10.88-1.28 15.36-3.84 3.52-1.92 8-3.52 12.48-3.52 14.08 0 25.6 11.52 25.6 25.92 0 9.92-5.44 18.24-13.76 22.72-10.88 5.76-24.96 9.6-42.24 9.6-48.96 0-86.72-32-86.72-81.28s37.76-80.96 86.72-80.96zM3280.71 241.76v-60.48c0-16-8.64-21.44-22.4-21.44s-19.84 6.72-24.64 12.16v69.76c0 15.68-12.8 28.8-28.8 28.8s-28.8-13.12-28.8-28.8V79.51c0-15.68 12.8-28.8 28.8-28.8s28.8 13.12 28.8 28.8v50.88c8.96-10.24 25.92-21.44 53.12-21.44 35.84 0 51.52 21.12 51.52 48v84.8c0 15.68-12.8 28.8-28.8 28.8s-28.8-13.12-28.8-28.8zM3517.19 173.92v65.92c0 16.96-11.84 30.72-28.8 30.72-12.48 0-23.68-7.36-28.48-18.56-8.32 11.2-27.52 19.2-47.04 19.2-23.04 0-53.12-15.68-53.12-50.88 0-38.4 30.08-47.68 53.12-47.68 20.16 0 38.4 6.4 46.72 16.96V172c0-10.88-9.92-19.2-28.8-19.2-9.28 0-19.2 2.24-29.44 7.04-2.56 1.28-5.44 1.92-8.32 1.92-11.52 0-20.8-9.28-20.8-20.8 0-8 4.8-15.36 11.52-18.56 19.2-9.6 40-13.44 57.6-13.44 38.4 0 75.84 13.44 75.84 64.96zm-57.6 51.52v-8.64c-3.84-5.44-13.76-8.32-22.72-8.32-9.6 0-20.16 3.2-20.16 12.8s10.56 12.48 20.16 12.48c8.96 0 18.88-2.88 22.72-8.32zM3711.43 157.6v84.16c0 15.68-12.8 28.8-28.8 28.8s-28.8-13.12-28.8-28.8v-59.84c0-16-8.64-22.08-22.4-22.08s-19.84 6.72-24.64 12.16v69.76c0 15.68-12.8 28.8-28.8 28.8s-28.8-13.12-28.8-28.8V138.4c0-16.64 12.16-30.08 28.8-30.08 14.08 0 25.6 9.28 28.8 22.08 8.96-10.24 25.92-21.44 53.12-21.44 35.84 0 51.52 21.76 51.52 48.64zM3901.82 138.4v112.32c0 66.88-55.04 79.36-93.44 79.36-18.24 0-35.2-3.52-51.52-11.2-7.68-3.84-13.44-11.84-13.44-21.12 0-13.12 10.56-23.68 23.68-23.68 3.52 0 6.72.64 9.92 2.24 10.24 4.8 21.12 6.72 31.36 6.72 13.44 0 35.84-5.12 35.84-32.32v-8.32c-13.12 15.04-27.52 20.8-43.52 20.8-37.12 0-67.84-24.32-67.84-77.12s29.76-77.12 67.84-77.12c16 0 31.04 5.44 43.52 20.16 3.2-11.52 16-19.52 28.8-19.52 16 0 28.8 13.12 28.8 28.8zm-57.6 64v-32.64c-5.44-6.4-16.32-9.92-23.68-9.92-15.68 0-28.8 7.36-28.8 26.24s13.12 26.24 28.8 26.24c7.36 0 18.24-3.52 23.68-9.92zM4007.42 108.95c45.44 0 80.32 32.64 80.32 70.72 0 21.76-12.16 28.16-34.24 28.16h-70.72c3.2 9.92 14.4 19.52 33.92 19.52 7.68 0 15.36-1.6 22.72-4.48 2.24-.96 5.12-1.6 8-1.6 11.84 0 21.76 9.6 21.76 21.76 0 8.96-6.08 16.96-14.08 20.16-14.72 5.44-31.04 8-45.76 8-48.32 0-86.08-30.4-86.08-81.28 0-44.8 34.24-80.96 84.16-80.96zm-25.28 62.4h50.88c-1.6-6.72-7.04-18.56-25.6-18.56-17.6 0-23.36 11.52-25.28 18.56zM4099.9 237.92c0-12.48 10.24-22.72 22.72-22.72 3.52 0 6.72.96 9.6 2.24 13.76 6.4 29.44 10.88 40.96 10.88s15.36-3.2 15.36-7.36c0-5.12-7.04-7.04-21.76-8.96-25.92-3.52-65.92-8.32-65.92-50.24 0-27.84 24.32-52.8 69.12-52.8 17.6 0 34.24 3.84 49.28 10.56 7.36 3.2 12.8 10.56 12.8 19.2 0 11.52-9.6 21.12-21.12 21.12-3.2 0-6.4-.64-8.96-1.92-9.6-4.8-20.8-7.68-31.68-7.68-8.32 0-14.4 2.24-14.4 6.72s4.48 6.4 19.84 8.64c25.92 3.84 67.84 9.28 67.84 52.48 0 30.72-27.52 53.12-73.28 53.12-19.52 0-40-4.48-56.96-12.48-7.68-3.52-13.44-11.52-13.44-20.8zM4449.33 245.6c0 11.84-8.64 21.12-19.52 23.68-5.44 1.28-11.84 1.92-18.88 1.92-34.24 0-53.12-16.32-53.12-48.64v-59.84h-3.84c-13.76 0-24.96-11.2-24.96-24.96s11.2-24.96 24.96-24.96h3.84V96.16c0-15.68 12.8-28.8 28.8-28.8s28.8 13.12 28.8 28.8v16.64h9.6c13.76 0 24.96 11.2 24.96 24.96s-11.2 24.96-24.96 24.96h-9.6v43.2c0 7.68 4.48 13.76 11.52 14.4l2.88.32c11.84 1.28 19.52 12.48 19.52 24.96zM4457.65 189.92c0-43.2 32-80.96 86.72-80.96s87.04 37.76 87.04 80.96-32 81.28-87.04 81.28-86.72-38.08-86.72-81.28zm114.56 0c0-16.96-9.92-30.08-27.84-30.08s-27.52 13.12-27.52 30.08 9.92 30.4 27.52 30.4 27.84-13.12 27.84-30.4zM4723.88 189.92c0-43.2 32-80.96 86.72-80.96s87.04 37.76 87.04 80.96-32 81.28-87.04 81.28-86.72-38.08-86.72-81.28zm114.56 0c0-16.96-9.92-30.08-27.84-30.08s-27.52 13.12-27.52 30.08 9.92 30.4 27.52 30.4 27.84-13.12 27.84-30.4zM5022.44 245.6c0 11.84-8.64 21.12-19.52 23.68-5.44 1.28-11.84 1.92-18.88 1.92-34.24 0-53.12-16.32-53.12-48.64v-59.84h-3.84c-13.76 0-24.96-11.2-24.96-24.96s11.2-24.96 24.96-24.96h3.84V96.16c0-15.68 12.8-28.8 28.8-28.8s28.8 13.12 28.8 28.8v16.64h9.6c13.76 0 24.96 11.2 24.96 24.96s-11.2 24.96-24.96 24.96h-9.6v43.2c0 7.68 4.48 13.76 11.52 14.4l2.88.32c11.84 1.28 19.52 12.48 19.52 24.96zM5146.28 241.76v-60.48c0-16-8.64-21.44-22.4-21.44s-19.84 6.72-24.64 12.16v69.76c0 15.68-12.8 28.8-28.8 28.8s-28.8-13.12-28.8-28.8V79.51c0-15.68 12.8-28.8 28.8-28.8s28.8 13.12 28.8 28.8v50.88c8.96-10.24 25.92-21.44 53.12-21.44 35.84 0 51.52 21.12 51.52 48v84.8c0 15.68-12.8 28.8-28.8 28.8s-28.8-13.12-28.8-28.8zM5309.47 108.95c45.44 0 80.32 32.64 80.32 70.72 0 21.76-12.16 28.16-34.24 28.16h-70.72c3.2 9.92 14.4 19.52 33.92 19.52 7.68 0 15.36-1.6 22.72-4.48 2.24-.96 5.12-1.6 8-1.6 11.84 0 21.76 9.6 21.76 21.76 0 8.96-6.08 16.96-14.08 20.16-14.72 5.44-31.04 8-45.76 8-48.32 0-86.08-30.4-86.08-81.28 0-44.8 34.24-80.96 84.16-80.96zm-25.28 62.4h50.88c-1.6-6.72-7.04-18.56-25.6-18.56-17.6 0-23.36 11.52-25.28 18.56zM5519.39 133.92c0 14.72-7.36 27.2-24 29.12-8 .96-21.76 2.56-28.16 10.24v68.48c0 15.68-12.8 28.8-28.8 28.8s-28.8-13.12-28.8-28.8V139.68c0-16.64 12.16-30.08 28.8-30.08 13.76 0 25.28 8.32 28.8 20.8 2.88-6.4 7.68-13.44 15.04-17.6 3.2-1.92 8.32-3.52 12.48-3.52 13.76 0 24.64 10.88 24.64 24.64zM5663.07 238.24V110.23h-32.32c-15.36 0-28.16-12.48-28.16-28.16s12.8-28.16 28.16-28.16h128.96c15.36 0 28.16 12.48 28.16 28.16s-12.8 28.16-28.16 28.16h-32v128.01c0 17.6-14.4 32.32-32.32 32.32s-32.32-14.72-32.32-32.32zM5930.91 173.92v65.92c0 16.96-11.84 30.72-28.8 30.72-12.48 0-23.68-7.36-28.48-18.56-8.32 11.2-27.52 19.2-47.04 19.2-23.04 0-53.12-15.68-53.12-50.88 0-38.4 30.08-47.68 53.12-47.68 20.16 0 38.4 6.4 46.72 16.96V172c0-10.88-9.92-19.2-28.8-19.2-9.28 0-19.2 2.24-29.44 7.04-2.56 1.28-5.44 1.92-8.32 1.92-11.52 0-20.8-9.28-20.8-20.8 0-8 4.8-15.36 11.52-18.56 19.2-9.6 40-13.44 57.6-13.44 38.4 0 75.84 13.44 75.84 64.96zm-57.6 51.52v-8.64c-3.84-5.44-13.76-8.32-22.72-8.32-9.6 0-20.16 3.2-20.16 12.8s10.56 12.48 20.16 12.48c8.96 0 18.88-2.88 22.72-8.32zM6132.19 189.92c0 53.12-30.72 81.28-68.16 81.28-15.68 0-30.4-5.44-43.52-20.16-3.52 11.52-16 19.52-28.8 19.52-16 0-28.8-13.12-28.8-28.8V79.51c0-15.68 12.8-28.8 28.8-28.8s28.8 13.12 28.8 28.8v49.6c12.16-14.72 27.84-20.16 43.52-20.16 38.08 0 68.16 29.76 68.16 80.96zm-58.88 0c0-19.2-13.12-30.08-28.8-30.08-7.68 0-18.56 3.84-24 10.56v39.68c5.44 6.72 16.32 10.24 24 10.24 15.68 0 28.8-10.88 28.8-30.4zM6145.94 237.92c0-12.48 10.24-22.72 22.72-22.72 3.52 0 6.72.96 9.6 2.24 13.76 6.4 29.44 10.88 40.96 10.88s15.36-3.2 15.36-7.36c0-5.12-7.04-7.04-21.76-8.96-25.92-3.52-65.92-8.32-65.92-50.24 0-27.84 24.32-52.8 69.12-52.8 17.6 0 34.24 3.84 49.28 10.56 7.36 3.2 12.8 10.56 12.8 19.2 0 11.52-9.6 21.12-21.12 21.12-3.2 0-6.4-.64-8.96-1.92-9.6-4.8-20.8-7.68-31.68-7.68-8.32 0-14.4 2.24-14.4 6.72s4.48 6.4 19.84 8.64c25.92 3.84 67.84 9.28 67.84 52.48 0 30.72-27.52 53.12-73.28 53.12-19.52 0-40-4.48-56.96-12.48-7.68-3.52-13.44-11.52-13.44-20.8z"/></g></g></svg>