<svg xmlns="http://www.w3.org/2000/svg" viewBox="0 0 1050.25 19.45"><path d="M525.65 0H0v16.51c5.98 0 5.98 2.93 11.95 2.93s5.98-2.93 11.95-2.93 5.97 2.93 11.95 2.93 5.97-2.93 11.95-2.93 5.97 2.93 11.95 2.93 5.97-2.93 11.95-2.93 5.97 2.93 11.95 2.93 5.97-2.93 11.95-2.93 5.97 2.93 11.95 2.93 5.97-2.93 11.95-2.93 5.97 2.93 11.95 2.93 5.97-2.93 11.95-2.93 5.97 2.93 11.95 2.93 5.97-2.93 11.95-2.93 5.97 2.93 11.95 2.93 5.97-2.93 11.95-2.93 5.97 2.93 11.95 2.93 5.97-2.93 11.95-2.93 5.97 2.93 11.95 2.93 5.97-2.93 11.95-2.93 5.97 2.93 11.95 2.93 5.97-2.93 11.95-2.93 5.97 2.93 11.95 2.93 5.97-2.93 11.95-2.93 5.97 2.93 11.95 2.93 5.97-2.93 11.95-2.93 5.97 2.93 11.95 2.93 5.97-2.93 11.95-2.93 5.97 2.93 11.95 2.93 5.97-2.93 11.95-2.93 5.97 2.93 11.95 2.93 5.97-2.93 11.95-2.93 5.97 2.93 11.95 2.93 5.97-2.93 11.95-2.93 5.97 2.93 11.95 2.93 5.97-2.93 11.95-2.93 5.97 2.93 11.95 2.93 5.97-2.93 11.95-2.93 5.97 2.93 11.95 2.93 5.97-2.93 11.95-2.93 5.97 2.93 11.95 2.93 5.97-2.93 11.95-2.93 5.97 2.93 11.95 2.93 5.86-2.86 11.7-2.91c5.07.28 5.38 2.91 11.04 2.91 5.98 0 5.98-2.93 11.95-2.93s5.97 2.93 11.95 2.93 5.97-2.93 11.95-2.93 5.97 2.93 11.95 2.93 5.97-2.93 11.95-2.93 5.97 2.93 11.95 2.93 5.97-2.93 11.95-2.93 5.98 2.93 11.95 2.93 5.97-2.93 11.95-2.93 5.97 2.93 11.95 2.93 5.97-2.93 11.95-2.93 5.97 2.93 11.95 2.93 5.97-2.93 11.95-2.93 5.97 2.93 11.95 2.93 5.97-2.93 11.95-2.93 5.97 2.93 11.95 2.93 5.97-2.93 11.95-2.93 5.97 2.93 11.95 2.93 5.97-2.93 11.95-2.93 5.97 2.93 11.95 2.93 5.97-2.93 11.95-2.93 5.97 2.93 11.95 2.93 5.97-2.93 11.95-2.93 5.97 2.93 11.95 2.93 5.97-2.93 11.95-2.93 5.97 2.93 11.95 2.93 5.97-2.93 11.95-2.93 5.97 2.93 11.95 2.93 5.97-2.93 11.95-2.93 5.97 2.93 11.95 2.93 5.97-2.93 11.95-2.93 5.97 2.93 11.95 2.93 5.97-2.93 11.95-2.93 5.97 2.93 11.95 2.93 5.97-2.93 11.95-2.93 5.97 2.93 11.95 2.93 5.97-2.93 11.95-2.93 5.97 2.93 11.95 2.93 5.97-2.93 11.95-2.93 5.97 2.93 11.95 2.93 5.97-2.93 11.95-2.93 5.97 2.93 11.95 2.93 5.86-2.87 11.72-2.91h.12V0H525.65z" fill="#852798"/></svg>