<svg xmlns="http://www.w3.org/2000/svg" viewBox="0 0 1917.96 195.83"><defs><style>.cls-2{fill:#f66271}.cls-3{fill:#529ab9}.cls-7,.cls-8{fill:none;stroke-linecap:round}.cls-8{stroke:#1b1950}.cls-5{fill:#fde23e}.cls-6{fill:#1b1950}.cls-7{stroke:#529ab9}.cls-8{stroke-miterlimit:10}</style></defs><g id="Layer_2" data-name="Layer 2"><g id="Layer_1-2" data-name="Layer 1"><path d="M1918 194.85V6.93c-24.31-.25-24.84-6.22-50.19-6.22-25.89 0-25.89 6.23-51.77 6.23S1790.11.71 1764.22.71s-25.88 6.23-51.77 6.23-25.89-6.23-51.77-6.23-25.89 6.23-51.78 6.23S1583 .71 1557.13.71s-25.89 6.23-51.78 6.23-25.88-6.23-51.77-6.23-25.89 6.23-51.77 6.23S1375.92.71 1350 .71s-25.88 6.23-51.77 6.23-25.86-6.23-51.74-6.23-25.89 6.23-51.78 6.23-25.88-6.23-51.77-6.23-25.89 6.23-51.77 6.23S1065.28.71 1039.4.71s-25.89 6.23-51.78 6.23S961.74.71 935.85.71V.8c-1.59-.06-3.29-.09-5.13-.09-25.88 0-25.88 6.23-51.72 6.23S853.06.71 827.17.71s-25.88 6.23-51.77 6.23S749.51.71 723.63.71s-25.89 6.23-51.78 6.23S646 .71 620.08.71s-25.89 6.23-51.77 6.23S542.42.71 516.53.71s-25.88 6.23-51.77 6.23S438.87.71 413 .71s-25.9 6.23-51.79 6.23S335.32.71 309.44.71s-25.89 6.23-51.77 6.23S231.78.71 205.89.71 180 6.94 154.12 6.94 128.23.71 102.35.71 76.46 6.94 50.57 6.94C25.1 6.94 24.68.91 0 .72v194.11z" fill="#f2f2f2"/><path class="cls-2" d="M586.35 194.79a97.3 97.3 0 0 0-194.6 0"/><circle class="cls-3" cx="419.81" cy="34.54" r="13.62"/><circle class="cls-2" cx="163.91" cy="112.48" r="12.07"/><path d="M54.69 195.33a61.27 61.27 0 1 1 122.54 0" stroke="#1b1950" fill="none" stroke-linecap="round"/><circle class="cls-3" cx="56.89" cy="45.01" r="5.25"/><circle class="cls-2" cx="1051.44" cy="74.56" r="15.57"/><circle class="cls-5" cx="1766.82" cy="35.71" r="15.57"/><circle class="cls-6" cx="1624.24" cy="168.18" r="4.96"/><circle class="cls-6" cx="1236.08" cy="33.38" r="3.14"/><circle class="cls-6" cx="1426.8" cy="41.52" r="10.79"/><circle class="cls-3" cx="1226.58" cy="109.58" r="24.93"/><path class="cls-7" d="M1567.32.84a53.19 53.19 0 1 1-89.44 2.27"/><circle class="cls-2" cx="1598.27" cy="119.31" r="9.73"/><circle class="cls-2" cx="1822.65" cy="154.48" r="5.69"/><circle class="cls-6" cx="970.32" cy="122.59" r="8.7"/><path class="cls-3" d="M1781.94 194.91a65.2 65.2 0 1 0-116.31 0z"/><path class="cls-5" d="M314.09.07c-1.46 0-3-.07-4.65-.07-25.89 0-25.89 6.23-51.78 6.23-22.47 0-25.44-4.69-42.76-5.93a49.82 49.82 0 0 0 49.58 45A49.83 49.83 0 0 0 314.09.07z"/><circle class="cls-3" cx="825.77" cy="118.3" r="9.73"/><circle class="cls-3" cx="1877.17" cy="52.38" r="13.57"/><rect class="cls-6" x="1644.52" y="40.73" width="10.85" height="42.77" rx="5.42" transform="rotate(-135 1649.939 62.115)"/><rect class="cls-2" x="1447.32" y="109.71" width="10.85" height="42.77" rx="5.42" transform="rotate(-135 1452.747 131.089)"/><rect class="cls-6" x="1875.31" y="121.27" width="8.43" height="33.27" rx="4.22" transform="rotate(-135 1879.533 137.905)"/><rect class="cls-3" x="642.38" y="141.11" width="10.85" height="42.77" rx="5.42" transform="rotate(-135 647.8 162.5)"/><rect class="cls-6" x="286.87" y="66.8" width="10.85" height="97.47" rx="5.42" transform="rotate(-135 292.292 115.533)"/><rect class="cls-6" x="1107.67" y="109.71" width="10.85" height="42.77" rx="5.42" transform="rotate(-135 1113.086 131.093)"/><rect class="cls-2" x="749.27" y="24.04" width="28.77" height="113.45" rx="14.38" transform="rotate(-135 763.65 80.767)"/><path class="cls-8" d="M1487.64 167.15l74.45-74.44M597.78 102.01l74.45-74.44M1114.25 78.75l27.92-27.92M874.39 189.49l49.68-49.67M1809.85 108.99l36.06-36.06M343.04 168.31l36.06-36.06M38.86 139.82l91.31-91.32"/><path class="cls-5" d="M1322.25 195.33l88.46-88.45a29.55 29.55 0 0 0 0-41.79 29.55 29.55 0 0 0-41.79 0l-123 123a29.61 29.61 0 0 0-5.31 7.22zM906.5 2.72a59.57 59.57 0 0 0 59.25 53.45A59.55 59.55 0 0 0 1025.14.82c-13 1.69-17.52 5.41-37.52 5.41-25.88 0-25.88-6.23-51.77-6.23v.09C934.26 0 932.56 0 930.72 0a93.32 93.32 0 0 0-24.22 2.72z"/><circle class="cls-8" cx="562.89" cy="68.28" r="15.12"/><circle class="cls-7" cx="225.94" cy="91.93" r="24.82"/><circle class="cls-3" cx="1031.66" cy="150.87" r="11.63"/></g></g></svg>