<svg xmlns="http://www.w3.org/2000/svg" viewBox="0 0 1917.96 194.83"><defs><style>.cls-2{fill:#f66271}.cls-3{fill:#529ab9}.cls-7,.cls-9{fill:none;stroke-linecap:round}.cls-8{fill:#852798}.cls-6{fill:#fff}.cls-7{stroke:#529ab9}.cls-9{stroke:#852798;stroke-miterlimit:10}</style></defs><g id="Layer_2" data-name="Layer 2"><g id="Layer_1-2" data-name="Layer 1"><path d="M1918 194.23V6.32c-24.35-.25-24.88-6.22-50.23-6.22-25.89 0-25.89 6.23-51.77 6.23S1790.11.1 1764.22.1s-25.88 6.23-51.77 6.23S1686.56.1 1660.68.1s-25.89 6.23-51.78 6.23S1583 .1 1557.13.1s-25.89 6.23-51.78 6.23S1479.47.1 1453.58.1s-25.89 6.23-51.77 6.23S1375.92.1 1350 .1s-25.88 6.23-51.77 6.23S1272.37.1 1246.49.1s-25.89 6.23-51.78 6.23S1168.83.1 1142.94.1s-25.89 6.23-51.77 6.23S1065.28.1 1039.4.1s-25.89 6.23-51.78 6.23S961.74.1 935.85.1v.09c-1.59-.06-3.29-.09-5.13-.09-25.88 0-25.88 6.23-51.72 6.23S853.06.1 827.17.1s-25.88 6.23-51.77 6.23S749.51.1 723.63.1s-25.89 6.23-51.78 6.23S646 .1 620.08.1s-25.89 6.23-51.77 6.23S542.42.1 516.53.1s-25.88 6.23-51.77 6.23S438.87.1 413 .1s-25.9 6.23-51.79 6.23S335.32.1 309.44.1s-25.89 6.23-51.77 6.23S231.78.1 205.89.1 180 6.33 154.12 6.33 128.23.1 102.35.1 76.46 6.33 50.57 6.33C25.1 6.33 24.68.3 0 .11v194.11z" fill="#fde23e"/><path class="cls-2" d="M586.35 193.7a97.3 97.3 0 0 0-194.6 0"/><circle class="cls-3" cx="419.81" cy="33.54" r="13.62"/><circle class="cls-2" cx="163.91" cy="111.48" r="12.07"/><path d="M54.69 194.33a61.27 61.27 0 1 1 122.54 0" stroke-linecap="round" stroke="#fff" fill="none"/><circle class="cls-3" cx="56.89" cy="44.01" r="5.25"/><circle class="cls-2" cx="1051.44" cy="73.56" r="15.57"/><circle cx="1766.82" cy="34.71" r="15.57" stroke="#1b1950" fill="#852798" stroke-linecap="round"/><circle class="cls-6" cx="1624.24" cy="167.18" r="4.96"/><circle class="cls-6" cx="1236.08" cy="32.38" r="3.14"/><circle class="cls-6" cx="1426.8" cy="40.52" r="10.79"/><circle class="cls-3" cx="1226.58" cy="108.58" r="24.93"/><path class="cls-7" d="M1567.32.84a53.19 53.19 0 1 1-89.44 2.27"/><circle class="cls-2" cx="1598.27" cy="118.31" r="9.73"/><circle class="cls-2" cx="1822.65" cy="153.48" r="5.69"/><circle class="cls-6" cx="970.32" cy="121.59" r="8.7"/><path class="cls-3" d="M1781.94 194.09a65.2 65.2 0 1 0-116.31 0z"/><path class="cls-8" d="M314.09.07c-1.46 0-3-.07-4.65-.07-25.89 0-25.89 6.23-51.78 6.23-22.47 0-25.44-4.69-42.76-5.93a49.82 49.82 0 0 0 49.58 45A49.83 49.83 0 0 0 314.09.07z"/><circle class="cls-3" cx="825.77" cy="117.3" r="9.73"/><circle class="cls-3" cx="1877.17" cy="51.38" r="13.57"/><rect class="cls-6" x="1644.52" y="39.73" width="10.85" height="42.77" rx="5.42" transform="rotate(-135 1649.94 61.113)"/><rect class="cls-2" x="1447.32" y="108.7" width="10.85" height="42.77" rx="5.42" transform="rotate(-135 1452.75 130.092)"/><rect class="cls-6" x="1875.31" y="120.27" width="8.43" height="33.27" rx="4.22" transform="rotate(-135 1879.53 136.905)"/><rect class="cls-3" x="642.38" y="140.11" width="10.85" height="42.77" rx="5.42" transform="rotate(-135 647.802 161.498)"/><rect class="cls-6" x="286.87" y="65.8" width="10.85" height="97.47" rx="5.42" transform="rotate(-135 292.295 114.536)"/><rect class="cls-6" x="1107.67" y="108.7" width="10.85" height="42.77" rx="5.42" transform="rotate(-135 1113.087 130.09)"/><rect class="cls-2" x="749.27" y="23.04" width="28.77" height="113.45" rx="14.38" transform="rotate(-135 763.652 79.77)"/><path class="cls-9" d="M1487.64 166.15l74.45-74.44M597.78 101.01l74.45-74.44M1114.25 77.75l27.92-27.92M868.81 184.07l55.26-55.26M1809.85 107.99l36.06-36.06M343.04 167.31l36.06-36.06M38.86 138.82l91.31-91.32"/><path class="cls-8" d="M1322.25 194.33l88.46-88.45a29.55 29.55 0 0 0 0-41.79 29.55 29.55 0 0 0-41.79 0l-123 123a29.85 29.85 0 0 0-5.31 7.23zM906.5 2.72a59.57 59.57 0 0 0 59.25 53.45A59.55 59.55 0 0 0 1025.14.82c-13 1.69-17.52 5.41-37.52 5.41-25.88 0-25.88-6.23-51.77-6.23v.09C934.26 0 932.56 0 930.72 0a93.32 93.32 0 0 0-24.22 2.72z"/><circle class="cls-9" cx="562.89" cy="67.28" r="15.12"/><circle class="cls-7" cx="225.94" cy="90.93" r="24.82"/><circle class="cls-3" cx="1031.66" cy="149.87" r="11.63"/></g></g></svg>